<svg width="133" height="36" viewBox="0 0 133 36" fill="none" xmlns="http://www.w3.org/2000/svg">
<path d="M118.885 26.2764C117.606 26.2764 116.445 25.974 115.401 25.3692C114.357 24.7476 113.524 23.9076 112.902 22.8492C112.296 21.774 111.993 20.556 111.993 19.1952C111.993 17.8512 112.296 16.65 112.902 15.5916C113.507 14.5332 114.324 13.7016 115.351 13.0968C116.394 12.4752 117.572 12.1644 118.885 12.1644C120.198 12.1644 121.368 12.4668 122.395 13.0716C123.438 13.6764 124.254 14.508 124.844 15.5664C125.449 16.6248 125.752 17.8344 125.752 19.1952C125.752 20.5728 125.441 21.7992 124.818 22.8744C124.196 23.9328 123.362 24.7644 122.319 25.3692C121.292 25.974 120.148 26.2764 118.885 26.2764ZM118.885 24.3864C119.794 24.3864 120.61 24.1596 121.334 23.706C122.075 23.2524 122.655 22.6308 123.076 21.8412C123.514 21.0516 123.733 20.1696 123.733 19.1952C123.733 18.2208 123.514 17.3472 123.076 16.5744C122.655 15.8016 122.075 15.1884 121.334 14.7348C120.61 14.2812 119.794 14.0544 118.885 14.0544C117.976 14.0544 117.151 14.2812 116.411 14.7348C115.687 15.1884 115.106 15.8016 114.669 16.5744C114.231 17.3472 114.012 18.2208 114.012 19.1952C114.012 20.1696 114.231 21.0516 114.669 21.8412C115.106 22.6308 115.687 23.2524 116.411 23.706C117.151 24.1596 117.976 24.3864 118.885 24.3864Z" fill="white"/>
<path d="M109.132 26.1252C107.92 26.1252 106.986 25.7724 106.329 25.0668C105.673 24.3612 105.345 23.3532 105.345 22.0428V14.3568H102.845V12.4668H103.476C104.049 12.4668 104.503 12.282 104.84 11.9124C105.176 11.526 105.345 11.0472 105.345 10.476V9.34201H107.238V12.4668H110.218V14.3568H107.238V22.0428C107.238 22.4964 107.306 22.8996 107.44 23.2524C107.575 23.5884 107.802 23.8572 108.122 24.0588C108.459 24.2604 108.905 24.3612 109.46 24.3612C109.595 24.3612 109.755 24.3528 109.94 24.336C110.125 24.3192 110.285 24.3024 110.42 24.2856V25.974C110.218 26.0244 109.99 26.058 109.738 26.0748C109.485 26.1084 109.283 26.1252 109.132 26.1252Z" fill="white"/>
<path d="M99.1017 25.974V23.202H101.121V25.974H99.1017Z" fill="white"/>
<path d="M84.4773 25.974V12.4668H86.3709V15.0876L85.9417 14.9868C86.2783 14.1132 86.8253 13.4244 87.5827 12.9204C88.357 12.4164 89.2491 12.1644 90.259 12.1644C91.2184 12.1644 92.0768 12.3828 92.8342 12.8196C93.6085 13.2564 94.2144 13.8612 94.652 14.634C95.1065 15.39 95.3337 16.2468 95.3337 17.2044V25.974H93.4402V17.9352C93.4402 17.112 93.2887 16.4148 92.9857 15.8436C92.6996 15.2724 92.2872 14.8356 91.7486 14.5332C91.2268 14.214 90.6209 14.0544 89.9308 14.0544C89.2407 14.0544 88.6263 14.214 88.0877 14.5332C87.5491 14.8356 87.1283 15.2808 86.8253 15.8688C86.5224 16.44 86.3709 17.1288 86.3709 17.9352V25.974H84.4773Z" fill="white"/>
<path d="M74.6999 26.2764C73.8414 26.2764 73.0756 26.1168 72.4023 25.7976C71.7291 25.4616 71.1989 25.008 70.8117 24.4368C70.4246 23.8656 70.231 23.2104 70.231 22.4712C70.231 21.7656 70.3825 21.1272 70.6855 20.556C70.9885 19.968 71.4598 19.4724 72.0994 19.0692C72.739 18.666 73.5553 18.3804 74.5484 18.2124L79.8503 17.3304V19.044L75.0028 19.8504C74.0266 20.0184 73.3197 20.3292 72.882 20.7828C72.4612 21.2364 72.2508 21.774 72.2508 22.3956C72.2508 23.0004 72.4865 23.5128 72.9578 23.9328C73.4459 24.3528 74.0687 24.5628 74.8261 24.5628C75.7518 24.5628 76.5597 24.3696 77.2498 23.9832C77.9399 23.58 78.4785 23.0424 78.8657 22.3704C79.2528 21.6984 79.4464 20.9508 79.4464 20.1276V16.7004C79.4464 15.894 79.1518 15.2388 78.5627 14.7348C77.9736 14.2308 77.2078 13.9788 76.2652 13.9788C75.4404 13.9788 74.7167 14.1888 74.0939 14.6088C73.4711 15.012 73.0083 15.5412 72.7053 16.1964L70.9885 15.264C71.2409 14.6928 71.6365 14.172 72.1751 13.7016C72.7305 13.2312 73.3617 12.8616 74.0687 12.5928C74.7756 12.3072 75.5078 12.1644 76.2652 12.1644C77.2583 12.1644 78.1335 12.3576 78.8909 12.744C79.6652 13.1304 80.2627 13.668 80.6835 14.3568C81.1211 15.0288 81.3399 15.81 81.3399 16.7004V25.974H79.4464V23.2776L79.7241 23.5548C79.4885 24.0588 79.1182 24.5208 78.6132 24.9408C78.1251 25.344 77.5444 25.6716 76.8711 25.9236C76.2147 26.1588 75.4909 26.2764 74.6999 26.2764Z" fill="white"/>
<path d="M66.0269 25.974V12.4668H67.9205V25.974H66.0269ZM66.0269 9.97201V7.20001H67.9205V9.97201H66.0269Z" fill="white"/>
<path d="M56.8469 25.974L51.5702 12.4668H53.691L58.1345 24.3108H57.4529L61.9217 12.4668H64.0677L58.7405 25.974H56.8469Z" fill="white"/>
<path d="M43.4433 25.974V12.4668H45.3368V14.6844L45.0844 14.3568C45.4042 13.7184 45.8839 13.2144 46.5235 12.8448C47.1799 12.4752 47.971 12.2904 48.8967 12.2904H49.7551V14.1804H48.5685C47.5923 14.1804 46.8096 14.4828 46.2205 15.0876C45.6314 15.6924 45.3368 16.5492 45.3368 17.658V25.974H43.4433Z" fill="white"/>
<path d="M33.6658 26.2764C32.8074 26.2764 32.0415 26.1168 31.3683 25.7976C30.695 25.4616 30.1648 25.008 29.7777 24.4368C29.3906 23.8656 29.197 23.2104 29.197 22.4712C29.197 21.7656 29.3485 21.1272 29.6515 20.556C29.9544 19.968 30.4257 19.4724 31.0653 19.0692C31.7049 18.666 32.5212 18.3804 33.5143 18.2124L38.8163 17.3304V19.044L33.9688 19.8504C32.9925 20.0184 32.2856 20.3292 31.848 20.7828C31.4272 21.2364 31.2168 21.774 31.2168 22.3956C31.2168 23.0004 31.4524 23.5128 31.9237 23.9328C32.4118 24.3528 33.0346 24.5628 33.792 24.5628C34.7178 24.5628 35.5257 24.3696 36.2158 23.9832C36.9059 23.58 37.4445 23.0424 37.8316 22.3704C38.2188 21.6984 38.4123 20.9508 38.4123 20.1276V16.7004C38.4123 15.894 38.1178 15.2388 37.5287 14.7348C36.9396 14.2308 36.1737 13.9788 35.2311 13.9788C34.4064 13.9788 33.6826 14.1888 33.0599 14.6088C32.4371 15.012 31.9742 15.5412 31.6712 16.1964L29.9544 15.264C30.2069 14.6928 30.6024 14.172 31.1411 13.7016C31.6965 13.2312 32.3277 12.8616 33.0346 12.5928C33.7415 12.3072 34.4737 12.1644 35.2311 12.1644C36.2242 12.1644 37.0995 12.3576 37.8569 12.744C38.6311 13.1304 39.2287 13.668 39.6494 14.3568C40.0871 15.0288 40.3059 15.81 40.3059 16.7004V25.974H38.4123V23.2776L38.69 23.5548C38.4544 24.0588 38.0841 24.5208 37.5792 24.9408C37.091 25.344 36.5103 25.6716 35.8371 25.9236C35.1806 26.1588 34.4569 26.2764 33.6658 26.2764Z" fill="white"/>
<path d="M15.9456 28.998L24.3278 8.20801H27.9382L19.556 28.998H15.9456Z" fill="white"/>
<path d="M7.21356 28.998L15.5957 8.20801H19.2061L10.8239 28.998H7.21356Z" fill="white"/>
</svg>
