<svg width="49" height="49" viewBox="0 0 49 49" fill="none" xmlns="http://www.w3.org/2000/svg">
<path fill-rule="evenodd" clip-rule="evenodd" d="M19.353 9.36436C11.823 14.2004 7.63967 19.8294 6.80301 26.2514C5.50001 36.2484 14.44 41.1414 18.97 36.7454C23.5 32.3494 20.785 26.7684 17.505 25.2424C14.225 23.7164 12.219 24.2484 12.569 22.2094C12.919 20.1704 17.585 14.5194 21.685 11.8874C21.8301 11.7637 21.9226 11.5894 21.9438 11.3999C21.965 11.2104 21.9132 11.02 21.799 10.8674L20.785 9.54836C20.345 8.97636 19.923 8.99836 19.353 9.36336M39.179 9.36436C31.649 14.2004 27.4657 19.8294 26.629 26.2514C25.325 36.2484 34.265 41.1414 38.795 36.7454C43.325 32.3494 40.61 26.7684 37.329 25.2424C34.048 23.7164 32.043 24.2484 32.393 22.2094C32.743 20.1704 37.41 14.5194 41.51 11.8874C41.6549 11.7635 41.7473 11.5892 41.7683 11.3997C41.7893 11.2103 41.7373 11.0199 41.623 10.8674L40.61 9.54836C40.17 8.97636 39.748 8.99836 39.179 9.36336" fill="#E4B600"/>
</svg>
