<svg width="40" height="48" viewBox="0 0 40 48" fill="none" xmlns="http://www.w3.org/2000/svg">
<rect x="0.799805" width="39" height="48" fill="black" fill-opacity="0.01"/>
<path d="M13.1748 5H17.2568V6.70703H14.8818V8.41406H17.2568V10.1211H13.1748V5Z" fill="white"/>
<path d="M18.0735 5H22.1555V6.48437H19.7805V6.78125H22.1555V10.1953H18.0735V8.63672H20.4485V8.33984H18.0735V5Z" fill="white"/>
<path d="M22.9714 5H27.0535V6.48437H24.6785V6.78125H27.0535V10.1953H22.9714V8.63672H25.3464V8.33984H22.9714V5Z" fill="white"/>
<path d="M31.3076 39.9435L20.2832 43.0001L9.28906 39.9484L6.83887 12.4679H33.7607L31.3076 39.9435ZM11.8486 18.0851L12.1553 21.4552H25.0371L24.7305 24.9064H12.4551L12.7578 28.2765H24.4385L24.0469 32.6476L20.2881 33.6622L20.2852 33.6632L16.5312 32.6495L16.292 29.962H12.9082L13.3809 35.254L20.2842 37.17L20.2998 37.1661V37.1652L27.1973 35.254L27.248 34.6847L28.04 25.8116L28.1221 24.9064L28.7305 18.0851H11.8486Z" fill="white"/>
</svg>
