<svg width="142" height="48" viewBox="0 0 142 48" fill="none" xmlns="http://www.w3.org/2000/svg">
<rect x="0.560059" width="141.08" height="48" fill="black" fill-opacity="0.01"/>
<path d="M35.944 18.9663L27.944 14.3476C27.7438 14.232 27.4971 14.232 27.2969 14.3476L19.2968 18.9663C19.0967 19.0819 18.9731 19.2955 18.9731 19.5267V28.7642C18.9731 28.9953 19.0967 29.209 19.2968 29.3248L27.2969 33.9435C27.4971 34.0592 27.7438 34.0592 27.944 33.9435L35.944 29.3248C36.1441 29.2092 36.2675 28.9954 36.2675 28.7642V19.5267C36.2673 19.2955 36.144 19.0819 35.944 18.9663Z" fill="#9FA3A9"/>
<path d="M6.82057 23.1736L16.379 6.54475C16.7262 5.9435 17.3676 5.5 18.0618 5.5H37.1789C37.8733 5.5 38.5148 5.9435 38.8621 6.54475L48.4204 23.1369C48.7677 23.7384 48.7677 24.4973 48.4204 25.0988L38.8621 41.5913C38.5148 42.1926 37.8733 42.5 37.1789 42.5H18.0619C17.3677 42.5 16.7262 42.2018 16.3791 41.6005L6.82073 25.0809C6.4732 24.4799 6.4732 23.7749 6.82057 23.1736ZM14.7355 31.1699C14.7355 31.4144 14.8826 31.6405 15.0945 31.7629L27.2698 38.7874C27.4816 38.9097 27.7469 38.9097 27.9586 38.7874L40.1434 31.7629C40.3551 31.6405 40.5033 31.4145 40.5033 31.1699V17.1206C40.5033 16.876 40.3573 16.6501 40.1453 16.5277L27.9705 9.5031C27.7588 9.38071 27.4938 9.38071 27.2821 9.5031L15.0965 16.5277C14.8846 16.6501 14.7355 16.876 14.7355 17.1206V31.1699Z" fill="white"/>
<path d="M61.5505 33.3841V14.616H73.5085V17.5384H64.7947V22.4718H72.7576V25.3942H64.7947V30.4616H73.6425V33.3841H61.5505Z" fill="white"/>
<path d="M82.1058 33.7594C80.6761 33.7594 79.4067 33.5092 78.2986 33.0087C77.2084 32.4903 76.3503 31.7486 75.7245 30.7834C75.0994 29.8181 74.7861 28.6384 74.7861 27.2442V26.5471H77.9771V27.2442C77.9771 28.4776 78.3522 29.3981 79.103 30.0058C79.8539 30.6135 80.8548 30.9174 82.1058 30.9174C83.3752 30.9174 84.3315 30.6582 84.9745 30.1399C85.6182 29.6215 85.9397 28.9512 85.9397 28.129C85.9397 27.5749 85.7879 27.128 85.4842 26.7884C85.1806 26.431 84.7334 26.1449 84.1433 25.9304C83.5717 25.716 82.8745 25.5104 82.0522 25.3137L81.2477 25.1529C80.0146 24.8669 78.9423 24.5094 78.0306 24.0804C77.1369 23.6336 76.4486 23.0616 75.9663 22.3645C75.4834 21.6674 75.2423 20.7558 75.2423 19.6297C75.2423 18.5036 75.5102 17.5384 76.0467 16.7341C76.5825 15.9297 77.3423 15.313 78.3254 14.8841C79.3084 14.4551 80.4612 14.2406 81.7842 14.2406C83.1067 14.2406 84.2868 14.464 85.3235 14.9109C86.3601 15.3577 87.1735 16.028 87.7629 16.9218C88.3709 17.8154 88.6745 18.9326 88.6745 20.2732V21.158H85.4842V20.2732C85.4842 19.5046 85.3324 18.8879 85.0281 18.4232C84.7245 17.9585 84.2958 17.6188 83.7414 17.4044C83.187 17.1899 82.5351 17.0826 81.7842 17.0826C80.6762 17.0826 79.836 17.2971 79.2638 17.7261C78.6922 18.1551 78.4058 18.7628 78.4058 19.5493C78.4058 20.0498 78.5308 20.4787 78.7815 20.8362C79.0494 21.1759 79.4335 21.4619 79.9342 21.6942C80.4522 21.9087 81.0959 22.0964 81.8646 22.2572L82.669 22.4449C83.9558 22.731 85.0817 23.0974 86.0475 23.5442C87.0127 23.9732 87.7629 24.5452 88.2994 25.2602C88.8538 25.9752 89.1307 26.9046 89.1307 28.0486C89.1307 29.1746 88.8359 30.1667 88.2458 31.0246C87.6736 31.8826 86.8603 32.5529 85.8058 33.0355C84.7691 33.5181 83.536 33.7594 82.1058 33.7594Z" fill="white"/>
<path d="M91.1523 33.3841V14.616H94.3962V30.4616H103.191V33.3841H91.1523Z" fill="white"/>
<path d="M105.012 33.3841V20.1392H108.096V33.3841H105.012ZM106.541 18.4501C105.987 18.4501 105.504 18.2713 105.093 17.9139C104.7 17.5384 104.503 17.0469 104.503 16.4392C104.503 15.8315 104.7 15.3489 105.093 14.9914C105.504 14.616 105.987 14.4283 106.541 14.4283C107.131 14.4283 107.613 14.616 107.989 14.9914C108.382 15.3489 108.579 15.8315 108.579 16.4392C108.579 17.0469 108.382 17.5384 107.989 17.9139C107.613 18.2713 107.131 18.4501 106.541 18.4501Z" fill="white"/>
<path d="M111.199 33.3841V20.1392H114.229V21.9892H114.685C114.917 21.4886 115.337 21.015 115.945 20.5681C116.553 20.1212 117.473 19.8978 118.706 19.8978C119.726 19.8978 120.628 20.1302 121.414 20.5949C122.201 21.0597 122.809 21.7031 123.238 22.5253C123.685 23.3476 123.908 24.3218 123.908 25.4478V33.3841H120.825V25.6892C120.825 24.6167 120.556 23.8212 120.021 23.3029C119.502 22.7667 118.76 22.4985 117.795 22.4985C116.705 22.4985 115.847 22.865 115.221 23.5978C114.596 24.3128 114.283 25.3406 114.283 26.6811V33.3841H111.199Z" fill="white"/>
<path d="M131.565 33.3841C130.707 33.3841 130.018 33.1339 129.5 32.6334C128.999 32.115 128.749 31.4179 128.749 30.5421V22.6863H125.291V20.1392H128.749V15.8761H131.833V20.1392H135.64V22.6863H131.833V30.0327C131.833 30.5689 132.083 30.837 132.583 30.837H135.238V33.3841H131.565Z" fill="white"/>
</svg>
