<svg width="126" height="48" viewBox="0 0 126 48" fill="none" xmlns="http://www.w3.org/2000/svg">
<rect x="0.754883" width="125.09" height="48" fill="black" fill-opacity="0.01"/>
<path fill-rule="evenodd" clip-rule="evenodd" d="M6.75366 12.4225C6.75366 8.59931 9.85297 5.5 13.6762 5.5H25.5544C29.3776 5.5 32.4769 8.59931 32.4769 12.4225C32.4769 14.8434 31.2342 16.974 29.352 18.2113C31.2342 19.4486 32.4769 21.5793 32.4769 24.0001C32.4769 27.8233 29.3776 30.9227 25.5544 30.9227H25.404C23.6117 30.9227 21.9784 30.2415 20.749 29.1239V35.5023C20.749 39.3765 17.5687 42.5 13.7135 42.5C9.89983 42.5 6.75366 39.4102 6.75366 35.5775C6.75366 33.1567 7.99624 31.0261 9.87837 29.7888C7.99623 28.5515 6.75366 26.4209 6.75366 24.0001C6.75366 21.5793 7.99634 19.4486 9.87861 18.2113C7.99634 16.974 6.75366 14.8434 6.75366 12.4225ZM18.4815 19.3452V28.655H13.6762C13.6663 28.655 13.6565 28.655 13.6466 28.655C11.0893 28.6391 9.0212 26.5612 9.0212 24.0001C9.0212 21.4293 11.1053 19.3452 13.6762 19.3452H18.4815ZM13.6466 30.9226C11.0893 30.9385 9.0212 33.0165 9.0212 35.5775C9.0212 38.1389 11.1331 40.2325 13.7135 40.2325C16.3354 40.2325 18.4815 38.1052 18.4815 35.5023V30.9227H13.6762C13.6663 30.9227 13.6565 30.9226 13.6466 30.9226ZM20.749 24.0001C20.749 26.571 22.8331 28.6551 25.404 28.6551H25.5544C28.1253 28.6551 30.2094 26.571 30.2094 24.0001C30.2094 21.4293 28.1253 19.3452 25.5544 19.3452H25.404C22.8331 19.3452 20.749 21.4293 20.749 24.0001ZM20.749 17.0775H25.5544C28.1253 17.0775 30.2094 14.9934 30.2094 12.4225C30.2094 9.85164 28.1253 7.76753 25.5544 7.76753H20.749V17.0775ZM18.4815 7.76753H13.6762C11.1053 7.76753 9.0212 9.85164 9.0212 12.4225C9.0212 14.9934 11.1053 17.0775 13.6762 17.0775H18.4815V7.76753Z" fill="white"/>
<path d="M42.4736 13.7401V35.4053L45.2613 35.4139V25.0966H51.9826V22.3696H45.2613V16.4658H54.0148V13.7388L42.4736 13.7401Z" fill="white"/>
<path d="M59.0325 18.138C60.0366 18.138 60.8505 17.3241 60.8505 16.32C60.8505 15.3159 60.0366 14.5019 59.0325 14.5019C58.0284 14.5019 57.2144 15.3159 57.2144 16.32C57.2144 17.3241 58.0284 18.138 59.0325 18.138Z" fill="white"/>
<path d="M57.6144 20.8651V35.4096H60.4021V20.8651H57.6144Z" fill="white"/>
<path fill-rule="evenodd" clip-rule="evenodd" d="M70.7415 20.4409C67.0397 20.4409 64.4563 23.5717 64.4563 27.2889C64.4563 31.0061 67.0397 34.1369 70.7415 34.1369C72.4363 34.1369 73.833 33.4807 74.8495 32.4127V34.349C74.8495 36.7587 72.9566 38.7729 70.4862 38.7729C69.5982 38.7729 68.716 38.4287 68.0131 37.9443L66.6163 40.3635C67.7318 41.0826 69.0603 41.5 70.4862 41.5C74.4356 41.5 77.6371 38.2984 77.6371 34.349V20.8651H74.8495V22.1652C73.833 21.097 72.4363 20.4409 70.7415 20.4409ZM67.244 27.2889C67.244 24.9816 69.0089 23.168 71.0446 23.168C73.0803 23.168 74.8452 24.9816 74.8452 27.2889C74.8452 29.5962 73.0803 31.4098 71.0446 31.4098C69.0089 31.4098 67.244 29.5962 67.244 27.2889Z" fill="white"/>
<path d="M87.6819 23.168C86.0336 23.168 84.6973 24.5648 84.6973 26.2132V35.4096H81.9096V20.8651H84.6973V22.1975C85.5141 21.1416 86.7175 20.4409 88.2879 20.4409C90.2413 20.4409 91.7405 21.4111 92.6088 22.8959C93.5743 21.4617 95.1493 20.4409 97.0449 20.4409C100.218 20.4409 102.193 23.0007 102.211 26.1677C102.211 26.1773 102.211 26.1868 102.211 26.1965V26.198C102.211 26.2031 102.211 26.2081 102.211 26.2132V35.4096H99.4236V26.2132C99.4236 24.5648 98.0873 23.168 96.4389 23.168C94.7904 23.168 93.4543 24.5648 93.4543 26.2132V35.4096H90.6666V26.2132C90.6666 24.5648 89.3303 23.168 87.6819 23.168Z" fill="white"/>
<path fill-rule="evenodd" clip-rule="evenodd" d="M117.059 22.5139C115.818 21.2333 114.12 20.4409 112.15 20.4409C108.003 20.4409 105.06 23.9522 105.06 28.1373C105.06 32.3224 108.003 35.8337 112.15 35.8337C114.12 35.8337 115.818 35.0414 117.059 33.7608V35.4096H119.846V20.8651H117.059V22.5139ZM107.847 28.1373C107.847 25.3608 109.973 23.168 112.453 23.168C114.933 23.168 117.059 25.3608 117.059 28.1373C117.059 30.9139 114.933 33.1066 112.453 33.1066C109.973 33.1066 107.847 30.9139 107.847 28.1373Z" fill="white"/>
</svg>
