<svg width="124" height="48" viewBox="0 0 124 48" fill="none" xmlns="http://www.w3.org/2000/svg">
<rect x="0.915039" width="122.77" height="48" fill="black" fill-opacity="0.01"/>
<path d="M6.91382 6H30.9138V18H18.9138L6.91382 6ZM6.91382 18H18.9138L30.9138 30H6.91382V18ZM6.91382 30H18.9138V42L6.91382 30Z" fill="white"/>
<path d="M44.4556 15.4668H54.1568V18.5496H48.1274V22.8336H54.1568V25.8483H48.1274V31.3336H44.4556V15.4668ZM56.1514 20.408H59.6196V22.6974C59.8008 21.9107 60.1714 21.3068 60.7303 20.884C61.3034 20.4453 61.9398 20.2268 62.6343 20.2268C62.9972 20.2268 63.2997 20.2576 63.5407 20.3174V23.5363C63.1948 23.4946 62.8467 23.4721 62.4981 23.4683C61.5461 23.4683 60.8291 23.7774 60.3448 24.3972C59.8623 25.0017 59.6196 25.9081 59.6196 27.1176V31.3336H56.1531V20.408H56.1514ZM69.0156 31.6284C67.9582 31.6284 67.0358 31.3786 66.2501 30.8801C65.4793 30.3816 64.8666 29.6739 64.4823 28.8399C64.0744 27.9642 63.869 26.9732 63.869 25.8708C63.869 24.7826 64.0821 23.7999 64.5048 22.9242C64.9012 22.0781 65.5304 21.3628 66.3182 20.8615C67.1181 20.363 68.0328 20.1132 69.0611 20.1132C69.8314 20.1132 70.5199 20.2801 71.1238 20.6122C71.7278 20.9455 72.1812 21.399 72.4838 21.9722V20.408H75.9289V31.3336H72.4838V29.7919C72.1812 30.336 71.7129 30.7812 71.0783 31.1293C70.4436 31.4659 69.7342 31.6372 69.0156 31.6284ZM70.0132 28.7493C70.8438 28.7493 71.4862 28.4775 71.9397 27.9335C72.3932 27.3894 72.6199 26.7015 72.6199 25.8708C72.6199 25.0549 72.3932 24.3747 71.9397 23.8306C71.4862 23.2865 70.8438 23.0148 70.0132 23.0148C69.2264 23.0148 68.5928 23.2788 68.1091 23.8081C67.6408 24.3374 67.4064 25.0242 67.4064 25.8708C67.4064 26.7174 67.6408 27.4119 68.1091 27.956C68.5928 28.4852 69.2275 28.7493 70.0132 28.7493ZM78.3545 20.408H81.8226V21.9947C82.0653 21.4347 82.4573 20.9812 83.0008 20.6348C83.5608 20.2883 84.2103 20.1132 84.9504 20.1132C86.6733 20.1132 87.8147 20.7852 88.373 22.1308C88.6805 21.5209 89.1614 21.0163 89.756 20.6803C90.3918 20.2977 91.122 20.1016 91.8637 20.1132C94.448 20.1132 95.7398 21.5933 95.7398 24.5559V31.3336H92.2491V25.1905C92.2491 24.451 92.113 23.9069 91.8412 23.5588C91.5689 23.2119 91.161 23.0373 90.6169 23.0373C90.0278 23.0373 89.5743 23.2415 89.257 23.6494C88.9396 24.0425 88.781 24.7294 88.781 25.7121V31.3336H85.2903V25.168C85.2903 24.428 85.1547 23.891 84.8823 23.5588C84.6265 23.2119 84.2252 23.0373 83.6822 23.0373C83.0772 23.0373 82.616 23.2415 82.2986 23.6494C81.9813 24.0425 81.8226 24.7294 81.8226 25.7121V31.3336H78.3556V20.408H78.3545ZM108.768 25.3042C108.768 25.772 108.737 26.2787 108.676 26.8228H100.608C100.639 27.5332 100.88 28.0762 101.333 28.455C101.787 28.8322 102.4 29.0216 103.169 29.0216C104.243 29.0216 104.923 28.6961 105.209 28.0466H108.609C108.443 29.1199 107.853 29.9879 106.841 30.6533C105.844 31.3028 104.62 31.6284 103.169 31.6284C101.296 31.6284 99.8224 31.1216 98.749 30.1092C97.6916 29.0963 97.1624 27.6842 97.1624 25.8708C97.1624 24.692 97.4039 23.6719 97.8876 22.8105C98.3548 21.9502 99.0751 21.254 99.9503 20.8159C100.842 20.3482 101.877 20.1132 103.057 20.1132C104.174 20.1132 105.164 20.3322 106.025 20.7709C106.901 21.2096 107.575 21.8212 108.042 22.6068C108.527 23.3936 108.768 24.2923 108.768 25.3042ZM105.344 24.6695C105.329 23.9443 105.125 23.3919 104.732 23.0148C104.34 22.6376 103.772 22.4482 103.032 22.4482C102.292 22.4482 101.703 22.6519 101.264 23.0603C100.841 23.4534 100.622 23.9893 100.606 24.6695H105.344ZM110.297 20.408H113.765V22.6974C113.947 21.9107 114.317 21.3068 114.876 20.884C115.418 20.4569 116.089 20.2252 116.78 20.2268C117.142 20.2268 117.445 20.2576 117.686 20.3174V23.5363C117.341 23.4946 116.993 23.4721 116.644 23.4683C115.692 23.4683 114.975 23.7774 114.491 24.3972C114.006 25.0017 113.765 25.9081 113.765 27.1176V31.3336H110.297V20.408Z" fill="white"/>
</svg>
