<svg width="101" height="48" viewBox="0 0 101 48" fill="none" xmlns="http://www.w3.org/2000/svg">
<rect x="0.409912" width="100.58" height="48" fill="black" fill-opacity="0.01"/>
<path d="M59.4968 18.0942C57.5557 18.0942 56.1092 19.0483 56.1092 21.3427C56.1092 23.0712 57.0612 24.2723 59.3921 24.2723C61.368 24.2723 62.7103 23.1093 62.7103 21.2713C62.7103 19.1891 61.5092 18.0942 59.4968 18.0942ZM55.6147 34.3C55.1551 34.8639 54.6971 35.4642 54.6971 36.1709C54.6971 37.5825 56.4957 38.006 58.9674 38.006C61.0163 38.006 63.8052 37.8632 63.8052 35.9603C63.8052 34.8273 62.4633 34.7576 60.7677 34.6513L55.6147 34.3ZM66.0646 18.2005C66.6987 19.0134 67.3708 20.1432 67.3708 21.7674C67.3708 25.6844 64.2997 27.9804 59.8517 27.9804C58.7203 27.9804 57.6969 27.8392 57.0612 27.6619L55.897 29.5332L59.3556 29.7441C65.4643 30.1336 69.0644 30.3112 69.0644 35.0046C69.0644 39.0644 65.4992 41.3591 59.3556 41.3591C52.9666 41.3591 50.5298 39.7349 50.5298 36.9457C50.5298 35.3567 51.2365 34.5118 52.4725 33.3443C51.3062 32.853 50.9197 31.9703 50.9197 31.0163C50.9197 30.2398 51.3063 29.5332 51.9431 28.8614C52.5784 28.1913 53.2838 27.5208 54.1316 26.7443C52.4027 25.8965 51.0953 24.0602 51.0953 21.4474C51.0953 17.3876 53.7779 14.6 59.1799 14.6C60.6979 14.6 61.6155 14.7395 62.4284 14.9537H69.3131V17.9531L66.0651 18.2005" fill="white"/>
<path d="M75.5232 11.7843C73.5108 11.7843 72.3462 10.6201 72.3462 8.60566C72.3462 6.59485 73.5108 5.5 75.5232 5.5C77.5718 5.5 78.7368 6.59526 78.7368 8.60566C78.7368 10.6197 77.5722 11.7843 75.5232 11.7843ZM70.969 33.0019V30.2127L72.7693 29.9668C73.2638 29.8959 73.3347 29.7896 73.3347 29.2586V18.88C73.3347 18.4934 73.2289 18.2447 72.8755 18.1401L70.969 17.4683L71.3572 14.6097H78.6654V29.2594C78.6654 29.8269 78.7003 29.8963 79.2313 29.9677L81.0312 30.2135V33.0023L70.969 33.0019Z" fill="white"/>
<path d="M94.9913 31.6324C93.4733 32.3727 91.2499 33.0445 89.2363 33.0445C85.0354 33.0445 83.4476 31.3509 83.4476 27.3593V18.1117C83.4476 17.8991 83.4476 17.7584 83.1637 17.7584H80.6921V14.6162C83.801 14.2629 85.0354 12.7084 85.4236 8.86081H88.7783V13.8747C88.7783 14.1217 88.7783 14.2276 89.0602 14.2276H94.0376V17.7584H88.7783V26.1947C88.7783 28.2781 89.2724 29.0894 91.1789 29.0894C92.1675 29.0894 93.191 28.8424 94.0376 28.5256L94.9913 31.6324Z" fill="white"/>
<path d="M42.6829 22.3678L26.5409 6.22733C26.3198 6.00621 26.0574 5.8308 25.7685 5.71113C25.4797 5.59146 25.1701 5.52986 24.8574 5.52986C24.5448 5.52986 24.2352 5.59146 23.9463 5.71113C23.6575 5.8308 23.395 6.00621 23.174 6.22733L19.8221 9.57882L24.0733 13.8317C24.5731 13.6613 25.1106 13.6344 25.6249 13.754C26.1392 13.8736 26.6097 14.1349 26.983 14.5083C27.3582 14.8841 27.6201 15.3578 27.7389 15.8753C27.8576 16.3928 27.8285 16.9333 27.6548 17.4351L31.7527 21.5342C32.2543 21.3598 32.795 21.3303 33.3126 21.4492C33.8302 21.5681 34.3038 21.8305 34.679 22.2063C34.9424 22.4692 35.1513 22.7814 35.2939 23.1251C35.4364 23.4687 35.5098 23.8372 35.5098 24.2092C35.5098 24.5813 35.4364 24.9497 35.2939 25.2934C35.1513 25.6371 34.9424 25.9493 34.679 26.2121C34.4161 26.4755 34.1037 26.6845 33.7599 26.8271C33.4161 26.9696 33.0475 27.043 32.6753 27.043C32.3031 27.043 31.9346 26.9696 31.5907 26.8271C31.2469 26.6845 30.9346 26.4755 30.6716 26.2121C30.2766 25.8167 30.0073 25.3132 29.8977 24.7651C29.788 24.2169 29.8429 23.6486 30.0554 23.1316L26.2334 19.3096V29.3669C26.5108 29.5032 26.7641 29.6841 26.983 29.9023C27.5143 30.4339 27.8128 31.1547 27.8128 31.9063C27.8128 32.6578 27.5143 33.3786 26.983 33.9102C25.8756 35.016 24.0814 35.016 22.9772 33.9102C22.7138 33.6472 22.5048 33.3348 22.3621 32.991C22.2195 32.6471 22.1461 32.2785 22.1461 31.9063C22.1461 31.534 22.2195 31.1654 22.3621 30.8216C22.5048 30.4777 22.7138 30.1653 22.9772 29.9023C23.2416 29.6363 23.5569 29.4262 23.9041 29.2845V19.1335C23.5569 18.9918 23.2416 18.7817 22.9772 18.5157C22.5795 18.1182 22.309 17.6115 22.2 17.0598C22.0911 16.5082 22.1487 15.9366 22.3655 15.4178L18.1743 11.225L7.10612 22.2931C6.88494 22.5142 6.70948 22.7767 6.58977 23.0656C6.47006 23.3544 6.40845 23.6641 6.40845 23.9768C6.40845 24.2895 6.47006 24.5992 6.58977 24.888C6.70948 25.1769 6.88494 25.4394 7.10612 25.6605L23.2482 41.8025C23.4692 42.0236 23.7317 42.1991 24.0205 42.3187C24.3094 42.4384 24.619 42.5 24.9316 42.5C25.2443 42.5 25.5539 42.4384 25.8428 42.3187C26.1316 42.1991 26.3941 42.0236 26.6151 41.8025L42.6829 25.7367C43.1296 25.2899 43.3806 24.684 43.3806 24.0522C43.3806 23.4205 43.1296 22.8146 42.6829 22.3678Z" fill="white"/>
</svg>
