<svg width="39" height="48" viewBox="0 0 39 48" fill="none" xmlns="http://www.w3.org/2000/svg">
<rect width="39" height="48" fill="black" fill-opacity="0.01"/>
<path d="M6 12.4507H33L30.4506 39.8756L19.4807 43.0043L8.51073 39.8756L6 12.4507ZM8.51073 10.1331V4.99573H10.2489V6.6953H11.794V4.99573H13.4936V10.1331H11.794V8.4335H10.2489V10.1331H8.51073ZM11.0215 18.0515L11.9485 28.3262L11.9871 28.2489H23.5751L23.1888 32.6138L19.4807 33.6567L15.7339 32.5751L15.5021 29.9485H12.103L12.5665 35.2029L19.4807 37.1729L26.3961 35.2029L27.3617 24.8896H15.0386L14.7296 21.4519H27.6695L27.9797 18.0527H11.0215V18.0515ZM14.2661 6.73392V4.99573H18.9785V6.73392H17.4721V10.1331H15.7737V6.73392H14.2661ZM19.7124 10.1331V4.99573H21.5279L22.5708 6.77255L23.6524 4.99573H25.4678V10.1331H23.8057V7.50646L22.5708 9.43779V9.39916L21.4108 7.58371V10.1331H19.7124ZM26.3562 10.1331V4.99573H28.0558V8.39487H30.4494V10.1331H26.3562Z" fill="white"/>
</svg>
