<svg width="146" height="48" viewBox="0 0 146 48" fill="none" xmlns="http://www.w3.org/2000/svg">
<rect x="0.38501" width="145.03" height="48" fill="black" fill-opacity="0.01"/>
<path d="M24.8857 5.5C14.6685 5.5 6.38574 13.7827 6.38574 24C6.38574 34.2173 14.6685 42.5 24.8857 42.5C35.1031 42.5 43.3857 34.2173 43.3857 24C43.3857 13.7827 35.1031 5.5 24.8857 5.5ZM24.8857 7.38136C34.0639 7.38136 41.5044 14.8218 41.5044 24C41.5044 33.1782 34.0639 40.6187 24.8857 40.6187C15.7075 40.6187 8.2671 33.1782 8.2671 24C8.2671 14.8218 15.7075 7.38136 24.8857 7.38136Z" fill="white"/>
<path fill-rule="evenodd" clip-rule="evenodd" d="M25.0947 10.8306C32.3681 10.8306 38.2643 16.7267 38.2643 24.0001C38.2643 31.2734 32.3681 37.1696 25.0947 37.1696C17.8215 37.1696 11.9253 31.2734 11.9253 24.0001C11.9253 22.2225 12.2775 20.5272 12.9158 18.9801C13.8479 20.2495 15.3511 21.0735 17.0468 21.0735C19.8753 21.0735 22.1683 18.7806 22.1683 15.952C22.1683 14.2564 21.3442 12.7532 20.0748 11.8211C21.6219 11.1827 23.3172 10.8306 25.0947 10.8306Z" fill="url(#paint0_linear_121_255)"/>
<path d="M55.2074 15.8011H52.9236V30.9375H55.2074V15.8011ZM60.5657 24.1971C60.5657 22.3863 61.6743 21.3516 63.2115 21.3516C64.7119 21.3516 65.6209 22.3346 65.6209 23.9828V30.9375H67.8309V23.7167C67.8309 20.9082 66.2861 19.4374 63.9654 19.4374C62.2582 19.4374 61.1422 20.2282 60.6174 21.4329H60.477V19.5852H58.3559V30.9375H60.5657V24.1971ZM79.3013 22.3567C78.8431 20.5903 77.4611 19.4374 75.0073 19.4374C72.4427 19.4374 70.6246 20.7899 70.6246 22.8003C70.6246 24.4114 71.6001 25.4831 73.7287 25.9561L75.6504 26.3773C76.7442 26.6212 77.2541 27.109 77.2541 27.8186C77.2541 28.6981 76.3154 29.3854 74.8669 29.3854C73.5439 29.3854 72.694 28.8163 72.4279 27.7003L70.292 28.0255C70.6615 30.0358 72.3318 31.1667 74.8817 31.1667C77.6236 31.1667 79.5231 29.7106 79.5231 27.6559C79.5231 26.0522 78.5032 25.0618 76.4189 24.5813L74.6156 24.1675C73.3665 23.8719 72.827 23.4506 72.8344 22.682C72.827 21.8098 73.7731 21.189 75.0295 21.189C76.4041 21.189 77.0398 21.9503 77.2985 22.7116L79.3013 22.3567ZM86.7346 31.1667C89.9349 31.1667 92.0265 28.8237 92.0265 25.3131C92.0265 21.7803 89.9349 19.4374 86.7346 19.4374C83.5345 19.4374 81.4428 21.7803 81.4428 25.3131C81.4428 28.8237 83.5345 31.1667 86.7346 31.1667ZM86.742 29.3116C84.6505 29.3116 83.6749 27.486 83.6749 25.3057C83.6749 23.1328 84.6505 21.2851 86.742 21.2851C88.8189 21.2851 89.7944 23.1328 89.7944 25.3057C89.7944 27.486 88.8189 29.3116 86.742 29.3116ZM94.4932 30.9375H96.703V23.9384C96.703 22.4085 97.7746 21.3442 99.0311 21.3442C100.258 21.3442 101.108 22.1571 101.108 23.3914V30.9375H103.31V23.7019C103.31 22.3346 104.146 21.3442 105.587 21.3442C106.755 21.3442 107.715 21.9946 107.715 23.5319V30.9375H109.925V23.325C109.925 20.7308 108.477 19.4374 106.422 19.4374C104.789 19.4374 103.562 20.2208 103.015 21.4329H102.896C102.401 20.1913 101.359 19.4374 99.8441 19.4374C98.3437 19.4374 97.2277 20.1839 96.7547 21.4329H96.6143V19.5852H94.4932V30.9375ZM115.097 24.1971C115.097 22.3863 116.206 21.3516 117.743 21.3516C119.244 21.3516 120.152 22.3346 120.152 23.9828V30.9375H122.362V23.7167C122.362 20.9082 120.817 19.4374 118.497 19.4374C116.789 19.4374 115.673 20.2282 115.149 21.4329H115.008V19.5852H112.887V30.9375H115.097V24.1971ZM125.325 30.9375H127.536V19.5852H125.325V30.9375ZM126.441 17.8336C127.203 17.8336 127.839 17.2423 127.839 16.518C127.839 15.7937 127.203 15.1951 126.441 15.1951C125.673 15.1951 125.044 15.7937 125.044 16.518C125.044 17.2423 125.673 17.8336 126.441 17.8336ZM133.812 31.1887C135.69 31.1887 136.747 30.2354 137.168 29.3854H137.257V30.9375H139.414V23.3988C139.414 20.0952 136.813 19.4374 135.009 19.4374C132.954 19.4374 131.063 20.2652 130.324 22.3346L132.401 22.8077C132.725 22.002 133.553 21.226 135.039 21.226C136.466 21.226 137.198 21.9724 137.198 23.2585V23.3102C137.198 24.1157 136.37 24.101 134.329 24.3375C132.179 24.5887 129.976 25.1505 129.976 27.7299C129.976 29.9618 131.654 31.1887 133.812 31.1887ZM134.292 29.4149C133.043 29.4149 132.142 28.8532 132.142 27.7594C132.142 26.5769 133.191 26.1556 134.47 25.9856C135.187 25.8895 136.887 25.6974 137.205 25.3796V26.843C137.205 28.1881 136.133 29.4149 134.292 29.4149Z" fill="white"/>
<defs>
<linearGradient id="paint0_linear_121_255" x1="25.0947" y1="37.1696" x2="25.0947" y2="10.8306" gradientUnits="userSpaceOnUse">
<stop stop-color="white"/>
<stop offset="1" stop-color="#E9E9E9"/>
</linearGradient>
</defs>
</svg>
