<svg width="51" height="48" viewBox="0 0 51 48" fill="none" xmlns="http://www.w3.org/2000/svg">
<path d="M43.7852 23.7137C43.7852 21.4254 42.0515 19.4998 39.724 18.9504L44.9368 5H19.1035L24.3282 18.9944C22.0739 19.5882 20.4121 21.4802 20.4121 23.7253C20.4121 25.3751 21.3218 26.8381 22.7036 27.7401C22.1586 28.4442 21.5277 29.0936 20.8128 29.7094C19.4673 30.8541 17.9751 31.7338 16.3634 32.3171C14.9087 31.4259 14.2786 29.8525 14.848 28.4439C17.0663 27.8281 18.6796 25.9469 18.6796 23.7357C18.6796 21.0188 16.2426 18.8177 13.2595 18.8177C10.265 18.8177 7.82954 21.0292 7.82954 23.747C7.82954 25.0895 8.43492 26.3211 9.4053 27.2008C9.32022 27.3554 9.23574 27.5086 9.15066 27.6738C8.33853 29.1927 7.41693 30.9089 7.06471 32.8345C6.36177 36.6842 7.51332 39.7765 10.2894 41.5254C11.8536 42.505 13.5757 43 15.4305 43C18.6177 43 21.8552 41.5474 24.9823 40.1388C27.2134 39.1384 29.5165 38.0924 31.7837 37.587C32.6205 37.3999 33.493 37.2895 34.4146 37.1688C36.2807 36.9269 38.2087 36.6738 39.9424 35.7605C41.9667 34.6937 43.3485 32.9109 43.7493 30.8648C44.0512 29.2912 43.7493 27.7074 42.9728 26.3211C43.5032 25.5552 43.7869 24.6453 43.7852 23.7137ZM41.4218 23.7137C41.4218 25.2427 40.0516 26.4862 38.3666 26.4862C36.6817 26.4862 35.3115 25.2427 35.3115 23.7137C35.3115 23.2184 35.457 22.7457 35.7113 22.3387C35.808 22.184 35.9299 22.0308 36.0504 21.8984C36.1781 21.7623 36.3205 21.6407 36.4749 21.5358L36.4877 21.5242C36.5841 21.4582 36.6933 21.3918 36.8025 21.3267C36.8025 21.3267 36.8144 21.3267 36.8144 21.3151C36.8629 21.2931 36.9116 21.2603 36.9607 21.2383C36.9723 21.2383 36.9839 21.2267 36.9964 21.2267C37.0455 21.2059 37.1059 21.1839 37.166 21.1616C37.2234 21.1416 37.28 21.1195 37.3358 21.0955C37.3477 21.0955 37.3602 21.0836 37.3718 21.0836C37.4206 21.0735 37.4694 21.0512 37.5173 21.0408C37.5301 21.0408 37.5545 21.0292 37.5661 21.0292C37.6265 21.0188 37.6753 21.0072 37.7357 20.9965H37.7485L37.9299 20.9629C37.9424 20.9629 37.9656 20.9629 37.9784 20.9525C38.0272 20.9525 38.0751 20.9408 38.1239 20.9408H38.1843C38.2447 20.9408 38.3062 20.9304 38.3782 20.9304H38.5362C38.5838 20.9304 38.6213 20.9304 38.6689 20.9408H38.6933C38.7908 20.9527 38.8872 20.9629 38.9848 20.9852C40.3666 21.2487 41.4218 22.3714 41.4218 23.7137ZM22.485 7.19988H41.5541L37.1779 18.9168C36.9964 18.9504 36.8141 19.0048 36.6329 19.0596L32.0267 10.5338L27.4074 19.0045C27.225 18.9501 27.0311 18.9165 26.838 18.8838L22.485 7.19988ZM31.1527 22.7558C30.9227 21.7214 30.3406 20.7978 29.5165 20.1156L32.0267 15.5175L34.5597 20.2144C33.808 20.8965 33.2627 21.7658 33.0444 22.7558H31.1527ZM25.0799 21.0185C25.1403 21.0066 25.1891 20.9965 25.2495 20.9849H25.2855C25.3343 20.9745 25.3833 20.9745 25.4309 20.9626H25.4797C25.5285 20.9626 25.5645 20.9522 25.6133 20.9522H26.0863C26.1339 20.9522 26.1711 20.9626 26.2071 20.9626C26.2315 20.9626 26.2431 20.9626 26.2674 20.9745C26.3162 20.9849 26.3522 20.9849 26.4013 20.9965C26.4126 20.9965 26.4254 20.9965 26.4498 21.0069C26.5105 21.0185 26.5709 21.0289 26.6194 21.0405H26.6313C26.6801 21.0509 26.7288 21.0613 26.7764 21.0836C26.7892 21.0836 26.8008 21.0952 26.8252 21.0952C26.8612 21.1057 26.91 21.1173 26.946 21.1393C26.9588 21.1393 26.9704 21.1497 26.9832 21.1497C27.0308 21.172 27.0799 21.1836 27.1287 21.2056H27.1403C27.2006 21.2264 27.2494 21.2484 27.2982 21.2824H27.3101C27.3586 21.3044 27.4074 21.3368 27.4562 21.3588C27.4681 21.3588 27.4681 21.3707 27.4794 21.3707C27.5282 21.3915 27.5645 21.4251 27.6133 21.4472L27.626 21.4576C27.7712 21.5566 27.9048 21.667 28.0372 21.7774L28.05 21.7878C28.171 21.9086 28.2918 22.0409 28.3894 22.184C28.7044 22.6243 28.8868 23.1416 28.8868 23.7027C28.8868 25.232 27.5166 26.4743 25.8316 26.4743C24.1467 26.4743 22.7765 25.232 22.7765 23.7027C22.764 22.4152 23.746 21.3264 25.0799 21.0185ZM13.1503 20.9406C14.8355 20.9406 16.2054 22.184 16.2054 23.7131C16.2054 25.2424 14.8355 26.4856 13.1503 26.4856C11.4654 26.4856 10.0952 25.2424 10.0952 23.7131C10.0952 22.184 11.4654 20.9406 13.1503 20.9406ZM41.3486 30.4799C41.0823 31.887 40.1235 33.12 38.7176 33.8566C37.3962 34.5503 35.7717 34.7699 34.0624 34.9897C33.1295 35.1105 32.1475 35.2429 31.2015 35.452C28.68 36.0133 26.2558 37.1137 23.904 38.1689C20.8976 39.5227 18.0599 40.7986 15.4305 40.7986C14.0603 40.7986 12.8356 40.4467 11.6724 39.7099C9.00548 38.0377 9.13786 34.9026 9.45409 33.1861C9.74443 31.5791 10.5569 30.072 11.333 28.631C11.3806 28.5427 11.4178 28.4659 11.4654 28.3776C11.7328 28.4659 12.0115 28.5323 12.3022 28.5763C11.842 30.9086 13.1503 33.3176 15.6964 34.5063L16.1575 34.7258L16.654 34.5607C18.776 33.8786 20.7396 32.7678 22.4734 31.2825C23.4554 30.446 24.2922 29.5443 24.9951 28.5647C25.2739 28.609 25.5529 28.6206 25.8316 28.6206C28.3534 28.6206 30.4741 27.047 31.0807 24.9345H33.1167C33.7232 27.0577 35.8449 28.6203 38.3666 28.6203C39.373 28.6203 40.3062 28.3675 41.1055 27.9385C41.4218 28.7634 41.5181 29.6211 41.3486 30.4799Z" fill="white"/>
</svg>
