<svg width="93" height="48" viewBox="0 0 93 48" fill="none" xmlns="http://www.w3.org/2000/svg">
<path d="M39.9491 23.7126C39.9411 21.4693 38.4323 19.5134 36.2608 18.9466L40.9869 5H17.5482L22.2902 18.9945C20.1827 19.6092 18.7377 21.5332 18.7377 23.7286C18.7377 25.3811 19.56 26.842 20.8293 27.7361C20.3344 28.4387 19.7596 29.0853 19.1129 29.708C17.8915 30.8496 16.5423 31.7357 15.0734 32.3185C13.7562 31.4244 13.1814 29.8517 13.7003 28.4466C15.7041 27.8319 17.173 25.9399 17.173 23.7366C17.165 21.0223 14.9696 18.8189 12.2554 18.8189C9.5331 18.8189 7.32973 21.0303 7.32973 23.7445C7.32973 25.0857 7.88057 26.3151 8.75873 27.2013L8.52721 27.6723C7.79276 29.1891 6.95452 30.9055 6.6352 32.8294C5.99654 36.6693 7.04234 39.7748 9.56503 41.5231C10.986 42.505 12.5428 43 14.2272 43C17.1171 43 20.0549 41.5471 22.897 40.142C24.9247 39.1361 27.0083 38.0983 29.076 37.5874C29.8264 37.4038 30.6247 37.292 31.4629 37.1723C33.1554 36.9248 34.9037 36.6773 36.4764 35.7672C38.3125 34.6975 39.5659 32.9172 39.9331 30.8735C40.2125 29.3008 39.9331 27.7202 39.2306 26.3311C39.7176 25.5487 39.973 24.6466 39.965 23.7206L39.9491 23.7126ZM37.8016 23.7126C37.8016 25.2374 36.5482 26.4828 35.0314 26.4828C33.4907 26.4668 32.2533 25.2055 32.2692 23.6647C32.2772 23.2017 32.397 22.7387 32.6205 22.3315C32.7083 22.1798 32.8201 22.0202 32.9318 21.8924C33.0436 21.7567 33.1793 21.637 33.315 21.5252L33.323 21.5172C33.4108 21.4534 33.5066 21.3815 33.6104 21.3176C33.6663 21.2857 33.7142 21.2538 33.7541 21.2298C33.7621 21.2298 33.7781 21.2218 33.786 21.2218C33.8339 21.1979 33.8898 21.1739 33.9377 21.158C33.9936 21.134 34.0495 21.1101 34.0894 21.0941C34.0974 21.0941 34.1133 21.0861 34.1213 21.0861C34.1692 21.0782 34.2091 21.0542 34.257 21.0382C34.265 21.0382 34.289 21.0303 34.3049 21.0303L34.4566 20.9983H34.4646L34.6323 20.9664C34.6402 20.9664 34.6642 20.9664 34.6802 20.9584C34.7281 20.9584 34.768 20.9504 34.8159 20.9504H34.8718C34.9276 20.9504 34.9835 20.9424 35.0394 20.9424H35.1831C35.223 20.9424 35.2629 20.9424 35.3028 20.9504H35.3268C35.4146 20.9584 35.5024 20.9744 35.5902 20.9983C36.8755 21.2777 37.8016 22.4113 37.8016 23.7286V23.7126ZM20.6138 7.19538H37.9213L33.9537 18.9147C33.786 18.9466 33.6264 19.0025 33.4587 19.0584L29.2755 10.5403L25.0844 19.0025C24.9167 18.9466 24.7411 18.9147 24.5654 18.8828L20.6138 7.19538ZM28.4852 22.7546C28.2856 21.7408 27.7587 20.8147 27.0003 20.1122L29.2755 15.5139L31.5747 20.208C30.8961 20.8866 30.4091 21.7567 30.2016 22.7466L28.4852 22.7546ZM22.9688 21.0143L23.1205 20.9824H23.1524C23.2003 20.9744 23.2402 20.9744 23.2881 20.9584H23.336C23.3839 20.9584 23.4159 20.9504 23.4558 20.9504H23.8869C23.9348 20.9504 23.9667 20.9584 23.9986 20.9584C24.0226 20.9584 24.0306 20.9584 24.0545 20.9664C24.1024 20.9744 24.1344 20.9744 24.1743 20.9903C24.1823 20.9903 24.1982 20.9903 24.2222 20.9983L24.3739 21.0303C24.4218 21.0382 24.4697 21.0542 24.5175 21.0782C24.5255 21.0782 24.5415 21.0861 24.5654 21.0861C24.5974 21.0941 24.6453 21.1101 24.6772 21.134C24.6852 21.134 24.7012 21.142 24.7091 21.142C24.757 21.166 24.797 21.1739 24.8449 21.1979H24.8528C24.9007 21.2139 24.9486 21.2458 24.9965 21.2777C25.0524 21.3017 25.1003 21.3336 25.1402 21.3576C25.1482 21.3576 25.1482 21.3655 25.1642 21.3655C25.2121 21.3895 25.244 21.4214 25.2839 21.4454L25.2919 21.4534C25.4196 21.5571 25.5474 21.6609 25.6671 21.7727L25.6751 21.7807C25.7869 21.9004 25.8907 22.0361 25.9865 22.1798C26.2818 22.6349 26.4415 23.1618 26.4335 23.6966C26.4335 25.2214 25.1802 26.4668 23.6633 26.4668C22.1386 26.4588 20.9012 25.2214 20.8932 23.6966C20.8692 22.4113 21.7633 21.3176 22.9688 21.0143ZM12.1436 20.9345C13.6684 20.9345 14.9138 22.1878 14.9138 23.7046C14.9058 25.2294 13.6684 26.4668 12.1436 26.4748C10.6188 26.4668 9.38141 25.2294 9.37343 23.7046C9.38141 22.1798 10.6188 20.9504 12.1436 20.9345ZM37.7297 30.4744C37.4823 31.8794 36.6201 33.1168 35.3428 33.8513C34.1453 34.5458 32.6684 34.7613 31.1197 34.9849C30.2734 35.1046 29.3793 35.2403 28.5331 35.4479C26.2419 36.0067 24.0465 37.1164 21.915 38.1622C19.1848 39.5113 16.6142 40.7887 14.2352 40.7887C12.9818 40.7887 11.8802 40.4374 10.8264 39.7029C8.3915 38.0185 8.51125 34.8971 8.80662 33.1807C9.07007 31.576 9.81251 30.0672 10.515 28.6303C10.5629 28.5424 10.5949 28.4626 10.6348 28.3748C10.8823 28.4626 11.1377 28.5265 11.3932 28.5744C10.9781 30.9055 12.1596 33.3164 14.4827 34.5059L14.8978 34.7294L15.3449 34.5618C17.2688 33.8832 19.0491 32.7655 20.6218 31.2807C21.4919 30.4664 22.2583 29.5563 22.9129 28.5664C23.1604 28.6063 23.4159 28.6223 23.6633 28.6223C25.9066 28.6143 27.8625 27.1055 28.4293 24.934H30.2734C30.8243 27.0576 32.7482 28.6223 35.0394 28.6223C35.9176 28.6223 36.7718 28.3828 37.5222 27.9437C37.8096 28.766 37.8974 29.6282 37.7457 30.4824L37.7297 30.4744ZM55.3646 29.2769C55.2129 29.7798 54.9575 30.2508 54.6062 30.642C54.2549 31.0412 53.7839 31.3605 53.1852 31.6C52.5944 31.8395 51.868 31.9672 50.9978 31.9672C49.5449 31.9672 48.4272 31.584 47.6449 30.8256C46.8625 30.0672 46.4793 28.9336 46.4793 27.4567V26.5067H48.5549V27.1773C48.547 27.6004 48.5869 28.0155 48.6667 28.4307C48.7465 28.8139 48.8663 29.1332 49.0499 29.4126C49.2415 29.692 49.5049 29.9155 49.8083 30.0592C50.1356 30.2109 50.5587 30.2908 51.0617 30.2908C52.0117 30.2908 52.6503 30.0353 53.0176 29.5403C53.3688 29.0374 53.5604 28.3508 53.5604 27.4966V16.0328H55.6281V27.7361C55.6121 28.263 55.5243 28.7819 55.3646 29.2769ZM66.6848 30.8975C65.8386 31.5361 64.7848 31.8555 63.4915 31.8555C62.5894 31.8555 61.807 31.7118 61.1444 31.4164C60.4978 31.145 59.931 30.7219 59.476 30.195C59.0289 29.6681 58.6856 29.0534 58.4621 28.3109C58.2306 27.5845 58.1108 26.7941 58.0789 25.9319C58.0789 25.0697 58.2146 24.2954 58.4781 23.5769C58.7255 22.8903 59.0928 22.2597 59.5797 21.7168C60.0428 21.1899 60.6175 20.7748 61.2642 20.4954C61.9108 20.208 62.6133 20.0563 63.3877 20.0563C64.3936 20.0563 65.2239 20.2639 65.8944 20.679C66.565 21.0941 67.0839 21.629 67.4831 22.2597C67.8823 22.8983 68.1617 23.6088 68.3054 24.3513C68.4491 25.0618 68.5129 25.7803 68.489 26.5067H60.0587C60.0428 26.9777 60.0986 27.4567 60.2264 27.9118C60.3461 28.3508 60.5697 28.75 60.865 29.0773C61.1524 29.4206 61.5356 29.692 61.9747 29.8916C62.4218 30.0992 62.9566 30.2029 63.5633 30.2029C64.3457 30.2029 64.9923 30.0193 65.5033 29.6521C66.0062 29.2849 66.3415 28.742 66.4932 27.9836H68.3293C68.0739 29.2689 67.539 30.2269 66.6928 30.8655L66.6848 30.8975ZM66.2297 23.6567C66.0621 23.2576 65.8306 22.9303 65.5591 22.6429C65.2718 22.3555 64.9285 22.1319 64.5612 21.9723C64.1781 21.8046 63.747 21.7168 63.2839 21.7168C62.797 21.7168 62.3739 21.8046 61.9827 21.9723C61.5915 22.1399 61.2642 22.3714 60.9928 22.6508C60.7133 22.9462 60.4898 23.2895 60.3222 23.6647C60.1465 24.0479 60.0667 24.455 60.0348 24.8941H66.5171C66.4852 24.463 66.3894 24.0479 66.2217 23.6487H66.2297V23.6567ZM71.8339 29.0853C72.0016 29.3647 72.2411 29.5882 72.5125 29.7559C72.8079 29.9235 73.1352 30.0513 73.4705 30.1231C73.8218 30.2029 74.197 30.2349 74.5722 30.2349C74.8755 30.2349 75.1789 30.2109 75.4823 30.171C75.7856 30.1311 76.081 30.0513 76.3604 29.9315C76.6239 29.8118 76.8554 29.6441 77.031 29.4126C77.1986 29.1891 77.2944 28.8937 77.2944 28.5504C77.2944 28.0634 77.1108 27.7042 76.7436 27.4647C76.3764 27.2252 75.9293 27.0176 75.3785 26.858L73.5982 26.4429C72.9596 26.3231 72.3688 26.1475 71.818 25.916C71.2911 25.7084 70.8281 25.3891 70.4528 24.966C70.0936 24.5588 69.902 23.984 69.902 23.2576C69.902 22.6828 70.0377 22.2038 70.2852 21.7966C70.5327 21.3975 70.868 21.0542 71.2671 20.8067C71.6663 20.5513 72.1133 20.3676 72.6163 20.2319C73.1033 20.1122 73.6062 20.0483 74.1091 20.0483C74.6999 20.0403 75.2986 20.0962 75.8814 20.216C76.4163 20.3277 76.8953 20.5113 77.3104 20.7908C77.7255 21.0542 78.0608 21.4294 78.3003 21.8765C78.5478 22.3395 78.6995 22.9063 78.7394 23.5929H76.8793C76.8474 23.2256 76.7596 22.9223 76.5919 22.6908C76.4323 22.4592 76.2167 22.2597 75.9772 22.108C75.7297 21.9643 75.4583 21.8525 75.1629 21.7887C74.8675 21.7248 74.5562 21.6849 74.2608 21.6849C73.9814 21.6849 73.702 21.7088 73.4226 21.7487C73.1591 21.7887 72.8957 21.8685 72.6562 21.9803C72.4327 22.084 72.2411 22.2357 72.0814 22.4193C71.9377 22.6029 71.8579 22.8345 71.8579 23.1218C71.8579 23.4412 71.9697 23.7046 72.2012 23.9122C72.4247 24.1197 72.7201 24.2954 73.0633 24.4391C73.4146 24.5828 73.7978 24.6945 74.2289 24.7903L75.5381 25.0857C76.0012 25.1895 76.4562 25.3092 76.9033 25.4609C77.3184 25.5966 77.7176 25.7882 78.0688 26.0437C78.4041 26.2832 78.6915 26.5866 78.8911 26.9458C79.0986 27.313 79.2104 27.7601 79.2104 28.295C79.2104 28.9735 79.0667 29.5483 78.7793 30.0034C78.4999 30.4504 78.1167 30.8176 77.6697 31.0891C77.2066 31.3685 76.6877 31.5601 76.1209 31.6719C75.5541 31.7836 74.9793 31.8395 74.4045 31.8395C73.7978 31.8395 73.1991 31.7756 72.6083 31.6399C72.0654 31.5282 71.5545 31.3046 71.0995 30.9933C70.6604 30.6979 70.3171 30.2987 70.0537 29.8277C69.7902 29.3487 69.6465 28.742 69.6146 28.0475H71.4747C71.5306 28.4626 71.6264 28.8139 71.802 29.0933L71.8339 29.0853ZM86.1478 20.3357V21.9723H83.8965V28.9815C83.8965 29.205 83.9205 29.3807 83.9524 29.5084C83.9844 29.6361 84.0642 29.7399 84.16 29.8197C84.2558 29.8996 84.4075 29.9395 84.5911 29.9634C84.7667 29.9874 85.0062 29.9954 85.2936 29.9954H86.1398V31.6319H84.7188C84.2318 31.6319 83.8247 31.6 83.4894 31.5282C83.1541 31.4563 82.8747 31.3445 82.6671 31.1609C82.4596 30.9773 82.2999 30.7458 82.1961 30.4265C82.0923 30.1071 82.0444 29.692 82.0444 29.1651V21.9803H80.1205V20.3437H82.0444V16.9588H83.8965V20.3357H86.1478Z" fill="white"/>
</svg>
