<svg width="118" height="48" viewBox="0 0 118 48" fill="none" xmlns="http://www.w3.org/2000/svg">
<rect x="0.0600586" width="117.28" height="48" fill="black" fill-opacity="0.01"/>
<path d="M60.0371 10.6978H63.9492V30.5768C63.9492 35.8186 61.6217 39.478 56.224 39.478C54.1936 39.478 52.6091 39.1318 51.5195 38.7362V34.9286C52.7081 35.423 54.1442 35.6703 55.5802 35.6703C58.8981 35.6703 60.0371 33.6922 60.0371 30.8241V10.6978Z" fill="white"/>
<path d="M71.1297 9.16479C72.6648 9.16479 73.7542 10.1044 73.7542 11.7857C73.7542 13.4175 72.6648 14.4066 71.1297 14.4066C69.5945 14.4066 68.5051 13.467 68.5051 11.7857C68.5051 10.1538 69.5945 9.16479 71.1297 9.16479ZM69.1984 17.522H72.9619V39.2801H69.1984V17.522Z" fill="white"/>
<path d="M82.2718 39.2801H78.6074V17.522H82.2718V21.3297C83.5594 18.7582 85.7383 16.9285 89.997 17.1758V20.8351C85.1936 20.3406 82.2718 21.7747 82.2718 26.423V39.2801Z" fill="white"/>
<path d="M107.577 35.3733C106.19 38.2414 103.566 39.7251 100.199 39.7251C94.4046 39.7251 91.4829 34.8295 91.4829 28.4008C91.4829 22.2689 94.5532 17.0767 100.644 17.0767C103.813 17.0767 106.289 18.5107 107.577 21.3295V17.5218H111.341V39.2799H107.577V35.3733ZM101.189 36.2635C104.556 36.2635 107.527 34.1372 107.527 29.291V27.5602C107.527 22.7141 104.804 20.5876 101.585 20.5876C97.3758 20.5876 95.1969 23.3568 95.1969 28.4008C95.2464 33.6426 97.3263 36.2635 101.189 36.2635Z" fill="white"/>
<path d="M40.625 6H23.491C23.491 10.2527 26.9575 13.7143 31.2162 13.7143H34.3855V16.7308C34.3855 20.9835 37.8519 24.445 42.1107 24.445V7.48352C42.1107 6.64286 41.4669 6 40.625 6Z" fill="white"/>
<path d="M31.9094 14.7527H14.7754C14.7754 19.0054 18.2418 22.4669 22.5006 22.4669H25.6699V25.4834C25.6699 29.7361 29.1363 33.1977 33.3951 33.1977V16.2362C33.3951 15.445 32.7512 14.7527 31.9094 14.7527Z" fill="url(#paint0_linear_121_266)"/>
<path d="M23.1939 23.5549H6.05981C6.05981 27.8076 9.52624 31.2692 13.785 31.2692H16.9543V34.2857C16.9543 38.5384 20.4208 41.9999 24.6794 41.9999V25.0384C24.6794 24.1978 23.9862 23.5549 23.1939 23.5549Z" fill="url(#paint1_linear_121_266)"/>
<defs>
<linearGradient id="paint0_linear_121_266" x1="33.0308" y1="14.7956" x2="25.7566" y2="22.3075" gradientUnits="userSpaceOnUse">
<stop offset="0.176" stop-color="white" stop-opacity="0.4"/>
<stop offset="1" stop-color="white"/>
</linearGradient>
<linearGradient id="paint1_linear_121_266" x1="24.7912" y1="23.6121" x2="16.3799" y2="31.8077" gradientUnits="userSpaceOnUse">
<stop offset="0.176" stop-color="white" stop-opacity="0.4"/>
<stop offset="1" stop-color="white"/>
</linearGradient>
</defs>
</svg>
