<svg width="183" height="48" viewBox="0 0 183 48" fill="none" xmlns="http://www.w3.org/2000/svg">
<path d="M42.835 14.0918C45.5533 14.0918 47.9344 14.6801 49.9775 15.8574C52.0208 17.0349 53.5969 18.7147 54.7051 20.8965C55.8307 23.0609 56.3936 25.6069 56.3936 28.5332C56.3935 31.4594 55.8306 34.0136 54.7051 36.1953C53.597 38.377 52.0207 40.0561 49.9775 41.2334C47.9343 42.4109 45.5534 43 42.835 43C40.1164 43 37.7264 42.4109 35.666 41.2334C33.6228 40.0562 32.0386 38.3768 30.9131 36.1953C29.805 34.0136 29.251 31.4594 29.251 28.5332C29.251 25.6069 29.805 23.0609 30.9131 20.8965C32.0387 18.7148 33.6226 17.0349 35.666 15.8574C37.7264 14.68 40.1164 14.0918 42.835 14.0918ZM95.1777 14.0918C97.7576 14.0918 99.9392 14.5159 101.723 15.3643C103.506 16.1954 104.849 17.3899 105.749 18.9482C106.667 20.5067 107.125 22.3688 107.125 24.5332V35.9609C107.125 37.1904 107.211 38.3335 107.385 39.3896C107.575 40.4286 107.844 41.0861 108.19 41.3633V42.2471H100.009C99.8185 41.5025 99.6713 40.6625 99.5674 39.7275C99.5329 39.4176 99.5044 39.1016 99.4795 38.7803C99.2851 39.0675 99.0728 39.349 98.8398 39.623C97.9739 40.6445 96.857 41.4673 95.4893 42.0908C94.1385 42.6968 92.5975 43 90.8662 43C89.1518 43 87.61 42.6627 86.2422 41.9873C84.8918 41.3122 83.8268 40.351 83.0479 39.1045C82.2858 37.8403 81.9053 36.3682 81.9053 34.6885C81.9053 32.1257 82.6587 30.169 84.165 28.8184C85.6713 27.4506 87.8442 26.5591 90.6836 26.1436L95.4375 25.4678C96.3897 25.3293 97.1432 25.156 97.6973 24.9482C98.2511 24.7405 98.6584 24.4634 98.918 24.1172C99.1778 23.7536 99.3076 23.2942 99.3076 22.7402C99.3075 22.1691 99.1513 21.6499 98.8398 21.1826C98.5455 20.6978 98.0953 20.3161 97.4893 20.0391C96.9005 19.7447 96.1814 19.5977 95.333 19.5977C93.9825 19.5977 92.9009 19.9532 92.0869 20.6631C91.2732 21.3556 90.831 22.3076 90.7617 23.5195H82.6318C82.7013 21.6842 83.256 20.0565 84.2949 18.6367C85.3511 17.1996 86.8145 16.0826 88.6846 15.2861C90.5544 14.4897 92.7192 14.0918 95.1777 14.0918ZM163.716 14.0918C166.261 14.0918 168.521 14.6457 170.495 15.7539C172.469 16.8621 174.001 18.4726 175.092 20.585C176.2 22.6974 176.754 25.2254 176.754 28.1689C176.754 29.2252 176.746 30.0652 176.729 30.6885H157.771C157.845 31.9036 158.076 32.9602 158.469 33.8574C158.954 34.9655 159.647 35.8054 160.547 36.377C161.447 36.931 162.513 37.208 163.742 37.208C165.092 37.2079 166.209 36.8612 167.092 36.1689C167.975 35.4589 168.53 34.4636 168.755 33.1826H176.625C176.383 35.1908 175.698 36.9308 174.573 38.4023C173.465 39.8743 171.984 41.0091 170.131 41.8057C168.278 42.602 166.123 43 163.664 43C160.894 43 158.487 42.4721 156.443 41.416C154.4 40.3424 152.807 38.7319 151.664 36.585C150.539 34.4379 149.976 31.779 149.976 28.6104C149.976 25.5976 150.565 23.0001 151.742 20.8184C152.92 18.6194 154.547 16.9485 156.625 15.8057C158.703 14.6629 161.066 14.0918 163.716 14.0918ZM118.49 18.8311C118.764 18.3021 119.074 17.8116 119.425 17.3633C120.256 16.3071 121.269 15.5023 122.464 14.9482C123.659 14.3769 125 14.0909 126.489 14.0908C128.723 14.0908 130.662 14.671 132.308 15.8311C133.952 16.9911 135.216 18.6622 136.1 20.8438C136.983 23.0082 137.425 25.5803 137.425 28.5586C137.425 31.5195 136.975 34.0907 136.074 36.2725C135.174 38.4368 133.884 40.0987 132.204 41.2588C130.542 42.4191 128.593 42.999 126.359 42.999C124.871 42.999 123.537 42.7399 122.36 42.2207C121.2 41.7011 120.212 40.9218 119.398 39.8828C119.025 39.3978 118.698 38.8598 118.412 38.2725V42.2461H110.62V5H118.49V18.8311ZM69.4092 34.1514L75.085 14.8447H83.2148L73.7344 42.2471H64.9814L55.1377 14.8447H63.501L69.4092 34.1514ZM14.4023 34.7539H23.9355C30.8842 34.7539 29.9346 42.2461 29.9346 42.2461H6.24609V5H14.4023V34.7539ZM147.622 42.2461H139.752V5H147.622V42.2461ZM99.3594 28.8828C99.0856 29.1144 98.7834 29.3104 98.4502 29.4678C97.8442 29.7622 97.0214 30.013 95.9824 30.2207L93.9824 30.6104C92.6494 30.87 91.6449 31.2688 90.9697 31.8057C90.3119 32.3425 89.9824 33.0959 89.9824 34.0654C89.9825 35.0351 90.3381 35.8055 91.0479 36.377C91.7579 36.9481 92.6666 37.2343 93.7744 37.2344C94.8825 37.2344 95.8615 36.9917 96.71 36.5068C97.5584 36.0047 98.208 35.3116 98.6582 34.4287C99.1258 33.5457 99.3594 32.5414 99.3594 31.416V28.8828ZM123.918 20.0908C122.758 20.0909 121.763 20.4456 120.932 21.1553C120.118 21.8479 119.502 22.8358 119.087 24.1172C118.672 25.3811 118.464 26.8619 118.464 28.5586C118.464 30.2726 118.672 31.7616 119.087 33.0254C119.502 34.2893 120.118 35.2683 120.932 35.9609C121.763 36.6533 122.758 36.9999 123.918 37C125.095 37 126.082 36.6534 126.879 35.9609C127.693 35.2683 128.299 34.2893 128.697 33.0254C129.113 31.7616 129.321 30.2727 129.321 28.5586C129.321 26.8444 129.113 25.3549 128.697 24.0908C128.299 22.8268 127.693 21.8479 126.879 21.1553C126.082 20.4455 125.095 20.0908 123.918 20.0908ZM42.835 20.1172C41.6922 20.1172 40.7052 20.4376 39.874 21.0781C39.0603 21.7015 38.4366 22.6453 38.0039 23.9092C37.5709 25.1559 37.3545 26.6977 37.3545 28.5332C37.3545 30.3685 37.571 31.9185 38.0039 33.1826C38.4366 34.4464 39.0604 35.3984 39.874 36.0391C40.7052 36.6623 41.6922 36.9746 42.835 36.9746C43.9778 36.9746 44.9565 36.6623 45.7705 36.0391C46.5841 35.3984 47.2067 34.4545 47.6396 33.208C48.0726 31.9442 48.289 30.3857 48.2891 28.5332C48.2891 25.78 47.8129 23.6933 46.8604 22.2734C45.908 20.8363 44.5663 20.1172 42.835 20.1172ZM163.534 19.7793C162.374 19.7793 161.352 20.0653 160.469 20.6367C159.603 21.1907 158.928 22.0219 158.443 23.1299C158.178 23.7586 157.991 24.4607 157.876 25.2344H168.717C168.639 24.2536 168.444 23.4048 168.131 22.6885C167.733 21.719 167.144 20.9916 166.365 20.5068C165.586 20.022 164.642 19.7793 163.534 19.7793Z" fill="white"/>
</svg>
