<svg width="68" height="48" viewBox="0 0 68 48" fill="none" xmlns="http://www.w3.org/2000/svg">
<rect x="0.85498" width="66.49" height="48" fill="black" fill-opacity="0.01"/>
<path d="M44.1008 9.24595C43.8397 9.24595 43.6626 9.27773 43.4787 9.32087V9.35039H43.5105C43.6331 9.5865 43.842 9.75905 43.9964 9.9702C44.119 10.2131 44.2234 10.4561 44.346 10.6967L44.3778 10.6627C44.5912 10.5128 44.6957 10.2722 44.6957 9.90663C44.6048 9.79992 44.5912 9.69321 44.514 9.58877C44.4232 9.43666 44.228 9.36174 44.1054 9.24141L44.1008 9.24595ZM19.9555 39.2012H17.8509C17.7917 35.8564 17.5871 32.5158 17.2379 29.1888H17.2197L14.0185 39.2012H12.4179L9.23935 29.1888H9.21665C8.96803 32.521 8.82039 35.86 8.77393 39.2012H6.85547C6.98034 34.7376 7.29138 30.5511 7.78632 26.646H10.3972L13.4282 35.8728H13.4463L16.5045 26.646H18.9906C19.54 31.2208 19.8624 35.4096 19.9623 39.2012H19.9555ZM29.0755 29.9381C28.2173 34.581 27.0867 37.9593 25.6882 40.0639C24.5938 41.6895 23.3951 42.5 22.0942 42.5C21.7468 42.5 21.3222 42.3956 20.8091 42.1867V41.0651C21.0589 41.1037 21.354 41.1242 21.6855 41.1242C22.294 41.1242 22.7821 40.9539 23.1544 40.6201C23.6017 40.2115 23.8242 39.7529 23.8242 39.2466C23.8242 38.8947 23.6494 38.1795 23.302 37.1033L20.9998 29.9381H23.0659L24.7164 35.2961C25.0888 36.513 25.2454 37.3622 25.1819 37.8457C26.09 35.4301 26.7212 32.7896 27.0776 29.9381H29.0755ZM57.0578 39.2012H51.0867V26.646H53.096V37.6573H57.0578V39.2012ZM49.5202 39.5077L47.2135 38.3725C47.4178 38.1999 47.6153 38.0138 47.7924 37.8049C48.7755 36.6561 49.2636 34.9488 49.2636 32.6897C49.2636 28.535 47.6335 26.4553 44.371 26.4553C42.7727 26.4553 41.524 26.982 40.6249 28.0378C39.6486 29.1911 39.1582 30.8893 39.1582 33.1347C39.1582 35.3415 39.5896 36.9626 40.4614 37.9933C41.2561 38.9242 42.4525 39.3896 44.0554 39.3896C44.6548 39.3896 45.2042 39.3147 45.7014 39.1671L48.7097 40.9198L49.527 39.5077H49.5202ZM42.0461 36.6879C41.5353 35.8705 41.281 34.5537 41.281 32.7465C41.281 29.5839 42.2437 28.0014 44.1644 28.0014C45.1702 28.0014 45.9126 28.3806 46.3825 29.1366C46.8911 29.9585 47.1454 31.2617 47.1454 33.0485C47.1454 36.2361 46.1827 37.8344 44.262 37.8344C43.2517 37.8344 42.5138 37.4552 42.0416 36.6992L42.0461 36.6879ZM38.2819 35.723C38.2819 36.79 37.8914 37.6664 37.1104 38.3475C36.3294 39.0286 35.2873 39.3692 33.9682 39.3692C32.7354 39.3692 31.5525 38.9787 30.3969 38.1999L30.935 37.1192C31.9294 37.6187 32.8262 37.8639 33.6367 37.8639C34.3905 37.8639 34.983 37.6982 35.4144 37.3644C35.63 37.2019 35.8041 36.9907 35.9225 36.748C36.0408 36.5053 36.1001 36.2381 36.0955 35.9682C36.0955 35.2189 35.5733 34.5832 34.6243 34.0497C33.7434 33.5661 31.9839 32.5581 31.9839 32.5581C31.0258 31.8611 30.549 31.1141 30.549 29.8858C30.549 28.8642 30.9055 28.0468 31.6161 27.4225C32.3312 26.7913 33.2507 26.4803 34.3859 26.4803C35.5484 26.4803 36.6109 26.7891 37.5644 27.4111L37.0809 28.4918C36.3189 28.1571 35.4973 27.9795 34.6652 27.9697C34.0227 27.9697 33.5255 28.124 33.1804 28.4374C33.0052 28.5824 32.8641 28.7641 32.7668 28.9697C32.6695 29.1752 32.6185 29.3996 32.6173 29.627C32.6173 30.3717 33.1486 31.0119 34.1294 31.5568C35.0216 32.045 36.8243 33.078 36.8243 33.078C37.8074 33.7704 38.2955 34.5083 38.2955 35.7298L38.2819 35.723ZM59.5824 22.4368C58.3678 22.405 57.4256 22.5276 56.6378 22.8636C56.4107 22.9544 56.0475 22.9544 56.0157 23.2428C56.1406 23.3631 56.1587 23.5606 56.2654 23.7286C56.4471 24.0328 56.7604 24.4392 57.051 24.6527C57.3688 24.9024 57.6867 25.1431 58.0204 25.3565C58.6107 25.7197 59.2805 25.9354 59.8594 26.3009C60.1886 26.5144 60.5246 26.7845 60.8584 27.0116C61.0241 27.1251 61.1308 27.3294 61.3443 27.4021V27.3567C61.2398 27.2204 61.208 27.0229 61.1059 26.8708C60.9537 26.7187 60.8016 26.5825 60.6518 26.4326C60.206 25.8452 59.6741 25.3285 59.0739 24.9001C58.588 24.5686 57.5255 24.1055 57.3257 23.5493L57.2962 23.5175C57.6277 23.488 58.0227 23.3676 58.3406 23.2768C58.8559 23.1406 59.3282 23.1701 59.8617 23.0362C60.1024 22.9749 60.3453 22.8999 60.5882 22.8227V22.6865C60.3158 22.4141 60.1114 22.044 59.8299 21.7897C59.0441 21.1029 58.2061 20.4781 57.3234 19.9212C56.8467 19.617 56.2427 19.4217 55.741 19.1629C55.5594 19.0721 55.2551 19.0267 55.1507 18.8746C54.8782 18.5431 54.7193 18.1026 54.5263 17.7076C54.0805 16.8428 53.6663 15.9621 53.2845 15.0672C53.012 14.4723 52.8463 13.8798 52.5125 13.3349C50.946 10.7535 49.25 9.18919 46.6414 7.65896C46.0806 7.34111 45.4086 7.20489 44.6979 7.03688C44.3188 7.01872 43.9396 6.99148 43.5627 6.97558C43.313 6.86888 43.0723 6.58054 42.8589 6.44205C41.9962 5.89716 39.7622 4.71657 39.1264 6.27858C38.7178 7.26392 39.7326 8.23564 40.0845 8.73512C40.3456 9.08248 40.6748 9.4798 40.8565 9.8703C40.9632 10.1337 40.9927 10.4038 41.0994 10.6786C41.3401 11.346 41.5694 12.0907 41.8872 12.7151C42.053 13.0329 42.2346 13.3667 42.448 13.6527C42.5706 13.8185 42.7795 13.8957 42.8271 14.1681C42.6137 14.4769 42.6001 14.9264 42.4775 15.3033C41.9326 17.022 42.146 19.147 42.918 20.4116C43.1609 20.7885 43.7398 21.624 44.514 21.3039C45.1951 21.0314 45.0453 20.1687 45.2405 19.4081C45.286 19.2265 45.2564 19.1061 45.3495 18.9835V19.0176C45.5629 19.4444 45.7764 19.8508 45.9716 20.2777C46.4393 21.0223 47.2566 21.7943 47.94 22.3096C48.3033 22.5821 48.5916 23.0543 49.0457 23.2223V23.1769H49.0116C48.914 23.0452 48.7846 22.9817 48.662 22.875C48.3741 22.5932 48.1085 22.2895 47.8674 21.9668C47.2277 21.0928 46.6605 20.1679 46.1714 19.2015C45.9217 18.7247 45.7128 18.2116 45.513 17.7417C45.4222 17.56 45.4222 17.2876 45.2701 17.1968C45.043 17.5282 44.7093 17.8166 44.5435 18.2252C44.2552 18.8791 44.2257 19.6828 44.1167 20.5183C44.0554 20.5342 44.0849 20.5183 44.0554 20.5501C43.5696 20.432 43.4038 19.928 43.2222 19.5057C42.7681 18.4273 42.6932 16.695 43.086 15.4531C43.1927 15.1353 43.6467 14.1318 43.4651 13.8275C43.3698 13.5392 43.0701 13.3735 42.9043 13.1396C42.6911 12.8353 42.5086 12.5105 42.3595 12.1702C41.9962 11.3211 41.8146 10.3811 41.4195 9.53201C41.2379 9.13924 40.92 8.72831 40.6612 8.36732C40.3729 7.95865 40.055 7.67031 39.8257 7.18673C39.7508 7.02099 39.6441 6.74628 39.7644 6.56465C39.7962 6.44205 39.8598 6.39437 39.9778 6.36031C40.1776 6.19685 40.7384 6.41026 40.9359 6.50108C41.4967 6.72811 41.9689 6.94153 42.4389 7.25938C42.6523 7.40922 42.8816 7.69756 43.1541 7.77248H43.4719C43.9578 7.87919 44.5049 7.80427 44.959 7.93822C45.765 8.19704 46.4915 8.57392 47.1431 8.98259C49.1509 10.2651 50.7839 12.0556 51.8768 14.1726C52.0585 14.5223 52.1379 14.8424 52.3037 15.2057C52.6215 15.9549 53.0143 16.7109 53.3367 17.4352C53.6545 18.1503 53.961 18.8791 54.4174 19.4717C54.6444 19.7895 55.5571 19.9553 55.9658 20.121C56.2677 20.2572 56.7377 20.3821 57.0101 20.5478C57.5323 20.8657 58.0409 21.2289 58.5313 21.5786C58.781 21.7511 59.537 22.1303 59.5824 22.4368Z" fill="white"/>
</svg>
