<svg width="169" height="48" viewBox="0 0 169 48" fill="none" xmlns="http://www.w3.org/2000/svg">
<rect x="0.899902" width="168" height="48" fill="black" fill-opacity="0.01"/>
<path d="M108.863 9.35211H134.195V14.0277H124.146V38.6256H119.121V14.0277H108.863V9.35211Z" fill="white"/>
<path d="M67.2013 9.35211V14.0277H46.896V21.5494H63.2255V26.225H46.896V33.9499H67.2013V38.6256H41.8715V14.0277H41.8694V9.35211H67.2013Z" fill="white"/>
<path d="M79.8503 9.36432H73.2748L96.8269 38.6378H103.422L91.6441 24.0111L103.403 9.38666L96.8269 9.39682L88.3519 19.9225L79.8503 9.36432Z" fill="white"/>
<path d="M86.5978 30.2745L83.3049 26.1803L73.256 38.6601H79.8503L86.5978 30.2745Z" fill="white"/>
<path fill-rule="evenodd" clip-rule="evenodd" d="M42.0475 38.6256L18.4637 9.3399H12.1831V38.6133H17.2076V15.5971L35.7355 38.6256H42.0475Z" fill="white"/>
<path d="M135.324 38.4468C134.956 38.4468 134.643 38.3193 134.381 38.0644C134.119 37.8094 133.99 37.5007 133.993 37.1351C133.99 36.7795 134.119 36.4742 134.381 36.2192C134.643 35.9643 134.956 35.8368 135.324 35.8368C135.678 35.8368 135.988 35.9643 136.25 36.2192C136.516 36.4742 136.648 36.7795 136.652 37.1351C136.648 37.3766 136.587 37.598 136.465 37.7959C136.339 37.9972 136.179 38.1549 135.978 38.269C135.78 38.3864 135.562 38.4468 135.324 38.4468Z" fill="white"/>
<path d="M143.9 26.1147H146.127V34.6928C146.123 35.4812 145.953 36.1555 145.619 36.7225C145.282 37.2894 144.816 37.7221 144.217 38.0274C143.621 38.3293 142.923 38.4837 142.13 38.4837C141.404 38.4837 140.754 38.3528 140.176 38.0979C139.597 37.8429 139.137 37.4605 138.8 36.9572C138.46 36.454 138.293 35.8267 138.293 35.0753H140.523C140.526 35.404 140.601 35.6891 140.744 35.9273C140.887 36.1655 141.084 36.3466 141.337 36.4741C141.592 36.6016 141.885 36.6654 142.215 36.6654C142.572 36.6654 142.879 36.5916 143.127 36.4406C143.376 36.293 143.566 36.0716 143.699 35.7764C143.828 35.4845 143.897 35.1222 143.9 34.6928V26.1147Z" fill="white"/>
<path d="M155.288 29.4695C155.234 28.9495 154.995 28.5436 154.58 28.255C154.161 27.9632 153.62 27.8189 152.956 27.8189C152.49 27.8189 152.088 27.8894 151.754 28.0269C151.421 28.1678 151.162 28.3557 150.985 28.5939C150.808 28.8321 150.719 29.1038 150.712 29.4091C150.712 29.6641 150.773 29.8855 150.893 30.07C151.012 30.2578 151.172 30.4155 151.38 30.543C151.584 30.6738 151.812 30.7812 152.061 30.8684C152.312 30.9556 152.564 31.0294 152.816 31.0898L153.977 31.375C154.444 31.4823 154.897 31.6266 155.329 31.8111C155.761 31.9922 156.153 32.2237 156.496 32.5021C156.84 32.7806 157.113 33.1161 157.314 33.5086C157.514 33.9011 157.617 34.3607 157.617 34.8907C157.617 35.6053 157.433 36.2326 157.061 36.7761C156.69 37.3162 156.156 37.7389 155.455 38.0442C154.757 38.3461 153.912 38.5004 152.918 38.5004C151.958 38.5004 151.121 38.3529 150.416 38.0576C149.708 37.7658 149.156 37.3363 148.758 36.7727C148.36 36.2092 148.145 35.5214 148.115 34.7129H150.321C150.352 35.1356 150.488 35.4879 150.719 35.773C150.954 36.0548 151.26 36.2628 151.635 36.4037C152.013 36.5413 152.435 36.6117 152.901 36.6117C153.388 36.6117 153.817 36.5379 154.188 36.3936C154.556 36.2494 154.845 36.0481 155.053 35.7865C155.264 35.5281 155.37 35.2229 155.373 34.874C155.37 34.5553 155.274 34.2902 155.09 34.0822C154.903 33.8742 154.644 33.6998 154.314 33.5589C153.981 33.418 153.592 33.2905 153.15 33.1798L151.741 32.8242C150.723 32.5659 149.916 32.1734 149.327 31.6467C148.734 31.12 148.441 30.4222 148.441 29.5466C148.441 28.8287 148.639 28.1981 149.038 27.6579C149.432 27.1178 149.974 26.6985 150.658 26.3999C151.346 26.098 152.122 25.9503 152.986 25.9503C153.865 25.9503 154.634 26.098 155.298 26.3999C155.962 26.6985 156.483 27.1145 156.861 27.6445C157.239 28.1745 157.436 28.7817 157.446 29.4695H155.288Z" fill="white"/>
</svg>
