<svg width="103" height="48" viewBox="0 0 103 48" fill="none" xmlns="http://www.w3.org/2000/svg">
<rect x="0.925049" width="101.15" height="48" fill="black" fill-opacity="0.01"/>
<path d="M23.1971 5.5C23.5325 5.50003 23.8621 5.5898 24.1512 5.75977L38.5164 14.0537C38.8082 14.2193 39.0508 14.4595 39.2186 14.75C39.3864 15.0406 39.4731 15.3714 39.4705 15.707H39.4715V32.2939C39.4741 32.6294 39.3863 32.9595 39.2186 33.25C39.0509 33.5405 38.8092 33.7817 38.5174 33.9473L24.1522 42.2402C23.8628 42.4102 23.5328 42.5 23.1971 42.5C22.8616 42.5 22.5323 42.4101 22.243 42.2402L7.87777 33.9473C7.58554 33.7824 7.34284 33.5419 7.17562 33.251C7.00744 32.9605 6.91946 32.6296 6.92269 32.2939V15.707H6.92367C6.92111 15.3714 7.00771 15.0407 7.17562 14.75C7.34354 14.4594 7.5867 14.2192 7.87875 14.0537L22.243 5.75977C22.5322 5.58978 22.8617 5.5 23.1971 5.5ZM14.9032 30.3145C14.9032 30.8044 15.0977 31.2746 15.4442 31.6211C15.7905 31.9673 16.2601 32.162 16.7498 32.1621C17.2397 32.1621 17.71 31.9675 18.0565 31.6211C18.4029 31.2746 18.5975 30.8044 18.5975 30.3145L18.5965 30.3154V21.1309L26.8729 31.0352C27.1857 31.3941 27.573 31.6806 28.0077 31.875C28.4424 32.0694 28.9143 32.1663 29.3905 32.1602C29.6467 32.1836 29.906 32.1562 30.1512 32.0781C30.3962 32.0001 30.6228 31.8732 30.8182 31.7061C31.0137 31.5387 31.1738 31.3337 31.2889 31.1035C31.404 30.8733 31.4717 30.6221 31.4881 30.3652L31.4911 17.6855C31.4911 17.4431 31.4432 17.2026 31.3504 16.9785C31.2576 16.7545 31.1215 16.5504 30.95 16.3789C30.7785 16.2074 30.5745 16.0714 30.3504 15.9785C30.1263 15.8857 29.886 15.8379 29.6434 15.8379C29.4008 15.8379 29.1605 15.8857 28.9364 15.9785C28.7123 16.0714 28.5083 16.2074 28.3368 16.3789C28.1653 16.5504 28.0292 16.7544 27.9364 16.9785C27.8436 17.2026 27.7957 17.4431 27.7957 17.6855H27.7967V26.8691L20.0789 17.6328L19.5213 16.9648C19.2083 16.6059 18.8204 16.3194 18.3856 16.125C17.9508 15.9306 17.479 15.8328 17.0028 15.8389C16.7465 15.8154 16.4882 15.8438 16.243 15.9219C15.9979 15.9999 15.7705 16.1257 15.575 16.293C15.3795 16.4603 15.2194 16.6653 15.1043 16.8955C14.9893 17.1257 14.9216 17.377 14.9051 17.6338L14.9032 30.3145Z" fill="white"/>
<path d="M96.0772 17.7511H93.6422L90.9596 22.0038L88.3481 17.7511H85.8246L89.5833 23.8922L85.7893 30.245H88.189L90.8537 25.9569L93.4658 30.245H95.9893L92.1947 24.0513L96.0772 17.7511Z" fill="white"/>
<path d="M82.6783 17.7511V26.2572L77.7724 17.7511H75.7429V30.245H77.7724V21.7921L82.6783 30.245H84.7257V17.7511H82.6783Z" fill="white"/>
<path d="M74.0735 17.751H71.9028V30.2453H74.0735V17.751Z" fill="white"/>
<path d="M70.2335 22.1981V21.4922C70.2335 19.0746 68.4511 17.5039 65.3275 17.5039C62.2215 17.5039 60.4392 19.0746 60.4392 21.4922V26.504C60.4392 28.9219 62.2393 30.4924 65.3452 30.4924C68.4511 30.4924 70.2335 28.9219 70.2335 26.504V23.5747H65.2569V25.5864H68.0629V26.3805C68.0629 27.6865 67.0747 28.4807 65.3275 28.4807C63.5981 28.4807 62.6099 27.6865 62.6099 26.3805V21.6158C62.6099 20.3099 63.5981 19.5158 65.3452 19.5158C67.0747 19.5158 68.0629 20.3099 68.0629 21.6158V22.1981L70.2335 22.1981Z" fill="white"/>
<path d="M56.7122 17.7511V26.2572L51.8063 17.7511H49.7769V30.245H51.8063V21.7921L56.7122 30.245H58.7591V17.7511H56.7122Z" fill="white"/>
</svg>
