<svg width="144" height="48" viewBox="0 0 144 48" fill="none" xmlns="http://www.w3.org/2000/svg">
<rect x="0.199951" width="143" height="48" fill="black" fill-opacity="0.01"/>
<path d="M126.706 42.306C126.39 42.306 126.075 42.2229 125.797 42.0612L122.901 40.3474C122.468 40.1058 122.679 40.0195 122.822 39.9703C123.399 39.7692 123.516 39.7222 124.131 39.3746C124.196 39.3385 124.28 39.3517 124.347 39.391L126.571 40.7124C126.652 40.7572 126.767 40.7572 126.84 40.7124L135.515 35.7055C135.597 35.6596 135.648 35.5667 135.648 35.4705V25.4587C135.648 25.3604 135.597 25.2697 135.514 25.2194L126.842 20.2168C126.761 20.1709 126.655 20.1709 126.574 20.2168L117.904 25.2205C117.821 25.2697 117.767 25.3637 117.767 25.4587V35.4705C117.767 35.5667 117.821 35.6574 117.904 35.7022L120.28 37.0761C121.569 37.7198 122.36 36.9613 122.36 36.1984V26.3124C122.36 26.1735 122.472 26.0632 122.611 26.0632H123.712C123.848 26.0632 123.962 26.1735 123.962 26.3124V36.1984C123.962 37.9188 123.025 38.9057 121.394 38.9057C120.892 38.9057 120.497 38.9057 119.396 38.3636L117.121 37.0542C116.558 36.7285 116.212 36.1208 116.212 35.4716V25.4598C116.212 24.8095 116.558 24.2029 117.121 23.8794L125.796 18.8659C126.345 18.5565 127.074 18.5565 127.618 18.8659L136.293 23.8794C136.855 24.204 137.204 24.8106 137.204 25.4598V35.4716C137.204 36.1219 136.855 36.7263 136.293 37.0542L127.618 42.0623C127.343 42.2229 127.029 42.306 126.706 42.306ZM129.388 35.4082C125.589 35.4082 124.795 33.6649 124.795 32.2035C124.795 32.0658 124.907 31.9533 125.046 31.9533H126.168C126.293 31.9533 126.397 32.0429 126.417 32.1653C126.585 33.3075 127.091 33.8835 129.388 33.8835C131.214 33.8835 131.992 33.4703 131.992 32.4997C131.992 31.9401 131.771 31.5259 128.932 31.2472C126.558 31.0122 125.09 30.4887 125.09 28.588C125.09 26.8381 126.566 25.7932 129.038 25.7932C131.817 25.7932 133.192 26.7583 133.366 28.8284C133.373 28.8984 133.347 28.9672 133.3 29.0208C133.252 29.07 133.187 29.1006 133.117 29.1006H131.99C131.873 29.1006 131.77 29.0186 131.746 28.9049C131.475 27.7026 130.819 27.319 129.037 27.319C127.042 27.319 126.81 28.0152 126.81 28.5344C126.81 29.1651 127.084 29.3487 129.778 29.705C132.444 30.058 133.71 30.5564 133.71 32.4309C133.711 34.325 132.135 35.4082 129.388 35.4082ZM108.844 28.8415C109.186 28.6415 109.397 28.2765 109.397 27.8797V25.3068C109.397 24.9112 109.187 24.5461 108.844 24.3461L99.7021 19.0386C99.3579 18.8385 98.9338 18.8374 98.5884 19.0364L89.3898 24.3472C89.0466 24.5461 88.8346 24.9122 88.8346 25.309V35.9284C88.8346 36.3274 89.0488 36.6968 89.3964 36.8946L98.537 42.1027C98.8737 42.2962 99.2868 42.2972 99.6267 42.1093L105.155 39.0358C105.331 38.9374 105.44 38.7538 105.441 38.5549C105.443 38.3538 105.335 38.168 105.162 38.0685L95.9062 32.7566C95.7324 32.6571 95.6264 32.4735 95.6264 32.2757V28.9465C95.6264 28.7475 95.7324 28.565 95.904 28.4666L98.7862 26.8053C98.9567 26.7058 99.1688 26.7058 99.3404 26.8053L102.223 28.4666C102.395 28.5661 102.501 28.7486 102.501 28.9465V31.5652C102.501 31.7653 102.607 31.9489 102.779 32.0472C102.952 32.1467 103.164 32.1467 103.336 32.0462L108.844 28.8415ZM99.0092 28.3431C99.0759 28.306 99.1568 28.306 99.2223 28.3431L100.987 29.3629C101.053 29.4011 101.094 29.4722 101.094 29.5476V31.586C101.094 31.6625 101.053 31.7325 100.987 31.7707L99.2223 32.7894C99.1568 32.8276 99.0748 32.8276 99.0092 32.7894L97.2451 31.7707C97.1785 31.7325 97.138 31.6625 97.138 31.586V29.5476C97.138 29.4722 97.1785 29.4011 97.2451 29.3629L99.0092 28.3431ZM75.0718 32.5839C75.0718 32.6823 75.0193 32.7741 74.9329 32.8244L71.7742 34.6453C71.6879 34.6955 71.5819 34.6955 71.4966 34.6453L68.3379 32.8244C68.2515 32.7741 68.1991 32.6823 68.1991 32.5839V28.9355C68.1991 28.8372 68.2526 28.7442 68.3379 28.694L71.4966 26.8709C71.583 26.8195 71.689 26.8195 71.7753 26.8709L74.9351 28.694C75.0204 28.7442 75.0728 28.8372 75.0728 28.9355L75.0718 32.5839ZM75.9254 5.56971C75.7538 5.47462 75.5439 5.47681 75.3734 5.57627C75.204 5.67683 75.0991 5.85826 75.0991 6.055V20.1709C75.0991 20.3086 75.0248 20.4376 74.9056 20.5075C74.7854 20.5764 74.6367 20.5764 74.5165 20.5075L72.2125 19.1795C71.8693 18.9817 71.4463 18.9817 71.1031 19.1795L61.9024 24.4893C61.5581 24.6882 61.3461 25.0554 61.3461 25.4522V36.0749C61.3461 36.4716 61.5581 36.8378 61.9013 37.0378L71.102 42.3508C71.4452 42.5497 71.8693 42.5497 72.2136 42.3508L81.4165 37.0378C81.7597 36.8378 81.9718 36.4716 81.9718 36.0749V9.59517C81.9718 9.19295 81.7532 8.82134 81.4023 8.6246L75.9254 5.56971ZM43.5446 18.9795C43.8878 18.7806 44.3119 18.7806 44.6551 18.9795L53.8558 24.2882C54.199 24.4871 54.4111 24.8543 54.4111 25.2511V35.8771C54.4111 36.2738 54.199 36.6411 53.8558 36.84L44.6562 42.153C44.313 42.3508 43.8889 42.3508 43.5446 42.153L34.3472 36.84C34.004 36.6411 33.7919 36.2738 33.7919 35.8771V25.25C33.7919 24.8543 34.004 24.4871 34.3472 24.2882L43.5446 18.9795ZM26.8132 25.1625C26.8132 24.7625 26.6034 24.3953 26.258 24.1974L17.0605 18.9041C16.9032 18.8123 16.7294 18.7653 16.5534 18.7588H16.4583C16.2834 18.7653 16.1086 18.8123 15.9512 18.9041L6.75262 24.1974C6.41051 24.3953 6.19629 24.7625 6.19629 25.1625L6.21596 39.415C6.21596 39.614 6.3198 39.7987 6.49358 39.8949C6.66409 39.9976 6.87503 39.9976 7.04554 39.8949L12.5105 36.7646C12.8558 36.5591 13.0668 36.1973 13.0668 35.8006V29.1421C13.0668 28.7443 13.2766 28.3781 13.6209 28.1792L15.949 26.8392C16.1217 26.7375 16.3119 26.6894 16.5042 26.6894C16.6944 26.6894 16.8889 26.7375 17.0584 26.8392L19.3842 28.1792C19.7285 28.3781 19.9406 28.7443 19.9406 29.1421V35.8006C19.9406 36.1973 20.1537 36.5613 20.4969 36.7646L25.9618 39.8949C26.1334 39.9976 26.3476 39.9976 26.517 39.8949C26.6865 39.7976 26.7925 39.6129 26.7925 39.415L26.8132 25.1625Z" fill="white"/>
</svg>
