<svg width="155" height="48" viewBox="0 0 155 48" fill="none" xmlns="http://www.w3.org/2000/svg">
<mask id="mask0_121_394" style="mask-type:luminance" maskUnits="userSpaceOnUse" x="6" y="5" width="143" height="38">
<path d="M148.152 5H6.84766V43H148.152V5Z" fill="white"/>
</mask>
<g mask="url(#mask0_121_394)">
<path d="M21.8806 5C13.6125 5 6.84766 11.7648 6.84766 20.033C6.84766 28.3011 13.6125 35.066 21.8806 35.066C30.1488 35.066 36.9136 28.3428 36.9136 20.033C36.9136 11.723 30.1905 5 21.8806 5ZM21.8806 29.6791C16.7444 29.6791 12.6102 25.4616 12.6102 20.033C12.6102 14.6044 16.7444 10.3867 21.8806 10.3867C27.0169 10.3867 31.1509 14.6044 31.1509 20.033C31.1509 25.4616 27.0169 29.6791 21.8806 29.6791Z" fill="white"/>
<path d="M52.1134 13.3517C49.3991 13.3517 46.7684 14.4374 45.3903 16.2748V13.7692H39.9617V43.0001H45.3903V32.4353C46.7684 34.1473 49.3156 35.066 52.1134 35.066C57.9595 35.066 62.553 30.4726 62.553 24.2089C62.553 17.9452 57.9595 13.3517 52.1134 13.3517ZM51.1947 30.3474C48.1046 30.3474 45.3485 27.9254 45.3485 24.2089C45.3485 20.4923 48.1046 18.0704 51.1947 18.0704C54.2849 18.0704 57.0408 20.4923 57.0408 24.2089C57.0408 27.9254 54.2849 30.3474 51.1947 30.3474Z" fill="white"/>
<path d="M75.3314 13.3517C69.4018 13.3517 64.7249 17.9869 64.7249 24.2089C64.7249 30.4308 68.8172 35.066 75.4984 35.066C80.9688 35.066 84.4765 31.7671 85.5622 28.0506H80.259C79.5908 29.5957 77.7117 30.6813 75.4567 30.6813C72.6589 30.6813 70.5293 28.7188 70.0281 25.9209H85.8128V23.7913C85.8128 18.1121 81.8457 13.3517 75.3314 13.3517ZM70.0699 22.0792C70.6546 19.4485 72.8259 17.7364 75.4567 17.7364C78.2545 17.7364 80.3842 19.5737 80.6348 22.0792H70.0699Z" fill="white"/>
<path d="M100.261 13.3517C97.8387 13.3517 95.2914 14.4374 94.1222 16.2331V13.7692H88.6936V34.6485H94.1222V23.4155C94.1222 20.1583 95.876 18.0286 98.7155 18.0286C101.346 18.0286 102.766 20.0331 102.766 22.8309V34.6485H108.194V21.9539C108.194 16.7758 105.021 13.3517 100.261 13.3517Z" fill="white"/>
<path d="M122.099 5.41833L110.281 34.6492H116.086L118.591 28.2602H132.037L134.542 34.6492H140.43L128.696 5.41833H122.099ZM120.47 23.4162L125.314 11.181L130.115 23.4162H120.47Z" fill="white"/>
<path d="M148.155 5.41833H142.644V34.6492H148.155V5.41833Z" fill="white"/>
</g>
</svg>
