<svg width="84" height="48" viewBox="0 0 84 48" fill="none" xmlns="http://www.w3.org/2000/svg">
<rect x="0.72998" width="82.34" height="48" fill="black" fill-opacity="0.01"/>
<path d="M27.2758 18.7438H24.5093L23 26.5043H25.4559C27.0854 26.5043 28.2987 26.1966 29.0958 25.584C29.893 24.9686 30.4293 23.9458 30.7077 22.5097C30.9773 21.1323 30.8542 20.1593 30.3443 19.5937C29.8314 19.0281 28.8115 18.7438 27.2758 18.7438ZM41.9 5.5C22.4783 5.5 6.73169 13.7821 6.73169 23.9985C6.73169 34.2149 22.4783 42.5 41.9 42.5C61.3217 42.5 77.0683 34.2149 77.0683 23.9985C77.0683 13.7821 61.3217 5.5 41.9 5.5ZM32.3459 27.3366C31.581 28.0693 30.6608 28.6202 29.6585 28.9514C28.6738 29.2679 27.4165 29.432 25.8926 29.432H22.4314L21.4731 34.3585H17.4346L21.0393 15.819H28.8057C31.1414 15.819 32.8442 16.4315 33.9168 17.6594C34.9894 18.8845 35.3118 20.596 34.8839 22.794C34.72 23.6638 34.4183 24.5018 33.9901 25.2763C33.571 26.0236 33.0229 26.7124 32.3459 27.3366ZM44.1391 29.432L45.7304 21.229C45.9151 20.2971 45.8447 19.6582 45.5311 19.3211C45.2175 18.9812 44.5464 18.8112 43.5177 18.8112H40.3174L38.2542 29.435H34.245L37.8498 10.8925H41.856L40.8977 15.8219H44.4673C46.7151 15.8219 48.2625 16.2146 49.1154 16.9971C49.9682 17.7796 50.2232 19.0486 49.8861 20.8041L48.2098 29.432H44.1391ZM66.4035 22.794C66.2423 23.6645 65.9404 24.5029 65.5097 25.2763C65.0906 26.0236 64.5425 26.7124 63.8656 27.3366C63.1002 28.067 62.1823 28.6186 61.1781 28.9514C60.1934 29.2679 58.9361 29.432 57.4092 29.432H53.951L52.9927 34.3615H48.9542L52.5589 15.8219H60.3223C62.6581 15.8219 64.3608 16.4344 65.4335 17.6624C66.5061 18.8845 66.8314 20.596 66.4035 22.794ZM58.7984 18.7438H56.0347L54.5225 26.5043H56.9784C58.6108 26.5043 59.8241 26.1966 60.6183 25.584C61.4155 24.9686 61.9518 23.9458 62.2332 22.5097C62.5028 21.1323 62.3768 20.1593 61.8668 19.5937C61.3569 19.0281 60.3311 18.7438 58.7984 18.7438Z" fill="white"/>
</svg>
