<svg width="134" height="48" viewBox="0 0 134 48" fill="none" xmlns="http://www.w3.org/2000/svg">
<path fill-rule="evenodd" clip-rule="evenodd" d="M6.76729 29.0809C6.38992 29.6964 6.39576 30.4731 6.78235 31.0829L13.7795 42.1207C14.2336 42.8371 15.109 43.1638 15.9214 42.92L36.1135 36.8624C37.2154 36.5318 37.7699 35.3026 37.2882 34.2577L24.3078 6.10012C23.6748 4.72694 21.7664 4.61422 20.9761 5.90334L6.76729 29.0809ZM23.9629 12.5373C23.687 11.8989 22.7528 11.9972 22.6158 12.679L17.6184 37.562C17.513 38.0867 18.0043 38.5347 18.517 38.3817L32.4682 34.2172C32.8754 34.0956 33.0852 33.6458 32.9166 33.2558L23.9629 12.5373Z" fill="white"/>
<path fill-rule="evenodd" clip-rule="evenodd" d="M59.3741 21.0755C59.3741 23.009 58.7701 24.4873 57.5612 25.5113C56.3532 26.5358 54.6349 27.0474 52.4067 27.0474H50.7722V33.4376H46.9629V15.4719H52.7014C54.8809 15.4719 56.5376 15.941 57.6722 16.8786C58.8069 17.8168 59.3741 19.2157 59.3741 21.0755ZM50.7728 23.9266H52.0263C53.1979 23.9266 54.0739 23.6953 54.6558 23.2324C55.2377 22.7694 55.5284 22.0955 55.5284 21.2108C55.5284 20.3182 55.2846 19.6587 54.7973 19.2326C54.3096 18.8065 53.5459 18.5934 52.5054 18.5934H50.7728V23.9266Z" fill="white"/>
<path d="M70.7371 19.5513C70.4012 19.4776 69.9799 19.4407 69.4715 19.4407C68.6192 19.4407 67.831 19.6763 67.1063 20.1471C66.3806 20.6183 65.8054 21.2393 65.3793 22.009H65.1956L64.6423 19.6989H61.8035V33.4374H65.5518V26.4454C65.5518 25.3393 65.885 24.4788 66.5525 23.8644C67.2206 23.25 68.1525 22.9428 69.3487 22.9428C69.7828 22.9428 70.1513 22.984 70.4546 23.0656L70.7371 19.5513Z" fill="white"/>
<path d="M72.728 33.4376H76.4758V19.6991H72.728V33.4376Z" fill="white"/>
<path d="M72.5679 16.1475C72.5679 14.9268 73.2477 14.3168 74.6078 14.3168C75.9669 14.3168 76.6473 14.9268 76.6473 16.1475C76.6473 16.7293 76.4775 17.1819 76.1378 17.5056C75.7976 17.8293 75.2877 17.9907 74.6078 17.9907C73.2477 17.9907 72.5679 17.3763 72.5679 16.1475Z" fill="white"/>
<path d="M88.2018 32.577C89.1812 31.8397 89.6704 30.7667 89.6704 29.3573C89.6704 28.6774 89.5524 28.0916 89.3142 27.6C89.0766 27.1083 88.7075 26.6744 88.2082 26.2974C87.7089 25.9207 86.9223 25.5155 85.8489 25.0811C84.6447 24.5977 83.8645 24.2328 83.5078 23.9872C83.1521 23.7416 82.9732 23.4509 82.9732 23.1146C82.9732 22.5167 83.5265 22.2177 84.6324 22.2177C85.2546 22.2177 85.8649 22.3119 86.4631 22.5002C87.0612 22.6889 87.7047 22.9302 88.3925 23.2252L89.523 20.522C87.9583 19.8012 86.3488 19.4407 84.6938 19.4407C82.9567 19.4407 81.6152 19.7743 80.6694 20.4421C79.7226 21.1099 79.25 22.0537 79.25 23.2743C79.25 23.9872 79.3627 24.5873 79.588 25.0746C79.8129 25.5623 80.1733 25.9945 80.6694 26.3711C81.1645 26.7482 81.9415 27.1578 82.9978 27.6C83.7353 27.9115 84.3254 28.1836 84.7675 28.417C85.2097 28.6509 85.521 28.8596 85.7015 29.044C85.8815 29.2284 85.9718 29.468 85.9718 29.763C85.9718 30.5493 85.2914 30.9424 83.9318 30.9424C83.268 30.9424 82.5001 30.8318 81.628 30.6109C80.7549 30.3896 79.9709 30.1154 79.2746 29.7873V32.8841C79.8887 33.1462 80.5482 33.345 81.2531 33.4799C81.958 33.6153 82.8093 33.683 83.809 33.683C85.7587 33.683 87.223 33.3142 88.2018 32.577Z" fill="white"/>
<path d="M104.517 33.4374H100.769V25.413C100.769 24.422 100.603 23.6783 100.272 23.1827C99.9396 22.6872 99.4179 22.439 98.7049 22.439C97.7469 22.439 97.05 22.7913 96.6158 23.496C96.1817 24.2007 95.9643 25.3597 95.9643 26.9738V33.4374H92.2166V19.6989H95.08L95.5836 21.4562H95.7929C96.1614 20.8253 96.6938 20.3315 97.3902 19.9753C98.0865 19.619 98.8854 19.4407 99.7863 19.4407C101.843 19.4407 103.235 20.1128 103.965 21.4562H104.296C104.665 20.8171 105.208 20.3215 105.924 19.9692C106.642 19.6168 107.45 19.4407 108.352 19.4407C109.908 19.4407 111.086 19.8403 111.885 20.6387C112.683 21.4375 113.082 22.7176 113.082 24.4788V33.4374H109.322V25.413C109.322 24.422 109.156 23.6783 108.825 23.1827C108.493 22.6872 107.97 22.439 107.257 22.439C106.34 22.439 105.654 22.7671 105.199 23.4222C104.745 24.0779 104.517 25.118 104.517 26.5434V33.4374Z" fill="white"/>
<path fill-rule="evenodd" clip-rule="evenodd" d="M124.369 31.5696L125.094 33.4376H127.712V24.2825C127.712 22.644 127.22 21.4234 126.237 20.6207C125.254 19.8179 123.841 19.4161 121.997 19.4161C120.073 19.4161 118.319 19.8301 116.738 20.6575L117.979 23.189C119.462 22.5251 120.752 22.1936 121.85 22.1936C123.275 22.1936 123.988 22.89 123.988 24.2825V24.8848L121.604 24.9585C119.548 25.0322 118.01 25.4154 116.989 26.1075C115.97 26.8 115.46 27.8752 115.46 29.3332C115.46 30.7261 115.839 31.7991 116.596 32.5528C117.355 33.3065 118.392 33.6832 119.712 33.6832C120.785 33.6832 121.656 33.5296 122.323 33.2223C122.991 32.9151 123.64 32.3645 124.271 31.5696H124.369ZM122.538 27.1214L123.988 27.0724V28.2027C123.988 29.0306 123.728 29.6941 123.208 30.1935C122.688 30.6934 121.993 30.9433 121.125 30.9433C119.913 30.9433 119.307 30.4148 119.307 29.3582C119.307 28.6206 119.572 28.0721 120.105 27.7115C120.638 27.3509 121.449 27.1543 122.538 27.1214Z" fill="white"/>
</svg>
