<svg width="177" height="48" viewBox="0 0 177 48" fill="none" xmlns="http://www.w3.org/2000/svg">
<path d="M6.22387 21.2604C6.13333 21.8949 6.07442 22.5334 6.04736 23.1738H34.911C34.8102 22.9769 34.6748 22.7993 34.5382 22.6256C29.6038 16.2505 26.9494 16.8033 23.1524 16.6413C21.8865 16.5892 21.0279 16.5684 15.9889 16.5684C13.2919 16.5684 10.3598 16.5752 7.50464 16.5828C7.13506 17.5804 6.77859 18.5475 6.605 19.3341H21.3957V21.2604H6.22387ZM35.1385 25.102H6.06221C6.09265 25.616 6.14058 26.1231 6.20978 26.6235H33.0543C34.251 26.6235 34.9209 25.9445 35.1385 25.102ZM7.71791 31.8785C7.71791 31.8785 12.1682 42.8058 25.0273 43C32.7131 43 39.3171 38.4353 42.3168 31.8785H7.71791Z" fill="white"/>
<path d="M25.0271 5C17.9207 5 11.7367 8.90245 8.47105 14.6711C11.023 14.6658 15.9933 14.6627 15.9933 14.6627H15.9944V14.6609C21.8691 14.6609 22.0875 14.6871 23.2351 14.735L23.9457 14.7612C26.4209 14.8437 29.4632 15.1095 31.857 16.9206C33.1565 17.9029 35.0326 20.071 36.1509 21.6157C37.1848 23.0444 37.4823 24.6867 36.7793 26.2602C36.1322 27.7064 34.7401 28.569 33.0541 28.569H6.66675C6.66675 28.569 6.82382 29.2349 7.05938 29.9699H43.0791C43.7185 28.0472 44.0454 26.0344 44.0474 24.0081C44.048 13.5112 35.532 5 25.0271 5ZM63.1624 31.9347H67.6447V24.42H70.9151L74.9316 31.9347H79.8791L75.3764 23.6955C77.7881 22.6604 79.1235 20.5592 79.1235 17.661C79.1235 13.4482 76.3393 10.7363 71.5262 10.7363H63.1624V31.9347ZM67.6447 20.8179V14.4005H70.6668C73.2545 14.4005 74.5068 15.5494 74.5068 17.661C74.5068 19.7622 73.2545 20.8179 70.6874 20.8179H67.6447ZM86.7418 32.2348C89.0914 32.2348 90.6125 31.2101 91.3893 29.73H91.5134V31.9347H95.695V21.2113C95.695 17.4229 92.4861 15.8289 88.9463 15.8289C85.1371 15.8289 82.6325 17.6506 82.0215 20.5488L86.1 20.8801C86.4001 19.8243 87.342 19.048 88.9257 19.048C90.4263 19.048 91.2856 19.8036 91.2856 21.1078V21.1699C91.2856 22.1946 90.1985 22.3291 87.4349 22.5983C84.2886 22.8881 81.4628 23.9439 81.4628 27.4942C81.4628 30.6408 83.7088 32.2348 86.7418 32.2348ZM88.0043 29.1917C86.6484 29.1917 85.6752 28.5603 85.6752 27.3493C85.6752 26.1072 86.7003 25.4965 88.2526 25.2791C89.2156 25.1446 90.7885 24.9169 91.3164 24.5649V26.2521C91.3164 27.9186 89.94 29.1917 88.0043 29.1917ZM99.1161 31.9347H103.526V16.0359H99.1161V31.9347ZM101.331 13.9865C102.646 13.9865 103.722 12.9824 103.722 11.7507C103.722 10.5293 102.646 9.52529 101.331 9.52529C100.027 9.52529 98.9504 10.5293 98.9504 11.7507C98.9504 12.9824 100.027 13.9865 101.331 13.9865ZM111.467 10.7363H107.058V31.9347H111.467V10.7363ZM118.136 31.9347H122.793L125.526 21.9359H125.723L128.455 31.9347H133.123L137.439 16.0359H132.989L130.566 26.6558H130.432L127.824 16.0359H123.445L120.878 26.7179H120.733L118.27 16.0359H113.809L118.136 31.9347ZM144.325 32.2348C146.675 32.2348 148.197 31.2101 148.973 29.73H149.097V31.9347H153.279V21.2113C153.279 17.4229 150.07 15.8289 146.53 15.8289C142.721 15.8289 140.216 17.6506 139.606 20.5488L143.684 20.8801C143.984 19.8243 144.926 19.048 146.509 19.048C148.01 19.048 148.87 19.8036 148.87 21.1078V21.1699C148.87 22.1946 147.783 22.3291 145.019 22.5983C141.872 22.8881 139.046 23.9439 139.046 27.4942C139.046 30.6408 141.293 32.2348 144.325 32.2348ZM145.588 29.1917C144.232 29.1917 143.259 28.5603 143.259 27.3493C143.259 26.1072 144.284 25.4965 145.837 25.2791C146.799 25.1446 148.373 24.9169 148.9 24.5649V26.2521C148.9 27.9186 147.524 29.1917 145.588 29.1917ZM158.853 37.8967C162.134 37.8967 163.873 36.2199 164.774 33.6529L170.953 16.0566L166.284 16.0359L162.962 27.7115H162.796L159.505 16.0359H154.868L160.571 32.3901L160.312 33.0629C159.733 34.5534 158.625 34.6259 157.073 34.1497L156.079 37.4413C156.71 37.7104 157.735 37.8967 158.853 37.8967Z" fill="white"/>
</svg>
