<svg width="250" height="48" viewBox="0 0 250 48" fill="none" xmlns="http://www.w3.org/2000/svg">
<path d="M57.4544 24C57.4544 25.7493 56.745 27.3327 55.5963 28.4776C54.4476 29.6241 52.8611 30.3333 51.1084 30.3333C49.3557 30.3333 47.7691 31.0414 46.6217 32.1877C45.4732 33.3342 44.7625 34.9174 44.7625 36.6668C44.7625 38.416 44.0528 39.9993 42.9043 41.1445C41.7556 42.2908 40.1692 43 38.4163 43C36.6636 43 35.0771 42.2908 33.9298 41.1445C32.7811 39.9993 32.0703 38.416 32.0703 36.6668C32.0703 34.9174 32.7811 33.3342 33.9298 32.1877C35.0771 31.0414 36.6636 30.3333 38.4163 30.3333C40.1692 30.3333 41.7556 29.6241 42.9043 28.4776C44.0528 27.3327 44.7625 25.7493 44.7625 24C44.7625 20.5015 41.9219 17.6667 38.4163 17.6667C36.6636 17.6667 35.0771 16.9573 33.9298 15.811C32.7811 14.6659 32.0703 13.0826 32.0703 11.3334C32.0703 9.58408 32.7811 8.00074 33.9298 6.8544C35.0771 5.70807 36.6636 5 38.4163 5C41.9219 5 44.7625 7.83481 44.7625 11.3334C44.7625 13.0826 45.4732 14.6659 46.6217 15.811C47.7691 16.9573 49.3557 17.6667 51.1084 17.6667C54.6138 17.6667 57.4544 20.5015 57.4544 24Z" fill="white"/>
<path d="M32.0704 24C32.0704 20.5022 29.2292 17.6666 25.7244 17.6666C22.2196 17.6666 19.3784 20.5022 19.3784 24C19.3784 27.4978 22.2196 30.3333 25.7244 30.3333C29.2292 30.3333 32.0704 27.4978 32.0704 24Z" fill="white"/>
<path d="M19.3783 36.6666C19.3783 33.1689 16.5371 30.3334 13.0323 30.3334C9.52748 30.3334 6.68628 33.1689 6.68628 36.6666C6.68628 40.1645 9.52748 43 13.0323 43C16.5371 43 19.3783 40.1645 19.3783 36.6666Z" fill="white"/>
<path d="M70.1465 36.6666C70.1465 33.1689 67.3053 30.3334 63.8003 30.3334C60.2956 30.3334 57.4543 33.1689 57.4543 36.6666C57.4543 40.1645 60.2956 43 63.8003 43C67.3053 43 70.1465 40.1645 70.1465 36.6666Z" fill="white"/>
<mask id="mask0_121_355" style="mask-type:luminance" maskUnits="userSpaceOnUse" x="82" y="5" width="162" height="38">
<path d="M243.514 5.10828H82.925V42.9431H243.514V5.10828Z" fill="white"/>
</mask>
<g mask="url(#mask0_121_355)">
<path d="M130.144 42.9431C121.777 42.9431 116.061 37.286 116.061 29.1546C116.061 21.023 121.777 15.3658 130.144 15.3658C138.511 15.3658 144.286 21.0819 144.286 29.1546C144.286 37.2271 138.511 42.9431 130.144 42.9431ZM130.144 36.5207C133.857 36.5207 135.684 33.5144 135.684 29.1546C135.684 24.7945 133.857 21.7881 130.144 21.7881C126.432 21.7881 124.664 24.7945 124.664 29.1546C124.664 33.5144 126.373 36.5207 130.144 36.5207Z" fill="white"/>
<path d="M189.701 35.8859C187.631 35.8859 186.537 34.9125 186.537 32.5999V21.342H193.717V15.3857H186.537V5.14539H180.5L179.259 10.6456C178.653 12.9041 178.099 14.2969 176.579 15.013C176.405 15.0939 175.971 15.2141 175.593 15.2999C175.287 15.3685 174.975 15.4029 174.661 15.4029H171.844V15.4176H167.999C165.527 15.4176 163.521 17.421 163.521 19.8953V29.3926C163.521 33.576 161.929 36.2268 158.749 36.2268C155.569 36.2268 154.389 34.1644 154.389 30.4519V15.4176H145.907V32.5143C145.907 38.1126 148.146 42.9433 155.215 42.9433C158.573 42.9433 161.204 41.6215 162.785 39.4146C163.016 39.0935 163.521 39.2626 163.521 39.6549V42.2347H172.062V23.3063C172.062 22.2199 172.942 21.3396 174.029 21.3396H177.893V34.9714C177.893 41.0577 181.849 42.9433 186.231 42.9433C189.759 42.9433 192.072 42.0924 194.08 40.5697V34.7897C192.437 35.5207 191.037 35.8859 189.698 35.8859H189.701Z" fill="white"/>
<path d="M222.189 33.6344C220.833 39.5859 216.179 42.9455 209.342 42.9455C201.034 42.9455 195.142 37.8767 195.142 29.5687C195.142 21.2608 201.152 15.3682 209.166 15.3682C217.827 15.3682 222.366 21.3196 222.366 28.4506V29.9048H203.509C203.08 34.6988 206.336 36.5231 209.637 36.5231C212.584 36.5231 214.409 35.4025 215.353 32.9872L222.189 33.6344ZM214.176 25.7433C213.999 23.1514 212.349 21.5526 209.107 21.5526C205.689 21.5526 204.097 22.9724 203.626 25.7433H214.173H214.176Z" fill="white"/>
<path d="M242.984 23.7252C241.627 22.9601 240.333 22.6634 238.506 22.6634C234.97 22.6634 232.613 24.6668 232.613 29.2032V42.2343H224.129V15.4172H232.613V19.0194C232.613 19.2695 232.947 19.348 233.059 19.1249C234.295 16.658 236.762 14.7109 239.863 14.7109C241.453 14.7109 242.811 15.1817 243.516 15.7727L242.986 23.7276L242.984 23.7252Z" fill="white"/>
<path d="M126.814 11.8178V10.1626H121.353V11.8178H119.798V5.3833H125.676C128.185 5.3833 128.361 5.54024 128.361 7.77417C128.361 8.71582 128.165 8.96838 127.694 9.20871L127.273 9.4245L127.692 9.64519C128.192 9.90757 128.361 9.99586 128.361 11.4868V11.8178H126.817H126.814ZM121.353 8.92426H126.814V6.62411H121.353V8.9218V8.92426Z" fill="white"/>
<path d="M133.661 5.3833H140.762V6.62901H134.006V8.07826H140.583V9.12779H134.006V10.5795H140.765V11.8105L133.663 11.8178C132.969 11.8178 132.407 11.2563 132.407 10.5648V6.63882C132.407 5.9473 132.969 5.38575 133.661 5.38575V5.3833Z" fill="white"/>
<path d="M150.588 11.8178L150.058 10.6776H145.796L145.267 11.8178H143.783L146.512 5.93504C146.667 5.59909 147.008 5.3833 147.376 5.3833H148.472C148.842 5.3833 149.181 5.59909 149.335 5.93504L152.064 11.8178H150.581H150.588ZM147.93 6.66334C147.766 6.66334 147.621 6.75652 147.55 6.90611L146.284 9.63048H149.573L148.31 6.90611C148.241 6.75652 148.094 6.66334 147.93 6.66334Z" fill="white"/>
<path d="M159.22 12.0113C155.088 12.0113 154.926 12.0113 154.926 8.6003C154.926 5.18932 155.088 5.19177 159.22 5.19177C162.923 5.19177 163.371 5.34626 163.477 7.20502H161.959V6.43258H156.432V10.7705H161.959V10.0029H163.477C163.374 11.8568 162.923 12.0113 159.22 12.0113Z" fill="white"/>
<path d="M170.294 11.8178V6.43529H166.753V5.3833H175.316V6.43529H171.775V11.8178H170.294Z" fill="white"/>
<path d="M106.41 42.1902C105.644 41.1897 105.174 38.8945 104.879 35.0691C104.585 30.8316 102.761 29.8901 99.4061 29.8901H92.756V42.1926H82.925V5.10828H101.643C111.236 5.10828 116.005 9.63992 116.005 16.8812C116.005 22.2956 112.65 25.8268 108.119 26.4177C111.944 27.1828 114.181 29.3603 114.592 33.6566C115.122 39.1888 115.299 40.8365 116.535 42.1902H106.41ZM99.877 22.1779C104.114 22.1779 106.233 21.1186 106.233 17.7051C106.233 14.7037 104.114 13.1147 99.877 13.1147H92.756V22.1804H99.877V22.1779Z" fill="white"/>
</g>
</svg>
