<svg width="142" height="48" viewBox="0 0 142 48" fill="none" xmlns="http://www.w3.org/2000/svg">
<rect x="0.350098" width="141.5" height="48" fill="black" fill-opacity="0.01"/>
<path d="M28.038 24.0039C28.038 24.9178 27.675 25.7944 27.0289 26.4408C26.3828 27.0872 25.5064 27.4506 24.5924 27.451C23.6781 27.451 22.8013 27.0878 22.1549 26.4414C21.5084 25.7949 21.1452 24.9181 21.1452 24.0039C21.1452 23.0899 21.5082 22.2133 22.1543 21.5669C22.8005 20.9205 23.6769 20.5571 24.5908 20.5567C25.5051 20.5567 26.3819 20.9199 27.0284 21.5663C27.6748 22.2128 28.038 23.0896 28.038 24.0039ZM32.1203 7.52344C30.0453 7.52344 27.3304 9.00344 24.5847 11.5657C21.8405 9.01731 19.1241 7.55427 17.0506 7.55427C16.4185 7.55427 15.8434 7.69765 15.3455 7.98285C13.2257 9.2054 12.7508 13.0149 13.8454 17.7956C9.1526 19.2447 6.1001 21.5619 6.1001 24.0039C6.1001 26.4551 9.16801 28.7784 13.8747 30.2168C12.7894 35.016 13.2735 38.8316 15.3979 40.0526C15.8912 40.3409 16.4616 40.4766 17.0968 40.4766C19.1703 40.4766 21.8868 38.9966 24.6325 36.4312C27.3766 38.9811 30.0931 40.4442 32.1666 40.4442C32.7987 40.4442 33.3737 40.3054 33.8717 40.0202C35.9899 38.7992 36.4663 34.9898 35.3717 30.2075C40.0476 28.7707 43.1001 26.4489 43.1001 24.0039C43.1001 21.5526 40.0322 19.2293 35.3255 17.7879C36.4108 12.9933 35.9267 9.17456 33.8023 7.95202C33.3121 7.66835 32.7432 7.52498 32.1203 7.52344ZM32.1126 9.20385V9.2131C32.4595 9.2131 32.7386 9.28094 32.9729 9.4089C33.9996 9.99781 34.4452 12.2379 34.0983 15.1192C34.0151 15.8284 33.8794 16.5761 33.7129 17.3392C32.2329 16.9754 30.6203 16.6964 28.9229 16.516C27.9054 15.1208 26.8494 13.8535 25.7856 12.7435C28.24 10.4619 30.5448 9.21002 32.1142 9.2054L32.1126 9.20385ZM17.0506 9.23469C18.6107 9.23469 20.9263 10.4804 23.3868 12.7497C22.3292 13.8597 21.2747 15.1192 20.2726 16.5144C18.566 16.6948 16.9519 16.9739 15.4734 17.3439C15.3008 16.5884 15.1728 15.8577 15.0818 15.1547C14.7273 12.2749 15.1651 10.0364 16.1826 9.43973C16.4755 9.30098 16.7993 9.2424 17.0506 9.23469ZM24.577 13.9368C25.2784 14.6583 25.9799 15.4661 26.6736 16.3479C25.9953 16.3171 25.3016 16.2955 24.6001 16.2955C23.8909 16.2955 23.1895 16.3109 22.5034 16.3479C23.1818 15.4661 23.8832 14.6598 24.577 13.9368ZM24.6001 17.9852C25.7409 17.9852 26.8771 18.0376 27.9948 18.1286C28.6208 19.0258 29.2313 19.9832 29.8186 20.9961C30.3921 21.9827 30.9132 22.9848 31.3881 23.9961C30.9132 25.0059 30.3921 26.0157 29.8263 27.0024C29.2405 28.0199 28.6346 28.9881 28.0072 29.8853C26.8848 29.9824 25.7471 30.0364 24.6001 30.0364C23.4593 30.0364 22.3231 29.9824 21.2053 29.893C20.5794 28.9958 19.9689 28.0369 19.3816 27.0255C18.8081 26.0389 18.287 25.0368 17.8121 24.0254C18.2793 23.0126 18.8081 22.0012 19.3738 21.013C19.9597 19.9955 20.5656 19.0304 21.193 18.1332C22.3153 18.0345 23.4531 17.9821 24.6001 17.9821V17.9852ZM18.9961 18.3768C18.6261 18.958 18.2561 19.5531 17.9108 20.1651C17.5639 20.7664 17.2402 21.3707 16.9318 21.975C16.5233 20.9637 16.1764 19.9554 15.8897 18.9734C16.8763 18.7421 17.917 18.5356 18.9961 18.3768ZM30.1886 18.3768C31.2601 18.5356 32.293 18.7314 33.2812 18.9734C33.0037 19.9477 32.6568 20.9498 32.2637 21.9534C31.9554 21.3522 31.6316 20.7463 31.2771 20.1435C30.9302 19.5392 30.5602 18.9503 30.1902 18.3768H30.1886ZM34.9108 19.4174C35.6569 19.6486 36.3661 19.9061 37.0306 20.1851C39.7007 21.326 41.4274 22.8183 41.4274 24.0023C41.4197 25.1863 39.693 26.6848 37.0228 27.8179C36.3753 28.0954 35.6662 28.3452 34.9339 28.578C34.5022 27.1011 33.938 25.5625 33.2381 23.9838C33.9318 22.4159 34.4868 20.8851 34.9108 19.4143V19.4174ZM14.2601 19.4236C14.6887 20.9036 15.2545 22.4406 15.956 24.0177C15.2622 25.5856 14.7041 27.1165 14.2817 28.5872C13.5356 28.356 12.8264 28.097 12.1696 27.8164C9.49947 26.6802 7.77281 25.1863 7.77281 24.0023C7.77281 22.8183 9.49947 21.3167 12.1696 20.1851C12.8171 19.9076 13.5263 19.6579 14.2601 19.4236ZM32.2637 26.0219C32.6723 27.0348 33.0191 28.0446 33.3059 29.0251C32.3192 29.2671 31.2771 29.4721 30.1979 29.6263C30.5679 29.0482 30.9379 28.4516 31.2848 27.8411C31.6316 27.2398 31.9538 26.6262 32.2637 26.0219ZM16.9318 26.0527C17.2402 26.6571 17.5639 27.2599 17.9185 27.8642C18.2731 28.4654 18.6354 29.0544 19.0054 29.6263C17.9339 29.4691 16.901 29.2717 15.9128 29.0312C16.1903 28.06 16.5387 27.0548 16.9303 26.0512L16.9318 26.0527ZM33.7268 30.6577C33.8994 31.4177 34.0351 32.15 34.1183 32.8515C34.4729 35.7313 34.0351 37.9698 33.0176 38.568C32.791 38.7067 32.4965 38.7653 32.1496 38.7653C30.5895 38.7653 28.2739 37.5212 25.8134 35.2503C26.871 34.1403 27.9255 32.8823 28.9276 31.4886C30.6342 31.3067 32.2483 31.0277 33.7268 30.6577ZM15.4888 30.6731C16.9688 31.0339 18.5814 31.3129 20.2788 31.4933C21.2963 32.8885 22.3523 34.1557 23.4161 35.2642C20.9571 37.5505 18.6493 38.8023 17.0798 38.8023C16.7407 38.7946 16.4539 38.7252 16.2273 38.5988C15.2006 38.013 14.755 35.7714 15.1019 32.89C15.1851 32.1809 15.3223 31.4347 15.4888 30.6731ZM22.5188 31.6598C23.1972 31.6906 23.8909 31.7122 24.5924 31.7122C25.3016 31.7122 26.003 31.6968 26.6891 31.6598C26.0107 32.5416 25.3093 33.3479 24.6155 34.0725C23.9141 33.3479 23.2126 32.5416 22.5188 31.6598Z" fill="white"/>
<path d="M66.6834 23.6786C68.6313 21.288 68.7199 18.6318 67.6574 15.9755C66.5949 13.3193 64.3813 12.0797 61.6366 11.9911C58.3605 11.9026 54.9959 11.9911 51.7199 11.9911H51.1001V34.9234H53.7563V26.2463H57.9178C58.4491 26.2463 58.8918 26.4234 59.1574 26.8661L64.4699 35.1005C64.5584 35.2776 64.8241 35.5432 65.0011 35.5432H68.4543C66.3293 32.2672 64.2928 29.1682 62.1678 25.9807C64.0272 25.7151 65.6209 25.0953 66.6834 23.6786ZM53.7563 23.5015V14.7359H54.7303C56.7668 14.7359 58.8918 14.6474 60.9282 14.8245C63.3188 14.913 65.0011 16.7724 65.0011 19.163C65.0011 21.5536 63.0532 23.413 60.6626 23.5015C58.5376 23.5901 56.4126 23.5015 53.7563 23.5015ZM88.022 24.6526C86.6053 18.4547 80.9386 16.8609 76.6001 18.8088C73.2355 20.3141 71.7303 23.2359 71.6418 26.8661C71.5532 29.6109 72.3501 32.0901 74.4751 33.9495C76.8657 36.0745 79.7876 36.3401 82.798 35.8088C84.4803 35.4547 85.9855 34.6578 87.1366 33.4182C86.6938 32.7984 86.2511 32.1786 85.8084 31.6474C83.3293 33.7724 80.5845 34.4807 77.5741 33.064C75.6261 32.0901 74.6522 29.6995 74.4751 27.9286H88.1991V26.7776C88.2876 25.9807 88.1991 25.2724 88.022 24.6526ZM74.6522 26.0693C74.3866 23.413 77.0428 20.5797 79.9647 20.5797C83.3293 20.4911 85.4543 22.5276 85.5428 26.0693H74.6522ZM101.834 18.3661C100.506 18.1005 99.0897 18.012 97.7616 18.1005C95.6366 18.2776 93.7772 19.2515 92.272 20.8453C92.7147 21.4651 93.0688 22.0849 93.6001 22.7932C93.7772 22.6161 93.9543 22.4391 94.1313 22.3505C95.548 21.0224 97.2303 20.314 99.2668 20.4911C100.861 20.5797 102.366 21.1109 102.808 22.7047C103.163 23.9443 103.074 25.2724 103.163 26.6005C102.897 26.6005 102.808 26.512 102.72 26.4234C100.595 24.6526 98.2043 24.2984 95.6366 24.9182C93.2459 25.538 91.7407 27.3974 91.5636 29.788C91.3866 32.5328 92.6261 34.5693 95.0168 35.5432C96.522 36.163 98.2043 36.163 99.798 35.8088C101.038 35.5432 101.569 34.8349 103.34 33.8609V35.012H105.819C105.819 31.4703 105.907 27.1318 105.819 23.0588C105.819 20.4911 104.314 18.8974 101.834 18.3661ZM103.074 29.5224C102.986 29.788 103.074 30.0536 103.074 30.3193C103.074 32.1786 102.631 32.7984 100.861 33.5068C99.6209 33.9495 98.2928 34.1265 96.9647 33.6838C95.4595 33.2411 94.397 31.913 94.397 30.4078C94.3084 28.9026 95.2824 27.3974 96.7876 26.9547C98.8241 26.2463 100.683 26.689 102.366 27.9286C102.897 28.3713 103.251 28.814 103.074 29.5224ZM116.887 20.7568C119.189 20.0484 121.314 20.4911 122.907 22.439L123.173 22.6161C123.793 22.0849 124.324 21.5536 125.032 20.9338C124.767 20.6682 124.678 20.4911 124.501 20.2255C121.933 17.4807 116.887 17.1266 113.788 19.3401C109.449 22.5276 109.538 28.7255 111.663 32.0015C113.699 35.1005 116.621 36.163 120.074 35.7203C122.111 35.4547 123.793 34.4807 125.121 32.7984C124.501 32.2672 123.881 31.7359 123.262 31.1161C123.084 31.2932 122.996 31.3818 122.907 31.5588C120.517 34.2151 116.532 33.9495 114.407 31.1161C113.168 29.4338 112.902 27.4859 113.256 25.538C113.433 23.3245 114.584 21.5536 116.887 20.7568ZM135.303 32.7984C135.126 32.887 135.038 32.9755 135.038 32.9755C134.329 33.5068 133.621 33.5953 132.824 33.3297C132.027 32.9755 131.939 32.2672 131.85 31.5588V21.4651C131.85 21.288 131.85 21.6422 131.939 20.7568H135.303V18.1005H131.762V13.6734H129.105V18.4547H126.803C126.626 18.4547 126.361 18.6318 126.361 18.8088C126.272 19.4286 126.361 19.8713 126.361 20.7568H129.194V32.0901C129.194 33.5068 129.548 34.7463 130.788 35.4547C132.116 36.2515 134.683 36.0745 135.834 35.1005C136.012 35.012 136.1 34.6578 136.1 34.5693C135.834 34.038 135.569 33.4182 135.303 32.7984Z" fill="white"/>
</svg>
