<svg width="58" height="48" viewBox="0 0 58 48" fill="none" xmlns="http://www.w3.org/2000/svg">
<path d="M37.4341 32.3324C39.0668 32.1635 40.3054 30.756 40.2491 29.067C40.1928 27.378 38.7853 26.0267 37.0963 26.0267H36.9837C35.2384 26.083 33.8872 27.5469 33.9435 29.2922C33.9998 30.1367 34.3376 30.8686 34.8443 31.3753C32.9301 35.1474 30.0025 37.9061 25.611 40.2144C22.6271 41.7908 19.5306 42.3538 16.4341 41.9597C13.9006 41.6219 11.9301 40.4959 10.6915 38.638C8.88986 35.8793 8.72096 32.8954 10.2411 29.9115C11.3108 27.7721 12.9998 26.1956 14.0695 25.4074C13.8443 24.6755 13.5065 23.4369 13.3376 22.5361C5.17404 28.4477 6.01854 36.4423 8.49575 40.2144C10.3537 43.0294 14.1258 44.7747 18.292 44.7747C19.418 44.7747 20.544 44.6621 21.67 44.3806C28.8765 42.9731 34.3376 38.6943 37.4341 32.3324Z" fill="white"/>
<path d="M47.3429 25.3513C43.0641 20.3405 36.7585 17.5818 29.5521 17.5818H28.6513C28.1446 16.5684 27.0749 15.8928 25.8925 15.8928H25.7799C24.0346 15.9491 22.6834 17.4129 22.7397 19.1582C22.796 20.8472 24.2035 22.1985 25.8925 22.1985H26.0051C27.2438 22.1422 28.3135 21.3539 28.7639 20.2842H29.7773C34.0561 20.2842 38.1097 21.5228 41.7692 23.9438C44.5842 25.8017 46.611 28.2226 47.7371 31.1502C48.6942 33.5148 48.6379 35.8231 47.6244 37.7936C46.048 40.7775 43.4019 42.4103 39.9113 42.4103C37.6593 42.4103 35.5199 41.7346 34.3939 41.2279C33.7746 41.7909 32.6486 42.6918 31.8604 43.2548C34.2813 44.3808 36.7585 45.0001 39.1231 45.0001C44.5279 45.0001 48.5253 42.0161 50.0454 39.0322C51.6781 35.7668 51.5655 30.1368 47.3429 25.3513Z" fill="white"/>
<path d="M18.7422 33.2895C18.7985 34.9785 20.206 36.3298 21.8951 36.3298H22.0077C23.753 36.2735 25.1042 34.8096 25.0479 33.0643C24.9916 31.3753 23.5841 30.0241 21.8951 30.0241H21.7825C21.6699 30.0241 21.5009 30.0241 21.3883 30.0804C19.08 26.252 18.1229 22.0858 18.4607 17.5818C18.6859 14.2038 19.8119 11.2761 21.7825 8.85523C23.4152 6.77212 26.568 5.75871 28.7074 5.70241C34.6752 5.58981 37.2087 13.0214 37.3776 16.0054C38.1095 16.1743 39.3481 16.5684 40.1926 16.8499C39.517 7.72922 33.887 3 28.4822 3C23.4152 3 18.7422 6.65952 16.8843 12.0643C14.2945 19.2708 15.9835 26.1957 19.1363 31.6568C18.8548 32.0509 18.6859 32.6702 18.7422 33.2895Z" fill="white"/>
</svg>
