<svg width="127" height="48" viewBox="0 0 127 48" fill="none" xmlns="http://www.w3.org/2000/svg">
<path d="M21.6753 7.19767C18.7742 7.86203 16.3161 9.85513 14.9431 12.6898C13.7029 15.2365 13.3707 16.7645 13.3929 20.0642C13.415 22.5224 13.5036 23.231 13.9908 24.8919C14.323 25.9549 14.8988 27.4387 15.2752 28.1695C15.8289 29.2767 15.9175 29.6753 15.8067 30.4504C15.4081 33.0193 18.3756 34.4809 19.9922 32.5543C21.321 30.9819 20.258 28.5902 18.2427 28.5902C17.7334 28.5902 17.5562 28.3688 16.8919 26.9515C15.1645 23.2089 14.8545 18.8019 16.0725 15.0815C16.5818 13.4648 17.9991 11.3832 19.195 10.4973C21.0552 9.08004 24.1556 8.65927 25.9937 9.54509C27.9425 10.4752 29.8027 13.2434 30.3342 16.0116C30.5778 17.2517 30.5999 17.2517 31.5743 17.5175C32.128 17.6503 32.6152 17.7389 32.6373 17.6946C32.8809 17.4732 31.9286 13.8192 31.3086 12.5126C29.3598 8.45996 25.4622 6.31185 21.6753 7.19767Z" fill="white"/>
<path d="M85.6758 18.514C85.6758 20.3963 85.6536 21.9465 85.6093 21.9465C85.5872 21.9465 85.1664 21.7472 84.6792 21.5036C83.4834 20.9057 81.5567 20.9057 80.2501 21.5257C78.8107 22.2123 77.5705 23.7181 77.039 25.4455C76.1532 28.2801 76.6626 31.9341 78.1685 33.7722C79.8515 35.8096 82.819 36.0089 85.1443 34.2373C85.5651 33.9051 85.9415 33.6836 85.9637 33.7058C85.9858 33.7501 86.163 34.0822 86.3402 34.4587C86.6723 35.1009 86.7609 35.1231 88.289 35.1895L89.8834 35.256V25.1576V15.0814H87.7796H85.6758V18.514ZM85.1886 24.5154C85.6536 24.8254 85.6758 25.0026 85.6758 28.0365V31.2255L85.0557 31.6462C83.572 32.7092 81.756 32.377 81.2688 30.9819C80.4716 28.7673 80.8924 25.5341 82.0439 24.6261C82.7747 24.0503 84.4578 24.006 85.1886 24.5154Z" fill="white"/>
<path d="M47.519 15.6794C47.4305 15.7458 47.364 20.1971 47.364 25.5341V35.2339H49.6893H52.0146V31.5799V27.9258H52.7454C53.144 27.9258 53.6755 28.0809 53.9412 28.258C54.207 28.4352 55.1371 29.8525 56.0008 31.4027C58.3039 35.4332 58.0381 35.2339 60.9171 35.2339C62.2236 35.2339 63.3088 35.1896 63.3088 35.1231C63.3088 34.7909 58.9904 27.9701 58.5475 27.5937C57.8388 27.0179 57.861 26.9293 58.6582 26.5971C60.4741 25.8442 61.9579 22.9874 61.67 20.7729C61.2714 17.9161 59.3669 16.2552 55.8679 15.7458C54.1627 15.5022 47.7405 15.4358 47.519 15.6794ZM56.488 19.9092C57.1302 20.5514 57.2188 20.7729 57.1966 21.7915C57.1745 23.8954 56.045 24.8255 53.4762 24.8255H52.0146V21.9244V19.0234L53.8969 19.0898C55.6686 19.1784 55.8014 19.2227 56.488 19.9092Z" fill="white"/>
<path d="M20.2137 17.6061C19.2172 18.049 18.6636 19.3113 18.9957 20.4185C19.1286 20.8836 19.5051 21.4594 19.8373 21.703C20.856 22.5224 22.6276 22.2123 23.3584 21.105C23.7127 20.5735 23.7792 20.5735 25.4179 20.7064C27.9425 20.9279 29.7585 21.4151 31.973 22.5002C35.937 24.4269 38.5945 27.5494 39.1924 31.0041C39.7461 34.0823 37.598 37.2713 34.409 38.1349C33.2796 38.445 30.2899 38.2678 29.0277 37.8027L28.0533 37.4484L27.1896 38.1571C26.3702 38.8214 26.3259 38.8879 26.6802 39.1536C27.2117 39.5301 28.2747 39.8401 30.2457 40.1502C33.346 40.6374 36.7121 39.6408 38.9267 37.5591C41.5177 35.1231 41.9828 31.3584 40.1447 27.4829C39.5246 26.1542 38.9488 25.4234 37.3322 23.8068C35.627 22.1237 34.9405 21.6144 33.191 20.7507C30.6886 19.5327 28.2747 18.8905 25.5508 18.6912C23.8678 18.5805 23.4691 18.4919 22.9819 18.0268C22.2733 17.3846 21.1217 17.1853 20.2137 17.6061Z" fill="white"/>
<path d="M67.0736 21.4372C64.1725 22.4337 62.5559 24.8033 62.5559 28.0365C62.5559 30.5833 63.0653 31.9341 64.6154 33.4622C66.2321 35.0788 67.6494 35.566 70.2625 35.411C72.3221 35.2781 74.0051 34.658 74.9352 33.6836L75.5332 33.0635L74.8024 32.1556C74.4037 31.6462 73.9165 31.2476 73.6951 31.2476C73.4958 31.2476 72.7871 31.4912 72.1228 31.8013C69.8639 32.8421 67.893 32.3549 67.0736 30.5168C66.83 30.0075 66.6307 29.4538 66.6307 29.2988C66.6307 29.0995 67.6272 29.0331 70.9491 29.0331C75.1345 29.0331 75.2674 29.0109 75.511 28.5459C76.1975 27.2614 75.046 23.5853 73.6065 22.478C71.8349 21.1271 69.1553 20.7064 67.0736 21.4372ZM71.0598 24.5375C71.4141 24.8919 71.7906 25.4898 71.857 25.8663L72.012 26.5971H69.3324H66.6528L66.8521 25.9106C67.2286 24.604 68.0923 23.9839 69.5539 23.9618C70.174 23.9396 70.5726 24.0946 71.0598 24.5375Z" fill="white"/>
<path d="M92.1424 26.6414C92.2088 31.6905 92.2309 32.0891 92.696 32.9307C93.2939 34.038 94.2462 34.8795 95.3313 35.2338C96.7929 35.721 99.0075 35.2781 100.447 34.2373C100.89 33.8829 100.934 33.9051 101.222 34.503C101.488 35.0788 101.598 35.1231 103.127 35.1895L104.721 35.256V28.258V21.2821H102.617H100.513V26.3535V31.4248L99.9154 31.8013C99.5833 32.0227 98.8967 32.2442 98.3874 32.3106C97.5902 32.3992 97.3687 32.3106 96.8815 31.8455L96.3057 31.2698V26.2649V21.2821H94.1797H92.0759L92.1424 26.6414Z" fill="white"/>
<path d="M105.961 21.548C106.05 21.703 107.002 23.1203 108.043 24.7148C109.084 26.2871 110.014 27.7044 110.102 27.8373C110.169 27.948 109.216 29.6532 107.954 31.602L105.673 35.1232L107.666 35.1896C108.951 35.2339 109.748 35.1674 109.947 34.9903C110.124 34.8353 110.855 33.728 111.564 32.5321L112.848 30.3176L114.221 32.6872C114.996 33.9716 115.727 35.0789 115.882 35.1453C116.037 35.2117 117.1 35.2117 118.274 35.1896L120.378 35.1232L118.075 31.4913L115.771 27.8594L117.72 25.0248C118.783 23.4525 119.802 21.9687 119.979 21.7251C120.267 21.2822 120.223 21.2822 118.163 21.2822C115.749 21.2822 115.971 21.1493 114.465 23.7625C113.911 24.7369 113.358 25.5342 113.247 25.5342C113.158 25.5342 112.494 24.604 111.807 23.4746L110.567 21.3929L108.176 21.3265C106.293 21.2822 105.828 21.3265 105.961 21.548Z" fill="white"/>
<path d="M9.51747 24.2939C7.03717 26.8185 5.99633 29.476 6.26208 32.5764C6.57212 36.2082 8.67594 38.7771 12.1528 39.7515C14.1902 40.3051 15.4746 40.3716 17.5341 39.9951C22.5612 39.1093 26.946 36.2082 29.537 32.0449C30.3121 30.8047 30.7993 30.2511 31.3308 30.0296C32.283 29.631 32.8588 28.5016 32.6595 27.4165C32.2387 25.2241 29.1384 24.7811 28.1197 26.7521C27.7654 27.4386 27.8096 28.6345 28.2304 29.2324C28.5847 29.7196 28.5626 29.786 27.566 31.2476C26.3038 33.0636 25.0857 34.2373 22.9598 35.6103C20.3023 37.3376 18.5971 37.9356 16.0061 38.0463C12.4185 38.2456 10.3368 37.3155 8.94168 34.9459C7.32506 32.1556 7.92299 28.9888 10.6247 26.0434C11.8206 24.7369 11.8427 24.6926 11.6213 23.8953C11.4884 23.4524 11.3113 23.0095 11.2005 22.9209C11.1119 22.8323 10.359 23.4524 9.51747 24.2939Z" fill="white"/>
<path d="M113.402 37.2491C112.826 37.4706 112.738 38.445 113.269 38.6443C113.911 38.8879 114.443 38.7771 114.686 38.3564C115.129 37.4927 114.421 36.8726 113.402 37.2491Z" fill="white"/>
<path d="M100.07 41.1024V44.9779H100.956H101.842V41.1024V37.227H100.956H100.07V41.1024Z" fill="white"/>
<path d="M80.8037 38.4449C80.8037 39.1979 80.8259 39.22 81.6895 39.22H82.5754V42.1211V45L83.5276 44.9336L84.4577 44.8671L84.5242 42.0325L84.5906 39.22H85.41C86.2294 39.22 86.2515 39.22 86.1629 38.4449L86.0743 37.6698H83.439H80.8037V38.4449Z" fill="white"/>
<path d="M106.05 41.3238V45L107.002 44.9336L107.932 44.8671L107.998 43.5827C108.087 41.8996 108.508 41.9218 109.371 43.6491C110.036 44.9779 110.036 44.9779 111.032 44.9779C111.586 44.9779 112.029 44.9114 112.029 44.845C112.029 44.7785 111.586 43.9149 111.032 42.9405C110.479 41.9661 110.036 41.0802 110.036 40.9695C110.036 40.8809 110.479 40.1501 111.032 39.375C111.586 38.5778 112.029 37.8692 112.029 37.8027C112.029 37.7363 111.608 37.6698 111.077 37.6698C110.169 37.6698 110.124 37.7141 109.15 39.1314L108.153 40.6152L108.043 39.1979L107.932 37.7806L107.002 37.7141L106.05 37.6477V41.3238Z" fill="white"/>
<path d="M116.813 38.8879C116.746 39.1758 116.48 39.5301 116.237 39.663C115.727 39.9287 115.639 40.7703 116.126 40.7703C116.392 40.7703 116.458 41.1024 116.458 42.4312C116.458 44.4464 116.835 44.9779 118.208 44.9779C119.47 44.9779 119.78 44.8007 119.78 44.0921C119.78 43.5384 119.691 43.4499 119.071 43.3834C118.341 43.317 118.341 43.2948 118.274 42.0326L118.208 40.7703H119.005C119.714 40.7703 119.78 40.726 119.78 40.128C119.78 39.5523 119.691 39.4637 119.071 39.3972C118.518 39.3529 118.318 39.2201 118.274 38.8215C118.163 38.0907 117.012 38.1349 116.813 38.8879Z" fill="white"/>
<path d="M88.3996 39.5522C86.5616 40.3494 86.5173 43.7155 88.3332 44.6457C89.8391 45.4208 91.6107 44.845 92.2087 43.3834C92.6294 42.3204 92.6294 41.8553 92.2308 40.8809C91.6329 39.4636 89.9498 38.8657 88.3996 39.5522ZM90.1934 40.9031C90.8356 41.5453 90.5256 43.6491 89.7727 43.6491C89.3519 43.6491 88.7761 42.7854 88.7761 42.0989C88.7761 41.501 89.3297 40.5487 89.6619 40.5487C89.7727 40.5487 90.0163 40.7038 90.1934 40.9031Z" fill="white"/>
<path d="M94.822 39.5522C92.9839 40.3495 92.9396 43.7156 94.7556 44.6457C96.0179 45.2879 97.6123 44.9557 98.4539 43.8706C98.6089 43.6934 98.786 43.1398 98.8525 42.6304C99.229 40.2387 97.0587 38.5778 94.822 39.5522ZM96.6379 40.9031C97.1251 41.4124 97.0144 43.1841 96.4608 43.5163C96.1286 43.7156 95.9736 43.6491 95.5971 43.2062C95.132 42.6304 95.1542 41.4789 95.6635 40.8588C95.9957 40.4602 96.195 40.4602 96.6379 40.9031Z" fill="white"/>
<path d="M112.915 42.2097V44.9779H113.801H114.686V42.2097V39.4415H113.801H112.915V42.2097Z" fill="white"/>
</svg>
