<svg width="165" height="48" viewBox="0 0 165 48" fill="none" xmlns="http://www.w3.org/2000/svg">
<mask id="mask0_121_319" style="mask-type:luminance" maskUnits="userSpaceOnUse" x="5" y="5" width="154" height="38">
<path d="M158.202 5H5.9978V43H158.202V5Z" fill="white"/>
</mask>
<g mask="url(#mask0_121_319)">
<path fill-rule="evenodd" clip-rule="evenodd" d="M36.9247 33.7068C37.2595 38.0077 37.2595 40.0239 37.2595 42.2245H27.3076C27.3076 41.7452 27.3162 41.3068 27.3248 40.862C27.3518 39.4797 27.38 38.0383 27.156 35.1275C26.86 30.8657 25.0246 29.9188 21.6499 29.9188H18.6601H5.9978V22.1649H22.1236C26.3863 22.1649 28.5177 20.8683 28.5177 17.4353C28.5177 14.4167 26.3863 12.5873 22.1236 12.5873H5.9978V5H23.8997C33.5501 5 38.3456 9.55759 38.3456 16.8379C38.3456 22.2833 34.971 25.8346 30.4122 26.4265C34.2604 27.1961 36.5102 29.386 36.9247 33.7068Z" fill="url(#paint0_linear_121_319)"/>
<path fill-rule="evenodd" clip-rule="evenodd" d="M36.9247 33.7068C37.2595 38.0077 37.2595 40.0239 37.2595 42.2245H27.3076C27.3076 41.7452 27.3162 41.3068 27.3248 40.862C27.3518 39.4797 27.38 38.0383 27.156 35.1275C26.86 30.8657 25.0246 29.9188 21.6499 29.9188H18.6601H5.9978V22.1649H22.1236C26.3863 22.1649 28.5177 20.8683 28.5177 17.4353C28.5177 14.4167 26.3863 12.5873 22.1236 12.5873H5.9978V5H23.8997C33.5501 5 38.3456 9.55759 38.3456 16.8379C38.3456 22.2833 34.971 25.8346 30.4122 26.4265C34.2604 27.1961 36.5102 29.386 36.9247 33.7068Z" fill="white"/>
<path d="M5.9978 42.2244V36.4443H16.5205C18.2781 36.4443 18.6597 37.7478 18.6597 38.5251V42.2244H5.9978Z" fill="url(#paint1_linear_121_319)"/>
<path d="M5.9978 42.2244V36.4443H16.5205C18.2781 36.4443 18.6597 37.7478 18.6597 38.5251V42.2244H5.9978Z" fill="white"/>
<path d="M5.9978 42.2251V36.4448H16.5206C18.2782 36.4448 18.6599 37.7483 18.6599 38.5256V42.2251H5.9978Z" fill="white"/>
<path d="M157.373 15.8907H147.486L142.986 22.1649L138.605 15.8907H128.008L137.539 28.8535L127.178 42.2895H137.066L142.335 35.1276L147.604 42.2895H158.202L147.782 28.4389L157.373 15.8907Z" fill="white"/>
<path d="M59.0579 32.8785C58.1698 34.9501 56.5121 35.838 53.9071 35.838C51.006 35.838 48.638 34.299 48.401 31.0437H66.9323V28.38C66.9323 21.218 62.255 15.1807 53.4335 15.1807C45.2041 15.1807 39.0466 21.1589 39.0466 29.5047C39.0466 37.9096 45.0856 43 53.5518 43C60.5381 43 65.3929 39.6262 66.7546 33.5889L59.0579 32.8785ZM48.5195 26.4267C48.8747 23.9408 50.2364 22.0467 53.315 22.0467C56.1568 22.0467 57.6963 24.0592 57.8147 26.4267H48.5195Z" fill="white"/>
<path d="M95.0959 20.3894C93.9708 17.3115 91.5435 15.1807 86.8662 15.1807C82.8995 15.1807 80.0577 16.9564 78.6368 19.8567V15.8909H69.0457V42.2896H78.6368V29.3271C78.6368 25.3614 79.7617 22.757 82.8995 22.757C85.8006 22.757 86.5112 24.6511 86.5112 28.2617V42.2896H96.1023V29.3271C96.1023 25.3614 97.1679 22.757 100.365 22.757C103.266 22.757 103.917 24.6511 103.917 28.2617V42.2896H113.509V25.7165C113.509 20.2118 111.377 15.1807 104.095 15.1807C99.6547 15.1807 96.5168 17.4299 95.0959 20.3894Z" fill="white"/>
<path d="M116.645 15.891V42.2899H126.237V15.891H116.645ZM116.586 13.405H126.296V5H116.586V13.405Z" fill="white"/>
</g>
<defs>
<linearGradient id="paint0_linear_121_319" x1="22.1717" y1="5" x2="22.1717" y2="42.2245" gradientUnits="userSpaceOnUse">
<stop stop-color="white"/>
<stop offset="1" stop-color="white" stop-opacity="0"/>
</linearGradient>
<linearGradient id="paint1_linear_121_319" x1="12.3287" y1="36.4443" x2="12.3287" y2="42.2244" gradientUnits="userSpaceOnUse">
<stop stop-color="white"/>
<stop offset="1" stop-color="white" stop-opacity="0"/>
</linearGradient>
</defs>
</svg>
