<svg width="174" height="48" viewBox="0 0 174 48" fill="none" xmlns="http://www.w3.org/2000/svg">
<path d="M6.86182 25.253C6.90063 35.0108 14.8455 43 24.6088 43C29.3129 42.9941 33.8226 41.1232 37.1494 37.7975C40.4762 34.4718 42.3485 29.9626 42.3558 25.2585V22.7415C42.3636 21.2363 42.8353 19.7701 43.7067 18.5428C44.578 17.3155 45.8066 16.3867 47.225 15.883C48.6434 15.3792 50.1826 15.3251 51.6329 15.728C53.0831 16.1309 54.3739 16.9711 55.3293 18.1342H66.8058C65.786 14.367 63.555 11.04 60.4569 8.66635C57.3589 6.29271 53.5659 5.00436 49.6631 5C44.9591 5.00733 40.4499 6.87964 37.1241 10.2064C33.7984 13.5332 31.9275 18.043 31.9216 22.747V25.253C31.9187 27.192 31.1464 29.0506 29.7742 30.4207C28.4021 31.7907 26.5423 32.5603 24.6033 32.5603C22.6662 32.5573 20.8092 31.7865 19.4395 30.4168C18.0698 29.047 17.2989 27.1901 17.296 25.253C17.296 24.9785 17.242 24.7067 17.1369 24.4531C17.0319 24.1995 16.8779 23.9691 16.6838 23.775C16.4897 23.5809 16.2593 23.427 16.0057 23.3219C15.7521 23.2169 15.4803 23.1628 15.2058 23.1628H8.94644C8.39305 23.1643 7.86283 23.3852 7.47205 23.777C7.08127 24.1688 6.86181 24.6996 6.86182 25.253ZM74.7728 43C70.8738 42.9852 67.0872 41.6919 63.9937 39.3185C60.9002 36.945 58.6706 33.6225 57.6468 29.8602H69.1066C70.0556 31.0358 71.346 31.8878 72.7998 32.2986C74.2537 32.7094 75.7992 32.6588 77.223 32.1538C78.6468 31.6488 79.8788 30.7142 80.7488 29.4791C81.6188 28.244 82.084 26.7693 82.0801 25.2585V22.7415C82.0874 18.0374 83.9597 13.5282 87.2865 10.2025C90.6133 6.87676 95.123 5.00587 99.8271 5C109.491 5 117.369 12.7619 117.569 22.37L117.624 25.253C117.632 26.7582 118.103 28.2243 118.975 29.4516C119.846 30.679 121.075 31.6078 122.493 32.1115C123.912 32.6152 125.451 32.6693 126.901 32.2665C128.351 31.8636 129.642 31.0233 130.597 29.8602H142.074C141.055 33.6276 138.826 36.9552 135.729 39.3298C132.632 41.7044 128.839 42.9941 124.937 43C115.173 43 107.229 35.0053 107.19 25.2585L107.134 22.6528V22.5419C107.078 20.6406 106.284 18.8358 104.92 17.5101C103.556 16.1844 101.729 15.4418 99.8271 15.4397C97.89 15.4427 96.0331 16.2135 94.6633 17.5832C93.2936 18.953 92.5228 20.8099 92.5198 22.747V25.253C92.514 29.958 90.6423 34.4686 87.3154 37.7955C83.9884 41.1225 79.4778 42.9941 74.7728 43ZM144.325 18.1398C145.274 16.9639 146.565 16.1117 148.019 15.701C149.474 15.2903 151.02 15.3414 152.444 15.8471C153.868 16.3528 155.1 17.2883 155.969 18.5243C156.839 19.7603 157.303 21.2358 157.298 22.747C157.298 23.0215 157.352 23.2933 157.457 23.5469C157.562 23.8005 157.716 24.0309 157.911 24.225C158.105 24.4191 158.335 24.573 158.589 24.6781C158.842 24.7831 159.114 24.8372 159.389 24.8372H165.653C166.207 24.8357 166.737 24.6148 167.128 24.223C167.519 23.8312 167.738 23.3004 167.738 22.747C167.732 18.042 165.861 13.5314 162.534 10.2045C159.207 6.87752 154.696 5.00587 149.991 5C146.088 5.00469 142.294 6.29384 139.196 8.66855C136.098 11.0433 133.867 14.3715 132.848 18.1398H144.325Z" fill="white"/>
</svg>
