<svg width="320" height="48" viewBox="0 0 320 48" fill="none" xmlns="http://www.w3.org/2000/svg">
<path fill-rule="evenodd" clip-rule="evenodd" d="M38.3163 5C29.8719 5 24.5941 9.22222 22.483 17.6667C25.6497 13.4444 29.3441 11.8611 33.5663 12.9167C35.9753 13.5183 37.6971 15.267 39.6029 17.201C42.7074 20.3525 46.301 24 54.1497 24C62.5941 24 67.8719 19.7778 69.983 11.3333C66.8163 15.5556 63.1219 17.1389 58.8997 16.0833C56.4906 15.4817 54.7689 13.733 52.8631 11.7989C49.7585 8.64753 46.165 5 38.3163 5ZM22.483 24C14.0385 24 8.76077 28.2222 6.64966 36.6667C9.81632 32.4444 13.5108 30.8611 17.733 31.9167C20.142 32.5195 21.8637 34.267 23.7696 36.201C26.8741 39.3525 30.4677 43 38.3163 43C46.7608 43 52.0385 38.7778 54.1497 30.3333C50.983 34.5556 47.2885 36.1389 43.0663 35.0833C40.6573 34.4817 38.9356 32.733 37.0297 30.7989C33.9252 27.6475 30.3316 24 22.483 24Z" fill="white"/>
<path fill-rule="evenodd" clip-rule="evenodd" d="M101.645 21.0116H96.1187V31.7079C96.1187 34.5602 97.9905 34.5157 101.645 34.3374V38.6605C94.2468 39.5518 91.3053 37.5017 91.3053 31.7079V21.0116H87.2051V16.3765H91.3053V10.3903L96.1187 8.96412V16.3765H101.645V21.0116ZM122.712 16.3765H127.525V38.6605H122.712V35.4516C121.018 37.8137 118.389 39.2398 114.912 39.2398C108.851 39.2398 103.815 34.1145 103.815 27.5185C103.815 20.8779 108.851 15.7971 114.912 15.7971C118.389 15.7971 121.018 17.2233 122.712 19.5408V16.3765ZM115.67 34.6494C119.681 34.6494 122.712 31.6633 122.712 27.5185C122.712 23.3737 119.681 20.3876 115.67 20.3876C111.659 20.3876 108.628 23.3737 108.628 27.5185C108.628 31.6633 111.659 34.6494 115.67 34.6494ZM135.547 13.0339C133.854 13.0339 132.472 11.6077 132.472 9.95869C132.473 9.14358 132.798 8.36229 133.374 7.78593C133.951 7.20955 134.732 6.88506 135.547 6.88351C136.362 6.88506 137.143 7.20955 137.72 7.78593C138.296 8.36229 138.621 9.14358 138.622 9.95869C138.622 11.6077 137.241 13.0339 135.547 13.0339ZM133.141 38.6605V16.3765H137.954V38.6605H133.141ZM143.525 38.6605V6.12585H148.338V38.6605H143.525ZM179.58 16.3765H184.661L177.664 38.6605H172.94L168.305 23.6411L163.625 38.6605H158.901L151.904 16.3765H156.984L161.307 31.7524L165.987 16.3765H170.578L175.213 31.7524L179.58 16.3765ZM190.633 13.0339C188.94 13.0339 187.558 11.6077 187.558 9.95869C187.559 9.14358 187.884 8.36229 188.46 7.78593C189.037 7.20955 189.818 6.88506 190.633 6.88351C191.448 6.88506 192.229 7.20955 192.806 7.78593C193.382 8.36229 193.707 9.14358 193.708 9.95869C193.708 11.6077 192.327 13.0339 190.633 13.0339ZM188.226 38.6605V16.3765H193.04V38.6605H188.226ZM210.332 15.7971C215.324 15.7971 218.889 19.1843 218.889 24.9781V38.6605H214.076V25.4684C214.076 22.0812 212.115 20.2985 209.084 20.2985C205.92 20.2985 203.424 22.1703 203.424 26.7163V38.6605H198.611V16.3765H203.424V19.2289C204.895 16.9113 207.302 15.7971 210.332 15.7971ZM241.708 7.46289H246.521V38.6605H241.708V35.4516C240.014 37.8137 237.385 39.2398 233.909 39.2398C227.847 39.2398 222.811 34.1145 222.811 27.5185C222.811 20.8779 227.847 15.7971 233.909 15.7971C237.385 15.7971 240.014 17.2233 241.708 19.5408V7.46289ZM234.666 34.6494C238.677 34.6494 241.708 31.6633 241.708 27.5185C241.708 23.3737 238.677 20.3876 234.666 20.3876C230.655 20.3876 227.624 23.3737 227.624 27.5185C227.624 31.6633 230.655 34.6494 234.666 34.6494ZM262.655 39.2398C255.925 39.2398 250.889 34.1145 250.889 27.5185C250.889 20.8779 255.925 15.7971 262.655 15.7971C267.022 15.7971 270.811 18.0701 272.593 21.5464L268.449 23.9531C267.468 21.8584 265.284 20.5213 262.61 20.5213C258.688 20.5213 255.702 23.5074 255.702 27.5185C255.702 31.5296 258.688 34.5157 262.61 34.5157C265.284 34.5157 267.468 33.134 268.538 31.0839L272.683 33.446C270.811 36.9669 267.022 39.2398 262.655 39.2398ZM280.616 22.5269C280.616 26.5826 292.604 24.1313 292.604 32.3764C292.604 36.8332 288.727 39.2398 283.914 39.2398C279.457 39.2398 276.248 37.2343 274.822 34.0254L278.967 31.6187C279.68 33.6243 281.462 34.8276 283.914 34.8276C286.053 34.8276 287.702 34.1145 287.702 32.3318C287.702 28.3653 275.713 30.5937 275.713 22.616C275.713 18.4266 279.323 15.7971 283.869 15.7971C287.524 15.7971 290.554 17.4907 292.114 20.4322L288.059 22.7052C287.256 20.967 285.696 20.1648 283.869 20.1648C282.131 20.1648 280.616 20.9224 280.616 22.5269ZM301.161 22.5269C301.161 26.5826 313.15 24.1313 313.15 32.3764C313.15 36.8332 309.273 39.2398 304.46 39.2398C300.003 39.2398 296.794 37.2343 295.368 34.0254L299.512 31.6187C300.226 33.6243 302.008 34.8276 304.46 34.8276C306.599 34.8276 308.248 34.1145 308.248 32.3318C308.248 28.3653 296.259 30.5937 296.259 22.616C296.259 18.4266 299.869 15.7971 304.415 15.7971C308.07 15.7971 311.1 17.4907 312.66 20.4322L308.604 22.7052C307.802 20.967 306.242 20.1648 304.415 20.1648C302.677 20.1648 301.161 20.9224 301.161 22.5269Z" fill="white"/>
</svg>
