<svg width="192" height="48" viewBox="0 0 192 48" fill="none" xmlns="http://www.w3.org/2000/svg">
<g clip-path="url(#clip0_134_83)">
<path d="M80.8454 19.1937V14.1998H56.7786V19.1937H65.8638V35.7997H71.7598V19.1937H80.8454Z" fill="white"/>
<path d="M94.4433 36.1306C101.844 36.1306 105.905 32.3702 105.905 26.173V14.1998H100.008V25.6014C100.008 29.061 98.2035 31.0164 94.4433 31.0164C90.6825 31.0164 88.8778 29.061 88.8778 25.6014V14.1998H82.9812V26.173C82.9812 32.3702 87.0424 36.1306 94.4433 36.1306Z" fill="white"/>
<path d="M114.931 28.6398H120.797L125.43 35.7997H132.199L126.964 28.0081C129.912 26.9552 131.717 24.6087 131.717 21.4198C131.717 16.787 128.258 14.1998 122.993 14.1998H109.034V35.7997H114.931V28.6398ZM114.931 23.9769V19.1335H122.692C124.768 19.1335 125.911 20.036 125.911 21.5703C125.911 23.0143 124.768 23.9769 122.692 23.9769H114.931Z" fill="white"/>
<path d="M134.461 35.7997H149.893C154.706 35.7997 157.474 33.5134 157.474 29.6927C157.474 27.1357 155.85 25.3908 153.925 24.6087C155.248 23.9769 156.872 22.4727 156.872 20.0962C156.872 16.2756 154.165 14.1998 149.382 14.1998H134.461V35.7997ZM140.116 22.6533V18.9831H148.78C150.405 18.9831 151.308 19.6148 151.308 20.8182C151.308 22.0215 150.405 22.6533 148.78 22.6533H140.116ZM140.116 27.0755H149.322C150.916 27.0755 151.789 27.8577 151.789 29.0309C151.789 30.2042 150.916 30.9864 149.322 30.9864H140.116V27.0755Z" fill="white"/>
<path d="M171.891 13.8387C164.34 13.8387 158.895 18.5618 158.895 24.9996C158.895 31.4375 164.34 36.1606 171.891 36.1606C179.442 36.1606 184.857 31.4375 184.857 24.9996C184.857 18.5618 179.442 13.8387 171.891 13.8387ZM171.891 18.9529C175.862 18.9529 178.84 21.2994 178.84 24.9996C178.84 28.6999 175.862 31.0464 171.891 31.0464C167.92 31.0464 164.942 28.6999 164.942 24.9996C164.942 21.2994 167.92 18.9529 171.891 18.9529Z" fill="white"/>
<path d="M25.054 11.6172C18.2672 11.6172 12.7456 17.1388 12.7456 23.9256C12.7456 30.7124 18.2672 36.234 25.054 36.234C31.8408 36.234 37.3624 30.7124 37.3624 23.9256C37.3624 17.1388 31.8408 11.6172 25.054 11.6172ZM25.054 30.2952C21.5357 30.2952 18.6843 27.4439 18.6843 23.9256C18.6843 20.4073 21.5357 17.5559 25.054 17.5559C28.5723 17.5559 31.4236 20.4073 31.4236 23.9256C31.4236 27.4439 28.5723 30.2952 25.054 30.2952Z" fill="white"/>
<path fill-rule="evenodd" clip-rule="evenodd" d="M26.0854 9.59559V5C36.0742 5.53405 44.0093 13.8038 44.0093 23.9256C44.0093 34.0473 36.0742 42.3148 26.0854 42.8511V38.2555C33.53 37.7238 39.4252 31.5031 39.4252 23.9256C39.4252 16.348 33.53 10.1273 26.0854 9.59559ZM14.1988 33.323C12.2253 31.0447 10.9532 28.1429 10.7263 24.9569H6.12842C6.36679 29.415 8.15002 33.4605 10.944 36.5754L14.1965 33.323H14.1988ZM24.0226 42.8511V38.2555C20.8343 38.0286 17.9325 36.7588 15.6542 34.7831L12.4018 38.0355C15.519 40.8318 19.5645 42.6128 24.0203 42.8511H24.0226Z" fill="url(#paint0_linear_134_83)"/>
</g>
<defs>
<linearGradient id="paint0_linear_134_83" x1="26.8282" y1="7.66133" x2="8.19833" y2="26.2912" gradientUnits="userSpaceOnUse">
<stop stop-color="white"/>
<stop offset="1" stop-color="#9FA3A9"/>
</linearGradient>
<clipPath id="clip0_134_83">
<rect width="179.143" height="38" fill="white" transform="translate(6.12842 5)"/>
</clipPath>
</defs>
</svg>
