<svg width="177" height="48" viewBox="0 0 177 48" fill="none" xmlns="http://www.w3.org/2000/svg">
<rect x="0.830078" width="175.74" height="48" fill="black" fill-opacity="0.01"/>
<path d="M8.5166 6C7.5821 6 6.8291 6.753 6.8291 7.6875V40.3125C6.8291 41.247 7.5821 42 8.5166 42H41.1416C42.0761 42 42.8291 41.247 42.8291 40.3125V7.6875C42.8291 6.753 42.0761 6 41.1416 6H8.5166ZM34.5611 20.625C35.4791 20.625 36.2921 20.6805 37.0016 20.7915C37.6708 20.8918 38.3275 21.0627 38.9606 21.3015V24.9885C38.6567 24.7783 38.3338 24.597 37.9961 24.447C37.6479 24.2903 37.2883 24.1599 36.9206 24.057C36.224 23.8629 35.5047 23.762 34.7816 23.757C34.3316 23.757 33.9221 23.799 33.5531 23.886C33.2242 23.9563 32.9087 24.0789 32.6186 24.249C32.3636 24.405 32.1686 24.5925 32.0291 24.81C31.8888 25.0292 31.8158 25.2847 31.8191 25.545C31.8191 25.839 31.8986 26.1045 32.0531 26.3385C32.2091 26.5725 32.4311 26.7945 32.7176 27.0045C33.0041 27.2145 33.3521 27.4185 33.7616 27.6195C34.1711 27.822 34.6346 28.0305 35.1506 28.2435C35.8556 28.539 36.4886 28.854 37.0496 29.1855C37.6106 29.5185 38.0921 29.895 38.4941 30.315C38.8961 30.7335 39.2021 31.212 39.4151 31.7505C39.6281 32.289 39.7361 32.9145 39.7361 33.63C39.7361 34.6155 39.5486 35.445 39.1766 36.114C38.8131 36.7738 38.2915 37.333 37.6586 37.7415C36.9764 38.1741 36.2202 38.4772 35.4281 38.6355C34.5791 38.8155 33.6836 38.9055 32.7431 38.9055C31.8174 38.9096 30.8934 38.8272 29.9831 38.6595C29.1955 38.5233 28.4316 38.2742 27.7151 37.92V33.975C29.0708 35.1287 30.7905 35.7662 32.5706 35.775C33.0701 35.775 33.5066 35.73 33.8786 35.64C34.2521 35.55 34.5626 35.424 34.8131 35.265C35.0621 35.103 35.2481 34.914 35.3726 34.695C35.5102 34.44 35.5728 34.1513 35.5532 33.8622C35.5335 33.5731 35.4324 33.2955 35.2616 33.0615C35.0387 32.7666 34.7662 32.5128 34.4561 32.3115C34.0716 32.0566 33.6667 31.8339 33.2456 31.6455C32.7465 31.4176 32.2429 31.1995 31.7351 30.9915C30.3581 30.417 29.3321 29.7135 28.6556 28.884C27.9806 28.0545 27.6416 27.051 27.6416 25.8765C27.6416 24.9555 27.8261 24.165 28.1951 23.5035C28.5641 22.842 29.0651 22.2975 29.7011 21.87C30.3738 21.4262 31.1206 21.1067 31.9061 20.9265C32.7761 20.7214 33.6673 20.6202 34.5611 20.625ZM11.8916 20.907H26.2361V24.156H21.0881V38.625H17.0126V24.156H11.8916V20.907Z" fill="white"/>
<path d="M65.7542 15.6305H59.5417V34.7201H57.0037V15.6305H50.8291V13.3758H65.7542V15.6305ZM77.4595 19.4634L70.3757 37.1626C69.1256 40.3192 67.3452 41.8975 65.0724 41.8975C64.4284 41.8975 63.8981 41.8223 63.4814 41.7096V39.5301C64.0117 39.7179 64.5042 39.7931 64.9208 39.7931C66.1709 39.7931 67.0801 39.0415 67.724 37.576L68.9362 34.6825L62.951 19.4634H65.6785L69.8454 31.1877C69.8833 31.3381 69.9969 31.7138 70.1484 32.3527H70.2242C70.2621 32.1272 70.3757 31.7514 70.5272 31.2253L74.8836 19.4634H77.4595ZM81.4749 32.503H81.3991V41.7096H78.9368V19.4634H81.3991V22.1314H81.4749C82.687 20.1022 84.4675 19.0876 86.7782 19.0876C88.748 19.0876 90.3011 19.764 91.3997 21.1168C92.4982 22.4697 93.0664 24.311 93.0664 26.6032C93.0664 29.1585 92.4225 31.1877 91.1724 32.7284C89.9223 34.2691 88.2177 35.0207 86.0585 35.0207C84.1265 35.0959 82.5734 34.2316 81.4749 32.503ZM81.437 26.3778V28.5197C81.437 29.7974 81.8537 30.8495 82.687 31.7138C83.5204 32.5781 84.5432 33.0291 85.8312 33.0291C87.3085 33.0291 88.4828 32.4654 89.3541 31.3381C90.1875 30.2107 90.6042 28.6324 90.6042 26.6032C90.6042 24.9122 90.2254 23.5594 89.4299 22.62C88.6344 21.6429 87.5737 21.192 86.21 21.192C84.7705 21.192 83.6341 21.6805 82.7628 22.6575C81.8537 23.6346 81.437 24.8746 81.437 26.3778ZM108.143 27.693H97.3091C97.347 29.384 97.8016 30.6992 98.6728 31.6387C99.5441 32.5781 100.756 33.0291 102.309 33.0291C104.052 33.0291 105.643 32.4654 107.082 31.3381V33.6303C105.719 34.6073 103.938 35.0959 101.741 35.0959C99.582 35.0959 97.8773 34.4195 96.6273 33.0291C95.3772 31.6387 94.7711 29.6846 94.7711 27.2045C94.7711 24.8371 95.453 22.883 96.8167 21.4175C98.1804 19.9143 99.8472 19.1628 101.855 19.1628C103.863 19.1628 105.416 19.8016 106.514 21.1168C107.613 22.3945 108.181 24.1982 108.181 26.4905L108.143 27.693ZM105.605 25.6262C105.605 24.1982 105.264 23.1085 104.582 22.3193C103.9 21.5302 102.953 21.1544 101.779 21.1544C100.605 21.1544 99.6199 21.5678 98.8244 22.3945C98.0289 23.2212 97.4985 24.311 97.3091 25.6262H105.605ZM109.355 33.9685V32.2775C110.908 33.2545 112.462 33.743 114.053 33.743C115.719 33.743 117.007 33.4048 117.879 32.6909C118.75 31.9769 119.166 31.0374 119.166 29.7974C119.166 28.7076 118.863 27.8433 118.295 27.1669C117.727 26.5281 116.439 25.6262 114.507 24.4989C112.31 23.2212 110.946 22.169 110.378 21.3423C109.81 20.478 109.507 19.501 109.507 18.4112C109.507 16.9081 110.113 15.6305 111.287 14.5783C112.462 13.5261 114.053 13 116.022 13C117.31 13 118.598 13.2255 119.848 13.6388V15.1795C118.598 14.6159 117.235 14.3152 115.795 14.3152C114.318 14.3152 113.181 14.691 112.31 15.405C111.439 16.1566 111.022 17.0584 111.022 18.1858C111.022 19.2755 111.325 20.1398 111.893 20.7786C112.462 21.4175 113.749 22.3193 115.681 23.4091C117.689 24.5364 119.015 25.551 119.697 26.4153C120.379 27.2796 120.682 28.2942 120.682 29.4592C120.682 31.1126 120.113 32.4278 118.977 33.48C117.841 34.5322 116.212 35.0207 114.128 35.0207C113.371 35.0207 112.537 34.908 111.552 34.6825C110.567 34.457 109.848 34.2691 109.355 33.9685ZM133.486 34.0437C132.349 34.7201 130.985 35.0959 129.394 35.0959C127.311 35.0959 125.606 34.3819 124.318 32.9539C123.03 31.5259 122.386 29.6846 122.386 27.3548C122.386 24.9498 123.106 22.9582 124.546 21.4175C125.985 19.8768 127.841 19.0876 130.114 19.0876C131.288 19.0876 132.425 19.3131 133.523 19.8016V21.3423C132.425 20.6659 131.213 20.3277 129.925 20.3277C128.106 20.3277 126.667 20.9665 125.53 22.2442C124.394 23.5218 123.864 25.2128 123.864 27.2421C123.864 29.2337 124.394 30.812 125.417 32.0145C126.44 33.217 127.803 33.8182 129.47 33.8182C131.023 33.8182 132.349 33.4048 133.486 32.6157V34.0437ZM142.653 20.8914C142.198 20.5532 141.668 20.4029 141.024 20.4029C139.812 20.4029 138.789 21.0417 137.993 22.2818C137.16 23.5218 136.781 25.288 136.781 27.5803V34.7577H135.417V19.4634H136.781V22.8454H136.857C137.198 21.6805 137.766 20.7786 138.524 20.1398C139.281 19.501 140.153 19.1628 141.175 19.1628C141.744 19.1628 142.274 19.2379 142.691 19.4258V20.8914H142.653ZM144.85 15.6305C144.547 15.6305 144.282 15.5177 144.054 15.2923C143.827 15.0668 143.713 14.8037 143.713 14.4655C143.713 14.1273 143.827 13.8643 144.054 13.6764C144.282 13.4885 144.547 13.3758 144.85 13.3758C145.153 13.3758 145.418 13.4885 145.683 13.6764C145.91 13.8643 146.024 14.1273 146.024 14.4655C146.024 14.7662 145.91 15.0668 145.683 15.2923C145.418 15.5177 145.153 15.6305 144.85 15.6305ZM144.168 34.7201V19.4634H145.532V34.7201H144.168ZM150.267 32.0145H150.191V41.7472H148.827V19.4634H150.191V22.62H150.267C150.835 21.4926 151.593 20.6283 152.615 20.0271C153.638 19.4258 154.775 19.1252 155.987 19.1252C157.957 19.1252 159.472 19.8016 160.57 21.1168C161.669 22.4697 162.199 24.2734 162.199 26.5657C162.199 29.121 161.555 31.1877 160.305 32.766C159.055 34.3443 157.388 35.1334 155.343 35.1334C153.07 35.0959 151.365 34.0812 150.267 32.0145ZM150.191 26.3402V28.2567C150.191 29.7974 150.683 31.1126 151.631 32.2023C152.615 33.2921 153.865 33.8558 155.456 33.8558C157.01 33.8558 158.298 33.1794 159.282 31.8641C160.267 30.5113 160.76 28.7828 160.76 26.6032C160.76 24.6868 160.305 23.1836 159.396 22.0563C158.487 20.929 157.313 20.3653 155.797 20.3653C154.017 20.3653 152.615 20.9665 151.631 22.169C150.646 23.3715 150.191 24.7243 150.191 26.3402ZM170.571 34.4946C169.851 34.8328 169.169 34.9831 168.563 34.9831C166.29 34.9831 165.154 33.6303 165.154 30.9247V20.7411H162.389V19.501H165.154V15.5177L165.836 15.2923L166.518 15.0668V19.501H170.571V20.7411H166.518V30.812C166.518 31.8641 166.669 32.6157 167.01 33.1042C167.351 33.5927 167.919 33.8182 168.715 33.8182C169.283 33.8182 169.889 33.6303 170.571 33.2545V34.4946Z" fill="white"/>
</svg>
