<svg width="203" height="48" viewBox="0 0 203 48" fill="none" xmlns="http://www.w3.org/2000/svg">
<path d="M50.3094 43L28.4594 5L6.60938 43H50.3094ZM72.3475 41.2701L90.6077 6.72728H82.7096L70.1131 31.8135L57.5168 6.72728H49.6184L67.8787 41.2701H72.3475ZM196.791 6.72728V41.2702H190.252V6.72728H196.791ZM160.393 28.3773C160.393 25.6853 160.954 23.3175 162.078 21.2742C163.202 19.2308 164.769 17.6577 166.779 16.5549C168.788 15.4521 171.138 14.9008 173.828 14.9008C176.212 14.9008 178.358 15.4197 180.265 16.4576C182.172 17.4955 183.687 19.0362 184.811 21.0796C185.935 23.1229 186.514 25.6204 186.548 28.572V30.0801H167.29C167.425 32.2209 168.055 33.9075 169.179 35.14C170.338 36.3401 171.887 36.9401 173.828 36.9401C175.054 36.9401 176.178 36.6158 177.199 35.9671C178.221 35.3184 178.988 34.4426 179.498 33.3398L186.191 33.8264C185.373 36.2589 183.841 38.2051 181.593 39.6646C179.345 41.1242 176.757 41.8539 173.828 41.8539C171.138 41.8539 168.788 41.3026 166.779 40.1998C164.769 39.097 163.202 37.5239 162.078 35.4805C160.954 33.4372 160.393 31.0694 160.393 28.3773ZM179.805 25.9447C179.566 23.8365 178.902 22.2958 177.813 21.3228C176.723 20.3174 175.394 19.8146 173.828 19.8146C172.023 19.8146 170.559 20.3497 169.435 21.4201C168.311 22.4905 167.613 23.9987 167.341 25.9447H179.805ZM149.362 21.3228C150.451 22.1985 151.132 23.4149 151.405 24.9717L158.148 24.6312C157.909 22.6526 157.211 20.9336 156.054 19.4741C154.896 18.0145 153.397 16.8955 151.558 16.117C149.753 15.3062 147.761 14.9008 145.581 14.9008C142.891 14.9008 140.541 15.4521 138.532 16.5549C136.522 17.6577 134.956 19.2308 133.832 21.2742C132.708 23.3175 132.146 25.6853 132.146 28.3773C132.146 31.0694 132.708 33.4372 133.832 35.4805C134.956 37.5239 136.522 39.097 138.532 40.1998C140.541 41.3026 142.891 41.8539 145.581 41.8539C147.829 41.8539 149.872 41.4485 151.712 40.6376C153.55 39.7943 155.049 38.6105 156.207 37.086C157.365 35.5616 158.063 33.7777 158.301 31.7343L151.507 31.4424C151.269 33.1614 150.605 34.4913 149.515 35.4319C148.425 36.3401 147.114 36.7942 145.581 36.7942C143.47 36.7942 141.835 36.0643 140.677 34.6048C139.52 33.1452 138.94 31.0694 138.94 28.3773C138.94 25.6853 139.52 23.6095 140.677 22.1499C141.835 20.6903 143.47 19.9605 145.581 19.9605C147.046 19.9605 148.306 20.4146 149.362 21.3228ZM116.19 15.4834H122.275L122.451 20.4462C122.883 19.0414 123.484 17.9505 124.253 17.1735C125.368 16.0467 126.923 15.4834 128.918 15.4834H131.402V20.7953H128.867C127.447 20.7953 126.281 20.9884 125.368 21.3747C124.489 21.7611 123.813 22.3727 123.34 23.2097C122.9 24.0468 122.681 25.1092 122.681 26.3968V41.2701H116.19V15.4834ZM88.1238 21.2742C86.9999 23.3175 86.4379 25.6853 86.4379 28.3773C86.4379 31.0694 86.9999 33.4372 88.1238 35.4805C89.2477 37.5239 90.8138 39.097 92.8234 40.1998C94.833 41.3026 97.1824 41.8539 99.8731 41.8539C102.802 41.8539 105.39 41.1242 107.638 39.6646C109.885 38.2051 111.419 36.2589 112.236 33.8264L105.543 33.3398C105.032 34.4426 104.267 35.3184 103.245 35.9671C102.223 36.6158 101.099 36.9401 99.8731 36.9401C97.9322 36.9401 96.3822 36.3401 95.2247 35.14C94.1008 33.9075 93.4709 32.2209 93.3342 30.0801H112.593V28.572C112.559 25.6204 111.981 23.1229 110.857 21.0796C109.733 19.0362 108.217 17.4955 106.31 16.4576C104.402 15.4197 102.257 14.9008 99.8731 14.9008C97.1824 14.9008 94.833 15.4521 92.8234 16.5549C90.8138 17.6577 89.2477 19.2308 88.1238 21.2742ZM103.858 21.3228C104.948 22.2958 105.612 23.8365 105.85 25.9447H93.3854C93.6579 23.9987 94.3558 22.4905 95.4797 21.4201C96.6037 20.3497 98.0681 19.8146 99.8731 19.8146C101.44 19.8146 102.768 20.3174 103.858 21.3228Z" fill="white"/>
</svg>
