<svg width="154" height="48" viewBox="0 0 154 48" fill="none" xmlns="http://www.w3.org/2000/svg">
<path d="M37.3428 16.5206L27.3846 30.9198C27.2783 31.0723 27.1257 31.1872 26.9492 31.2455C26.7727 31.3037 26.5824 31.3037 26.4059 31.2455C26.2293 31.1855 26.0768 31.0706 25.9722 30.9181C25.8677 30.7655 25.8163 30.5821 25.8248 30.397L26.2242 22.4475L19.7899 21.0832C19.6527 21.0541 19.5242 20.9924 19.4162 20.9015C19.3082 20.8107 19.226 20.6959 19.1728 20.5656C19.1197 20.4353 19.1026 20.2948 19.118 20.1559C19.1334 20.0171 19.1831 19.8834 19.2637 19.7686L29.2219 5.36936C29.3282 5.21682 29.4808 5.10198 29.6573 5.04371C29.8338 4.98543 30.0241 4.98543 30.2006 5.04371C30.3772 5.1037 30.5297 5.21853 30.6343 5.37108C30.7388 5.52362 30.7903 5.70702 30.7817 5.89213L30.3823 13.8416L36.8166 15.2059C36.9538 15.2351 37.0823 15.2968 37.1903 15.3876C37.2983 15.4785 37.3805 15.5933 37.432 15.7236C37.4834 15.8538 37.5022 15.9944 37.4868 16.1332C37.4714 16.272 37.4217 16.4057 37.3411 16.5206H37.3428Z" fill="white"/>
<path d="M26.9063 43.0001C27.1719 43.0001 27.4342 42.9486 27.6776 42.8475C27.9227 42.7464 28.1438 42.5973 28.3323 42.4104L37.7421 33.0006C38.1192 32.6218 38.33 32.1094 38.3283 31.5763C38.3283 31.0433 38.1158 30.5308 37.737 30.1537C37.3599 29.7766 36.8474 29.5641 36.3144 29.5624C35.7813 29.5624 35.2688 29.7732 34.89 30.1486L26.9063 38.1323L9.51272 20.7405C9.13392 20.3668 8.62144 20.1594 8.0901 20.1611C7.55877 20.1629 7.048 20.3754 6.67264 20.7525C6.29727 21.1278 6.08474 21.6386 6.08131 22.1699C6.0796 22.7013 6.28699 23.2138 6.66064 23.5926L25.4802 42.4104C25.6671 42.5973 25.8899 42.7464 26.1333 42.8475C26.3784 42.9486 26.6406 43.0001 26.9046 43.0001H26.9063Z" fill="white"/>
<path d="M26.915 43.0001C26.6493 43.0001 26.387 42.9486 26.1437 42.8475C25.8986 42.7464 25.6775 42.5973 25.4889 42.4104L16.0791 33.0006C15.702 32.6218 15.4912 32.1094 15.4929 31.5763C15.4929 31.0433 15.7055 30.5308 16.0843 30.1537C16.4613 29.7766 16.9738 29.5641 17.5069 29.5624C18.0399 29.5624 18.5524 29.7732 18.9312 30.1486L26.915 38.1323L44.3085 20.7405C44.6873 20.3668 45.1981 20.1594 45.7311 20.1611C46.2625 20.1629 46.7732 20.3754 47.1486 20.7525C47.524 21.1278 47.7365 21.6386 47.7399 22.1699C47.7416 22.7013 47.5342 23.2138 47.1606 23.5926L28.341 42.4104C28.1542 42.5973 27.9314 42.7464 27.688 42.8475C27.4429 42.9486 27.1806 43.0001 26.9167 43.0001H26.915Z" fill="#9FA3A9"/>
<path d="M77.1227 13.3291L68.5716 37.7346H63.0354L54.3369 13.3291H59.1378L63.4605 26.0075C63.865 27.2741 64.302 28.7344 64.7717 30.3884C65.1059 31.5659 65.459 32.8531 65.8326 34.25C66.2046 32.8309 66.5525 31.5368 66.8765 30.3644C67.329 28.7259 67.7523 27.2741 68.1465 26.0075L72.3389 13.3291H77.1227Z" fill="white"/>
<path d="M82.3144 16.8342C81.6373 16.8342 81.0563 16.6045 80.5695 16.1469C80.0827 15.6875 79.8411 15.1425 79.8411 14.5083C79.8411 13.8741 80.0845 13.2982 80.5695 12.8457C81.0546 12.3932 81.6373 12.1653 82.3144 12.1653C82.9914 12.1653 83.5896 12.3915 84.0746 12.8457C84.5597 13.2982 84.8031 13.8484 84.8031 14.4912C84.8031 15.1339 84.5597 15.6875 84.0746 16.1452C83.5878 16.6045 83.0017 16.8325 82.3144 16.8325V16.8342ZM80.1856 37.7346V19.4223H84.4448V37.7346H80.1856Z" fill="white"/>
<path d="M97.9408 37.5872C97.4712 37.7295 96.9912 37.8306 96.4993 37.8906C96.0074 37.9506 95.5378 37.9815 95.0904 37.9815C93.3319 37.9815 91.9847 37.5444 91.0454 36.6703C90.1061 35.7961 89.6365 34.5518 89.6365 32.9355V22.763H87.0312V19.4224H89.6365V15.0654H93.8958V19.4224H97.4335V22.763H93.8958V32.5755C93.8958 33.2423 94.0363 33.7308 94.3209 34.041C94.6054 34.3529 95.0681 34.5089 95.7126 34.5089C95.9097 34.5089 96.1685 34.4832 96.4908 34.4352C96.813 34.3855 97.0735 34.3392 97.2689 34.2947L97.9408 37.5872Z" fill="white"/>
<path d="M116.663 28.4311C116.663 26.8269 116.442 25.442 115.999 24.2782C115.557 23.1161 114.945 22.1579 114.165 21.4038C113.384 20.6514 112.489 20.0943 111.48 19.7344C110.468 19.3727 109.407 19.1927 108.293 19.1927C106.545 19.1927 105.025 19.5938 103.731 20.3977C102.437 21.1998 101.437 22.3105 100.733 23.7297C100.03 25.1506 99.677 26.8046 99.677 28.6934C99.677 30.5822 100.035 32.2636 100.75 33.6725C101.465 35.0814 102.486 36.1732 103.813 36.948C105.139 37.7244 106.727 38.1118 108.571 38.1118C109.937 38.1118 111.15 37.9078 112.217 37.4982C113.281 37.0885 114.167 36.5143 114.878 35.7773C115.588 35.0403 116.09 34.1799 116.385 33.1978L112.47 32.3956C112.283 32.9081 112.006 33.3434 111.634 33.6982C111.264 34.053 110.823 34.3204 110.316 34.5004C109.808 34.6804 109.243 34.7695 108.621 34.7695C107.681 34.7695 106.857 34.5689 106.147 34.1644C105.438 33.7599 104.886 33.1601 104.493 32.363C104.139 31.6466 103.945 30.7827 103.909 29.7749H116.663V28.4311ZM103.928 26.8748C103.983 26.1858 104.147 25.5499 104.42 24.9672C104.762 24.2302 105.263 23.6406 105.918 23.1983C106.572 22.7561 107.369 22.535 108.309 22.535C109.248 22.535 110.031 22.7527 110.66 23.1898C111.288 23.6268 111.761 24.2353 112.076 25.0169C112.302 25.5739 112.448 26.1927 112.513 26.8748H103.928Z" fill="white"/>
<path d="M127.245 38.1118C125.836 38.1118 124.592 37.9095 123.51 37.505C122.428 37.1005 121.542 36.5109 120.848 35.7362C120.154 34.9615 119.705 34.0222 119.498 32.9184L123.477 32.1642C123.729 33.0709 124.173 33.7445 124.813 34.1867C125.452 34.6289 126.29 34.85 127.327 34.85C128.364 34.85 129.207 34.6392 129.824 34.2193C130.441 33.7994 130.75 33.2783 130.75 32.6544C130.75 32.1299 130.548 31.6963 130.143 31.3518C129.739 31.0073 129.116 30.7433 128.277 30.5582L125.149 29.8863C123.423 29.5144 122.135 28.9042 121.284 28.0524C120.432 27.2005 120.007 26.1036 120.007 24.7598C120.007 23.6234 120.319 22.6413 120.941 21.8117C121.563 20.9822 122.428 20.3377 123.537 19.8784C124.646 19.419 125.932 19.191 127.396 19.191C128.782 19.191 129.975 19.3881 130.974 19.7807C131.974 20.1732 132.781 20.7216 133.398 21.4261C134.015 22.1305 134.444 22.9584 134.684 23.9079L130.884 24.6621C130.676 24.0176 130.299 23.4743 129.754 23.0321C129.207 22.5899 128.438 22.3688 127.444 22.3688C126.537 22.3688 125.781 22.5676 125.174 22.967C124.568 23.3663 124.266 23.8754 124.266 24.4993C124.266 25.034 124.468 25.4762 124.873 25.8259C125.277 26.1755 125.942 26.4481 126.871 26.6452L129.984 27.2999C131.72 27.6719 133.009 28.2666 133.849 29.0859C134.69 29.9052 135.11 30.9593 135.11 32.2465C135.11 33.4034 134.778 34.4233 134.111 35.3008C133.444 36.1801 132.519 36.8674 131.334 37.3645C130.15 37.8615 128.787 38.1101 127.248 38.1101L127.245 38.1118Z" fill="white"/>
<path d="M147.718 37.5872C147.249 37.7295 146.769 37.8306 146.279 37.8906C145.787 37.9506 145.317 37.9815 144.87 37.9815C143.111 37.9815 141.762 37.5444 140.823 36.6703C139.884 35.7961 139.414 34.5518 139.414 32.9355V22.763H136.811V19.4224H139.414V15.0654H143.673V19.4224H147.211V22.763H143.673V32.5755C143.673 33.2423 143.816 33.7308 144.098 34.041C144.383 34.3529 144.847 34.5089 145.492 34.5089C145.689 34.5089 145.948 34.4832 146.27 34.4352C146.592 34.3855 146.851 34.3392 147.048 34.2947L147.718 37.5872Z" fill="white"/>
</svg>
