<svg width="106" height="48" viewBox="0 0 106 48" fill="none" xmlns="http://www.w3.org/2000/svg">
<path d="M44.7953 10.6262L26.9681 42.5042C26.6 43.1624 25.654 43.1658 25.2814 42.5109L7.09946 10.6296C6.69227 9.91557 7.3025 9.05099 8.1113 9.19601L25.9574 12.3855C26.0712 12.4056 26.1883 12.4056 26.3021 12.3855L43.7756 9.20048C44.5822 9.05322 45.1947 9.91111 44.7953 10.6262Z" fill="url(#paint0_linear_135_171)"/>
<path d="M34.4593 5.01145L21.2663 7.59628C21.0499 7.63867 20.8893 7.82274 20.8759 8.04252L20.0648 21.7487C20.0459 22.0711 20.3426 22.3221 20.6572 22.2496L24.3297 21.4017C24.6733 21.3225 24.9835 21.6248 24.9132 21.9707L23.8221 27.3144C23.7485 27.6736 24.0865 27.9815 24.4379 27.8744L26.7071 27.1849C27.0585 27.0779 27.3965 27.3869 27.3218 27.7461L25.587 36.1398C25.4788 36.6652 26.1772 36.9508 26.4683 36.5013L26.6624 36.2012L37.4123 14.7472C37.5919 14.388 37.2818 13.9786 36.8868 14.0544L33.1061 14.784C32.7513 14.8521 32.449 14.5219 32.5483 14.1738L35.016 5.61945C35.1164 5.27139 34.8129 4.94006 34.4571 5.00922L34.4593 5.01145Z" fill="url(#paint1_linear_135_171)"/>
<path d="M52.1292 13.8625H55.3989L59.6516 26.8715L60.3165 29.0993H60.476L61.1677 26.8715L65.6334 13.8625H68.8764L61.9653 33.555H58.855L52.1303 13.8625H52.1292Z" fill="white"/>
<path d="M70.7228 16.9014C70.3413 16.5076 70.1516 16.0257 70.1516 15.4578C70.1516 14.89 70.3424 14.408 70.7228 14.0142C71.1032 13.6204 71.5684 13.423 72.1184 13.423C72.6684 13.423 73.1325 13.6204 73.514 14.0142C73.8944 14.4092 74.0852 14.89 74.0852 15.4578C74.0852 16.0257 73.8944 16.5076 73.514 16.9014C73.1325 17.2963 72.6673 17.4927 72.1184 17.4927C71.5695 17.4927 71.1032 17.2963 70.7228 16.9014ZM70.657 19.5286H73.5809V33.5549H70.657V19.5286Z" fill="white"/>
<path d="M80.9438 33.4724C80.4116 33.2704 79.9777 33.0049 79.6408 32.6747C78.8788 31.8871 78.4973 30.8139 78.4973 29.4574V22.196H76.1311V19.5286H78.4973V15.5682H81.4212V19.5286H84.7178V22.196H81.4212V28.7969C81.4212 29.5488 81.5629 30.081 81.8463 30.3922C82.1118 30.7592 82.5725 30.9422 83.2285 30.9422C83.5297 30.9422 83.7952 30.9009 84.0261 30.8184C84.256 30.7358 84.3463 30.6477 84.3776 30.6254L85.2589 32.9436C84.1466 33.6709 83.4773 33.7747 82.645 33.7747C82.0426 33.7747 81.4759 33.6732 80.9438 33.4724Z" fill="white"/>
<path d="M89.5963 33.0329C88.542 32.3914 87.7176 31.5068 87.1241 30.3789C86.5306 29.251 86.2339 27.9815 86.2339 26.5703C86.2339 25.2316 86.5217 23.9899 87.0974 22.8431C87.673 21.6974 88.4751 20.7848 89.5026 20.1065C90.53 19.4283 91.7003 19.0891 93.0111 19.0891C94.3219 19.0891 95.558 19.4015 96.5598 20.024C97.5605 20.6476 98.3224 21.4999 98.8457 22.582C99.3678 23.6642 99.6299 24.8835 99.6299 26.2401C99.6299 26.4966 99.6031 26.8179 99.5507 27.2028H89.1567C89.2627 28.5047 89.7101 29.5087 90.4988 30.2149C91.2875 30.9211 92.2045 31.2736 93.2498 31.2736C94.0821 31.2736 94.805 31.0773 95.4163 30.6823C96.0277 30.2885 96.5196 29.7519 96.8911 29.0737L99.3633 30.2841C98.7252 31.4387 97.8918 32.3468 96.8644 33.0072C95.8369 33.6677 94.6053 33.9979 93.1695 33.9979C91.8409 33.9979 90.6483 33.6766 89.594 33.0351L89.5963 33.0329ZM96.6535 24.8913C96.6178 24.396 96.4672 23.9062 96.2017 23.4198C95.9362 22.9346 95.5323 22.5262 94.9924 22.196C94.4513 21.8658 93.792 21.7007 93.0122 21.7007C92.0729 21.7007 91.2797 21.9896 90.6327 22.5675C89.9856 23.1454 89.5383 23.9196 89.2906 24.8913H96.6535Z" fill="white"/>
<defs>
<linearGradient id="paint0_linear_135_171" x1="16.447" y1="0.846928" x2="38.6339" y2="30.9791" gradientUnits="userSpaceOnUse">
<stop stop-color="white"/>
<stop offset="1" stop-color="#9FA3A9"/>
</linearGradient>
<linearGradient id="paint1_linear_135_171" x1="28.7642" y1="5" x2="28.7642" y2="36.7244" gradientUnits="userSpaceOnUse">
<stop stop-color="#9FA3A9"/>
<stop offset="1" stop-color="#74767A"/>
</linearGradient>
</defs>
</svg>
