<svg width="58" height="48" viewBox="0 0 58 48" fill="none" xmlns="http://www.w3.org/2000/svg">
<path d="M24.2309 45.8944C23.5123 45.8275 22.6663 45.7043 22.351 45.6208C22.0357 45.5373 21.6459 45.469 21.4848 45.469C21.3238 45.469 21.0359 45.4034 20.845 45.3233C20.6543 45.2431 19.8488 44.9613 19.0551 44.6969C17.8851 44.3073 17.4526 44.1113 16.7688 43.6614C16.305 43.3561 15.5056 42.8553 14.9923 42.5485C12.9001 41.2975 11.217 39.6284 9.56181 37.163C8.40907 35.4459 7.31109 32.698 6.76559 30.1648C6.62763 29.5244 6.59556 28.9673 6.59886 27.272C6.60265 25.3482 6.62478 25.0668 6.86285 23.9125C7.24689 22.0508 7.85912 20.27 8.63918 18.7456C9.39288 17.2728 9.71558 16.7308 10.1068 16.2805C10.4248 15.9144 10.4342 15.7313 10.1914 14.6274C9.84821 13.0662 9.78598 12.4838 9.83607 11.3017C9.8783 10.3045 9.93047 10.011 10.2209 9.13718C10.6415 7.87219 11.0335 7.13123 11.6241 6.48495C12.1018 5.9623 12.9526 5.33172 13.3593 5.19893C14.032 4.9792 15.6399 5.26412 16.6721 5.78595C17.2401 6.07318 18.3626 7.13985 18.9301 7.93177C19.1599 8.25255 19.4031 8.51501 19.4704 8.51501C19.5378 8.51501 19.9833 8.3642 20.4604 8.17995C21.652 7.71974 23.5563 7.25414 24.9915 7.07208C25.6509 6.98844 26.4731 6.87333 26.8184 6.81638C28.0805 6.60813 31.0472 6.88251 33.0323 7.39105C33.4283 7.49248 33.7831 7.53862 33.8273 7.49446C33.8712 7.45058 34.0052 7.13392 34.1251 6.79085C34.245 6.44772 34.409 6.07592 34.4896 5.96455C34.5702 5.85323 34.7762 5.55217 34.9474 5.29553C35.4135 4.59675 36.7597 3.37477 37.6176 2.87188C38.6973 2.23884 39.6363 1.95458 40.478 2.00587C41.3294 2.05777 41.882 2.32341 42.5705 3.01192C44.2721 4.71345 44.4062 7.78948 42.9422 11.534C42.7363 12.0606 42.5678 12.5457 42.5678 12.6119C42.5678 12.6781 42.8253 13.0118 43.14 13.3533C43.9819 14.2668 44.9297 15.5169 45.5686 16.5567C45.8785 17.0609 46.1755 17.4735 46.2286 17.4735C46.2816 17.4735 46.691 17.3479 47.1383 17.1943C47.885 16.9379 48.0049 16.9218 48.6058 16.9973C48.9657 17.0425 49.3505 17.1278 49.461 17.1869C49.8458 17.3929 50.4547 17.8313 50.6586 18.0495C50.947 18.3578 51.2456 19.0721 51.3086 19.6044C51.3664 20.0921 51.1598 20.983 50.8938 21.3929C50.8106 21.5212 50.6354 21.8349 50.5045 22.09C50.2233 22.6381 49.2065 23.459 48.5975 23.6296L48.209 23.7383L48.2113 25.7618C48.2136 27.7751 48.1191 28.7707 47.8201 29.8849C47.7443 30.1671 47.6492 30.5451 47.6087 30.7247C47.5682 30.9044 47.3875 31.4923 47.2072 32.0312C46.3026 34.735 44.7158 37.2534 42.4843 39.5266C40.5955 41.4508 39.417 42.3001 36.8968 43.5535C34.3796 44.8055 33.0039 45.3135 30.9031 45.7669C29.7696 46.0115 26.2161 46.0794 24.2309 45.8944ZM30.9031 45.6736C32.8456 45.2543 34.1342 44.782 36.5022 43.6211C38.3208 42.7295 39.1571 42.2401 40.2242 41.4432C41.9786 40.1328 44.2013 37.6416 45.4161 35.6239C46.2781 34.1924 47.2022 32.0318 47.5117 30.7247C47.5542 30.5451 47.651 30.1671 47.7268 29.8849C48.0302 28.7544 48.1202 27.7825 48.1132 25.7162L48.106 23.6472L48.4104 23.5901C48.7862 23.5196 49.7386 22.8938 50.1047 22.4767C50.5441 21.9763 51.1562 20.6546 51.2146 20.0801C51.2796 19.4413 51.0007 18.5938 50.584 18.164C49.9614 17.5215 49.3423 17.1831 48.6252 17.0931C47.9998 17.0145 47.9001 17.0282 47.1508 17.2959C46.7088 17.4537 46.2895 17.5898 46.2189 17.5982C46.1483 17.6066 45.8303 17.1902 45.512 16.6729C44.8484 15.5942 44.0153 14.4758 43.1062 13.4434C42.7588 13.0488 42.4745 12.6612 42.4745 12.582C42.4745 12.5029 42.6428 12.0158 42.8484 11.4996C44.591 7.12563 44.0734 3.72707 41.4473 2.30046C41.1954 2.1636 40.9308 2.12362 40.2815 2.12433C39.3126 2.12543 38.7716 2.31023 37.5168 3.06876C36.0923 3.92999 34.7759 5.41366 34.2579 6.74197C34.1478 7.02425 34.0186 7.35425 33.9708 7.47535C33.8719 7.72622 33.9844 7.7333 32.2095 7.36425C30.2949 6.9662 27.5666 6.79815 26.5884 7.01804C26.3696 7.06725 25.7594 7.15089 25.2325 7.20389C23.8401 7.34393 22.5298 7.63516 21.1513 8.11092C19.3391 8.73644 19.4309 8.73951 18.8987 8.03447C17.4829 6.15846 16.0153 5.2862 14.1865 5.23364C13.5236 5.21458 13.4362 5.23556 12.9327 5.53426C11.7089 6.2605 10.8913 7.40906 10.27 9.27469C10.0287 9.99934 9.97078 10.3446 9.92987 11.3017C9.87923 12.4843 9.94118 13.0647 10.2848 14.6274C10.5351 15.766 10.5228 15.9263 10.1502 16.3847C9.97627 16.5986 9.59058 17.2146 9.29309 17.7535C8.03382 20.035 7.42862 21.6304 6.95676 23.9125C6.71786 25.0679 6.69595 25.3463 6.69216 27.272C6.68782 29.4973 6.74675 29.9694 7.2481 31.7245C7.72106 33.3802 8.86813 35.9492 9.65588 37.117C11.3388 39.6119 12.9841 41.248 14.9703 42.4017C15.3417 42.6174 16.0025 43.0328 16.4388 43.3247C16.8751 43.6166 17.4062 43.9443 17.6192 44.0528C18.2275 44.3627 21.003 45.2888 21.5713 45.3715C21.8536 45.4125 22.2735 45.4988 22.5044 45.5634C23.9167 45.9577 29.2618 46.0278 30.9031 45.6736ZM32.5469 32.2095C32.4106 32.1024 32.2404 31.9011 32.1686 31.7624C31.9641 31.3668 31.7375 29.8115 31.7864 29.1383C31.8106 28.8047 31.8318 28.502 31.8334 28.4655C31.8378 28.3655 32.334 27.9251 32.4423 27.9251C32.5713 27.9251 32.7538 28.5353 32.6706 28.6885C32.6145 28.792 32.6991 29.3909 32.9155 30.4214C32.9398 30.5369 33.0008 30.6314 33.0512 30.6314C33.1544 30.6314 33.159 29.9327 33.0633 28.7807C33.0278 28.3531 33.0335 27.9817 33.0761 27.9554C33.1187 27.929 33.3121 28.0125 33.5059 28.1408C33.8325 28.3569 33.8707 28.4307 34.0252 29.1459C34.3009 30.4219 34.0845 31.7907 33.5392 32.2195C33.2355 32.4584 32.8584 32.4546 32.5469 32.2095ZM17.2101 30.6795C16.7989 30.5008 16.0223 29.759 15.8365 29.3676C15.6132 28.8969 15.6023 28.4426 15.7927 27.5342C16.0028 26.5313 16.2326 26.0705 16.7877 25.5386C17.2638 25.0825 17.5814 24.9599 18.5037 24.8765C18.9856 24.8329 19.2652 24.864 19.7708 25.0176C20.5698 25.2602 20.7125 25.4694 20.4983 26.0841C20.3365 26.5487 20.3294 26.6187 20.4439 26.6187C20.491 26.6187 20.6213 26.4702 20.7335 26.2888C20.8969 26.0243 20.9633 25.9802 21.0677 26.0669C21.2167 26.1904 21.2453 26.6187 21.1047 26.6187C21.0533 26.6187 21.0113 26.6625 21.0113 26.7161C21.0113 26.7697 21.0849 26.8012 21.1747 26.7861C21.2837 26.7678 21.3479 26.8285 21.3678 26.9686C21.3842 27.0841 21.3527 27.1786 21.2978 27.1786C21.2429 27.1786 21.198 27.2235 21.198 27.2782C21.198 27.3332 21.2765 27.3529 21.3731 27.3223C21.5015 27.2815 21.5633 27.3232 21.6051 27.4793C21.7123 27.8796 21.6644 28.1864 21.3886 28.864C21.0897 29.5984 20.6178 30.1639 20.0661 30.4488C19.396 30.7949 17.7763 30.9257 17.2101 30.6795ZM18.49 29.8685C18.5788 29.5815 18.8011 29.0374 18.9841 28.6592C19.167 28.2812 19.3431 27.8668 19.3755 27.7385C19.4331 27.5094 19.4301 27.5101 19.2018 27.7798C18.9683 28.0557 18.1185 30.0447 18.1185 30.3154C18.1185 30.6266 18.3366 30.3642 18.49 29.8685ZM19.145 30.096C19.145 30.0129 19.3826 29.4691 19.673 28.8875C19.9634 28.306 20.1705 27.7997 20.1332 27.7624C20.0329 27.6621 19.7391 28.0882 19.5061 28.6717C19.3933 28.954 19.2625 29.2355 19.2152 29.2973C19.0894 29.4618 18.8702 30.2322 18.9317 30.2937C19.0167 30.3787 19.145 30.2598 19.145 30.096ZM20.8537 29.3482C21.1315 28.9023 21.2162 28.6717 21.1023 28.6717C20.9847 28.6717 20.4514 29.4095 20.4514 29.5723C20.4514 29.8034 20.6333 29.7021 20.8537 29.3482ZM16.5812 29.063C16.5525 29.0343 16.4772 29.0629 16.4139 29.1267C16.3224 29.2189 16.3331 29.2296 16.4661 29.179C16.5582 29.1439 16.61 29.0917 16.5812 29.063ZM16.9054 29.045C16.9054 28.9936 16.8634 28.9517 16.8121 28.9517C16.7607 28.9517 16.7187 28.9936 16.7187 29.045C16.7187 29.0963 16.7607 29.1383 16.8121 29.1383C16.8634 29.1383 16.9054 29.0963 16.9054 29.045ZM20.4514 28.6614C20.4514 28.5118 20.2734 28.5745 20.1748 28.7589C20.011 29.0649 20.0721 29.1998 20.2679 28.9646C20.3688 28.8435 20.4514 28.707 20.4514 28.6614ZM16.1588 28.4737C16.1588 28.4286 16.0748 28.3917 15.9722 28.3917C15.7928 28.3917 15.7192 28.5742 15.8469 28.702C15.9176 28.7726 16.1588 28.596 16.1588 28.4737ZM17.1703 28.3407C17.2299 28.21 17.2786 28.0821 17.2786 28.0564C17.2786 27.9513 16.8177 28.3543 16.815 28.4618C16.8098 28.6699 17.059 28.585 17.1703 28.3407ZM18.0837 26.6071C18.3465 26.0588 18.3711 25.9569 18.2347 25.982C18.0348 26.019 17.3713 27.2922 17.3735 27.6346C17.3751 27.8776 17.3758 27.8774 17.5724 27.5703C17.681 27.4008 17.911 26.9673 18.0837 26.6071ZM18.862 27.3241C18.8605 27.2698 18.7975 27.3068 18.7221 27.4064C18.6467 27.5061 18.5864 27.6321 18.5881 27.6864C18.5897 27.7407 18.6527 27.7037 18.728 27.604C18.8034 27.5044 18.8637 27.3784 18.862 27.3241ZM16.2521 27.1218C16.2521 27.0588 16.2797 26.9303 16.3134 26.8363C16.352 26.7286 16.3002 26.7571 16.1734 26.9134C16.0627 27.0498 15.9735 27.2598 15.9752 27.38C15.978 27.5923 15.982 27.5933 16.1151 27.4174C16.1905 27.3178 16.2521 27.1847 16.2521 27.1218ZM16.7001 27.3466C16.8525 27.1942 16.8408 27.0853 16.6721 27.0853C16.5951 27.0853 16.5321 27.1029 16.5321 27.1243C16.5321 27.1458 16.5066 27.2298 16.4755 27.3109C16.4086 27.4851 16.5406 27.5061 16.7001 27.3466ZM19.6709 27.1136C19.6327 27.0753 19.5624 27.1058 19.5146 27.1813C19.3709 27.4085 19.414 27.5095 19.5827 27.3408C19.6695 27.254 19.7092 27.1518 19.6709 27.1136ZM17.0679 26.3644C17.105 26.2531 16.661 26.1191 16.5278 26.2014C16.4788 26.2317 16.4388 26.3065 16.4388 26.3676C16.4387 26.5044 17.0222 26.5014 17.0679 26.3644ZM18.9584 25.8331C18.9584 25.8117 18.9839 25.7277 19.015 25.6465C19.0925 25.4445 18.931 25.4611 18.6654 25.6825L18.4451 25.8659L18.7017 25.8691C18.8429 25.8708 18.9584 25.8546 18.9584 25.8331ZM19.7049 25.3479C19.7049 25.2709 19.6629 25.2339 19.6116 25.2656C19.5603 25.2973 19.5183 25.3863 19.5183 25.4633C19.5183 25.5402 19.5603 25.5773 19.6116 25.5455C19.6629 25.5139 19.7049 25.4249 19.7049 25.3479ZM18.7717 25.2189C18.7717 25.1676 18.7532 25.1256 18.7306 25.1256C18.7079 25.1256 18.6635 25.1676 18.6317 25.2189C18.6 25.2703 18.6185 25.3123 18.6729 25.3123C18.7272 25.3123 18.7717 25.2703 18.7717 25.2189ZM34.5425 28.5581C34.5425 28.363 35.51 28.167 35.7743 28.3085C36.0645 28.4637 35.8591 28.5758 35.1657 28.6405C34.647 28.689 34.5425 28.6751 34.5425 28.5581ZM36.0356 28.3004C36.0356 28.1861 36.5494 27.9217 37.4971 27.5482C37.8994 27.3898 38.3899 27.1546 38.587 27.0257C38.7843 26.8968 38.9666 26.8124 38.9923 26.8382C39.0855 26.9314 38.2076 27.494 37.2765 27.9379C36.3299 28.3892 36.0356 28.4751 36.0356 28.3004ZM47.5137 23.1715C47.3341 23.134 47.0191 23.0216 46.8138 22.9215C46.4986 22.768 46.4447 22.7003 46.4674 22.4863C46.4862 22.3087 46.4513 22.2328 46.3508 22.2328C46.2718 22.2328 46.2073 22.2958 46.2073 22.3728C46.2073 22.6004 46.0628 22.5354 45.7161 22.1516C45.0727 21.4394 44.9841 20.5997 45.4461 19.5921C45.7856 18.8515 46.4842 18.005 46.9636 17.7534C47.3819 17.5339 48.117 17.4309 48.6717 17.5141C49.1321 17.5831 50.0285 18.2367 50.0316 18.5055C50.0326 18.5855 50.0949 18.7325 50.1703 18.8322C50.3815 19.1113 50.3531 19.3329 50.1141 19.2704C49.9701 19.2327 49.9277 19.2545 49.9609 19.3491C49.9861 19.421 50.0855 19.4724 50.1819 19.4632C50.2783 19.4541 50.3845 19.4909 50.4179 19.5448C50.5042 19.6846 50.4466 20.5304 50.3412 20.6696C50.2927 20.7338 50.2478 20.8855 50.2415 21.0067C50.2351 21.128 50.1702 21.2959 50.0971 21.38C50.0241 21.4641 49.9801 21.5757 49.9994 21.628C50.048 21.7599 49.0224 22.8276 48.6802 23.0013C48.2985 23.1951 47.9035 23.2527 47.5137 23.1715ZM47.8701 22.8636C47.8325 22.5994 47.5137 22.516 47.5137 22.7703C47.5137 22.9816 47.5906 23.0726 47.769 23.0726C47.8513 23.0726 47.8889 22.9949 47.8701 22.8636ZM49.7534 18.78C49.7534 18.7287 49.7089 18.6867 49.6545 18.6867C49.6002 18.6867 49.5816 18.7287 49.6134 18.78C49.6451 18.8313 49.6895 18.8733 49.7122 18.8733C49.7348 18.8733 49.7534 18.8313 49.7534 18.78ZM48.0736 18.4916C48.0736 18.4481 48.0106 18.4368 47.9336 18.4663C47.8566 18.4959 47.7936 18.5837 47.7936 18.6614C47.7936 18.7765 47.8197 18.7813 47.9336 18.6867C48.0106 18.6228 48.0736 18.535 48.0736 18.4916ZM25.8639 21.4101C25.8639 20.9574 26.5152 19.5306 27.0907 18.7229C27.6417 17.9495 27.8828 17.6803 28.4301 17.2274C29.8024 16.0921 31.2314 15.371 32.9692 14.9367C34.1982 14.6296 36.6102 14.6745 37.0297 15.0123C37.1858 15.1379 37.1536 15.146 36.6888 15.0975C33.6128 14.7763 31.1356 15.4978 28.6966 17.4253C28.2032 17.8152 27.8238 18.2152 27.5361 18.6489C26.8962 19.6133 26.3716 20.5456 26.1873 21.046C26.0081 21.5324 25.8639 21.6948 25.8639 21.4101ZM32.1762 20.6437C31.8306 20.5402 31.5563 20.2886 31.5563 20.0752C31.5563 19.8387 32.049 19.3038 32.5221 19.0264C32.8971 18.8067 34.1655 18.4281 34.6654 18.3867C34.9799 18.3607 35.66 18.683 35.673 18.8641C35.73 19.6539 34.977 20.3575 33.8105 20.6048C33.1199 20.7512 32.5778 20.7641 32.1762 20.6437ZM9.25613 20.2731C9.25613 20.1961 9.29683 20.0701 9.34658 19.9931C9.42698 19.8687 9.43703 19.8687 9.43703 19.9931C9.43703 20.0701 9.39634 20.1961 9.34658 20.2731C9.26618 20.3975 9.25613 20.3975 9.25613 20.2731ZM9.62656 19.2228C9.62656 19.1458 9.68955 19.0305 9.76654 18.9666C9.88039 18.8722 9.90647 18.8766 9.90647 18.9904C9.90647 19.0674 9.84348 19.1827 9.76654 19.2466C9.6527 19.341 9.62656 19.3366 9.62656 19.2228ZM9.99983 18.3313C9.99983 18.2159 10.2586 17.8875 10.3079 17.9403C10.3785 18.0159 10.201 18.4067 10.0962 18.4067C10.0432 18.4067 9.99983 18.3728 9.99983 18.3313ZM10.3758 17.7068C10.375 17.6555 10.4577 17.4876 10.5597 17.3336C10.6617 17.1796 10.7445 17.1166 10.7436 17.1936C10.7421 17.3483 10.3781 17.8561 10.3758 17.7068ZM13.8356 17.0938C13.2247 16.0893 12.7455 13.7602 12.8212 12.1636C12.8922 10.6642 13.2951 9.87028 14.2769 9.2949C14.7447 9.02075 15.1333 9.03722 15.8749 9.36261C16.5989 9.68032 18.865 12.1935 18.865 12.6788C18.865 12.7371 18.7975 12.8408 18.715 12.9093C18.5881 13.0146 18.5468 13.0092 18.4481 12.8741C18.1881 12.5187 17.782 12.8261 18.0161 13.201C18.1082 13.3486 18.1018 13.4259 17.982 13.6086C17.8026 13.8824 17.5588 13.9018 17.4923 13.6475C17.4655 13.5449 17.3828 13.4608 17.3087 13.4608C17.2024 13.4608 17.1868 13.5471 17.2349 13.8677C17.2898 14.2342 17.2667 14.3078 17.0008 14.6106C16.7467 14.9001 16.6659 14.9387 16.4186 14.8893C16.1455 14.8347 16.1344 14.844 16.1934 15.0791C16.2432 15.2776 16.1941 15.3934 15.944 15.6662L15.6325 16.0061L15.4236 15.6521C15.2366 15.3352 15.1999 15.313 15.0727 15.4401C14.9521 15.5607 14.9481 15.6404 15.0463 15.9682C15.134 16.2607 15.1363 16.4107 15.0558 16.5873C14.9214 16.8823 14.8172 16.8822 14.6827 16.587C14.6242 16.4587 14.5113 16.3537 14.4316 16.3537C14.316 16.3537 14.2921 16.4516 14.313 16.8403C14.3344 17.2387 14.31 17.3328 14.1783 17.3599C14.0764 17.3808 13.9508 17.2833 13.8356 17.0938ZM40.5173 10.9908C40.1499 10.5482 37.5451 8.97429 36.4089 8.50831C36.1265 8.39254 35.8578 8.2648 35.8116 8.22443C35.6806 8.10993 36.4811 6.95659 37.1619 6.27901C37.8476 5.59659 38.7691 5.01227 39.3015 4.92231C39.7527 4.84603 40.3382 5.00414 40.6848 5.29581C41.1714 5.70522 41.8281 7.65883 41.6412 8.14101C41.5913 8.26969 41.5328 8.58497 41.5112 8.84161C41.4896 9.09824 41.4036 9.4708 41.32 9.66955C41.2365 9.8683 41.1681 10.0965 41.1681 10.1767C41.1681 10.3695 40.7985 11.1279 40.7046 11.1279C40.6641 11.1279 40.5798 11.0662 40.5173 10.9908ZM10.6868 9.75149C10.768 9.14278 11.5834 7.49528 12.0588 6.9796C12.56 6.4358 13.3135 6.00612 13.9396 5.90716C14.3296 5.84554 14.559 5.86789 15.039 6.01436C15.3726 6.11618 15.6876 6.24326 15.7389 6.2968C15.8032 6.36386 15.7598 6.37226 15.5989 6.32377C15.4706 6.28511 15.0483 6.23332 14.6604 6.20866C14.0237 6.16829 13.8966 6.19087 13.3539 6.44091C13.0233 6.59331 12.5974 6.8808 12.4075 7.07988C11.9406 7.56948 11.1633 8.89718 10.9254 9.6115C10.8186 9.93228 10.7078 10.1947 10.6794 10.1947C10.6509 10.1947 10.6543 9.99527 10.6868 9.75149ZM20.2156 9.44411C20.1567 9.34883 20.4674 9.1682 20.6901 9.1682C20.8141 9.1682 20.8246 9.19588 20.7398 9.29814C20.605 9.46053 20.2815 9.55065 20.2156 9.44411ZM20.918 9.17375C20.918 9.12542 20.9634 9.05787 21.0189 9.0236C21.237 8.88878 22.4773 8.61106 23.4843 8.47151C23.7409 8.43592 24.0349 8.37266 24.1375 8.33087C24.3894 8.22828 27.0888 7.86412 27.7302 7.84616C28.3577 7.82858 29.4935 7.95704 29.5523 8.05221C29.5759 8.09043 28.9972 8.11844 28.2661 8.11449C26.52 8.10493 25.0858 8.31961 21.8467 9.07539C20.9283 9.28968 20.918 9.29078 20.918 9.17375ZM36.8288 4.22238C36.8605 4.17103 36.9049 4.12907 36.9276 4.12907C36.9503 4.12907 36.9688 4.17103 36.9688 4.22238C36.9688 4.27367 36.9243 4.31568 36.8699 4.31568C36.8156 4.31568 36.797 4.27367 36.8288 4.22238ZM37.7057 3.60493C38.8202 2.85436 39.7905 2.5952 40.6634 2.81499C41.2479 2.96217 42.5106 3.9424 42.1157 3.9424C42.0724 3.9424 41.9569 3.85387 41.8591 3.74569C41.7613 3.6375 41.4713 3.43842 41.2147 3.30326C40.8115 3.09095 40.6341 3.0575 39.9083 3.05674C39.1779 3.05602 38.9893 3.09161 38.4618 3.32995C38.1283 3.4807 37.7438 3.68022 37.6076 3.77325C37.4713 3.86629 37.3249 3.9424 37.2822 3.9424C37.2395 3.9424 37.43 3.79055 37.7057 3.60493Z" fill="white"/>
<path d="M24.8927 43.5085C24.1742 43.4487 23.3973 43.3525 23.1663 43.2948C22.9354 43.2371 22.5364 43.1599 22.2798 43.1232C22.0232 43.0865 21.0873 42.8306 20.2 42.5546C18.8925 42.1478 18.4331 41.9605 17.776 41.5664C17.3301 41.299 16.5443 40.8538 16.0298 40.5772C13.9517 39.4598 12.3355 38.0162 10.6902 35.8078C9.36287 34.0259 8.12403 31.0282 7.85015 28.9351C7.78496 28.4371 7.76431 27.478 7.79633 26.4381C7.85652 24.4838 8.07378 23.3427 8.71808 21.5959C9.22772 20.2144 10.5871 17.8 11.1802 17.2229C11.574 16.8398 11.6099 16.6192 11.4098 15.8123C11.0719 14.4497 11.0128 13.9229 11.0534 12.6388C11.0898 11.4892 11.1199 11.3081 11.3952 10.5834C11.9581 9.10152 12.5819 8.29154 13.6854 7.60919L14.2544 7.25731L15.1876 7.28032C16.6677 7.31679 17.6004 7.66156 18.6266 8.55152C18.9793 8.85728 19.4594 9.34858 19.6936 9.64331C20.3057 10.4135 20.4655 10.4543 21.5065 10.1055C21.9681 9.95085 22.4875 9.81024 22.6607 9.79307C22.8339 9.77585 23.0291 9.72249 23.0943 9.67449C23.4106 9.44173 26.3039 8.95052 27.7389 8.88593C29.6747 8.79878 32.224 8.98368 33.8187 9.32691C34.7813 9.53403 34.9608 9.48424 35.1153 8.96725C35.2553 8.49841 35.6427 7.71986 35.7359 7.71986C35.7773 7.71986 35.9123 7.54812 36.0358 7.33827C36.3522 6.80079 37.7457 5.63645 38.6343 5.16692C39.7677 4.56812 40.3492 4.41801 41.4001 4.453C42.245 4.48111 42.2926 4.49339 42.8161 4.8185C43.9761 5.53885 44.5257 6.58026 44.6064 8.21121C44.6836 9.7705 44.3961 11.157 43.6497 12.8252C43.47 13.2267 43.323 13.6459 43.323 13.7566C43.323 13.8877 43.5376 14.1683 43.9373 14.5602C44.7879 15.3942 45.8174 16.6363 46.4515 17.5939C46.7452 18.0374 47.017 18.4002 47.0555 18.4002C47.0941 18.4002 47.3041 18.3435 47.5223 18.2741C48.0624 18.1024 48.0726 18.1116 47.6474 18.3892C47.0623 18.7712 46.5286 19.3945 46.2205 20.0561C45.7267 21.1161 45.8634 21.799 46.722 22.5631C47.5989 23.3433 48.681 23.6326 49.5505 23.3191C49.973 23.1668 51.111 22.1443 51.1876 21.8482C51.2176 21.7326 51.2926 21.4866 51.3544 21.3016C51.4162 21.1166 51.4855 20.7325 51.5084 20.4481C51.5461 19.9814 51.5721 19.9272 51.7759 19.8921C51.9932 19.8547 52.0016 19.8709 52.0016 20.3312C52.0016 20.8863 51.7889 21.515 51.5294 21.7266C51.4299 21.8079 51.3484 21.9271 51.3484 21.9916C51.3484 22.4155 50.1206 23.4007 49.4715 23.4976C49.2862 23.5253 49.0876 23.5741 49.0302 23.6061C48.9593 23.6456 48.9142 24.3503 48.8896 25.8047C48.8456 28.4018 48.7964 28.6844 47.9607 31.141C47.1843 33.4234 45.499 35.8576 43.2844 37.8957C41.4526 39.5815 40.2507 40.3598 37.7453 41.4827C35.2826 42.5866 33.9324 43.0411 31.9849 43.422C30.9989 43.6149 26.786 43.6663 24.8927 43.5085ZM31.1917 42.0656C33.1581 41.7964 35.7395 41.1353 36.1605 40.793C36.2501 40.7202 36.5567 40.5752 36.8419 40.4707C37.6108 40.1891 38.2364 39.8272 39.8563 38.7272C41.8275 37.3886 43.7388 35.806 44.5387 34.8501C44.8912 34.429 45.2803 33.9709 45.4034 33.8321C45.9168 33.2535 46.3609 32.6198 46.6551 32.0459C46.8272 31.7101 46.9892 31.4354 47.0149 31.4354C47.0407 31.4354 47.0982 31.5205 47.1427 31.6246C47.221 31.8074 47.2258 31.8081 47.2876 31.6456C47.3228 31.5531 47.4108 31.3449 47.4832 31.183C47.685 30.7321 48.155 28.8877 48.3136 27.9248C48.4599 27.0369 48.499 24.7731 48.3786 24.1609C48.3135 23.8299 48.2995 23.8198 47.5029 23.5302C46.6343 23.2144 45.92 22.7133 45.7413 22.2944C45.4473 21.6054 45.4675 20.5323 45.786 19.912C45.8685 19.7512 46.0814 19.4115 46.259 19.1571C46.4366 18.9027 46.5836 18.6435 46.5855 18.5811C46.5918 18.3857 45.6127 16.9639 44.8974 16.1296C43.5164 14.5188 42.0661 13.3061 40.4133 12.3798C37.1439 10.5477 34.3553 9.7466 30.0718 9.40896C29.0946 9.3319 27.0679 9.34982 26.9116 9.43688C26.8762 9.45657 26.4075 9.51775 25.87 9.57283C25.3324 9.62792 24.8087 9.70359 24.706 9.74105C24.6034 9.77852 24.0365 9.91145 23.4463 10.0364C21.1992 10.5122 20.6364 10.762 21.0739 11.0892C21.2311 11.2068 21.6732 11.9451 21.6732 12.0901C21.6732 12.1379 21.6152 12.177 21.5443 12.177C21.41 12.177 20.9267 11.6608 20.9267 11.5173C20.9267 11.4721 20.7931 11.3338 20.6297 11.2099C20.4075 11.0415 20.2675 10.9965 20.0735 11.0315C19.7708 11.086 19.655 10.9799 19.8546 10.8307C19.931 10.7736 19.9935 10.6809 19.9935 10.6249C19.9935 10.4677 18.6971 9.24678 17.807 8.56577C17.1378 8.05378 16.8905 7.9205 16.2844 7.74525C15.1634 7.42112 14.3057 7.56747 13.2835 8.25739C12.5389 8.75993 11.6639 10.2288 11.4493 11.3366C11.231 12.4636 11.3361 14.5079 11.677 15.7645C11.8256 16.3122 12.0328 16.9306 12.1376 17.1387C12.4388 17.7377 12.9024 18.8518 12.9018 18.9758C12.9012 19.1096 12.2958 18.4751 12.1024 18.138C12.0285 18.0093 11.9681 17.8287 11.9681 17.7366C11.9681 17.1097 11.3237 17.7909 10.5448 19.2412C9.46475 21.2521 8.85114 22.8913 8.49851 24.7075C8.33398 25.555 8.33799 28.3156 8.5051 29.2909C8.75526 30.7503 9.49621 32.8459 10.1554 33.9582C10.2239 34.0739 10.4253 34.4166 10.6029 34.72C10.7806 35.0233 10.9924 35.3212 11.0737 35.382C11.1551 35.4429 11.2216 35.5403 11.2216 35.5985C11.2216 35.7441 12.2091 36.921 12.8365 37.523C13.2142 37.8855 13.3957 38.0033 13.5137 37.9625C13.6222 37.925 13.9222 38.0556 14.4313 38.3619C15.5553 39.0384 17.0776 39.8071 18.5471 40.4403C19.8523 41.0027 21.5436 41.6111 21.8017 41.6111C21.8769 41.6111 22.2882 41.6853 22.7157 41.7758C24.6892 42.1941 29.141 42.3463 31.1917 42.0656ZM34.4778 34.1602C34.3091 34.0938 33.7131 34.0062 33.1532 33.9657C32.2573 33.9007 32.0705 33.8589 31.5935 33.6159C30.6042 33.1119 29.947 32.6733 29.1562 31.9891C27.4269 30.4929 26.3621 28.8558 26.2876 27.5788C26.2695 27.2682 26.1997 26.9861 26.1212 26.906C26.0468 26.83 25.9552 26.5607 25.9176 26.3074C25.88 26.0542 25.7953 25.7703 25.7294 25.6767C25.5837 25.4695 25.6132 24.173 25.7675 24.0054C25.8244 23.9437 25.845 23.8697 25.8133 23.8412C25.7132 23.7511 25.6866 23.2875 25.7784 23.2362C25.8268 23.2093 25.8413 23.0742 25.8106 22.9359C25.75 22.6629 25.9426 21.7029 26.0725 21.6306C26.1165 21.6061 26.1525 21.4881 26.1525 21.3685C26.1525 21.0424 26.7909 19.9017 27.0012 19.8522C27.1138 19.8256 27.179 19.7362 27.179 19.6081C27.179 19.2233 28.1368 18.0606 28.5945 17.8898C28.7398 17.8355 28.8587 17.7409 28.8587 17.6794C28.8587 17.5373 29.4242 17.0555 29.5918 17.0551C29.6614 17.0548 29.7966 16.9651 29.8921 16.8556C30.2944 16.3947 32.0729 15.6271 33.2321 15.4141C34.4502 15.1902 34.7377 15.1718 34.7377 15.3181C34.7377 15.501 34.5302 15.584 33.6793 15.7414C33.2768 15.8159 32.61 16.0085 32.1977 16.1696C31.7854 16.3306 31.304 16.4867 31.128 16.5165C30.9436 16.5476 30.7479 16.653 30.6665 16.7648C30.5889 16.8717 30.2096 17.1733 29.8236 17.4351C28.9371 18.0364 28.5188 18.4255 27.891 19.2329C27.1653 20.1663 26.5258 21.5821 26.5258 22.2556C26.5258 22.4685 26.3492 23.0907 26.2476 23.2358C26.1559 23.3668 26.2171 25.3391 26.3226 25.6496C26.3744 25.8021 26.445 26.0783 26.4797 26.2634C26.7345 27.6252 28.0994 29.8024 29.3049 30.7699C30.2862 31.5574 31.7995 32.2802 33.4313 32.7408C34.1056 32.9312 35.9116 32.9333 36.8841 32.7448C41.3081 31.8875 44.2473 28.9623 44.7231 24.9433C44.9046 23.4102 44.5327 21.5007 43.8275 20.3449C43.5754 19.9316 43.5491 19.7463 43.7196 19.585C43.8147 19.495 43.7991 19.4847 43.6354 19.5292C43.4644 19.5756 43.3348 19.4641 42.7637 18.7793C42.078 17.9572 41.0871 17.1254 40.3368 16.7422C40.1059 16.6243 39.7441 16.4206 39.5329 16.2896C38.9255 15.9128 37.7308 15.6429 36.3689 15.5747C35.4817 15.5302 35.1751 15.4859 35.1369 15.3964C35.0391 15.1666 35.2448 15.1189 35.9554 15.2063C36.3378 15.2535 37.0077 15.3263 37.444 15.3681C39.4256 15.5585 41.191 16.3953 42.8279 17.9201C43.2865 18.3473 43.8362 18.9615 44.0494 19.2849C44.508 19.9806 45.1894 21.366 45.1894 21.6029C45.1894 21.6947 45.2944 21.9564 45.4227 22.1846C45.551 22.4128 45.656 22.693 45.656 22.8073C45.656 22.9216 45.7231 23.273 45.8051 23.588C45.9198 24.0288 45.9442 24.4519 45.911 25.4223C45.8692 26.6408 45.8544 26.7178 45.4779 27.6815C45.2635 28.2302 44.9682 28.8933 44.8216 29.1549C44.2557 30.1651 42.2737 32.235 41.2307 32.9051C40.5104 33.3679 39.2525 33.8379 38.1572 34.0536C37.0421 34.2732 34.9208 34.3346 34.4778 34.1602ZM33.338 31.8807C33.0317 31.7803 32.6727 31.3783 32.5301 30.9762C32.4277 30.6876 32.3712 30.163 32.3528 29.3329L32.3259 28.1135L31.5937 27.9874C31.1911 27.918 30.7443 27.7855 30.6009 27.693C30.0794 27.3566 29.7919 27.1298 29.7919 27.0548C29.7919 27.0127 29.711 26.9052 29.612 26.816C29.513 26.7268 29.4029 26.4784 29.3672 26.2641C29.284 25.7641 29.4778 25.3599 30.0387 24.8636L30.4527 24.4973L31.2188 24.4991C31.6401 24.5001 32.3838 24.5397 32.8714 24.587C33.359 24.6343 34.0519 24.6524 34.4111 24.6272L35.0644 24.5814L35.039 24.0768C35.025 23.7993 34.9674 23.3338 34.9109 23.0424C34.8175 22.5609 34.824 22.5021 34.9819 22.3981C35.0775 22.3351 35.196 22.3061 35.2454 22.3336C35.2979 22.3629 35.2886 22.3976 35.2231 22.4172C35.0626 22.4655 35.0845 22.8535 35.251 22.9111C35.4172 22.9685 35.4375 23.3706 35.2812 23.5114C35.1971 23.5872 35.21 23.6487 35.3367 23.7748C35.4544 23.8921 35.4846 24.0104 35.4416 24.1866C35.353 24.55 35.5764 24.5788 36.208 24.2852C36.5029 24.1482 37.1409 23.881 37.6259 23.6915C38.1109 23.502 38.6778 23.2447 38.8857 23.1196C39.4472 22.7818 39.7378 22.6889 40.2246 22.6919C40.7253 22.6949 40.8379 22.7594 41.2143 23.2589C41.4592 23.5838 41.4757 23.6482 41.387 23.9316C41.3331 24.104 41.2409 24.4314 41.1822 24.6591C41.0564 25.1471 40.6179 25.7134 39.9224 26.2862C39.5283 26.6108 39.1342 26.8097 38.0779 27.2171C37.3391 27.5019 36.6234 27.735 36.4873 27.735C36.0395 27.735 35.2858 27.9174 35.2343 28.0382C35.2065 28.1035 35.2477 28.2447 35.3258 28.3521C35.5422 28.6498 35.5774 29.8793 35.3677 29.8167C35.2966 29.7955 35.2269 29.5414 35.1894 29.167C35.0839 28.1135 34.9643 27.8537 34.4694 27.6036C34.1671 27.4509 33.9961 27.409 33.8984 27.4641C33.8105 27.5135 33.7028 27.5109 33.607 27.4571C33.494 27.3935 33.3684 27.42 33.1155 27.5608C32.7154 27.7836 32.5876 27.9705 32.5797 28.3442C32.5583 29.3604 32.536 29.6395 32.4689 29.7329C32.4217 29.7986 32.4466 29.8572 32.5344 29.8876C32.6172 29.9162 32.7027 30.0983 32.7408 30.3271C32.8683 31.0935 33.2999 31.6376 33.8546 31.7315C34.3782 31.8201 35.1099 31.1984 35.1107 30.6643C35.1111 30.3538 35.2005 30.1739 35.3543 30.1739C35.5705 30.1739 35.5074 30.7165 35.2324 31.2215C35.0571 31.5437 34.8898 31.7231 34.6818 31.8121C34.393 31.9356 33.625 31.9749 33.338 31.8807ZM31.2829 26.8637C31.2818 26.811 31.1987 26.8626 31.0984 26.9782C30.8598 27.253 30.8626 27.4164 31.1014 27.1581C31.2024 27.0489 31.284 26.9164 31.2829 26.8637ZM35.6243 27.1463C35.656 27.1001 35.6375 27.0623 35.5832 27.0623C35.5288 27.0623 35.4843 27.1001 35.4843 27.1463C35.4843 27.1926 35.5028 27.2305 35.5254 27.2305C35.5481 27.2305 35.5925 27.1926 35.6243 27.1463ZM31.9169 26.8468C31.8856 26.8187 31.8097 26.8839 31.7482 26.992C31.6414 27.1797 31.6439 27.182 31.8051 27.0432C31.8979 26.9634 31.9482 26.875 31.9169 26.8468ZM32.5348 27.0134C32.6224 26.8076 32.6034 26.7804 32.4514 26.8941C32.2964 27.0101 32.2658 27.1463 32.3948 27.1463C32.4407 27.1463 32.5037 27.0865 32.5348 27.0134ZM33.2302 26.9405C33.2509 26.8446 33.2172 26.8042 33.1369 26.8283C33.0679 26.849 32.9969 26.9334 32.9792 27.0158C32.9585 27.1117 32.9922 27.1521 33.0725 27.1281C33.1415 27.1073 33.2125 27.0229 33.2302 26.9405ZM36.6042 26.5995C36.6697 26.3888 36.6993 26.1949 36.67 26.1685C36.6408 26.1422 36.551 26.3204 36.4705 26.5647C36.2998 27.0825 36.2993 27.086 36.4047 27.0274C36.449 27.0027 36.5387 26.8101 36.6042 26.5995ZM30.679 26.8094C30.9284 26.561 30.7949 26.522 30.5381 26.7683C30.4178 26.8837 30.3621 26.9782 30.4144 26.9782C30.4667 26.9782 30.5858 26.9022 30.679 26.8094ZM37.3506 26.6467C37.3506 26.4352 37.2001 26.3518 37.1271 26.523C37.0378 26.7329 37.0602 26.81 37.2107 26.81C37.2877 26.81 37.3506 26.7365 37.3506 26.6467ZM30.3597 26.3658C30.441 26.2632 30.5864 26.0695 30.6829 25.9354L30.8581 25.6916L30.66 25.7872C30.4812 25.8734 30.0718 26.3727 30.0718 26.5045C30.0718 26.6154 30.2175 26.5453 30.3597 26.3658ZM33.8089 26.13C33.8661 26.0335 33.8936 25.9371 33.8699 25.9157C33.8137 25.8651 33.5246 26.1259 33.5246 26.2273C33.5246 26.3694 33.7029 26.3083 33.8089 26.13ZM31.3714 26.1026C31.4542 26.0127 31.4545 25.9694 31.3724 25.9236C31.272 25.8678 31.1031 26.0131 31.0998 26.1582C31.0974 26.2619 31.2543 26.2298 31.3714 26.1026ZM37.1548 25.4275C37.2991 25.3471 37.2827 25.128 37.1323 25.128C36.9742 25.128 36.7897 25.4863 36.7944 25.7837L36.7981 26.011L36.9252 25.7479C36.9951 25.603 37.0984 25.4589 37.1548 25.4275ZM35.5354 25.5407C35.6175 25.3976 35.6637 25.2617 35.638 25.2385C35.5949 25.1997 35.2977 25.6503 35.2977 25.7546C35.2977 25.8699 35.3987 25.7791 35.5354 25.5407ZM34.8777 25.3733C34.8777 25.3073 34.7737 25.2458 34.6444 25.2354C34.5161 25.225 34.4636 25.2376 34.5278 25.2634C34.5919 25.2892 34.6444 25.367 34.6444 25.4364C34.6444 25.5058 34.6969 25.5468 34.7611 25.5275C34.8252 25.5082 34.8777 25.4388 34.8777 25.3733ZM33.058 25.128C33.058 25.0818 33.0395 25.0439 33.0169 25.0439C32.9943 25.0439 32.9498 25.0818 32.9181 25.128C32.8863 25.1743 32.9048 25.2121 32.9592 25.2121C33.0136 25.2121 33.058 25.1743 33.058 25.128ZM39.0077 24.9113C38.9159 24.8286 38.7505 24.9556 38.7505 25.109C38.7505 25.2373 38.7627 25.2371 38.9082 25.106C38.995 25.0278 39.0398 24.9402 39.0077 24.9113ZM41.0834 23.4832C41.0834 23.2443 41.0488 23.1938 40.8853 23.1938C40.7225 23.1938 40.7074 23.2156 40.8001 23.3163C40.8621 23.3836 40.8845 23.48 40.8499 23.5305C40.7633 23.6567 40.8736 23.8894 40.9894 23.8249C41.0411 23.7961 41.0834 23.6423 41.0834 23.4832ZM18.0103 30.4744C17.5161 30.3155 17.0747 29.9907 16.5016 29.3646C16.0296 28.8489 16.0033 28.7943 15.9475 28.216C15.8776 27.4913 16.053 26.644 16.4085 25.9893C16.5837 25.6665 16.8265 25.4172 17.2914 25.083C17.644 24.8295 18.0498 24.5806 18.1931 24.53C18.6046 24.3846 20.389 24.3313 20.8606 24.4504C21.2771 24.5554 22.4197 25.3814 22.4197 25.5774C22.4197 25.632 22.5098 25.7142 22.6199 25.7598C23.1167 25.966 23.3499 27.4479 23.0263 28.3428C22.7551 29.0924 22.5864 29.3352 22.0091 29.8059C21.414 30.2912 21.1668 30.3809 20.0707 30.5092C19.1279 30.6195 18.4246 30.6076 18.0103 30.4744ZM20.906 30.0239C21.8673 29.7181 22.8796 28.1907 22.7016 27.3146C22.5664 26.6487 22.1682 25.7855 21.9102 25.5991C21.7757 25.5019 21.6149 25.3302 21.5528 25.2175C21.3874 24.9175 20.6674 24.7149 19.7602 24.7131C18.7743 24.7112 18.2833 24.8225 17.8279 25.1512C17.113 25.6672 16.7395 26.3112 16.4967 27.4466C16.2575 28.5646 16.6357 29.2846 17.8848 30.0898C18.3039 30.3599 19.9634 30.3238 20.906 30.0239ZM33.7693 28.5907C33.728 28.4832 33.7191 28.3727 33.7494 28.3454C33.8461 28.2582 33.9141 28.3868 33.8787 28.5898L33.8444 28.7863L33.7693 28.5907ZM34.7377 21.9857C34.7377 21.8699 34.699 21.6832 34.6516 21.5709C34.5702 21.3781 34.5147 21.3645 33.6484 21.3266C32.6572 21.2832 32.2328 21.1499 31.9801 20.8022C31.3092 19.8795 33.6056 18.4605 35.5646 18.5872C36.6758 18.6591 37.3355 19.1109 37.225 19.7244C37.1197 20.3098 36.4065 20.9004 35.5269 21.1309C35.0073 21.267 35.0052 21.2688 35.0735 21.5369C35.1965 22.0194 35.1724 22.1407 34.9478 22.1694C34.7779 22.1912 34.7377 22.156 34.7377 21.9857ZM35.5247 20.8876C36.0832 20.6413 36.6594 20.1218 36.7551 19.7781C36.8626 19.3921 36.6915 19.1359 36.2045 18.954L35.7609 18.7884L34.8527 18.9826C33.7681 19.2146 33.1795 19.4821 32.6812 19.9693C32.259 20.3821 32.2234 20.5697 32.5215 20.8129C32.941 21.1554 33.0735 21.184 34.0632 21.146C34.8571 21.1156 35.1082 21.0712 35.5247 20.8876ZM21.1133 21.9089C20.7278 21.7353 20.5346 21.2962 20.5874 20.7137C20.6264 20.2835 20.6752 20.1761 20.9214 19.9779C21.2055 19.749 21.6802 19.6691 21.9168 19.8102C22.1197 19.9311 22.3297 20.4217 22.3859 20.9062C22.4401 21.3736 22.4279 21.4135 22.1417 21.7073C21.8168 22.0408 21.5308 22.0969 21.1133 21.9089ZM14.3493 18.0297C13.9796 17.5088 13.7172 16.8688 13.5532 16.0875C13.495 15.81 13.4044 15.4485 13.3521 15.2841C13.2426 14.9408 13.2773 14.5613 13.4146 14.6003C13.4659 14.6149 13.4948 14.6842 13.4787 14.7543C13.4627 14.8243 13.5152 14.9719 13.5954 15.0822C13.6821 15.2014 13.7412 15.4668 13.7412 15.7368C13.7412 16.051 13.7946 16.2528 13.9142 16.3916C14.0095 16.5019 14.1403 16.7435 14.2051 16.9285C14.2698 17.1136 14.4481 17.5052 14.6012 17.799C14.7919 18.165 14.8493 18.3603 14.7835 18.4196C14.7177 18.4789 14.5811 18.3562 14.3493 18.0297ZM15.6591 18.1195C15.5603 18.0544 15.5092 17.9317 15.5287 17.8068C15.5608 17.6019 15.5615 17.6021 15.7725 17.8687C15.9971 18.1524 15.931 18.2987 15.6591 18.1195ZM16.4145 17.657C16.2695 17.5127 16.0274 16.5642 16.1152 16.485C16.1357 16.4666 16.204 16.54 16.2671 16.648C16.3302 16.756 16.4828 16.9538 16.6062 17.0874C16.9704 17.4818 16.7866 18.0276 16.4145 17.657ZM42.4272 16.6847C42.1478 16.4328 42.1099 16.3465 42.1099 15.9618C42.1099 15.4782 42.3009 15.1077 42.6326 14.9476C42.9075 14.8151 43.062 14.8755 43.3659 15.2346C43.5359 15.4354 43.6315 15.6722 43.6667 15.9793C43.7128 16.3818 43.6915 16.4583 43.4657 16.7001C43.1323 17.0571 42.8356 17.0527 42.4272 16.6847ZM17.4417 16.6486C17.273 16.4806 17.2357 16.1683 17.375 16.0907C17.5083 16.0164 17.8472 16.3877 17.8472 16.608C17.8472 16.8412 17.6545 16.8606 17.4417 16.6486ZM18.4604 15.6611C18.2931 15.5103 18.2739 15.3041 18.4102 15.1204C18.4892 15.0139 18.5397 15.0309 18.7354 15.2302C19.0168 15.5169 19.0422 15.7932 18.787 15.7932C18.688 15.7932 18.5411 15.7337 18.4604 15.6611ZM19.2989 15.0176C19.1348 14.8065 19.1138 14.5503 19.2453 14.3635C19.3219 14.2548 19.3607 14.2613 19.5268 14.4106C19.6328 14.5059 19.7447 14.7235 19.7754 14.8942C19.8247 15.1683 19.8087 15.2045 19.6377 15.2045C19.5313 15.2045 19.3788 15.1204 19.2989 15.0176ZM13.3969 14.1887C13.4329 14.0648 13.3993 13.9366 13.3067 13.8444C13.2034 13.7416 13.1795 13.6272 13.2269 13.4629C13.2641 13.3338 13.307 12.9711 13.3222 12.6568C13.3613 11.8508 13.6851 11.309 14.5399 10.6195C15.2919 10.013 15.5296 9.90641 16.13 9.90641C16.9429 9.90641 17.7672 10.4775 18.9824 11.8827C19.7536 12.7745 20.0841 13.2369 20.1443 13.5084C20.2097 13.8032 20.0351 13.9428 19.941 13.671C19.9047 13.5662 19.8485 13.4616 19.8162 13.4385C19.7838 13.4153 19.6174 13.1504 19.4464 12.8498C19.2753 12.5492 19.0607 12.2275 18.9695 12.135C18.8783 12.0425 18.755 11.8816 18.6954 11.7775C18.6227 11.6505 18.5024 11.5883 18.3294 11.5883C18.1503 11.5883 17.9592 11.4836 17.7028 11.2448C17.2474 10.8207 16.8224 10.6177 16.1649 10.51C15.5914 10.416 15.2334 10.5316 14.6369 11.0036C13.9373 11.5572 13.6637 12.2361 13.6242 13.5158C13.6061 14.1035 13.5662 14.318 13.4697 14.347C13.3736 14.3759 13.3546 14.3345 13.3969 14.1887ZM19.0603 14.1113C19.0603 14.065 19.1023 14.0271 19.1536 14.0271C19.2049 14.0271 19.247 14.065 19.247 14.1113C19.247 14.1575 19.2049 14.1954 19.1536 14.1954C19.1023 14.1954 19.0603 14.1575 19.0603 14.1113ZM13.8622 38.2919C13.77 38.1777 13.6557 38.0831 13.6083 38.0817C13.5608 38.0802 13.6206 38.1737 13.7412 38.2893C14.0209 38.5577 14.0778 38.5589 13.8622 38.2919ZM46.7162 32.907C46.7458 32.8377 46.7293 32.7809 46.6796 32.7809C46.6299 32.7809 46.5892 32.8377 46.5892 32.907C46.5892 32.9764 46.6057 33.0332 46.6258 33.0332C46.646 33.0332 46.6867 32.9764 46.7162 32.907ZM41.93 12.418C42.0121 12.2797 42.0543 12.2641 42.1134 12.3503C42.1755 12.4408 42.2524 12.4319 42.517 12.3035C42.7951 12.1685 42.8818 12.1605 43.0983 12.2493C43.2965 12.3307 43.3681 12.3314 43.4224 12.2523C43.5757 12.0288 44.0051 9.47598 43.9726 8.9813C43.9681 8.91192 43.9687 8.67 43.9742 8.44372C43.9863 7.93737 43.8446 7.28651 43.5422 6.45841C43.3433 5.91375 43.2394 5.76726 42.7809 5.38513C42.1725 4.87814 41.8649 4.77757 40.9211 4.77692C40.1152 4.77633 39.5914 4.93757 38.6124 5.48743C37.8774 5.90029 36.3325 7.28468 35.8447 7.96756C35.4767 8.48277 35.4987 8.65218 35.9586 8.84337C36.1655 8.92939 36.3466 8.98615 36.361 8.96953C36.3754 8.9529 36.5385 8.73112 36.7235 8.47674C37.3309 7.64156 38.6688 6.62079 39.4194 6.41995C40.436 6.14785 41.4841 6.32928 42.1654 6.89522C42.3915 7.08305 42.5765 7.30907 42.5765 7.39757C42.5765 7.48606 42.6612 7.6618 42.7649 7.78811C43.0117 8.08897 43.1667 8.96096 43.1027 9.68815C43.0481 10.308 42.9348 10.5152 42.7444 10.3436C42.6572 10.2651 42.6606 10.1727 42.7598 9.92734C42.9145 9.54467 42.8924 8.90449 42.7185 8.73023C42.6486 8.6602 42.4811 8.33816 42.3462 8.01463C41.9608 7.08983 41.4326 6.71067 40.5296 6.71067C39.432 6.71067 37.8068 7.84314 36.8498 9.27479C36.6685 9.54601 36.5428 9.80089 36.5704 9.84118C36.5981 9.88151 37.0904 10.1142 37.6646 10.3582C39.006 10.9285 39.8165 11.3573 40.851 12.0444C41.309 12.3486 41.7152 12.5975 41.7536 12.5975C41.7919 12.5975 41.8714 12.5167 41.93 12.418ZM42.3141 11.4421C42.3609 11.2229 42.6698 11.1984 42.6698 11.414C42.6698 11.5343 42.6099 11.5883 42.4763 11.5883C42.3428 11.5883 42.2925 11.5431 42.3141 11.4421ZM51.3162 19.4238C51.2312 19.3392 51.1617 19.1973 51.1617 19.1084C51.1617 18.9472 50.4753 18.356 50.0517 18.1523C49.8982 18.0785 49.549 18.0558 48.936 18.08C48.1069 18.1127 48.0662 18.107 48.3595 17.9991C48.5915 17.9138 48.88 17.8984 49.4484 17.9411C50.1063 17.9904 50.2942 18.0413 50.709 18.2821C51.5227 18.7546 51.9992 19.3366 51.7083 19.5027C51.5293 19.6049 51.4901 19.597 51.3162 19.4238Z" fill="white"/>
</svg>
