<svg width="174" height="48" viewBox="0 0 174 48" fill="none" xmlns="http://www.w3.org/2000/svg">
<path d="M21.6668 42.696C21.0532 42.6388 20.3308 42.5337 20.0615 42.4623C19.7923 42.3911 19.4594 42.3327 19.3219 42.3327C19.1844 42.3327 18.9385 42.2767 18.7756 42.2083C18.6127 42.1398 17.9248 41.8992 17.2472 41.6734C16.248 41.3407 15.8787 41.1734 15.2948 40.7892C14.8988 40.5285 14.2162 40.1008 13.7779 39.8388C11.9912 38.7706 10.5541 37.3453 9.14065 35.2401C8.15631 33.7739 7.21873 31.4274 6.75292 29.2642C6.63512 28.7174 6.60773 28.2416 6.61054 26.794C6.61378 25.1512 6.63268 24.9109 6.83597 23.9253C7.16391 22.3356 7.6867 20.8149 8.35281 19.5132C8.9964 18.2556 9.27196 17.7928 9.60604 17.4082C9.87757 17.0956 9.88559 16.9393 9.67831 15.9966C9.38521 14.6635 9.33208 14.1661 9.37485 13.1567C9.41091 12.3052 9.45546 12.0546 9.70349 11.3084C10.0626 10.2282 10.3974 9.5955 10.9017 9.04364C11.3096 8.59733 12.0361 8.05888 12.3834 7.94548C12.9579 7.75786 14.3308 8.00115 15.2122 8.44675C15.6973 8.69202 16.6558 9.60287 17.1404 10.2791C17.3366 10.553 17.5443 10.7771 17.6018 10.7771C17.6593 10.7771 18.0397 10.6484 18.4472 10.491C19.4647 10.098 21.0908 9.70046 22.3163 9.545C22.8794 9.47358 23.5814 9.37528 23.8763 9.32665C24.954 9.14882 27.4874 9.38311 29.1825 9.81737C29.5206 9.90398 29.8236 9.94338 29.8614 9.90567C29.8988 9.8682 30.0133 9.5978 30.1156 9.30485C30.218 9.01184 30.3581 8.69436 30.4269 8.59926C30.4957 8.5042 30.6716 8.24712 30.8178 8.02797C31.2158 7.43127 32.3654 6.3878 33.0979 5.95838C34.0199 5.41781 34.8217 5.17508 35.5405 5.21888C36.2675 5.2632 36.7394 5.49003 37.3273 6.07796C38.7803 7.53093 38.8948 10.1576 37.6447 13.3551C37.4688 13.8048 37.325 14.219 37.325 14.2755C37.325 14.3321 37.5449 14.617 37.8136 14.9086C38.5325 15.6887 39.3418 16.7562 39.8874 17.644C40.1521 18.0746 40.4056 18.427 40.451 18.427C40.4963 18.427 40.8458 18.3197 41.2278 18.1886C41.8654 17.9696 41.9678 17.9559 42.4809 18.0203C42.7882 18.0589 43.1169 18.1318 43.2112 18.1822C43.5398 18.3581 44.0597 18.7325 44.2339 18.9188C44.4801 19.182 44.7351 19.792 44.7889 20.2465C44.8383 20.663 44.6618 21.4237 44.4347 21.7738C44.3636 21.8833 44.214 22.1512 44.1023 22.3691C43.8622 22.8371 42.9938 23.5381 42.4739 23.6837L42.1421 23.7765L42.1441 25.5044C42.146 27.2236 42.0653 28.0738 41.81 29.0252C41.7453 29.2662 41.664 29.589 41.6295 29.7423C41.5949 29.8957 41.4406 30.3978 41.2867 30.8579C40.5142 33.1668 39.1591 35.3172 37.2536 37.2584C35.6408 38.9015 34.6344 39.6267 32.4824 40.6971C30.3329 41.7661 29.1583 42.1999 27.3643 42.5871C26.3964 42.796 23.362 42.854 21.6668 42.696ZM27.3643 42.5074C29.023 42.1494 30.1234 41.7461 32.1455 40.7547C33.6984 39.9934 34.4125 39.5755 35.3237 38.895C36.8219 37.7761 38.7199 35.6488 39.7572 33.9259C40.4932 32.7034 41.2824 30.8585 41.5467 29.7423C41.5829 29.589 41.6656 29.2662 41.7303 29.0252C41.9894 28.0598 42.0663 27.23 42.0603 25.4655L42.0542 23.6988L42.3141 23.65C42.635 23.5898 43.4482 23.0554 43.7609 22.6992C44.1361 22.2719 44.6588 21.1433 44.7086 20.6528C44.7641 20.1073 44.5259 19.3836 44.1702 19.0165C43.6385 18.468 43.1098 18.1789 42.4975 18.1021C41.9634 18.035 41.8783 18.0467 41.2385 18.2753C40.8611 18.41 40.503 18.5262 40.4427 18.5334C40.3825 18.5406 40.1109 18.185 39.8391 17.7433C39.2725 16.8222 38.561 15.8672 37.7847 14.9855C37.4881 14.6486 37.2453 14.3177 37.2453 14.25C37.2453 14.1825 37.389 13.7665 37.5646 13.3257C39.0527 9.59072 38.6106 6.68864 36.3682 5.47043C36.1531 5.35357 35.9271 5.31943 35.3727 5.32004C34.5453 5.32098 34.0834 5.47878 33.0119 6.1265C31.7954 6.86192 30.6714 8.12885 30.229 9.26311C30.135 9.50415 30.0247 9.78595 29.9839 9.88935C29.8994 10.1036 29.9955 10.1096 28.4799 9.79448C26.845 9.45458 24.5152 9.31108 23.68 9.49885C23.4931 9.54087 22.972 9.61229 22.5221 9.65755C21.3331 9.77713 20.2142 10.0258 19.0371 10.4321C17.4896 10.9662 17.568 10.9688 17.1136 10.3668C15.9046 8.76484 14.6514 8.02 13.0897 7.97512C12.5237 7.95885 12.449 7.97676 12.0191 8.23183C10.9741 8.85198 10.2759 9.83275 9.74542 11.4258C9.53936 12.0446 9.48988 12.3394 9.45495 13.1567C9.41171 14.1666 9.46461 14.6622 9.75798 15.9966C9.97178 16.9688 9.96128 17.1057 9.64309 17.4972C9.49457 17.6798 9.16522 18.2059 8.91119 18.666C7.83588 20.6142 7.31909 21.9765 6.91616 23.9253C6.71217 24.9119 6.69345 25.1496 6.69022 26.794C6.68651 28.6942 6.73683 29.0973 7.16494 30.596C7.56881 32.0099 8.54831 34.2036 9.22098 35.2008C10.6581 37.3313 12.063 38.7284 13.759 39.7135C14.0762 39.8977 14.6405 40.2524 15.013 40.5017C15.3855 40.7509 15.8391 41.0307 16.021 41.1234C16.5404 41.3881 18.9105 42.1789 19.3957 42.2494C19.6368 42.2845 19.9953 42.3582 20.1926 42.4133C21.3985 42.75 25.9628 42.8099 27.3643 42.5074ZM28.7679 31.0103C28.6516 30.9188 28.5063 30.7469 28.445 30.6284C28.2703 30.2906 28.0768 28.9625 28.1186 28.3877C28.1393 28.1028 28.1573 27.8443 28.1587 27.8132C28.1624 27.7278 28.5862 27.3518 28.6787 27.3518C28.7889 27.3518 28.9446 27.8728 28.8736 28.0036C28.8257 28.092 28.898 28.6033 29.0828 29.4833C29.1035 29.582 29.1556 29.6627 29.1986 29.6627C29.2867 29.6627 29.2906 29.066 29.2089 28.0823C29.1786 27.7172 29.1835 27.4 29.2199 27.3775C29.2562 27.3551 29.4214 27.4263 29.5869 27.5359C29.8658 27.7204 29.8984 27.7834 30.0303 28.3941C30.2657 29.4838 30.0809 30.6526 29.6153 31.0188C29.356 31.2228 29.034 31.2196 28.7679 31.0103ZM15.6717 29.7038C15.3205 29.5511 14.6574 28.9177 14.4987 28.5835C14.308 28.1816 14.2987 27.7936 14.4613 27.018C14.6408 26.1615 14.837 25.768 15.3109 25.3139C15.7175 24.9243 15.9887 24.8197 16.7762 24.7484C17.1878 24.7112 17.4265 24.7378 17.8583 24.8689C18.5405 25.0761 18.6624 25.2547 18.4795 25.7796C18.3413 26.1764 18.3352 26.2362 18.433 26.2362C18.4732 26.2362 18.5845 26.1094 18.6803 25.9544C18.8199 25.7286 18.8765 25.6909 18.9657 25.765C19.0929 25.8705 19.1174 26.2362 18.9973 26.2362C18.9535 26.2362 18.9176 26.2736 18.9176 26.3193C18.9176 26.3651 18.9804 26.392 19.057 26.3791C19.1501 26.3635 19.205 26.4153 19.222 26.535C19.236 26.6336 19.2091 26.7143 19.1622 26.7143C19.1153 26.7143 19.077 26.7526 19.077 26.7993C19.077 26.8463 19.144 26.8631 19.2265 26.8369C19.3362 26.8021 19.3889 26.8378 19.4246 26.971C19.5162 27.3128 19.4752 27.5748 19.2397 28.1535C18.9845 28.7806 18.5815 29.2635 18.1105 29.5067C17.5382 29.8022 16.1551 29.9139 15.6717 29.7038ZM16.7646 29.0112C16.8404 28.7662 17.0303 28.3015 17.1865 27.9786C17.3427 27.6558 17.4931 27.302 17.5207 27.1924C17.5699 26.9967 17.5673 26.9973 17.3724 27.2276C17.173 27.4633 16.4474 29.1616 16.4474 29.3928C16.4474 29.6585 16.6336 29.4345 16.7646 29.0112ZM17.3239 29.2054C17.3239 29.1345 17.5267 28.6701 17.7747 28.1736C18.0227 27.677 18.1996 27.2446 18.1677 27.2128C18.0821 27.1272 17.8312 27.491 17.6322 27.9893C17.5359 28.2303 17.4242 28.4707 17.3839 28.5234C17.2764 28.6639 17.0893 29.3218 17.1418 29.3743C17.2143 29.4469 17.3239 29.3453 17.3239 29.2054ZM18.783 28.567C19.0202 28.1862 19.0925 27.9893 18.9953 27.9893C18.8948 27.9893 18.4395 28.6193 18.4395 28.7582C18.4395 28.9556 18.5948 28.8691 18.783 28.567ZM15.1347 28.3234C15.1101 28.2989 15.0458 28.3233 14.9918 28.3778C14.9136 28.4565 14.9228 28.4657 15.0364 28.4224C15.115 28.3925 15.1592 28.3479 15.1347 28.3234ZM15.4114 28.308C15.4114 28.2642 15.3756 28.2283 15.3318 28.2283C15.2879 28.2283 15.252 28.2642 15.252 28.308C15.252 28.3518 15.2879 28.3877 15.3318 28.3877C15.3756 28.3877 15.4114 28.3518 15.4114 28.308ZM18.4395 27.9804C18.4395 27.8527 18.2875 27.9062 18.2032 28.0637C18.0634 28.325 18.1155 28.4402 18.2828 28.2394C18.3689 28.1359 18.4395 28.0194 18.4395 27.9804ZM14.7739 27.8201C14.7739 27.7816 14.7022 27.7502 14.6146 27.7502C14.4614 27.7502 14.3985 27.906 14.5076 28.0151C14.568 28.0754 14.7739 27.9246 14.7739 27.8201ZM15.6377 27.7066C15.6885 27.595 15.7302 27.4857 15.7302 27.4638C15.7302 27.3741 15.3365 27.7182 15.3342 27.81C15.3298 27.9877 15.5426 27.9152 15.6377 27.7066ZM16.4176 26.2262C16.642 25.758 16.663 25.671 16.5466 25.6925C16.3759 25.7241 15.8093 26.8113 15.8112 27.1037C15.8125 27.3112 15.8131 27.311 15.981 27.0488C16.0737 26.904 16.2702 26.5339 16.4176 26.2262ZM17.0823 26.8385C17.0809 26.7921 17.0271 26.8238 16.9628 26.9088C16.8984 26.9939 16.8469 27.1015 16.8483 27.1479C16.8497 27.1943 16.9035 27.1626 16.9678 27.0776C17.0322 26.9925 17.0837 26.8849 17.0823 26.8385ZM14.8536 26.6657C14.8536 26.6119 14.8772 26.5022 14.9059 26.422C14.9389 26.33 14.8947 26.3543 14.7864 26.4878C14.6919 26.6043 14.6157 26.7836 14.6171 26.8862C14.6196 27.0675 14.623 27.0684 14.7367 26.9182C14.801 26.8331 14.8536 26.7195 14.8536 26.6657ZM15.2361 26.8577C15.3663 26.7276 15.3563 26.6346 15.2122 26.6346C15.1465 26.6346 15.0927 26.6496 15.0927 26.6679C15.0927 26.6863 15.0709 26.758 15.0443 26.8273C14.9873 26.976 15.1 26.9939 15.2361 26.8577ZM17.773 26.6587C17.7404 26.6261 17.6803 26.6521 17.6395 26.7166C17.5168 26.9106 17.5536 26.9968 17.6976 26.8528C17.7717 26.7787 17.8056 26.6914 17.773 26.6587ZM15.5502 26.019C15.5819 25.9239 15.2028 25.8095 15.089 25.8798C15.0472 25.9057 15.013 25.9696 15.013 26.0217C15.013 26.1385 15.5112 26.136 15.5502 26.019ZM17.1645 25.5654C17.1645 25.547 17.1863 25.4753 17.2129 25.406C17.279 25.2335 17.1412 25.2477 16.9143 25.4367L16.7262 25.5934L16.9454 25.596C17.0659 25.5975 17.1645 25.5837 17.1645 25.5654ZM17.802 25.151C17.802 25.0852 17.7662 25.0536 17.7223 25.0807C17.6785 25.1078 17.6426 25.1838 17.6426 25.2495C17.6426 25.3152 17.6785 25.3469 17.7223 25.3198C17.7662 25.2927 17.802 25.2167 17.802 25.151ZM17.0051 25.0409C17.0051 24.997 16.9893 24.9612 16.97 24.9612C16.9507 24.9612 16.9127 24.997 16.8856 25.0409C16.8585 25.0847 16.8743 25.1206 16.9208 25.1206C16.9671 25.1206 17.0051 25.0847 17.0051 25.0409ZM30.472 27.8923C30.472 27.7257 31.2982 27.5582 31.5239 27.6791C31.7717 27.8117 31.5964 27.9073 31.0042 27.9626C30.5613 28.004 30.472 27.9922 30.472 27.8923ZM31.747 27.6721C31.747 27.5746 32.1858 27.3488 32.995 27.0299C33.3386 26.8946 33.7574 26.6938 33.9257 26.5837C34.0942 26.4736 34.2499 26.4016 34.2718 26.4236C34.3514 26.5031 33.6017 26.9836 32.8066 27.3626C31.9983 27.748 31.747 27.8214 31.747 27.6721ZM41.5484 23.2925C41.395 23.2605 41.126 23.1645 40.9507 23.0791C40.6815 22.948 40.6356 22.8902 40.6549 22.7074C40.671 22.5558 40.6411 22.4909 40.5553 22.4909C40.4879 22.4909 40.4328 22.5447 40.4328 22.6105C40.4328 22.8049 40.3094 22.7493 40.0134 22.4217C39.4639 21.8135 39.3883 21.0965 39.7828 20.236C40.0727 19.6036 40.6693 18.8808 41.0786 18.6659C41.4358 18.4785 42.0635 18.3905 42.5372 18.4616C42.9303 18.5205 43.6958 19.0786 43.6985 19.3082C43.6993 19.3765 43.7525 19.502 43.8169 19.5871C43.9972 19.8255 43.9729 20.0147 43.7689 19.9613C43.6459 19.9291 43.6097 19.9477 43.6381 20.0285C43.6596 20.0899 43.7445 20.1338 43.8268 20.126C43.9091 20.1182 43.9998 20.1496 44.0283 20.1957C44.102 20.315 44.0528 21.0372 43.9628 21.1561C43.9214 21.211 43.883 21.3405 43.8776 21.444C43.8722 21.5475 43.8168 21.6909 43.7544 21.7627C43.692 21.8345 43.6545 21.9299 43.671 21.9745C43.7125 22.0872 42.8367 22.9989 42.5445 23.1472C42.2185 23.3127 41.8812 23.3619 41.5484 23.2925ZM41.8527 23.0296C41.8206 22.804 41.5484 22.7328 41.5484 22.95C41.5484 23.1304 41.614 23.2081 41.7664 23.2081C41.8367 23.2081 41.8687 23.1418 41.8527 23.0296ZM43.4608 19.5426C43.4608 19.4987 43.4229 19.4629 43.3764 19.4629C43.33 19.4629 43.3142 19.4987 43.3413 19.5426C43.3684 19.5864 43.4063 19.6222 43.4257 19.6222C43.445 19.6222 43.4608 19.5864 43.4608 19.5426ZM42.0265 19.2963C42.0265 19.2592 41.9727 19.2495 41.907 19.2747C41.8412 19.2999 41.7874 19.3749 41.7874 19.4413C41.7874 19.5396 41.8096 19.5436 41.907 19.4629C41.9727 19.4083 42.0265 19.3333 42.0265 19.2963ZM23.0613 21.7885C23.0613 21.4019 23.6174 20.1835 24.1088 19.4938C24.5793 18.8334 24.7852 18.6035 25.2526 18.2168C26.4244 17.2474 27.6447 16.6316 29.1286 16.2607C30.178 15.9984 32.2377 16.0368 32.5959 16.3253C32.7292 16.4325 32.7017 16.4394 32.3048 16.398C29.6782 16.1237 27.5629 16.7399 25.4801 18.3857C25.0588 18.7188 24.7349 19.0603 24.4891 19.4306C23.9427 20.2542 23.4948 21.0502 23.3374 21.4775C23.1844 21.8929 23.0613 22.0315 23.0613 21.7885ZM28.4514 21.134C28.1563 21.0456 27.9221 20.8308 27.9221 20.6486C27.9221 20.4466 28.3428 19.9898 28.7468 19.753C29.067 19.5654 30.1501 19.2421 30.577 19.2067C30.8456 19.1845 31.4263 19.4597 31.4374 19.6144C31.4861 20.2888 30.8431 20.8896 29.847 21.1008C29.2573 21.2258 28.7943 21.2368 28.4514 21.134ZM8.87963 20.8175C8.87963 20.7518 8.91438 20.6442 8.95687 20.5785C9.02552 20.4722 9.0341 20.4722 9.0341 20.5785C9.0341 20.6442 8.99936 20.7518 8.95687 20.8175C8.88821 20.9238 8.87963 20.9238 8.87963 20.8175ZM9.19594 19.9207C9.19594 19.8549 9.24973 19.7565 9.31548 19.7019C9.41269 19.6213 9.43497 19.6251 9.43497 19.7223C9.43497 19.788 9.38118 19.8865 9.31548 19.941C9.21826 20.0217 9.19594 20.0179 9.19594 19.9207ZM9.51469 19.1594C9.51469 19.0609 9.73566 18.7804 9.77777 18.8255C9.83804 18.8901 9.68647 19.2238 9.59695 19.2238C9.55169 19.2238 9.51469 19.1948 9.51469 19.1594ZM9.83569 18.6262C9.83503 18.5823 9.90571 18.4389 9.99279 18.3074C10.0799 18.1759 10.1505 18.1221 10.1498 18.1879C10.1485 18.32 9.83771 18.7536 9.83569 18.6262ZM12.7901 18.1027C12.2684 17.245 11.8592 15.2561 11.9239 13.8927C11.9845 12.6123 12.3286 11.9344 13.167 11.4431C13.5664 11.209 13.8983 11.2231 14.5315 11.5009C15.1497 11.7722 17.0848 13.9183 17.0848 14.3327C17.0848 14.3824 17.0272 14.471 16.9567 14.5295C16.8483 14.6194 16.8131 14.6148 16.7288 14.4994C16.5068 14.1959 16.16 14.4584 16.3599 14.7786C16.4386 14.9046 16.4331 14.9706 16.3308 15.1266C16.1776 15.3605 15.9694 15.377 15.9126 15.1598C15.8897 15.0722 15.8191 15.0005 15.7558 15.0005C15.6651 15.0005 15.6518 15.0741 15.6928 15.3479C15.7397 15.6609 15.72 15.7237 15.4929 15.9823C15.2759 16.2294 15.207 16.2625 14.9957 16.2202C14.7626 16.1736 14.7531 16.1816 14.8035 16.3823C14.846 16.5518 14.804 16.6507 14.5905 16.8837L14.3245 17.1739L14.1461 16.8716C13.9865 16.601 13.9551 16.582 13.8465 16.6906C13.7435 16.7936 13.7401 16.8616 13.824 17.1416C13.8988 17.3913 13.9008 17.5194 13.8321 17.6702C13.7173 17.9221 13.6283 17.922 13.5135 17.6699C13.4635 17.5604 13.3671 17.4707 13.2991 17.4707C13.2003 17.4707 13.18 17.5543 13.1978 17.8862C13.216 18.2264 13.1952 18.3068 13.0827 18.3299C12.9957 18.3478 12.8885 18.2645 12.7901 18.1027ZM35.574 12.8913C35.2603 12.5133 33.036 11.1693 32.0658 10.7714C31.8247 10.6726 31.5952 10.5635 31.5558 10.529C31.4439 10.4312 32.1275 9.44638 32.7088 8.86778C33.2943 8.28506 34.0812 7.78609 34.5358 7.70927C34.9212 7.64413 35.4211 7.77915 35.7171 8.02821C36.1326 8.37782 36.6933 10.046 36.5338 10.4578C36.4911 10.5676 36.4412 10.8369 36.4228 11.056C36.4043 11.2752 36.3308 11.5933 36.2595 11.763C36.1881 11.9327 36.1297 12.1276 36.1297 12.1961C36.1297 12.3607 35.8142 13.0083 35.734 13.0083C35.6994 13.0083 35.6274 12.9557 35.574 12.8913ZM10.1013 11.833C10.1706 11.3132 10.8669 9.90638 11.2729 9.46603C11.7009 9.00167 12.3443 8.63476 12.8789 8.55025C13.2119 8.49763 13.4078 8.51672 13.8177 8.64179C14.1026 8.72873 14.3715 8.83725 14.4154 8.88297C14.4703 8.94023 14.4332 8.94741 14.2958 8.906C14.1862 8.87299 13.8256 8.82876 13.4944 8.80771C12.9507 8.77324 12.8422 8.79251 12.3787 9.00603C12.0964 9.13616 11.7328 9.38166 11.5706 9.55166C11.1719 9.96973 10.5082 11.1035 10.305 11.7134C10.2138 11.9874 10.1193 12.2115 10.095 12.2115C10.0707 12.2115 10.0735 12.0412 10.1013 11.833ZM18.2381 11.5705C18.1878 11.4891 18.4531 11.3349 18.6432 11.3349C18.7491 11.3349 18.7581 11.3585 18.6857 11.4459C18.5706 11.5845 18.2943 11.6615 18.2381 11.5705ZM18.8379 11.3396C18.8379 11.2984 18.8767 11.2407 18.924 11.2114C19.1103 11.0963 20.1694 10.8592 21.0293 10.74C21.2484 10.7096 21.4994 10.6556 21.5871 10.6199C21.8021 10.5323 24.1072 10.2213 24.655 10.206C25.1908 10.191 26.1606 10.3007 26.2108 10.3819C26.231 10.4146 25.7368 10.4385 25.1126 10.4351C23.6215 10.427 22.3968 10.6103 19.6309 11.2557C18.8467 11.4386 18.8379 11.4396 18.8379 11.3396ZM32.4243 7.11159C32.4514 7.06774 32.4894 7.03191 32.5088 7.03191C32.5281 7.03191 32.5439 7.06774 32.5439 7.11159C32.5439 7.15539 32.5059 7.19126 32.4595 7.19126C32.4131 7.19126 32.3972 7.15539 32.4243 7.11159ZM33.1731 6.58434C34.1249 5.94342 34.9534 5.72212 35.6988 5.9098C36.1979 6.03548 37.2762 6.87251 36.9389 6.87251C36.9019 6.87251 36.8033 6.79692 36.7198 6.70453C36.6363 6.61215 36.3887 6.44215 36.1696 6.32674C35.8253 6.14545 35.6737 6.11689 35.054 6.11623C34.4303 6.11562 34.2693 6.14601 33.8188 6.34954C33.534 6.47826 33.2057 6.64864 33.0894 6.72808C32.973 6.80752 32.848 6.87251 32.8116 6.87251C32.7751 6.87251 32.9378 6.74285 33.1731 6.58434Z" fill="white"/>
<path d="M35.5535 5.00541C35.9375 5.02881 36.2655 5.10186 36.5784 5.25224C36.8897 5.4019 37.1742 5.6229 37.4782 5.92687C39.0252 7.4739 39.1019 10.214 37.8434 13.4328C37.7564 13.6555 37.6776 13.8687 37.6208 14.0324C37.5923 14.1144 37.5699 14.1827 37.5549 14.2325C37.5529 14.239 37.5507 14.2453 37.549 14.2509C37.5689 14.2815 37.5985 14.323 37.6374 14.3735C37.7215 14.4824 37.84 14.6215 37.971 14.7637C38.699 15.5537 39.5161 16.6325 40.0691 17.5323C40.1994 17.7444 40.3268 17.9359 40.4252 18.0726C40.4603 18.1214 40.4913 18.161 40.5161 18.1919C40.553 18.1815 40.5983 18.1687 40.6503 18.1527C40.7884 18.1103 40.9691 18.0517 41.1582 17.9868C41.4734 17.8785 41.6789 17.8127 41.8728 17.7866C42.0722 17.7599 42.2504 17.776 42.5074 17.8083C42.6674 17.8284 42.833 17.8576 42.9719 17.8884C43.1004 17.9169 43.2352 17.9531 43.3121 17.9943C43.4877 18.0883 43.708 18.2318 43.905 18.3737C44.0991 18.5134 44.2872 18.6637 44.3895 18.7731C44.5376 18.9314 44.6751 19.1761 44.7806 19.4286C44.8874 19.684 44.971 19.9698 45.0008 20.2216C45.0296 20.4648 44.992 20.7863 44.9232 21.083C44.8544 21.3798 44.7468 21.6854 44.6139 21.8903C44.5487 21.9907 44.4027 22.2507 44.292 22.4665C44.1513 22.7406 43.8465 23.056 43.5273 23.3137C43.2075 23.5719 42.8333 23.8046 42.5316 23.8891L42.3557 23.9383L42.3573 25.5044C42.359 27.0146 42.2976 27.8709 42.1063 28.7166L42.0163 29.0802C41.952 29.3197 41.8715 29.6394 41.8378 29.789C41.8004 29.9547 41.6425 30.4673 41.4892 30.9256C40.7053 33.2686 39.332 35.4468 37.4064 37.4083C35.7762 39.0691 34.7496 39.8077 32.5773 40.8882C30.4167 41.9628 29.2252 42.4043 27.4096 42.7962C26.9028 42.9056 25.8827 42.9721 24.7928 42.993C23.6972 43.0139 22.5059 42.9887 21.6474 42.9087C21.0327 42.8515 20.2949 42.7448 20.0071 42.6686C19.7413 42.5982 19.4301 42.546 19.3216 42.546C19.1488 42.5459 18.8747 42.4814 18.6929 42.4051C18.5389 42.3404 17.8604 42.103 17.1802 41.8764C16.1715 41.5405 15.7829 41.3655 15.178 40.9674C14.7846 40.7086 14.1044 40.2823 13.6686 40.0218C11.8498 38.9344 10.3909 37.4851 8.96372 35.3594C7.96106 33.866 7.01472 31.4925 6.54457 29.3095C6.45216 28.8804 6.41409 28.4933 6.40198 27.7167L6.39697 26.7936C6.40022 25.1444 6.41975 24.8879 6.62713 23.8824C6.95853 22.276 7.48742 20.7366 8.16318 19.4161C8.8054 18.1611 9.09126 17.675 9.44488 17.2679C9.50831 17.1949 9.54565 17.1435 9.56914 17.0953C9.59094 17.0505 9.60461 17.0003 9.60833 16.9277C9.61659 16.7662 9.57533 16.5216 9.4699 16.0421C9.17419 14.6971 9.11759 14.1805 9.16136 13.1476C9.17943 12.7209 9.20048 12.4334 9.24975 12.1561C9.2992 11.878 9.37608 11.6164 9.50076 11.2413C9.86485 10.1462 10.2119 9.48217 10.7441 8.89973C10.9596 8.66394 11.2542 8.40872 11.538 8.19842C11.8158 7.99248 12.1079 7.81055 12.3168 7.74227C12.6572 7.63111 13.1893 7.65402 13.7203 7.74811C14.2612 7.84397 14.8457 8.02179 15.3089 8.25596C15.5811 8.39363 15.9609 8.7017 16.3237 9.0465C16.6908 9.39535 17.0619 9.80237 17.3144 10.1548C17.4084 10.2859 17.5032 10.4034 17.5796 10.4858C17.6038 10.5119 17.6257 10.5321 17.643 10.5484C17.6887 10.5351 17.7506 10.5159 17.8248 10.4908C17.9746 10.4401 18.1687 10.3693 18.3701 10.2915C19.4057 9.89155 21.049 9.49071 22.2895 9.33336C22.8517 9.26205 23.5503 9.1637 23.8414 9.11571C24.4086 9.02212 25.3343 9.039 26.3172 9.12989C27.3054 9.22127 28.3748 9.38962 29.2359 9.61021C29.3984 9.65184 29.5498 9.6815 29.662 9.6961C29.6875 9.69943 29.7103 9.69949 29.7295 9.70111C29.7405 9.67733 29.7544 9.64966 29.7679 9.61772C29.8119 9.51369 29.8639 9.37689 29.9138 9.23412C29.9669 9.08229 30.0303 8.92427 30.089 8.79132C30.1445 8.66544 30.2047 8.54276 30.2541 8.47444C30.3203 8.38299 30.4942 8.12876 30.6402 7.90989C30.854 7.58932 31.2568 7.16489 31.6892 6.77244C32.1232 6.37854 32.606 5.99946 32.9901 5.77426C33.9319 5.22208 34.7766 4.95808 35.5535 5.00541ZM35.3734 5.53327C34.9756 5.53372 34.6773 5.57165 34.3527 5.68254C34.0227 5.7953 33.6555 5.98669 33.1227 6.3088C31.9395 7.02411 30.8509 8.2575 30.4284 9.34086C30.3343 9.58191 30.2233 9.86413 30.1824 9.96796C30.1783 9.97834 30.1744 9.98806 30.1698 10.0005C30.1657 10.0118 30.1603 10.0271 30.154 10.0422C30.1416 10.0717 30.1188 10.1196 30.0748 10.1623C29.9779 10.2562 29.8504 10.2591 29.7554 10.2532C29.6513 10.2466 29.5047 10.2223 29.3009 10.1823C29.094 10.1416 28.8136 10.0823 28.4362 10.0038C27.6308 9.83639 26.65 9.71631 25.7668 9.66191C24.8757 9.60704 24.1121 9.62047 23.7271 9.70695C23.5265 9.75206 22.9939 9.82428 22.5438 9.86956C21.3719 9.98742 20.2686 10.2332 19.1065 10.6342C18.723 10.7666 18.4323 10.8687 18.21 10.9361C17.9918 11.0023 17.8118 11.0439 17.658 11.0387C17.4844 11.0327 17.3552 10.9686 17.2419 10.8619C17.1441 10.7698 17.0486 10.6352 16.9433 10.4958C15.7614 8.92973 14.5631 8.23101 13.084 8.18841C12.7961 8.18013 12.6644 8.18276 12.5537 8.20926C12.4463 8.23501 12.3458 8.28624 12.1284 8.41523C11.1418 9.00067 10.4682 9.93023 9.94773 11.4932C9.7493 12.089 9.70266 12.3637 9.66837 13.166C9.62616 14.152 9.67627 14.6284 9.96691 15.9504C10.0717 16.4268 10.1314 16.7384 10.1128 16.9811C10.092 17.2524 9.97504 17.4266 9.80846 17.6315C9.67294 17.7982 9.35148 18.3098 9.09798 18.769C8.03183 20.7005 7.52308 22.0429 7.12497 23.9683C6.92513 24.9349 6.90721 25.1567 6.90398 26.7944C6.90213 27.7453 6.91363 28.3086 6.97737 28.8191C7.04083 29.3275 7.15652 29.79 7.37014 30.5378C7.76921 31.9347 8.74057 34.1069 9.39819 35.0817C10.8225 37.1933 12.2055 38.5643 13.8662 39.5289C14.188 39.7159 14.7566 40.0732 15.1321 40.3245C15.5037 40.5731 15.9479 40.8467 16.1178 40.9332C16.3605 41.0569 17.0667 41.316 17.7889 41.557C18.1462 41.6762 18.5016 41.7891 18.7971 41.8764C19.0982 41.9653 19.3231 42.0231 19.4267 42.0382C19.6749 42.0742 20.0422 42.1495 20.2497 42.2074C20.5293 42.2855 21.0227 42.3519 21.6415 42.4001C22.2553 42.4479 22.9779 42.4772 23.7079 42.4868C25.1766 42.5061 26.6455 42.4446 27.3196 42.2992C28.9568 41.9458 30.0407 41.549 32.052 40.563C33.5981 39.805 34.2993 39.3937 35.1958 38.7242C36.6702 37.6231 38.5504 35.5169 39.5746 33.8159C40.3019 32.6079 41.081 30.7832 41.3391 29.6931C41.3761 29.5368 41.4593 29.2121 41.5243 28.9701C41.7761 28.0318 41.853 27.2236 41.847 25.466L41.8411 23.6998L41.8403 23.5347C41.7287 23.5346 41.6168 23.5246 41.5051 23.5013C41.3308 23.465 41.0447 23.3626 40.8571 23.2712C40.729 23.2088 40.6052 23.1425 40.5277 23.0452C40.4956 23.0048 40.4765 22.9625 40.4627 22.921C40.3766 22.9509 40.2912 22.9267 40.2467 22.9068C40.1812 22.8773 40.1178 22.8268 40.0608 22.775C40.0002 22.7201 39.9311 22.6494 39.8548 22.5649C39.5539 22.2318 39.3755 21.8592 39.3319 21.4458C39.2886 21.035 39.3804 20.6019 39.5888 20.1474C39.7429 19.8113 39.9757 19.4564 40.2217 19.1584C40.3661 18.9835 40.5212 18.82 40.6745 18.6897C40.6469 18.6983 40.6221 18.7073 40.5995 18.7139C40.5566 18.7265 40.504 18.7413 40.4677 18.7456C40.4111 18.7523 40.366 18.7358 40.3443 18.7264C40.3199 18.7159 40.2999 18.7032 40.2859 18.6931C40.2577 18.6727 40.2312 18.6473 40.2084 18.6239C40.1616 18.5758 40.1076 18.5106 40.0507 18.4362C39.936 18.286 39.7958 18.0804 39.6571 17.855C39.0974 16.9451 38.3938 15.9997 37.6249 15.1265C37.4733 14.9542 37.3344 14.7822 37.2322 14.6428C37.1814 14.5736 37.1368 14.5098 37.1046 14.456C37.0886 14.4294 37.0732 14.4013 37.0612 14.3743C37.0571 14.365 37.05 14.3482 37.0437 14.3268L37.032 14.25L37.0437 14.1616C37.0493 14.1372 37.0567 14.1089 37.0654 14.0791C37.0829 14.0192 37.1076 13.9434 37.1371 13.8581C37.1962 13.6869 37.2776 13.4697 37.3664 13.2469C38.102 11.4006 38.3516 9.78069 38.1545 8.48611C37.9584 7.19952 37.3219 6.23178 36.2665 5.65835C36.1032 5.56964 35.9262 5.53267 35.3734 5.53327ZM28.7455 27.1472C28.8065 27.1639 28.8492 27.2003 28.8715 27.2222C28.9054 27.2558 28.9321 27.2957 28.9515 27.3298C28.9653 27.354 28.9769 27.3809 28.989 27.4082C28.9923 27.386 28.9966 27.3608 29.0041 27.3365C29.0083 27.3226 29.0149 27.3025 29.0266 27.2814C29.0367 27.2631 29.0611 27.2251 29.1075 27.1964L29.1475 27.1764C29.186 27.1616 29.2209 27.1596 29.24 27.1597C29.2695 27.1598 29.2965 27.1643 29.3168 27.1688C29.3578 27.1781 29.4001 27.1945 29.4393 27.2114C29.5197 27.246 29.6135 27.2979 29.7045 27.3581C29.8492 27.4538 29.967 27.5409 30.0531 27.7076C30.1284 27.8533 30.1752 28.0532 30.2391 28.3488C30.3621 28.9182 30.3758 29.5096 30.2966 30.0108C30.2193 30.4994 30.0453 30.952 29.7471 31.1866C29.4076 31.4535 28.9768 31.446 28.6363 31.1782C28.4986 31.07 28.332 30.8746 28.2552 30.7263C28.1983 30.6162 28.1491 30.4471 28.1068 30.2651C28.0631 30.077 28.0223 29.8553 27.9892 29.628C27.9237 29.1781 27.8832 28.6834 27.9058 28.3722C27.9267 28.0847 27.9446 27.8305 27.9458 27.8034C27.9478 27.76 27.9608 27.7255 27.9692 27.7067C27.9787 27.6855 27.9901 27.6668 28 27.6517C28.0198 27.6215 28.0442 27.5915 28.0684 27.5641C28.1175 27.5085 28.1803 27.4468 28.2435 27.3907C28.3069 27.3345 28.3761 27.2792 28.4378 27.2364C28.4683 27.2153 28.5009 27.1944 28.5329 27.178C28.5554 27.1665 28.612 27.138 28.6788 27.138L28.7455 27.1472ZM28.5271 27.7101C28.4724 27.7585 28.4229 27.8072 28.3886 27.846C28.3799 27.8559 28.373 27.8644 28.3678 27.871C28.3616 27.9662 28.3482 28.1786 28.3319 28.403C28.3128 28.6666 28.3476 29.124 28.412 29.5663C28.4438 29.785 28.4817 29.9946 28.5221 30.1684C28.5638 30.3481 28.6042 30.4715 28.6346 30.5303C28.6804 30.6188 28.8049 30.7674 28.8998 30.8422C29.0912 30.9928 29.3045 30.9921 29.4835 30.8514C29.6509 30.7197 29.8019 30.4039 29.8746 29.9441C29.9453 29.497 29.9344 28.9588 29.8221 28.4389C29.7542 28.1247 29.7181 27.988 29.6745 27.9035C29.6416 27.8399 29.6034 27.8029 29.4694 27.7142C29.4472 27.6995 29.4247 27.686 29.4035 27.6734C29.4043 27.7832 29.4098 27.9191 29.4218 28.0645C29.4629 28.5588 29.4829 28.9613 29.481 29.2428C29.4801 29.3818 29.4735 29.5002 29.4594 29.588C29.4526 29.6297 29.4423 29.6793 29.4218 29.7239C29.4093 29.7513 29.3471 29.8765 29.1983 29.8765C29.1208 29.8764 29.063 29.841 29.0307 29.8148C28.9967 29.7873 28.9717 29.7542 28.9532 29.7256C28.9159 29.6679 28.8888 29.5979 28.874 29.5271C28.7812 29.0855 28.7158 28.7322 28.6797 28.4764C28.6617 28.3492 28.6505 28.2415 28.6471 28.157C28.6455 28.1151 28.6454 28.074 28.6488 28.0369C28.6517 28.006 28.659 27.9523 28.6863 27.9018C28.6823 27.9093 28.6793 27.9152 28.678 27.9194C28.6789 27.9092 28.6787 27.8917 28.6763 27.8668C28.6716 27.8164 28.6584 27.7529 28.6396 27.69C28.6338 27.6705 28.6266 27.6522 28.6205 27.635C28.5912 27.6581 28.5583 27.6823 28.5271 27.7101ZM16.7574 24.5362C17.1986 24.4963 17.4652 24.5263 17.9207 24.6646C18.0955 24.7178 18.2452 24.7727 18.3668 24.8356C18.4884 24.8985 18.5957 24.9768 18.6695 25.0849C18.7669 25.2277 18.7834 25.3859 18.7596 25.5494C18.8102 25.5241 18.8712 25.5097 18.9389 25.5211C18.976 25.5273 19.0083 25.5404 19.0356 25.5552L19.1023 25.6003L19.1507 25.6486C19.1943 25.7 19.2229 25.7587 19.2416 25.8088C19.2676 25.8788 19.2827 25.9547 19.2874 26.0256C19.2914 26.0848 19.2876 26.1537 19.2699 26.219C19.2848 26.2289 19.301 26.2384 19.3149 26.2516C19.3929 26.3254 19.4219 26.4243 19.4334 26.5051C19.4397 26.5495 19.4402 26.5964 19.435 26.6427C19.4477 26.6488 19.4609 26.6559 19.4734 26.6643C19.5725 26.7316 19.611 26.8408 19.631 26.9153V26.9162C19.6834 27.1122 19.6994 27.2933 19.666 27.5066C19.6338 27.7124 19.5566 27.9411 19.4375 28.2337C19.1686 28.8946 18.736 29.4239 18.2084 29.6964C17.8843 29.8637 17.3615 29.9682 16.8749 30.0075C16.6277 30.0274 16.3804 30.0311 16.1611 30.0158C15.9466 30.0007 15.7407 29.9669 15.5866 29.8999C15.3748 29.8078 15.099 29.5886 14.8661 29.3662C14.6338 29.1443 14.4028 28.8796 14.3057 28.6749C14.0847 28.209 14.0869 27.7639 14.2523 26.9746C14.3436 26.5391 14.4424 26.2057 14.5851 25.9197C14.7292 25.6305 14.9132 25.3993 15.1629 25.16C15.3775 24.9544 15.5712 24.8107 15.8242 24.713C16.0707 24.6179 16.3605 24.5721 16.7574 24.5362ZM16.9442 29.1444C16.8816 29.329 16.8059 29.4895 16.7282 29.5872C16.7654 29.585 16.8031 29.5852 16.8408 29.5822C16.9055 29.5769 16.9697 29.5671 17.0334 29.5596C17.0185 29.5493 17.0038 29.5384 16.9909 29.5255C16.9418 29.4764 16.929 29.4187 16.925 29.3979C16.9197 29.3705 16.9189 29.3444 16.9191 29.3253C16.9197 29.2864 16.925 29.2435 16.9317 29.2036C16.9348 29.1846 16.94 29.165 16.9442 29.1444ZM17.919 28.363C17.815 28.5744 17.7218 28.7747 17.6521 28.9342C17.6121 29.0259 17.5806 29.1024 17.5596 29.1585C17.5491 29.1866 17.5419 29.2074 17.5379 29.2211C17.5315 29.2427 17.5371 29.2308 17.5371 29.2052C17.5371 29.3138 17.498 29.4196 17.4287 29.4979C17.6659 29.4499 17.8723 29.3893 18.0124 29.317C18.1416 29.2503 18.265 29.1598 18.3835 29.0518C18.3652 29.0427 18.3464 29.032 18.3284 29.0168C18.2777 28.9735 18.2536 28.9192 18.2417 28.8783C18.2297 28.8369 18.2259 28.7953 18.2259 28.7583C18.2259 28.6962 18.2477 28.638 18.2617 28.604C18.2753 28.5713 18.2931 28.5368 18.3118 28.5023C18.3003 28.5098 18.2887 28.5178 18.2767 28.5239C18.2444 28.5404 18.1841 28.5642 18.1108 28.5515C18.0218 28.5359 17.9616 28.4758 17.9332 28.413C17.9256 28.3962 17.9227 28.3789 17.919 28.363ZM14.9603 28.2362C14.9513 28.2487 14.9393 28.2681 14.9328 28.2955C14.9267 28.321 14.9248 28.3541 14.9345 28.3897C14.9442 28.4256 14.9632 28.4543 14.9837 28.4747C15.0262 28.5172 15.076 28.5265 15.1037 28.5273C15.1158 28.5276 15.1252 28.5237 15.1329 28.5223C15.089 28.4815 15.057 28.4281 15.0445 28.3672L15.0387 28.308L15.0429 28.2588C15.0237 28.2487 15.0062 28.2425 14.9937 28.2396C14.9809 28.2366 14.9694 28.2367 14.9603 28.2362ZM15.4548 28.2554C15.4412 28.2236 15.4158 28.198 15.3839 28.1845L15.3322 28.1745C15.3186 28.1745 15.3054 28.1774 15.293 28.1812C15.3478 28.2414 15.3655 28.3213 15.3481 28.3947C15.3439 28.412 15.3372 28.4272 15.3306 28.4414L15.3322 28.4422C15.3874 28.4421 15.4345 28.4083 15.4548 28.3605L15.4657 28.308L15.4548 28.2554ZM34.2551 26.2065C34.2772 26.2063 34.357 26.2068 34.4227 26.2724C34.4858 26.3355 34.4979 26.4161 34.4878 26.4775C34.4793 26.529 34.4565 26.5683 34.4419 26.5901C34.4114 26.6356 34.368 26.6776 34.3285 26.7119C34.2453 26.7842 34.1238 26.8698 33.9824 26.9604C33.6971 27.1432 33.3029 27.3621 32.8984 27.5549C32.4968 27.7464 32.2167 27.8692 32.0336 27.9227C31.9592 27.9444 31.8695 27.9632 31.7843 27.9527C31.7511 27.9932 31.7123 28.0202 31.6817 28.0369C31.6086 28.0768 31.5121 28.1031 31.4115 28.1228C31.3061 28.1435 31.1764 28.1612 31.0246 28.1754C30.8105 28.1954 30.6508 28.2061 30.5443 28.192C30.4908 28.185 30.4104 28.1675 30.3458 28.1062C30.2902 28.0533 30.2687 27.9909 30.2616 27.9394L30.2582 27.8927L30.2699 27.8151C30.2909 27.7455 30.3363 27.6968 30.3666 27.67C30.4116 27.6304 30.4663 27.6003 30.5159 27.5775C30.617 27.531 30.7446 27.4947 30.8712 27.4691C30.9991 27.4431 31.1373 27.4263 31.2623 27.4249C31.3716 27.4236 31.5054 27.4335 31.6108 27.4849C31.6382 27.454 31.6701 27.4269 31.7009 27.404C31.7685 27.3539 31.8611 27.3 31.9702 27.2439C32.1905 27.1306 32.51 26.9914 32.9167 26.8311C33.256 26.6975 33.6589 26.5031 33.809 26.405C33.8994 26.3459 33.9898 26.2952 34.0642 26.2607C34.1002 26.2441 34.1398 26.2274 34.1776 26.2174C34.1956 26.2126 34.2234 26.2069 34.2551 26.2065ZM14.5634 27.8168C14.5631 27.8255 14.5627 27.8341 14.5625 27.8426C14.5685 27.8916 14.5926 27.9247 14.6084 27.941C14.6161 27.949 14.6244 27.953 14.6301 27.9569H14.6326C14.644 27.9497 14.6546 27.9375 14.6609 27.9219C14.6672 27.9063 14.6671 27.8904 14.6643 27.8785L14.6584 27.8643L14.6151 27.8335C14.601 27.8263 14.5872 27.8227 14.575 27.8201L14.5634 27.8168ZM16.9208 26.9654C16.9398 26.9862 16.9651 27.006 17.0009 27.0187C17.0032 27.0196 17.006 27.0188 17.0084 27.0196C16.9896 26.9995 16.9656 26.9795 16.9308 26.967C16.9277 26.9659 16.9239 26.9663 16.9208 26.9654ZM17.5746 26.7135C17.5782 26.7392 17.589 26.7762 17.6221 26.8094C17.6495 26.8368 17.6857 26.8531 17.7222 26.857C17.7414 26.859 17.7574 26.8557 17.7706 26.8528C17.7685 26.8452 17.7684 26.8363 17.7647 26.8278C17.7502 26.7939 17.7237 26.7637 17.6888 26.7419L17.6855 26.7452L17.6488 26.7227C17.6414 26.7202 17.6342 26.7168 17.6263 26.7152C17.6067 26.7112 17.5893 26.7123 17.5746 26.7135ZM15.1196 26.7436C15.124 26.7597 15.1313 26.7763 15.1421 26.7919C15.1577 26.8146 15.176 26.8288 15.1905 26.837C15.1948 26.8394 15.1994 26.8405 15.203 26.842C15.2074 26.8397 15.2136 26.8376 15.2197 26.8336C15.2215 26.8324 15.2224 26.8294 15.2247 26.8278C15.2169 26.8132 15.2062 26.7978 15.1913 26.7836C15.1683 26.7617 15.1426 26.7501 15.1196 26.7436ZM17.6855 26.7452L17.6888 26.7419C17.6764 26.7341 17.6634 26.7276 17.6488 26.7227L17.6855 26.7452ZM42.5058 18.6731C42.293 18.6411 42.0382 18.6438 41.7936 18.6781C41.5477 18.7126 41.3277 18.7764 41.1782 18.8548C41.0115 18.9423 40.7811 19.1506 40.5503 19.4302C40.3232 19.7054 40.1123 20.0288 39.9765 20.325C39.7906 20.7306 39.7232 21.0861 39.7564 21.4008C39.7893 21.7129 39.9231 22.0037 40.1717 22.2788C40.217 22.329 40.2587 22.3693 40.2934 22.4039C40.3558 22.3267 40.4509 22.2772 40.5553 22.2772C40.6029 22.2772 40.6605 22.2867 40.7162 22.3189C40.774 22.3523 40.8132 22.4011 40.8371 22.4531C40.879 22.5441 40.8758 22.6484 40.8671 22.73C40.864 22.7592 40.8649 22.7748 40.8655 22.7825C40.8703 22.7872 40.8806 22.7974 40.903 22.8117C40.9343 22.8317 40.9787 22.8558 41.0439 22.8876C41.1276 22.9284 41.2351 22.9714 41.3375 23.0077C41.3361 22.9881 41.335 22.9689 41.335 22.9501C41.335 22.8526 41.3668 22.7436 41.46 22.6708C41.5516 22.5992 41.6603 22.5958 41.7427 22.6174C41.9041 22.6597 42.0364 22.8081 42.0638 22.9993C42.0677 23.0264 42.0691 23.0562 42.0688 23.0869C42.195 23.0632 42.3221 23.0209 42.4482 22.9568C42.4945 22.9332 42.5859 22.8655 42.7084 22.7575C42.8257 22.6541 42.9568 22.5266 43.0786 22.3998C43.201 22.2724 43.3108 22.1486 43.3855 22.0529C43.4183 22.0108 43.4399 21.9773 43.4539 21.9545C43.4536 21.9356 43.4545 21.9185 43.4564 21.9044C43.4614 21.8668 43.4726 21.8311 43.4848 21.8002C43.509 21.7387 43.5466 21.6761 43.5932 21.6226C43.6025 21.6118 43.6211 21.5826 43.6382 21.5383C43.6549 21.4952 43.6636 21.4563 43.6649 21.4333C43.6686 21.3622 43.683 21.2869 43.7024 21.2215C43.7204 21.1607 43.7487 21.0851 43.7925 21.0272C43.7807 21.0427 43.7828 21.0477 43.7908 21.0222C43.7972 21.0016 43.8045 20.9719 43.8116 20.9338C43.8258 20.8577 43.8374 20.7611 43.8442 20.6619C43.8509 20.5626 43.8522 20.4658 43.8483 20.3901C43.8473 20.3703 43.8449 20.3532 43.8433 20.3384C43.7608 20.3455 43.6794 20.3276 43.6115 20.2925C43.5451 20.2581 43.4704 20.196 43.4364 20.099C43.4258 20.0688 43.411 20.0168 43.4172 19.9573C43.4219 19.9126 43.4394 19.8684 43.4689 19.8305C43.4553 19.8331 43.4408 19.8355 43.4255 19.8355C43.3627 19.8354 43.3162 19.8098 43.298 19.7988C43.2743 19.7846 43.2544 19.7678 43.2396 19.7538C43.2097 19.7255 43.1818 19.6906 43.1595 19.6546C43.127 19.6018 43.0901 19.5048 43.1362 19.4002C43.1879 19.2831 43.3004 19.2493 43.3763 19.2493C43.3948 19.2493 43.4134 19.2509 43.4314 19.2543C43.4256 19.2475 43.4207 19.2392 43.4139 19.2318C43.348 19.1598 43.2516 19.0756 43.1387 18.9933C43.0265 18.9115 42.9032 18.8357 42.7876 18.7773C42.669 18.7174 42.5712 18.6829 42.5058 18.6731ZM41.6977 23.0152C41.6924 23.0185 41.6879 23.0224 41.6835 23.026C41.6956 23.0224 41.7094 23.018 41.7227 23.0077C41.7247 23.0062 41.726 23.0034 41.7277 23.0018C41.7183 23.005 41.7078 23.0088 41.6977 23.0152ZM43.3905 18.648C43.5184 18.7413 43.6384 18.8441 43.7291 18.9432C43.7742 18.9926 43.8163 19.0456 43.8483 19.1C43.8708 19.1382 43.8948 19.1884 43.9059 19.2459L43.9117 19.306L43.9142 19.3135C43.9173 19.3249 43.9226 19.34 43.9301 19.3577C43.9457 19.3945 43.9675 19.432 43.9876 19.4586C44.0416 19.53 44.0843 19.6034 44.1127 19.6754C44.1401 19.7448 44.1592 19.8269 44.1485 19.9106C44.1449 19.9388 44.1366 19.9671 44.1252 19.9948C44.1562 20.0172 44.1869 20.0455 44.2103 20.0832C44.2418 20.1342 44.2538 20.1925 44.2603 20.2291C44.2679 20.2722 44.2729 20.3202 44.2753 20.3684C44.2802 20.4653 44.2778 20.5794 44.2703 20.6903C44.2627 20.8013 44.2491 20.9157 44.2311 21.0122C44.2221 21.0601 44.2117 21.1077 44.1986 21.1497C44.187 21.1866 44.1676 21.2397 44.1335 21.2848C44.1325 21.2868 44.1302 21.2908 44.1277 21.2965C44.1226 21.3081 44.1174 21.3238 44.1118 21.3424C44.1004 21.3811 44.0927 21.4227 44.091 21.455C44.0868 21.5355 44.0647 21.6205 44.0368 21.6926C44.0093 21.7637 43.9688 21.8418 43.9159 21.9028C43.9085 21.9112 43.9012 21.921 43.895 21.9311C43.8901 21.9393 43.8861 21.9466 43.8834 21.9528C43.8903 22.0081 43.8774 22.0536 43.8717 22.0712C43.8611 22.1035 43.8453 22.1332 43.8317 22.1571C43.8037 22.2061 43.7644 22.2607 43.7216 22.3155C43.6346 22.427 43.5151 22.5626 43.3872 22.6958C43.2835 22.8037 43.1707 22.9111 43.0645 23.0085C43.2862 22.8523 43.4869 22.6878 43.6007 22.5582C43.7678 22.3678 43.9823 22.0013 44.1636 21.6101C44.3461 21.2158 44.4752 20.8384 44.4963 20.6311C44.5203 20.3949 44.4812 20.1083 44.3912 19.8347C44.3008 19.5601 44.1657 19.3187 44.0168 19.1651C43.805 18.9466 43.5959 18.7757 43.3847 18.6439C43.3866 18.6453 43.3886 18.6467 43.3905 18.648ZM31.1255 15.8728C31.4771 15.8794 31.8115 15.9034 32.0837 15.9454C32.2193 15.9663 32.3435 15.9926 32.4489 16.0246C32.5498 16.0552 32.653 16.0969 32.7299 16.1588C32.7477 16.1732 32.7667 16.1885 32.7833 16.2039C32.7977 16.2172 32.8213 16.2402 32.8408 16.2698C32.8541 16.2898 32.9098 16.3802 32.8633 16.4899C32.8192 16.5937 32.722 16.6189 32.7007 16.6242C32.6435 16.6384 32.5736 16.6356 32.5231 16.6325C32.4618 16.6287 32.3817 16.6203 32.283 16.61C29.7121 16.3416 27.6518 16.9415 25.6126 18.553C25.2053 18.8748 24.8979 19.2005 24.6669 19.5487C24.1216 20.3705 23.686 21.1494 23.5378 21.5517C23.4979 21.6599 23.459 21.7535 23.4219 21.8294C23.3868 21.9012 23.3466 21.9715 23.3018 22.022C23.2818 22.0445 23.2414 22.0852 23.1809 22.1071C23.1467 22.1193 23.1004 22.1274 23.0492 22.1162C22.997 22.1049 22.9566 22.0777 22.9282 22.0479C22.8788 21.9957 22.8633 21.9332 22.8574 21.9028C22.8501 21.8655 22.8482 21.8261 22.8482 21.7885C22.8482 21.6547 22.8928 21.4778 22.9533 21.2965C23.0161 21.108 23.1044 20.8904 23.2068 20.6661C23.4109 20.2188 23.679 19.7292 23.9348 19.3702C24.4126 18.6995 24.631 18.4542 25.1164 18.0526C26.3128 17.0628 27.5621 16.4324 29.0766 16.0538C29.627 15.9162 30.4255 15.8598 31.1255 15.8728ZM43.4597 22.0012L43.4706 22.0487C43.464 22.0309 43.4624 22.0129 43.4597 21.9962C43.4599 21.9978 43.4596 21.9995 43.4597 22.0012ZM30.5593 18.9941C30.6624 18.9856 30.7773 19.0055 30.8795 19.0333C30.9853 19.0621 31.0955 19.1043 31.1955 19.1517C31.2946 19.1987 31.3918 19.2544 31.4682 19.3143C31.5062 19.3441 31.545 19.3799 31.5766 19.4202C31.6059 19.4576 31.645 19.5189 31.6509 19.5987L31.6517 19.753C31.632 20.1077 31.4553 20.4293 31.1797 20.6869C30.8661 20.98 30.4184 21.1981 29.8913 21.3099C29.2877 21.4378 28.7834 21.456 28.3903 21.3382C28.214 21.2854 28.0524 21.1946 27.9317 21.0839C27.8173 20.979 27.709 20.8267 27.709 20.6486C27.709 20.5366 27.7622 20.4281 27.8124 20.3459C27.8675 20.2556 27.9418 20.1604 28.0259 20.069C28.1937 19.8868 28.4161 19.6992 28.6388 19.5687C28.8238 19.4603 29.1981 19.3268 29.5611 19.2184C29.9265 19.1094 30.322 19.0138 30.5593 18.9941ZM8.8303 20.3867C8.83863 20.3762 8.85274 20.3583 8.87199 20.3417C8.88337 20.3319 8.93756 20.285 9.02126 20.285C9.13592 20.285 9.19719 20.3654 9.21806 20.4059C9.2364 20.4415 9.24121 20.4753 9.24308 20.4885C9.24737 20.5188 9.24808 20.5537 9.24808 20.5785C9.24808 20.6424 9.23223 20.7095 9.21473 20.7636C9.19664 20.8196 9.17024 20.8814 9.13634 20.9338C9.11959 20.9597 9.10119 20.9876 9.0838 21.0097C9.07547 21.0202 9.06046 21.0373 9.04128 21.0538C9.02962 21.0639 8.97611 21.1105 8.89284 21.1106C8.77819 21.1106 8.71692 21.0302 8.69604 20.9896C8.67765 20.9538 8.67283 20.9199 8.67102 20.9071C8.66676 20.8769 8.66602 20.8427 8.66602 20.8179C8.66602 20.7541 8.68191 20.6868 8.69938 20.6327C8.71747 20.5767 8.74389 20.515 8.77776 20.4626C8.79453 20.4367 8.81288 20.4089 8.8303 20.3867ZM8.92536 20.6861C8.94357 20.6959 8.96361 20.7048 8.98791 20.7086C8.96973 20.699 8.94954 20.6897 8.92536 20.6861ZM9.25976 19.7897C9.28645 19.8211 9.32542 19.8448 9.37067 19.8539V19.853C9.34363 19.8212 9.30481 19.7967 9.25892 19.788L9.25976 19.7897ZM43.6365 19.7013C43.6301 19.7136 43.6213 19.7266 43.6107 19.7405C43.6278 19.7365 43.6442 19.7355 43.659 19.7346C43.6549 19.7288 43.6511 19.7224 43.6465 19.7163C43.643 19.7116 43.64 19.7061 43.6365 19.7013ZM42.0296 19.0516C42.067 19.0584 42.1187 19.0757 42.1639 19.1184C42.2138 19.1655 42.2397 19.2298 42.2397 19.296C42.2397 19.3506 42.2219 19.3958 42.2106 19.4202C42.1974 19.4486 42.1809 19.4752 42.1647 19.4978C42.1322 19.543 42.0901 19.5886 42.0438 19.627C42.0179 19.6485 41.9875 19.6722 41.957 19.6904C41.9386 19.7015 41.8656 19.7464 41.7728 19.7296C41.6431 19.7062 41.5987 19.5972 41.5868 19.5545C41.5749 19.5116 41.5743 19.4677 41.5743 19.4411C41.5744 19.3532 41.6084 19.2755 41.6493 19.2184C41.6908 19.1607 41.7518 19.1051 41.8303 19.075C41.8849 19.0541 41.9565 19.0385 42.0296 19.0516ZM43.4255 19.4086C43.36 19.4086 43.3142 19.4399 43.2913 19.4619C43.2693 19.4831 43.2593 19.5039 43.2554 19.5128L43.2471 19.5428L43.2579 19.5937C43.2789 19.6468 43.33 19.6762 43.3763 19.6762C43.4059 19.6762 43.4874 19.6608 43.5265 19.5728C43.5335 19.5568 43.536 19.541 43.5381 19.527L43.5373 19.5245C43.5249 19.4953 43.512 19.4614 43.5023 19.4252C43.4988 19.4237 43.4949 19.4218 43.4906 19.4202C43.4779 19.4156 43.455 19.4086 43.4255 19.4086ZM10.1937 17.9542C10.271 17.9753 10.3193 18.0306 10.3422 18.0818C10.3618 18.1259 10.3633 18.167 10.363 18.1902C10.3625 18.2417 10.3486 18.2889 10.3372 18.3212C10.3244 18.357 10.3079 18.3939 10.2905 18.4279C10.2556 18.4958 10.2103 18.5673 10.1662 18.6289C10.1247 18.6867 10.0732 18.7507 10.0228 18.7931C10.0158 18.799 10.0064 18.8039 9.99693 18.8107C9.99916 18.822 10.0028 18.8319 10.0036 18.8407C10.0075 18.8817 10.0033 18.9213 9.99776 18.9524C9.98662 19.0153 9.96345 19.0809 9.93772 19.1375C9.91195 19.1942 9.87834 19.2545 9.83849 19.3043C9.81873 19.329 9.79203 19.357 9.75926 19.381C9.72918 19.4031 9.67239 19.4369 9.59665 19.4369C9.49894 19.4368 9.34653 19.3766 9.30979 19.2284L9.30145 19.1592L9.30896 19.0933C9.31327 19.0736 9.31822 19.0561 9.32313 19.0425C9.33395 19.0124 9.34824 18.9834 9.36233 18.9574C9.3905 18.9055 9.42694 18.8525 9.46323 18.8065C9.49836 18.7619 9.54099 18.7144 9.58498 18.6789C9.59485 18.6709 9.60786 18.6599 9.62417 18.6497C9.62347 18.6418 9.62259 18.6351 9.6225 18.6297C9.6217 18.576 9.63921 18.5258 9.64752 18.5029C9.65891 18.4718 9.67382 18.4383 9.69005 18.4054C9.72287 18.3388 9.76705 18.262 9.81514 18.1894C9.86164 18.1192 9.91722 18.0476 9.97525 18.0034C9.99104 17.9914 10.0147 17.9761 10.0445 17.9642C10.072 17.9532 10.1273 17.9363 10.1937 17.9542ZM13.7703 11.067C14.0224 11.0777 14.2934 11.1633 14.6176 11.3055C14.8087 11.3895 15.0693 11.5986 15.3356 11.8426C15.6099 12.0939 15.9148 12.405 16.1987 12.7198C16.4823 13.0345 16.7489 13.3562 16.9458 13.628C17.044 13.7634 17.1275 13.8908 17.1877 14.0007C17.2177 14.0555 17.2444 14.1095 17.2635 14.1608C17.2816 14.2093 17.2986 14.2699 17.2986 14.3326C17.2986 14.4221 17.2544 14.5008 17.226 14.5444C17.1917 14.5972 17.1457 14.6502 17.0934 14.6937C17.0639 14.7182 17.027 14.7467 16.9867 14.7679C16.9441 14.7902 16.8811 14.8129 16.8057 14.8029C16.7309 14.793 16.6765 14.7554 16.6415 14.7237C16.6079 14.6933 16.5794 14.6567 16.5564 14.6253C16.5409 14.6042 16.5277 14.5924 16.5189 14.5861C16.5171 14.5849 16.5153 14.5836 16.5139 14.5828C16.5127 14.5923 16.5133 14.6203 16.5414 14.6653C16.5889 14.7413 16.6364 14.8381 16.6264 14.9589C16.6173 15.0685 16.5623 15.1638 16.5097 15.2441C16.4165 15.3863 16.2755 15.5113 16.1028 15.5251C16.041 15.53 15.9799 15.518 15.9235 15.4917C15.9292 15.5797 15.926 15.6645 15.8993 15.7494C15.8563 15.8857 15.7631 15.998 15.6533 16.123C15.5489 16.2419 15.4508 16.3467 15.3347 16.4023C15.2273 16.4537 15.1245 16.4548 15.0279 16.4415C15.0348 16.5222 15.0269 16.6044 14.9895 16.6925C14.9419 16.8045 14.8548 16.9109 14.7477 17.0278L14.4817 17.318L14.2874 17.5306L14.1406 17.2821L14.0338 17.102C14.0696 17.2248 14.0939 17.3344 14.0956 17.4397C14.0974 17.5574 14.0721 17.6588 14.0263 17.7591L14.0255 17.7583C13.994 17.8274 13.9582 17.8951 13.9138 17.9484C13.8722 17.9982 13.7926 18.0727 13.6728 18.0726C13.553 18.0726 13.4733 17.9982 13.4318 17.9484C13.4243 17.9395 13.4188 17.9289 13.4118 17.9192C13.4186 18.0633 13.4201 18.1866 13.3959 18.2803C13.3807 18.339 13.3522 18.4033 13.2958 18.4554C13.2397 18.5071 13.1756 18.5285 13.1257 18.5388C12.9966 18.5653 12.8849 18.5105 12.8097 18.4521C12.7323 18.3919 12.665 18.3076 12.6079 18.2136C12.328 17.7533 12.0893 17.0133 11.9282 16.2306C11.7663 15.4435 11.6772 14.5864 11.7106 13.8823C11.7417 13.2274 11.8458 12.704 12.0633 12.2754C12.2835 11.8416 12.6112 11.5213 13.059 11.2588C13.2861 11.1258 13.5091 11.056 13.7703 11.067ZM13.7528 11.4932C13.5901 11.4863 13.4473 11.5264 13.275 11.6274C12.8844 11.8563 12.6211 12.1208 12.4444 12.4688C12.2652 12.822 12.1672 13.2779 12.1376 13.9031C12.1063 14.5623 12.1891 15.3821 12.346 16.1447C12.5038 16.9113 12.7306 17.5943 12.9723 17.9918C12.977 17.9995 12.9827 18.0064 12.9873 18.0134C12.9864 17.9801 12.9872 17.9416 12.9848 17.8975C12.9762 17.738 12.9733 17.6014 12.9973 17.5031C13.0104 17.4495 13.0376 17.3792 13.1015 17.3255C13.1688 17.269 13.245 17.2571 13.2992 17.2571L13.3817 17.2688C13.4588 17.2902 13.5201 17.3373 13.5585 17.373C13.5979 17.4096 13.632 17.4552 13.6628 17.5039C13.6663 17.4851 13.6689 17.4666 13.6686 17.4464C13.6678 17.3936 13.6549 17.3212 13.6194 17.2029C13.5793 17.0689 13.5465 16.9468 13.5519 16.8393C13.5587 16.7016 13.6238 16.6115 13.6953 16.5399L13.7495 16.4899C13.7721 16.4717 13.7992 16.4534 13.8295 16.4399C13.8644 16.4243 13.9084 16.4129 13.9588 16.4157C14.0095 16.4186 14.0535 16.4357 14.088 16.4565C14.1485 16.4932 14.1921 16.5486 14.2215 16.59C14.2543 16.6362 14.29 16.6958 14.3299 16.7634L14.3616 16.8168L14.4333 16.7392C14.5396 16.6232 14.5806 16.5638 14.5967 16.5258C14.6057 16.5046 14.61 16.487 14.5967 16.434C14.5851 16.3876 14.571 16.3326 14.5667 16.2848C14.5633 16.2465 14.5568 16.129 14.6559 16.0454C14.7411 15.9736 14.8452 15.9819 14.8778 15.9846C14.9253 15.9884 14.9823 16.0001 15.0379 16.0112C15.1313 16.0299 15.1441 16.0201 15.1504 16.0171C15.1759 16.0048 15.2202 15.9687 15.3322 15.8411C15.4495 15.7076 15.4804 15.6589 15.4923 15.621C15.503 15.5867 15.5053 15.5387 15.4815 15.38V15.3791C15.462 15.2491 15.4479 15.1263 15.4648 15.0331C15.4744 14.9804 15.4987 14.9075 15.5649 14.8521C15.6316 14.7964 15.7069 14.7871 15.7559 14.7871L15.8334 14.7971C15.9061 14.816 15.9636 14.8591 16.0019 14.898C16.0471 14.944 16.083 15.0023 16.1061 15.0664C16.1197 15.0525 16.1358 15.0344 16.152 15.0097C16.1749 14.9746 16.1882 14.9512 16.1953 14.9355C16.1966 14.9326 16.197 14.93 16.1978 14.928C16.195 14.9216 16.1899 14.9094 16.1786 14.8913C16.0335 14.6585 16.0615 14.3833 16.257 14.235C16.3507 14.1641 16.4726 14.1353 16.5948 14.1616C16.6959 14.1835 16.7842 14.2414 16.8574 14.3226C16.8596 14.3197 16.863 14.3179 16.8649 14.3151C16.8644 14.3135 16.8639 14.3118 16.8633 14.3101C16.8537 14.2844 16.8373 14.2497 16.8132 14.2058C16.7652 14.118 16.6927 14.0072 16.5998 13.879C16.4145 13.6233 16.1591 13.3134 15.8818 13.0059C15.6047 12.6986 15.3093 12.3972 15.047 12.1569C14.7768 11.9094 14.5638 11.7484 14.4458 11.6966C14.1369 11.5611 13.9248 11.5005 13.7528 11.4932ZM35.9163 12.1961C35.9163 12.1263 35.9411 12.0317 35.9638 11.956C35.9895 11.8703 36.0245 11.7717 36.063 11.68C36.1242 11.5343 36.1929 11.2387 36.2098 11.0379C36.2287 10.8128 36.2811 10.5195 36.3349 10.3807C36.3405 10.3663 36.349 10.3264 36.3482 10.2515C36.3475 10.1803 36.3387 10.0917 36.3215 9.9888C36.2872 9.78302 36.2224 9.53594 36.1389 9.28749C36.0555 9.03935 35.9548 8.79523 35.8521 8.59452C35.7455 8.38644 35.6485 8.24988 35.5794 8.19175C35.3318 7.98356 34.8954 7.86509 34.5712 7.91989C34.3865 7.95119 34.1051 8.07673 33.7856 8.27931C33.4716 8.47843 33.1405 8.73897 32.8592 9.01898C32.5794 9.29744 32.2715 9.67811 32.0478 10.0005C31.9356 10.1621 31.8493 10.303 31.7985 10.4049C31.7965 10.4088 31.7952 10.4129 31.7935 10.4166C31.8041 10.4218 31.815 10.4277 31.8268 10.4333C31.9153 10.4753 32.0296 10.5261 32.147 10.5742C32.6481 10.7797 33.4585 11.2217 34.1767 11.6558C34.5375 11.8738 34.8791 12.0926 35.1516 12.2812C35.2876 12.3754 35.4083 12.4629 35.506 12.5405C35.5794 12.5989 35.6445 12.6582 35.6961 12.7115C35.7196 12.6696 35.7454 12.6218 35.7703 12.5706C35.8124 12.4843 35.8509 12.3944 35.8787 12.3187C35.8927 12.2808 35.9031 12.2485 35.9096 12.2237C35.9169 12.1957 35.9163 12.1889 35.9163 12.1961ZM13.34 8.31683C13.5028 8.3327 13.6706 8.37374 13.8804 8.43775C14.0277 8.48271 14.1719 8.53326 14.2865 8.57951C14.3435 8.60252 14.3963 8.62561 14.4391 8.64706C14.4605 8.65775 14.4822 8.67001 14.5017 8.68208L14.5692 8.73545L14.6059 8.77881C14.6164 8.79358 14.6355 8.82298 14.6459 8.86304C14.6575 8.90761 14.662 8.9855 14.6076 9.0565C14.5599 9.11868 14.496 9.13537 14.4683 9.14073C14.4148 9.15104 14.3635 9.14196 14.3399 9.13739C14.3079 9.13118 14.2715 9.12201 14.234 9.11071C14.1991 9.10027 14.0995 9.08208 13.9521 9.06401C13.8817 9.05537 13.8043 9.04724 13.7245 9.03982L13.481 9.02064C13.2076 9.00331 13.0685 9.00184 12.9439 9.02398C12.8208 9.04586 12.6997 9.09223 12.4678 9.1991L12.4686 9.19993C12.2035 9.32215 11.8644 9.55327 11.7256 9.69861C11.5439 9.88911 11.2877 10.2599 11.0485 10.6684C10.8101 11.0757 10.6019 11.4967 10.5073 11.7809C10.4605 11.9214 10.4121 12.0512 10.3713 12.1478C10.3513 12.1952 10.3315 12.2394 10.313 12.2737C10.3042 12.2898 10.2922 12.3115 10.2771 12.3312C10.2699 12.3406 10.2563 12.3569 10.2371 12.3729C10.2239 12.3839 10.1733 12.4245 10.0953 12.4246C9.94961 12.4246 9.89585 12.2999 9.89102 12.2887C9.87741 12.2573 9.8724 12.2269 9.87017 12.2112C9.86517 12.1755 9.86454 12.1347 9.86517 12.0969C9.8665 12.0178 9.8756 11.9145 9.89019 11.805C9.91094 11.6494 9.9744 11.4447 10.057 11.2297C10.1412 11.0104 10.2506 10.7655 10.3697 10.525C10.604 10.0515 10.8908 9.56604 11.116 9.32168C11.5709 8.82816 12.2558 8.4326 12.8455 8.33935C13.0233 8.31126 13.1747 8.30074 13.34 8.31683ZM24.6494 9.99297C24.9309 9.98512 25.3181 10.0092 25.6393 10.0455C25.8002 10.0637 25.9498 10.0857 26.0645 10.1089C26.1211 10.1203 26.1746 10.1334 26.2188 10.1481C26.2405 10.1553 26.2661 10.1644 26.2905 10.1773C26.303 10.1839 26.3343 10.2014 26.3639 10.2331L26.3923 10.2698L26.4123 10.3099C26.428 10.3533 26.4311 10.4051 26.4123 10.4575C26.3916 10.5148 26.353 10.5472 26.3356 10.56C26.3012 10.5853 26.2661 10.5953 26.2555 10.5984C26.2256 10.6072 26.1914 10.6123 26.1629 10.6159C26.1013 10.6238 26.0147 10.6302 25.9136 10.6351C25.7096 10.645 25.4259 10.6501 25.1114 10.6484C23.646 10.6404 22.4407 10.8197 19.6794 11.464C19.2973 11.5531 19.0803 11.6033 18.963 11.6157C18.9317 11.6191 18.8947 11.6215 18.858 11.6174C18.8476 11.6162 18.8361 11.6121 18.8229 11.6091C18.731 11.7049 18.6057 11.7697 18.4969 11.8C18.4358 11.817 18.3648 11.8284 18.2951 11.8217C18.2308 11.8155 18.1217 11.7878 18.0566 11.6825C17.9697 11.5415 18.0504 11.4108 18.0866 11.3656C18.1304 11.3109 18.1902 11.2689 18.2434 11.238C18.3497 11.1761 18.5008 11.1212 18.6437 11.1212C18.6618 11.1212 18.6841 11.122 18.7079 11.1246C18.7359 11.0895 18.7705 11.0552 18.8121 11.0295L18.878 10.9953C18.9525 10.9617 19.0508 10.9303 19.1515 10.9011C19.2961 10.8592 19.4775 10.8133 19.6777 10.7685C20.0784 10.6788 20.5641 10.5888 21.0003 10.5283C21.1043 10.5139 21.2169 10.494 21.313 10.4733C21.4138 10.4516 21.4816 10.4325 21.5064 10.4224C21.5557 10.4024 21.6367 10.3842 21.7166 10.3682C21.8047 10.3506 21.9175 10.3309 22.046 10.3099C22.3034 10.2677 22.6306 10.2194 22.9674 10.1739C23.6362 10.0837 24.362 10.001 24.6494 9.99297ZM32.6098 7.08182C32.5806 7.01545 32.5271 6.99022 32.4898 6.98175L32.4597 6.97758C32.4136 6.97758 32.3617 7.00672 32.3405 7.05931L32.3305 7.11184L32.338 7.14186C32.342 7.15086 32.3529 7.17088 32.3747 7.1919C32.3977 7.214 32.4433 7.24527 32.5089 7.24527C32.538 7.24525 32.5604 7.23901 32.5732 7.23443C32.5864 7.22963 32.5962 7.22428 32.6015 7.22108C32.604 7.21959 32.6056 7.21729 32.6073 7.21608C32.6169 7.1971 32.6385 7.14683 32.6098 7.08182ZM17.0709 25.0107C17.0585 24.9826 17.0405 24.9633 17.0225 24.9482C16.9596 24.9497 16.8932 24.9528 16.8207 24.959C16.8041 24.9804 16.7916 25.0071 16.7916 25.0407C16.7916 25.0416 16.7918 25.0524 16.7999 25.0708C16.8039 25.0797 16.8139 25.1005 16.8358 25.1216C16.8524 25.1376 16.8814 25.1573 16.9208 25.1675C16.9339 25.1591 16.9465 25.1506 16.9592 25.1433C16.9947 25.1229 17.0375 25.1013 17.0834 25.0874C17.0845 25.0656 17.0836 25.0394 17.0709 25.0107ZM17.6371 25.2409C17.6662 25.2665 17.7064 25.2834 17.7497 25.2842C17.7901 25.2849 17.8196 25.2719 17.8348 25.2626C17.8424 25.2578 17.8479 25.2533 17.8514 25.25C17.853 25.2486 17.8537 25.2462 17.8548 25.245C17.8543 25.2404 17.854 25.2324 17.8506 25.2225C17.8456 25.2081 17.8339 25.1826 17.8073 25.1591C17.7783 25.1336 17.7387 25.1166 17.6955 25.1158C17.6751 25.1154 17.6574 25.1188 17.643 25.1233L17.6105 25.1383C17.6026 25.1431 17.5965 25.1475 17.5929 25.1508C17.5915 25.1522 17.5898 25.1531 17.5888 25.1541C17.5891 25.1585 17.5901 25.1667 17.5938 25.1775C17.5987 25.1918 17.6106 25.2173 17.6371 25.2409ZM18.0157 25.1508C18.0157 25.2197 17.9974 25.2862 17.9715 25.3409C17.9473 25.3922 17.9046 25.4578 17.8348 25.501C17.7975 25.5241 17.7469 25.5439 17.6872 25.5427C17.6249 25.5415 17.5679 25.5176 17.5246 25.4794C17.4771 25.4374 17.4534 25.3855 17.4412 25.3376C17.4405 25.3971 17.4246 25.4497 17.412 25.4827C17.4004 25.513 17.3899 25.5435 17.3828 25.5669C17.3792 25.5787 17.3772 25.5874 17.3761 25.5919C17.3762 25.5916 17.3778 25.5806 17.3778 25.5653C17.3778 25.6708 17.3073 25.7285 17.2852 25.7445C17.2576 25.7645 17.2307 25.7748 17.2168 25.7796C17.1866 25.79 17.155 25.7961 17.1301 25.7996C17.0769 25.807 17.0101 25.8104 16.9425 25.8096L16.8207 25.8079C16.8195 25.8142 16.8188 25.8207 16.8174 25.8263C16.7921 25.9308 16.7186 26.0929 16.6106 26.3183C16.4624 26.6276 16.2612 27.0076 16.1611 27.1638C16.1204 27.2275 16.0856 27.2814 16.0586 27.3198C16.0452 27.3388 16.0296 27.3603 16.0127 27.379C16.0059 27.3865 15.9808 27.4142 15.941 27.4365C15.9422 27.4467 15.9435 27.456 15.9435 27.4641C15.9435 27.4926 15.9378 27.517 15.936 27.5249C15.9332 27.5369 15.93 27.5489 15.9268 27.5591C15.9203 27.5799 15.9118 27.6034 15.9026 27.6275L15.8317 27.7951C15.7696 27.9313 15.6616 28.0478 15.5349 28.0978C15.59 28.1511 15.6249 28.2253 15.6249 28.308C15.6249 28.4697 15.4937 28.6013 15.3322 28.6015C15.2878 28.6015 15.2458 28.5901 15.208 28.5723C15.1765 28.5923 15.1443 28.6095 15.1129 28.6215L15.1121 28.6223C15.083 28.6334 15.0517 28.6444 15.0237 28.6515C15.0106 28.6549 14.9871 28.6604 14.9603 28.6615C14.9477 28.6621 14.861 28.6666 14.791 28.5965C14.7001 28.5052 14.7303 28.3943 14.7402 28.3663C14.7522 28.3324 14.7707 28.3077 14.7785 28.2971C14.7968 28.2725 14.8203 28.2472 14.8402 28.2271C14.8837 28.1833 14.9386 28.144 14.9987 28.1212C15.0285 28.1099 15.0695 28.0989 15.1162 28.1003H15.1246C15.1485 28.0764 15.177 28.0573 15.208 28.0428C15.1358 27.9713 15.1195 27.8753 15.1213 27.8043L15.1271 27.7542C15.1378 27.7071 15.1593 27.6711 15.1696 27.6542C15.1886 27.6231 15.2122 27.5931 15.2347 27.5666C15.2802 27.5131 15.3372 27.4564 15.3923 27.4082C15.4458 27.3614 15.5081 27.3129 15.5632 27.2814C15.5722 27.2763 15.5867 27.2685 15.6049 27.2606C15.6038 27.2533 15.6028 27.2476 15.6024 27.2439C15.5979 27.2045 15.5985 27.1506 15.5982 27.1046C15.5979 27.0392 15.6118 26.9682 15.6291 26.9045C15.6473 26.8374 15.6731 26.7637 15.7025 26.6877C15.7615 26.5352 15.841 26.363 15.9251 26.2015C16.0011 26.0558 16.0841 25.9147 16.1611 25.7996H16.1453L16.1795 25.7704C16.1811 25.7681 16.1829 25.766 16.1845 25.7637C16.226 25.704 16.2687 25.6473 16.3112 25.6028C16.3325 25.5805 16.3578 25.5569 16.3854 25.5369C16.4106 25.5188 16.453 25.4929 16.508 25.4827L16.5289 25.4794L16.5898 25.4293L16.7649 25.2826C16.732 25.2594 16.7008 25.229 16.6806 25.1833C16.6453 25.1032 16.6578 25.0271 16.6806 24.9724C16.3566 25.0055 16.1462 25.0458 15.9777 25.1108C15.7967 25.1806 15.6508 25.284 15.459 25.4677C15.3938 25.5302 15.3351 25.5916 15.2814 25.652C15.3341 25.6584 15.3872 25.6682 15.4356 25.6828C15.4999 25.7022 15.5717 25.7314 15.6299 25.7721C15.6583 25.7919 15.6963 25.8237 15.725 25.8696C15.7564 25.92 15.7818 25.9985 15.7525 26.0864C15.7261 26.1658 15.6696 26.2127 15.6308 26.2374C15.59 26.2633 15.5457 26.2801 15.5082 26.2908C15.4324 26.3123 15.3461 26.3212 15.268 26.3216C15.2201 26.3218 15.1688 26.3168 15.1188 26.3091C15.1232 26.3231 15.1266 26.3353 15.1279 26.345C15.1327 26.3793 15.1272 26.4091 15.1238 26.4275C15.1532 26.4231 15.1833 26.4208 15.2121 26.4208C15.2666 26.4208 15.3359 26.4292 15.3998 26.465C15.4733 26.5063 15.5288 26.5798 15.539 26.6743C15.5478 26.7556 15.5201 26.8253 15.494 26.872C15.4664 26.9214 15.4286 26.9674 15.3873 27.0087C15.3422 27.0539 15.2928 27.093 15.2405 27.1205C15.1934 27.1452 15.1189 27.1738 15.0345 27.1605C14.9885 27.1532 14.9387 27.1327 14.8969 27.093C14.8918 27.088 14.8874 27.0823 14.8828 27.0771C14.8639 27.1018 14.8461 27.126 14.8294 27.1447C14.8182 27.1571 14.7984 27.1782 14.7727 27.1964C14.7585 27.2064 14.7075 27.2387 14.6359 27.2381C14.6153 27.3474 14.5979 27.4468 14.5859 27.5383C14.5954 27.5376 14.6054 27.5366 14.6151 27.5366L14.716 27.5458C14.7493 27.552 14.7821 27.5616 14.8127 27.575C14.8432 27.5883 14.8819 27.6097 14.9153 27.6442C14.9496 27.6796 14.9878 27.7396 14.9878 27.8201C14.9878 27.9113 14.9455 27.9846 14.9136 28.0286C14.8784 28.077 14.834 28.1194 14.7894 28.152C14.7462 28.1836 14.6907 28.2151 14.6293 28.2312C14.6211 28.2334 14.6106 28.2343 14.5992 28.2362C14.6212 28.3255 14.6522 28.4088 14.6918 28.4923C14.7534 28.6218 14.9338 28.8412 15.1604 29.0576C15.3864 29.2734 15.6175 29.4474 15.7567 29.5079C15.8442 29.546 15.9927 29.5766 16.1911 29.5905C16.2194 29.5925 16.2484 29.5909 16.2779 29.5922C16.2643 29.5677 16.255 29.5456 16.2504 29.5296C16.2371 29.4839 16.2337 29.4357 16.2337 29.3929C16.2337 29.3289 16.2553 29.2484 16.2745 29.1827C16.2966 29.1076 16.3267 29.0164 16.3629 28.9167C16.4358 28.7166 16.5348 28.4716 16.639 28.2279C16.7431 27.9841 16.8544 27.7392 16.9525 27.5391C17.0015 27.4392 17.0478 27.3488 17.0893 27.2748C17.0961 27.2625 17.1031 27.2501 17.1101 27.2381C17.0771 27.2775 17.0382 27.3188 16.9925 27.3456C16.974 27.3566 16.8894 27.4066 16.7866 27.3698C16.6526 27.3219 16.636 27.1934 16.6348 27.1547C16.6334 27.1077 16.6449 27.065 16.6531 27.0388C16.6626 27.0088 16.6747 26.9784 16.6882 26.9504C16.715 26.8944 16.7516 26.8342 16.7924 26.7803C16.8291 26.7317 16.8797 26.6747 16.9383 26.6402C16.9575 26.6289 17.0421 26.5804 17.1443 26.6168C17.2783 26.6648 17.2949 26.7933 17.2961 26.832C17.2975 26.8787 17.286 26.9208 17.2777 26.947C17.2683 26.977 17.2561 27.0074 17.2427 27.0354C17.2361 27.0492 17.2278 27.063 17.2202 27.0771C17.263 27.0266 17.2989 26.9843 17.3269 26.9537C17.3354 26.9445 17.3451 26.9347 17.3544 26.9254C17.3514 26.899 17.3518 26.8758 17.3536 26.8595C17.3572 26.8267 17.3661 26.7958 17.3753 26.7694C17.3939 26.7163 17.4233 26.6598 17.4595 26.6026C17.4962 26.5446 17.5511 26.4869 17.6246 26.455C17.7013 26.4219 17.8268 26.4105 17.924 26.5076C17.9821 26.5657 17.9981 26.6369 17.999 26.6885C18 26.7388 17.9872 26.7838 17.974 26.8178C17.9474 26.8861 17.9019 26.9507 17.8489 27.0037C17.8236 27.0291 17.7924 27.0536 17.7597 27.0763C17.759 27.095 17.7581 27.1095 17.7572 27.1155C17.7517 27.1519 17.7392 27.2004 17.728 27.2447C17.7168 27.2891 17.6918 27.3536 17.6622 27.429C17.6974 27.3669 17.733 27.3102 17.7672 27.2606C17.8202 27.1837 17.8807 27.1089 17.9457 27.0588C17.9773 27.0344 18.0275 27.0025 18.0916 26.9912C18.1492 26.9811 18.2117 26.9891 18.2667 27.0212L18.3184 27.0621L18.3535 27.1063C18.3794 27.1505 18.3832 27.1924 18.3843 27.2064C18.3864 27.2336 18.384 27.2579 18.3818 27.2731C18.3773 27.3047 18.3684 27.3382 18.3593 27.3682C18.3405 27.4304 18.3108 27.5106 18.2742 27.6C18.2551 27.6468 18.2311 27.6963 18.2075 27.7501C18.2312 27.7354 18.2558 27.7225 18.2817 27.7134C18.3384 27.6934 18.4394 27.6768 18.5336 27.7401C18.6315 27.806 18.6528 27.9114 18.6528 27.9802C18.6528 27.9927 18.6486 28.0046 18.647 28.0161C18.6684 27.9907 18.6892 27.9663 18.7095 27.9444C18.7412 27.9102 18.7755 27.8764 18.8096 27.8493C18.8265 27.8359 18.8483 27.8206 18.873 27.8076C18.8941 27.7965 18.9387 27.7759 18.9956 27.7759L19.0773 27.7884C19.0976 27.795 19.1178 27.8057 19.1382 27.8193C19.1933 27.6649 19.2278 27.5449 19.2441 27.4407C19.2658 27.302 19.2573 27.1871 19.2241 27.0529C19.1747 27.0613 19.1216 27.0662 19.0689 27.0529C19.0292 27.0429 18.9783 27.0218 18.9355 26.9779C18.9007 26.9421 18.8774 26.8972 18.868 26.8486L18.8638 26.7994L18.8696 26.7394C18.8815 26.6812 18.9101 26.6289 18.9505 26.5885C18.925 26.5839 18.8993 26.5782 18.8746 26.5676C18.8124 26.5409 18.7286 26.4771 18.7087 26.3683L18.7045 26.3191L18.7079 26.2791C18.7037 26.284 18.7003 26.2894 18.6962 26.2941C18.6698 26.3242 18.6405 26.3545 18.6103 26.3791C18.5952 26.3914 18.5753 26.4067 18.5519 26.4192C18.5322 26.4297 18.4893 26.4499 18.4335 26.45C18.4027 26.45 18.3004 26.4491 18.2234 26.3666C18.1455 26.2833 18.1513 26.1794 18.1558 26.1348C18.1613 26.0812 18.1769 26.0203 18.1958 25.9572C18.2157 25.8911 18.2437 25.809 18.2784 25.7095C18.3683 25.4513 18.3462 25.3682 18.3168 25.3251C18.2976 25.2972 18.2578 25.2592 18.1708 25.2142C18.1276 25.1918 18.076 25.1697 18.0149 25.1466C18.0149 25.148 18.0157 25.1494 18.0157 25.1508ZM17.2143 25.0733C17.241 25.0761 17.2704 25.0839 17.3002 25.0983C17.3623 25.1283 17.4057 25.1799 17.427 25.2392L17.4295 25.2492C17.4296 25.1806 17.4472 25.1145 17.4729 25.0599C17.4823 25.0398 17.4963 25.018 17.512 24.9957C17.4035 24.9713 17.3057 24.9581 17.206 24.9515C17.2136 24.9822 17.2185 25.0124 17.2185 25.0407C17.2185 25.0518 17.2155 25.0626 17.2143 25.0733ZM28.1493 20.6844C28.1626 20.708 28.1855 20.7377 28.2202 20.7695C28.2903 20.8338 28.3941 20.894 28.5129 20.9296C28.8056 21.0173 29.2273 21.0141 29.8029 20.8921C30.2719 20.7926 30.644 20.6037 30.8887 20.3751C31.1196 20.1591 31.2301 19.9145 31.2247 19.6687C31.2194 19.6639 31.2133 19.6572 31.2047 19.6504C31.1608 19.616 31.0931 19.5754 31.0121 19.537C30.9322 19.4991 30.8456 19.4666 30.7669 19.4453C30.6849 19.423 30.6263 19.4169 30.5951 19.4194C30.4055 19.4351 30.0456 19.5188 29.6828 19.627C29.3176 19.7361 28.99 19.858 28.8548 19.9373C28.6736 20.0434 28.4837 20.2026 28.3403 20.3584C28.2689 20.4359 28.2132 20.5082 28.1768 20.5677C28.1355 20.6353 28.136 20.6596 28.136 20.6486C28.136 20.6486 28.1359 20.6606 28.1493 20.6844ZM9.64836 19.7221C9.64836 19.8049 9.61781 19.8825 9.58748 19.9381C9.55524 19.9971 9.50863 20.0575 9.45155 20.1049V20.1057C9.42576 20.1271 9.39582 20.1501 9.36566 20.1682C9.34723 20.1793 9.27559 20.2237 9.18387 20.2083C9.054 20.1862 9.00783 20.0779 8.99541 20.034C8.98327 19.9908 8.9829 19.9469 8.9829 19.9206C8.98293 19.8377 9.01343 19.7601 9.04378 19.7046C9.07597 19.6457 9.12195 19.5851 9.17887 19.5378C9.20475 19.5163 9.23529 19.4926 9.26559 19.4744C9.28431 19.4632 9.35586 19.4197 9.44739 19.4352C9.57733 19.4574 9.62348 19.5649 9.63585 19.6087C9.64802 19.6518 9.64835 19.6957 9.64836 19.7221ZM41.8703 19.4286C41.9034 19.4598 41.938 19.4691 41.9537 19.4719C41.9834 19.4773 41.9948 19.4702 41.9837 19.4744C41.9909 19.4717 41.9945 19.4685 41.9954 19.4678L41.9962 19.4669C41.9965 19.4665 41.9972 19.4655 41.9979 19.4636C41.9987 19.4615 41.9989 19.4566 41.9996 19.4494C41.9991 19.447 41.9989 19.4438 41.9979 19.4402C41.9951 19.4304 41.987 19.404 41.9637 19.376C41.9366 19.3435 41.8966 19.318 41.8486 19.3093C41.836 19.307 41.8243 19.3076 41.8136 19.3077C41.8165 19.3516 41.8357 19.3957 41.8703 19.4286ZM36.3432 12.1961C36.3432 12.2444 36.3325 12.2935 36.3224 12.3321C36.3113 12.3742 36.2967 12.4204 36.2798 12.4663C36.246 12.5583 36.2008 12.6612 36.1539 12.7574C36.1073 12.853 36.0559 12.9471 36.0088 13.02C35.9858 13.0557 35.9597 13.093 35.9321 13.1234C35.9186 13.1383 35.8995 13.158 35.8754 13.1751C35.856 13.1889 35.805 13.2218 35.7336 13.2218C35.6783 13.2217 35.6334 13.2029 35.6102 13.1918C35.5826 13.1786 35.557 13.1619 35.5352 13.146C35.4915 13.114 35.4475 13.0727 35.4101 13.0275C35.3858 12.9983 35.3309 12.9472 35.24 12.8749C35.1523 12.8053 35.0403 12.7232 34.9089 12.6323C34.6458 12.4502 34.3115 12.2368 33.9558 12.0219C33.2412 11.5901 32.4545 11.1611 31.9852 10.9686C31.8616 10.9179 31.7397 10.8643 31.6433 10.8185C31.5955 10.7958 31.5517 10.7741 31.5166 10.7552C31.4889 10.7402 31.4463 10.7168 31.4157 10.6901C31.3516 10.6341 31.335 10.5618 31.3315 10.5175C31.328 10.4732 31.3351 10.4321 31.3423 10.4024C31.3571 10.3421 31.3845 10.2764 31.4157 10.214C31.4797 10.0857 31.5794 9.92596 31.6967 9.75698C31.9321 9.41786 32.2566 9.01639 32.5581 8.71627C32.8622 8.41362 33.2177 8.13345 33.5572 7.91823C33.8909 7.7066 34.2304 7.54439 34.5003 7.49877C34.9467 7.42331 35.51 7.575 35.8546 7.86486C35.9932 7.98148 36.1219 8.1845 36.2323 8.40022C36.3466 8.62341 36.4546 8.8876 36.5434 9.15157C36.632 9.41535 36.7037 9.68502 36.7427 9.91876C36.7621 10.0354 36.7742 10.1472 36.7752 10.2473C36.7762 10.3438 36.767 10.4465 36.7327 10.535C36.7013 10.616 36.6539 10.8607 36.6359 11.0737C36.616 11.311 36.5382 11.652 36.4566 11.8459C36.4239 11.9237 36.3937 12.0074 36.3724 12.0786C36.3617 12.1142 36.3541 12.1451 36.3491 12.1686C36.3433 12.1955 36.3432 12.2024 36.3432 12.1961ZM32.7574 7.11184C32.7573 7.28476 32.6122 7.40445 32.4597 7.40454C32.3837 7.40454 32.2705 7.37143 32.2187 7.25444C32.1725 7.14967 32.2103 7.05201 32.2429 6.99927L32.2805 6.94673C32.2939 6.93006 32.308 6.91414 32.323 6.90003C32.3378 6.88603 32.3577 6.86926 32.3814 6.855C32.3998 6.84388 32.4464 6.81831 32.5089 6.81831L32.5615 6.82415C32.574 6.82708 32.5856 6.8313 32.5965 6.83582C32.5996 6.81594 32.6038 6.80082 32.6065 6.79329C32.6178 6.76264 32.634 6.74059 32.6407 6.73158C32.6492 6.72025 32.6573 6.71036 32.664 6.70323C32.6889 6.67686 32.7236 6.64764 32.7574 6.62067C32.8291 6.5636 32.9341 6.48816 33.0543 6.4072C34.0313 5.74936 34.9231 5.49406 35.7512 5.70255C35.905 5.74131 36.0862 5.82945 36.2573 5.92854C36.4321 6.02977 36.6115 6.15157 36.7635 6.2696C36.9113 6.38432 37.0481 6.5066 37.1271 6.60983C37.1476 6.63665 37.1691 6.66816 37.1855 6.7024C37.2002 6.7333 37.2206 6.78794 37.2155 6.85333C37.2091 6.9337 37.1656 7.00589 37.0946 7.04763C37.0367 7.08157 36.9761 7.08599 36.9386 7.08599C36.8725 7.08588 36.8191 7.0575 36.7994 7.0468C36.7705 7.03116 36.7421 7.01195 36.7168 6.99259C36.6658 6.95348 36.6112 6.9022 36.5617 6.8475C36.538 6.82124 36.4731 6.7673 36.3749 6.6999C36.2815 6.63578 36.172 6.56904 36.0705 6.5156C35.9069 6.42944 35.8038 6.38808 35.6753 6.36383C35.5389 6.33814 35.3648 6.32998 35.054 6.32964C34.7422 6.32934 34.5638 6.33749 34.4111 6.36633C34.2621 6.39449 34.1275 6.44413 33.9066 6.54396C33.6232 6.67202 33.3104 6.83596 33.2103 6.9042C33.1459 6.94815 33.0779 6.9888 33.0193 7.01928C32.9903 7.03437 32.9605 7.04916 32.9326 7.06014C32.9141 7.06739 32.8653 7.08599 32.8116 7.08599C32.8035 7.08599 32.7818 7.08419 32.7541 7.07682C32.7552 7.08874 32.7574 7.10052 32.7574 7.11184Z" fill="white"/>
<path d="M22.2321 40.6586C21.6186 40.6075 20.9552 40.5254 20.7579 40.4761C20.5607 40.4269 20.22 40.3609 20.0009 40.3296C19.7818 40.2983 18.9826 40.0798 18.225 39.844C17.1085 39.4967 16.7162 39.3368 16.1551 39.0002C15.7743 38.7719 15.1033 38.3917 14.6639 38.1555C12.8894 37.2014 11.5093 35.9686 10.1044 34.0828C8.97097 32.5613 7.9131 30.0015 7.67923 28.2142C7.62357 27.7889 7.60593 26.9699 7.63327 26.0819C7.68467 24.4131 7.87019 23.4388 8.42037 21.9471C8.85556 20.7674 10.0164 18.7057 10.5228 18.2129C10.8591 17.8858 10.8897 17.6974 10.7189 17.0084C10.4304 15.8448 10.3799 15.395 10.4146 14.2985C10.4456 13.3168 10.4713 13.1622 10.7064 12.5433C11.1871 11.2779 11.7197 10.5863 12.662 10.0036L13.148 9.70315L13.9448 9.7228C15.2087 9.75395 16.0051 10.0483 16.8815 10.8083C17.1826 11.0694 17.5925 11.4889 17.7925 11.7406C18.3152 12.3983 18.4517 12.4331 19.3406 12.1353C19.7348 12.0032 20.1783 11.8831 20.3262 11.8685C20.4741 11.8538 20.6407 11.8082 20.6965 11.7672C20.9665 11.5685 23.4372 11.149 24.6625 11.0939C26.3155 11.0194 28.4924 11.1773 29.8542 11.4704C30.6762 11.6473 30.8294 11.6048 30.9613 11.1633C31.081 10.7629 31.4118 10.0981 31.4913 10.0981C31.5267 10.0981 31.642 9.95148 31.7474 9.77229C32.0176 9.31332 33.2075 8.31907 33.9663 7.91813C34.9341 7.40681 35.4307 7.27863 36.3281 7.30851C37.0495 7.33251 37.0902 7.34299 37.5372 7.62061C38.5277 8.23573 38.997 9.125 39.066 10.5177C39.1319 11.8492 38.8864 13.0332 38.249 14.4576C38.0956 14.8005 37.9701 15.1584 37.9701 15.253C37.9701 15.3649 38.1533 15.6045 38.4946 15.9392C39.221 16.6513 40.1 17.712 40.6416 18.5297C40.8923 18.9085 41.1244 19.2183 41.1573 19.2183C41.1902 19.2183 41.3696 19.1698 41.5559 19.1105C42.0171 18.9639 42.0258 18.9718 41.6628 19.2088C41.1631 19.535 40.7074 20.0673 40.4443 20.6323C40.0226 21.5374 40.1393 22.1206 40.8725 22.773C41.6213 23.4393 42.5454 23.6862 43.2878 23.4186C43.6486 23.2885 44.6204 22.4154 44.6858 22.1626C44.7114 22.0638 44.7754 21.8538 44.8282 21.6958C44.881 21.5378 44.9401 21.2098 44.9597 20.967C44.9919 20.5684 45.0141 20.5222 45.1881 20.4922C45.3737 20.4602 45.3809 20.4741 45.3809 20.8671C45.3809 21.3412 45.1992 21.878 44.9777 22.0587C44.8926 22.1281 44.823 22.2299 44.823 22.285C44.823 22.6469 43.7746 23.4882 43.2204 23.571C43.0621 23.5947 42.8925 23.6363 42.8435 23.6636C42.7829 23.6974 42.7444 24.2992 42.7234 25.5411C42.6859 27.7587 42.6439 28.0001 41.9302 30.0978C41.2672 32.0468 39.8282 34.1254 37.9371 35.8658C36.3729 37.3052 35.3466 37.9699 33.2072 38.9288C31.1043 39.8714 29.9513 40.2595 28.2882 40.5848C27.4463 40.7495 23.8489 40.7933 22.2321 40.6586ZM27.6109 39.4264C29.2901 39.1966 31.4944 38.6321 31.8539 38.3398C31.9304 38.2776 32.1922 38.1538 32.4358 38.0646C33.0923 37.8241 33.6265 37.5151 35.0098 36.5758C36.693 35.4327 38.3251 34.0813 39.0082 33.2651C39.3092 32.9054 39.6414 32.5143 39.7465 32.3958C40.1849 31.9017 40.5641 31.3606 40.8153 30.8705C40.9624 30.5837 41.1007 30.3492 41.1227 30.3492C41.1446 30.3492 41.1937 30.4218 41.2318 30.5107C41.2986 30.6669 41.3027 30.6675 41.3555 30.5287C41.3855 30.4497 41.4607 30.2719 41.5225 30.1337C41.6948 29.7486 42.0962 28.1737 42.2316 27.3514C42.3565 26.5932 42.3899 24.6601 42.2871 24.1374C42.2315 23.8547 42.2196 23.8461 41.5393 23.5988C40.7976 23.3292 40.1876 22.9013 40.0351 22.5435C39.784 21.9552 39.8012 21.0388 40.0732 20.5092C40.1437 20.3719 40.3255 20.0818 40.4771 19.8646C40.6288 19.6474 40.7543 19.426 40.756 19.3727C40.7613 19.2058 39.9253 17.9917 39.3145 17.2793C38.1352 15.9038 36.8968 14.8683 35.4854 14.0773C32.6936 12.5128 30.3124 11.8288 26.6547 11.5405C25.8202 11.4747 24.0895 11.49 23.9561 11.5643C23.9259 11.5811 23.5256 11.6334 23.0666 11.6804C22.6076 11.7274 22.1604 11.7921 22.0727 11.8241C21.9851 11.856 21.501 11.9696 20.997 12.0763C19.0782 12.4826 18.5976 12.6958 18.9712 12.9753C19.1055 13.0757 19.483 13.7061 19.483 13.83C19.483 13.8708 19.4334 13.9041 19.3729 13.9041C19.2582 13.9041 18.8455 13.4634 18.8455 13.3408C18.8455 13.3022 18.7314 13.1841 18.5919 13.0783C18.4022 12.9345 18.2826 12.8961 18.1169 12.926C17.8584 12.9726 17.7596 12.8819 17.93 12.7545C17.9952 12.7057 18.0486 12.6266 18.0486 12.5788C18.0486 12.4445 16.9416 11.402 16.1815 10.8205C15.6101 10.3833 15.3989 10.2695 14.8814 10.1198C13.9242 9.84303 13.1917 9.968 12.3188 10.5571C11.683 10.9863 10.9358 12.2405 10.7526 13.1865C10.5662 14.1489 10.6559 15.8945 10.947 16.9675C11.0739 17.4352 11.2509 17.9634 11.3403 18.1411C11.5976 18.6525 11.9934 19.6039 11.9929 19.7098C11.9924 19.824 11.4755 19.2822 11.3103 18.9944C11.2472 18.8844 11.1956 18.7302 11.1956 18.6516C11.1956 18.1163 10.6453 18.698 9.98021 19.9364C9.05796 21.6535 8.534 23.0533 8.23288 24.6042C8.09238 25.3278 8.0958 27.6852 8.23851 28.5179C8.45212 29.7642 9.08483 31.5537 9.64772 32.5035C9.7062 32.6023 9.87821 32.8949 10.0299 33.1539C10.1816 33.4129 10.3625 33.6673 10.4319 33.7193C10.5014 33.7712 10.5581 33.8544 10.5581 33.9041C10.5581 34.0285 11.4014 35.0335 11.9371 35.5475C12.2597 35.8571 12.4146 35.9576 12.5154 35.9228C12.608 35.8908 12.8642 36.0023 13.299 36.2639C14.2588 36.8415 15.5587 37.498 16.8135 38.0386C17.928 38.5188 19.3723 39.0384 19.5927 39.0384C19.6569 39.0384 20.0081 39.1017 20.3732 39.179C22.0583 39.5362 25.8598 39.6662 27.6109 39.4264ZM30.417 32.6759C30.2729 32.6192 29.764 32.5444 29.2859 32.5098C28.5209 32.4544 28.3613 32.4186 27.9541 32.2112C27.1092 31.7808 26.548 31.4062 25.8728 30.822C24.3961 29.5444 23.4868 28.1464 23.4232 27.0559C23.4078 26.7908 23.3482 26.5499 23.2811 26.4814C23.2176 26.4166 23.1394 26.1866 23.1073 25.9703C23.0752 25.7541 23.0029 25.5117 22.9466 25.4317C22.8222 25.2548 22.8474 24.1477 22.9791 24.0046C23.0277 23.9519 23.0453 23.8888 23.0182 23.8644C22.9328 23.7874 22.91 23.3915 22.9885 23.3478C23.0298 23.3248 23.0422 23.2094 23.016 23.0913C22.9642 22.8582 23.1287 22.0384 23.2396 21.9767C23.2772 21.9558 23.3079 21.8551 23.3079 21.7529C23.3079 21.4744 23.853 20.5004 24.0326 20.4581C24.1288 20.4354 24.1844 20.359 24.1844 20.2497C24.1844 19.9211 25.0023 18.9283 25.3932 18.7824C25.5173 18.7361 25.6188 18.6552 25.6188 18.6028C25.6188 18.4814 26.1017 18.07 26.2448 18.0696C26.3042 18.0694 26.4196 17.9928 26.5012 17.8993C26.8447 17.5057 28.3635 16.8502 29.3532 16.6683C30.3934 16.4771 30.639 16.4615 30.639 16.5864C30.639 16.7425 30.4617 16.8134 29.7351 16.9478C29.3914 17.0114 28.8221 17.176 28.47 17.3135C28.118 17.451 27.7069 17.5843 27.5565 17.6097C27.3991 17.6363 27.232 17.7263 27.1625 17.8218C27.0962 17.913 26.7723 18.1706 26.4427 18.3941C25.6857 18.9076 25.3285 19.2398 24.7924 19.9293C24.1727 20.7263 23.6266 21.9353 23.6266 22.5104C23.6266 22.6922 23.4759 23.2235 23.3891 23.3475C23.3108 23.4593 23.3631 25.1435 23.4531 25.4086C23.4973 25.5389 23.5577 25.7747 23.5873 25.9327C23.8048 27.0956 24.9704 28.9548 25.9998 29.7809C26.8378 30.4534 28.1299 31.0706 29.5234 31.4639C30.0992 31.6265 31.6413 31.6283 32.4717 31.4673C36.2495 30.7353 38.7593 28.2374 39.1657 24.8055C39.3206 23.4964 39.0031 21.8658 38.4009 20.8788C38.1855 20.5259 38.1631 20.3677 38.3087 20.2299C38.3899 20.1531 38.3766 20.1443 38.2368 20.1823C38.0908 20.2219 37.9801 20.1267 37.4924 19.542C36.9069 18.84 36.0607 18.1297 35.4201 17.8025C35.2229 17.7017 34.914 17.5278 34.7336 17.4159C34.2149 17.0942 33.1948 16.8637 32.0318 16.8055C31.2742 16.7675 31.0124 16.7296 30.9798 16.6532C30.8963 16.4571 31.0719 16.4163 31.6787 16.4909C32.0053 16.5312 32.5773 16.5933 32.9499 16.6291C34.642 16.7917 36.1495 17.5062 37.5473 18.8082C37.9389 19.1731 38.4083 19.6976 38.5903 19.9737C38.982 20.5678 39.5638 21.7508 39.5638 21.9531C39.5638 22.0314 39.6534 22.255 39.763 22.4498C39.8726 22.6447 39.9622 22.8839 39.9622 22.9816C39.9622 23.0791 40.0195 23.3792 40.0895 23.6482C40.1875 24.0245 40.2083 24.3858 40.18 25.2146C40.1443 26.255 40.1317 26.3208 39.8101 27.1437C39.6271 27.6122 39.3749 28.1784 39.2497 28.4019C38.7665 29.2645 37.074 31.032 36.1834 31.6042C35.5683 31.9994 34.4942 32.4007 33.5589 32.5849C32.6067 32.7724 30.7953 32.8249 30.417 32.6759ZM29.4437 30.7295C29.1822 30.6437 28.8756 30.3004 28.7538 29.9571C28.6664 29.7107 28.6181 29.2627 28.6024 28.5538L28.5795 27.5125L27.9542 27.4049C27.6104 27.3456 27.2289 27.2325 27.1064 27.1535C26.6611 26.8662 26.4156 26.6725 26.4156 26.6085C26.4156 26.5726 26.3465 26.4808 26.262 26.4046C26.1775 26.3285 26.0834 26.1164 26.053 25.9333C25.982 25.5064 26.1474 25.1612 26.6264 24.7375L26.9799 24.4246L27.6341 24.4262C27.9939 24.427 28.6289 24.4608 29.0453 24.5012C29.4616 24.5417 30.0533 24.5571 30.3601 24.5356L30.9179 24.4964L30.8962 24.0656C30.8843 23.8286 30.835 23.4311 30.7868 23.1823C30.7071 22.7711 30.7126 22.7209 30.8475 22.6321C30.9291 22.5783 31.0303 22.5536 31.0725 22.577C31.1173 22.602 31.1094 22.6317 31.0534 22.6485C30.9164 22.6897 30.9351 23.021 31.0773 23.0701C31.2192 23.1192 31.2365 23.4625 31.103 23.5827C31.0312 23.6475 31.0422 23.7 31.1504 23.8077C31.251 23.9079 31.2767 24.0089 31.24 24.1594C31.1644 24.4697 31.3551 24.4942 31.8945 24.2435C32.1462 24.1266 32.6911 23.8984 33.1052 23.7366C33.5193 23.5748 34.0034 23.355 34.181 23.2482C34.6604 22.9597 34.9086 22.8804 35.3243 22.883C35.7518 22.8856 35.848 22.9407 36.1694 23.3671C36.3785 23.6446 36.3926 23.6996 36.3169 23.9416C36.2708 24.0888 36.1921 24.3683 36.142 24.5628C36.0345 24.9795 35.6601 25.4631 35.0662 25.9522C34.7297 26.2294 34.3931 26.3993 33.4912 26.7471C32.8603 26.9904 32.2491 27.1894 32.133 27.1894C31.7505 27.1894 31.1069 27.3451 31.063 27.4483C31.0393 27.504 31.0744 27.6246 31.1411 27.7163C31.3259 27.9705 31.356 29.0204 31.1769 28.9669C31.1162 28.9489 31.0567 28.7319 31.0247 28.4122C30.9346 27.5126 30.8324 27.2907 30.4098 27.0772C30.1517 26.9467 30.0056 26.911 29.9222 26.958C29.8472 27.0002 29.7552 26.998 29.6734 26.9521C29.5769 26.8977 29.4697 26.9204 29.2537 27.0406C28.912 27.2309 28.803 27.3905 28.7962 27.7096C28.7779 28.5773 28.7588 28.8156 28.7016 28.8954C28.6613 28.9515 28.6825 29.0016 28.7575 29.0275C28.8282 29.0519 28.9012 29.2074 28.9337 29.4028C29.0426 30.0572 29.4111 30.5218 29.8848 30.602C30.3319 30.6777 30.9567 30.1468 30.9574 29.6908C30.9578 29.4256 31.0342 29.2719 31.1655 29.2719C31.35 29.2719 31.2962 29.7353 31.0614 30.1666C30.9117 30.4417 30.7688 30.5949 30.5912 30.6709C30.3446 30.7763 29.6888 30.8099 29.4437 30.7295ZM27.6888 26.4454C27.6879 26.4004 27.6169 26.4444 27.5312 26.5431C27.3275 26.7778 27.3299 26.9173 27.5339 26.6967C27.6201 26.6035 27.6898 26.4904 27.6888 26.4454ZM31.396 26.6867C31.4231 26.6472 31.4073 26.6149 31.3609 26.6149C31.3144 26.6149 31.2765 26.6472 31.2765 26.6867C31.2765 26.7262 31.2923 26.7585 31.3116 26.7585C31.331 26.7585 31.3689 26.7262 31.396 26.6867ZM28.2302 26.4309C28.2035 26.4069 28.1387 26.4626 28.0862 26.5549C27.9949 26.7152 27.9971 26.7172 28.1347 26.5987C28.2139 26.5305 28.2569 26.455 28.2302 26.4309ZM28.7578 26.5731C28.8326 26.3975 28.8164 26.3743 28.6867 26.4713C28.5542 26.5704 28.5281 26.6867 28.6383 26.6867C28.6775 26.6867 28.7313 26.6356 28.7578 26.5731ZM29.3517 26.5109C29.3693 26.4291 29.3406 26.3945 29.272 26.4151C29.2131 26.4328 29.1524 26.5049 29.1373 26.5753C29.1196 26.6571 29.1484 26.6916 29.217 26.6711C29.2759 26.6534 29.3365 26.5813 29.3517 26.5109ZM32.2328 26.2198C32.2887 26.0398 32.3139 25.8743 32.2889 25.8517C32.264 25.8292 32.1873 25.9814 32.1186 26.19C31.9729 26.6322 31.9724 26.6352 32.0624 26.5851C32.1002 26.564 32.1769 26.3996 32.2328 26.2198ZM27.1731 26.399C27.3861 26.1869 27.2721 26.1535 27.0528 26.3639C26.9501 26.4624 26.9025 26.5431 26.9472 26.5431C26.9919 26.5431 27.0935 26.4783 27.1731 26.399ZM32.8702 26.2601C32.8702 26.0795 32.7416 26.0083 32.6793 26.1544C32.603 26.3337 32.6221 26.3995 32.7507 26.3995C32.8164 26.3995 32.8702 26.3367 32.8702 26.2601ZM26.9005 26.0202C26.9699 25.9326 27.0941 25.7672 27.1764 25.6527L27.3261 25.4445L27.1569 25.5261C27.0042 25.5997 26.6547 26.0261 26.6547 26.1386C26.6547 26.2334 26.779 26.1734 26.9005 26.0202ZM29.8458 25.8188C29.8947 25.7364 29.9181 25.6541 29.8979 25.6359C29.8499 25.5926 29.603 25.8153 29.603 25.9019C29.603 26.0232 29.7553 25.9711 29.8458 25.8188ZM27.7644 25.7954C27.8351 25.7187 27.8353 25.6817 27.7653 25.6426C27.6795 25.5949 27.5353 25.719 27.5325 25.8429C27.5304 25.9314 27.6644 25.904 27.7644 25.7954ZM32.7029 25.2189C32.8262 25.1503 32.8122 24.9632 32.6838 24.9632C32.5487 24.9632 32.3911 25.2692 32.3952 25.5231L32.3983 25.7173L32.5069 25.4925C32.5666 25.3689 32.6548 25.2458 32.7029 25.2189ZM31.3201 25.3156C31.3902 25.1935 31.4297 25.0774 31.4077 25.0576C31.3709 25.0244 31.1171 25.4092 31.1171 25.4983C31.1171 25.5967 31.2034 25.5192 31.3201 25.3156ZM30.7585 25.1727C30.7585 25.1163 30.6696 25.0638 30.5593 25.0549C30.4497 25.0461 30.4049 25.0568 30.4597 25.0788C30.5145 25.1008 30.5593 25.1673 30.5593 25.2266C30.5593 25.2858 30.6041 25.3208 30.6589 25.3044C30.7137 25.2879 30.7585 25.2286 30.7585 25.1727ZM29.2046 24.9632C29.2046 24.9237 29.1888 24.8914 29.1695 24.8914C29.1502 24.8914 29.1122 24.9237 29.0851 24.9632C29.058 25.0027 29.0738 25.035 29.1203 25.035C29.1667 25.035 29.2046 25.0027 29.2046 24.9632ZM34.2851 24.7782C34.2067 24.7075 34.0655 24.816 34.0655 24.947C34.0655 25.0566 34.0759 25.0564 34.2002 24.9444C34.2743 24.8776 34.3125 24.8029 34.2851 24.7782ZM36.0576 23.5586C36.0576 23.3547 36.0281 23.3115 35.8885 23.3115C35.7495 23.3115 35.7365 23.3301 35.8157 23.4161C35.8686 23.4737 35.8877 23.556 35.8582 23.5991C35.7843 23.7069 35.8785 23.9055 35.9774 23.8505C36.0215 23.8259 36.0576 23.6946 36.0576 23.5586ZM16.3551 29.5286C15.9332 29.3929 15.5562 29.1156 15.0669 28.5809C14.6638 28.1405 14.6413 28.0939 14.5937 27.6001C14.534 26.9813 14.6838 26.2577 14.9873 25.6987C15.1369 25.4231 15.3443 25.2102 15.7412 24.9248C16.0423 24.7083 16.3889 24.4958 16.5113 24.4525C16.8626 24.3284 18.3864 24.2829 18.7891 24.3846C19.1447 24.4743 20.1204 25.1796 20.1204 25.3469C20.1204 25.3936 20.1973 25.4638 20.2913 25.5027C20.7156 25.6788 20.9147 26.9442 20.6383 27.7083C20.4068 28.3484 20.2627 28.5558 19.7697 28.9578C19.2616 29.3721 19.0505 29.4487 18.1146 29.5583C17.3095 29.6525 16.7089 29.6423 16.3551 29.5286ZM18.8278 29.1439C19.6487 28.8828 20.5131 27.5785 20.3611 26.8303C20.2456 26.2617 19.9056 25.5246 19.6853 25.3655C19.5705 25.2825 19.4331 25.1359 19.3801 25.0397C19.2389 24.7834 18.624 24.6104 17.8494 24.6089C17.0075 24.6073 16.5883 24.7023 16.1994 24.983C15.5889 25.4237 15.27 25.9736 15.0627 26.9431C14.8584 27.8978 15.1813 28.5126 16.2479 29.2001C16.6059 29.4308 18.0229 29.4 18.8278 29.1439ZM29.812 27.9201C29.7767 27.8282 29.7691 27.7339 29.795 27.7106C29.8776 27.6362 29.9357 27.746 29.9054 27.9193L29.8761 28.087L29.812 27.9201ZM30.639 22.2799C30.639 22.181 30.6059 22.0216 30.5654 21.9258C30.4959 21.7611 30.4485 21.7495 29.7088 21.7171C28.8624 21.6801 28.5 21.5662 28.2842 21.2694C27.7113 20.4814 29.6722 19.2697 31.3451 19.3779C32.2939 19.4393 32.8572 19.8252 32.7629 20.349C32.6729 20.8489 32.064 21.3532 31.3128 21.55C30.8691 21.6662 30.8673 21.6678 30.9256 21.8967C31.0307 22.3088 31.0101 22.4123 30.8183 22.4369C30.6733 22.4554 30.639 22.4254 30.639 22.2799ZM31.3109 21.3422C31.7879 21.1319 32.2799 20.6883 32.3616 20.3949C32.4534 20.0652 32.3073 19.8465 31.8915 19.6911L31.5127 19.5497L30.7372 19.7156C29.811 19.9137 29.3083 20.1421 28.8828 20.5581C28.5223 20.9106 28.4919 21.0708 28.7464 21.2785C29.1047 21.5709 29.2178 21.5954 30.063 21.563C30.7409 21.537 30.9553 21.499 31.3109 21.3422ZM19.0048 22.2143C18.6756 22.0661 18.5106 21.6912 18.5558 21.1938C18.5891 20.8264 18.6307 20.7347 18.8409 20.5655C19.0836 20.37 19.4889 20.3017 19.691 20.4222C19.8642 20.5255 20.0435 20.9445 20.0915 21.3582C20.1378 21.7573 20.1274 21.7913 19.883 22.0422C19.6056 22.327 19.3613 22.3749 19.0048 22.2143ZM13.229 18.9019C12.9132 18.4571 12.6892 17.9106 12.5492 17.2434C12.4994 17.0065 12.4221 16.6977 12.3774 16.5573C12.284 16.2642 12.3136 15.9401 12.4308 15.9735C12.4746 15.9859 12.4992 16.0451 12.4856 16.1049C12.4719 16.1647 12.5167 16.2908 12.5852 16.3849C12.6592 16.4868 12.7097 16.7133 12.7097 16.944C12.7097 17.2122 12.7553 17.3846 12.8574 17.503C12.9388 17.5972 13.0505 17.8036 13.1058 17.9615C13.1611 18.1195 13.3133 18.454 13.4441 18.7049C13.6069 19.0174 13.6559 19.1842 13.5997 19.2348C13.5436 19.2854 13.4269 19.1807 13.229 18.9019ZM14.3474 18.9786C14.2631 18.923 14.2194 18.8181 14.2361 18.7116C14.2635 18.5365 14.2641 18.5367 14.4443 18.7644C14.636 19.0067 14.5796 19.1316 14.3474 18.9786ZM14.9925 18.5836C14.8686 18.4603 14.6619 17.6504 14.7369 17.5828C14.7544 17.5671 14.8127 17.6298 14.8666 17.722C14.9205 17.8143 15.0508 17.9831 15.1562 18.0972C15.4671 18.434 15.3102 18.9001 14.9925 18.5836ZM37.2051 17.7533C36.9665 17.5383 36.9342 17.4646 36.9342 17.136C36.9342 16.7231 37.0973 16.4067 37.3805 16.27C37.6152 16.1568 37.7472 16.2085 38.0067 16.5151C38.1518 16.6866 38.2335 16.8888 38.2635 17.151C38.3029 17.4947 38.2847 17.56 38.0919 17.7665C37.8072 18.0713 37.5538 18.0676 37.2051 17.7533ZM15.8696 17.7225C15.7256 17.5791 15.6937 17.3123 15.8127 17.2461C15.9265 17.1826 16.2159 17.4997 16.2159 17.6878C16.2159 17.887 16.0514 17.9035 15.8696 17.7225ZM16.7395 16.8792C16.5966 16.7505 16.5802 16.5745 16.6966 16.4176C16.7641 16.3266 16.8072 16.3412 16.9743 16.5114C17.2146 16.7562 17.2363 16.9921 17.0184 16.9921C16.9339 16.9921 16.8084 16.9413 16.7395 16.8792ZM17.4555 16.3298C17.3154 16.1495 17.2975 15.9308 17.4097 15.7713C17.4751 15.6784 17.5083 15.684 17.6501 15.8115C17.7406 15.8928 17.8362 16.0786 17.8624 16.2244C17.9045 16.4585 17.8908 16.4894 17.7448 16.4894C17.6539 16.4894 17.5237 16.4176 17.4555 16.3298ZM12.4157 15.622C12.4464 15.5161 12.4177 15.4067 12.3386 15.328C12.2504 15.2402 12.23 15.1425 12.2705 15.0022C12.3023 14.892 12.3389 14.5822 12.3519 14.3138C12.3852 13.6256 12.6618 13.1629 13.3917 12.5742C14.0339 12.0562 14.2368 11.9653 14.7495 11.9653C15.4436 11.9653 16.1475 12.4529 17.1852 13.6528C17.8437 14.4144 18.126 14.8092 18.1774 15.0411C18.2333 15.2928 18.0842 15.412 18.0038 15.1799C17.9728 15.0904 17.9248 15.0011 17.8972 14.9814C17.8696 14.9616 17.7275 14.7354 17.5814 14.4787C17.4353 14.222 17.2521 13.9472 17.1742 13.8683C17.0963 13.7893 16.991 13.6519 16.9402 13.563C16.8781 13.4546 16.7754 13.4015 16.6277 13.4015C16.4747 13.4015 16.3115 13.3121 16.0926 13.1081C15.7037 12.746 15.3407 12.5726 14.7794 12.4806C14.2896 12.4004 13.9839 12.4991 13.4745 12.9022C12.8772 13.3749 12.6435 13.9546 12.6098 15.0474C12.5943 15.5492 12.5603 15.7324 12.4779 15.7572C12.3958 15.7818 12.3795 15.7465 12.4157 15.622ZM17.2518 15.5559C17.2518 15.5163 17.2876 15.484 17.3315 15.484C17.3753 15.484 17.4111 15.5163 17.4111 15.5559C17.4111 15.5953 17.3753 15.6277 17.3315 15.6277C17.2876 15.6277 17.2518 15.5953 17.2518 15.5559ZM12.813 36.2041C12.7342 36.1066 12.6367 36.0258 12.5962 36.0245C12.5557 36.0233 12.6067 36.1031 12.7097 36.2018C12.9486 36.431 12.9971 36.4321 12.813 36.2041ZM40.8676 31.6059C40.8928 31.5466 40.8787 31.4981 40.8363 31.4981C40.7938 31.4981 40.7591 31.5466 40.7591 31.6059C40.7591 31.6651 40.7732 31.7136 40.7904 31.7136C40.8076 31.7136 40.8424 31.6651 40.8676 31.6059ZM36.7805 14.1099C36.8506 13.9919 36.8867 13.9786 36.9371 14.0521C36.9902 14.1294 37.0558 14.1218 37.2818 14.0122C37.5192 13.8969 37.5933 13.89 37.7782 13.9659C37.9474 14.0354 38.0086 14.036 38.0549 13.9685C38.1858 13.7776 38.5525 11.5977 38.5248 11.1753C38.5209 11.116 38.5214 10.9095 38.5261 10.7162C38.5364 10.2839 38.4155 9.72808 38.1572 9.02096C37.9874 8.55586 37.8986 8.43077 37.5071 8.10447C36.9876 7.67154 36.725 7.58566 35.919 7.58511C35.2309 7.5846 34.7835 7.72229 33.9476 8.19182C33.32 8.54437 32.0007 9.72652 31.5842 10.3096C31.2699 10.7496 31.2888 10.8943 31.6815 11.0575C31.8582 11.131 32.0128 11.1794 32.0251 11.1652C32.0374 11.151 32.1767 10.9617 32.3347 10.7444C32.8533 10.0313 33.9957 9.15962 34.6367 8.98812C35.5048 8.75576 36.3998 8.91069 36.9816 9.39396C37.1746 9.55434 37.3326 9.74735 37.3326 9.82292C37.3326 9.89848 37.405 10.0486 37.4935 10.1564C37.7042 10.4133 37.8366 11.1579 37.7819 11.7789C37.7353 12.3082 37.6385 12.4851 37.476 12.3386C37.4015 12.2715 37.4044 12.1926 37.4891 11.9831C37.6212 11.6564 37.6023 11.1097 37.4538 10.9609C37.3942 10.9011 37.2511 10.6261 37.136 10.3498C36.8068 9.56013 36.3558 9.23636 35.5847 9.23636C34.6475 9.23636 33.2597 10.2034 32.4425 11.4259C32.2877 11.6575 32.1803 11.8752 32.2039 11.9096C32.2276 11.944 32.648 12.1427 33.1383 12.3511C34.2837 12.838 34.9758 13.2042 35.8592 13.7909C36.2503 14.0507 36.5971 14.2632 36.6299 14.2632C36.6627 14.2632 36.7305 14.1942 36.7805 14.1099ZM37.1085 13.2766C37.1485 13.0894 37.4123 13.0685 37.4123 13.2526C37.4123 13.3554 37.3611 13.4015 37.2471 13.4015C37.133 13.4015 37.0901 13.3628 37.1085 13.2766ZM44.7956 20.0923C44.723 20.0201 44.6636 19.8989 44.6636 19.823C44.6636 19.6854 44.0775 19.1805 43.7158 19.0066C43.5847 18.9435 43.2865 18.9242 42.7631 18.9448C42.0551 18.9727 42.0203 18.9678 42.2708 18.8757C42.4689 18.8029 42.7153 18.7897 43.2006 18.8262C43.7625 18.8683 43.9228 18.9117 44.277 19.1174C44.9719 19.5208 45.3788 20.0178 45.1304 20.1597C44.9776 20.2469 44.9441 20.2402 44.7956 20.0923Z" fill="white"/>
<path d="M76.1525 7.3023C75.5033 8.25101 74.7544 15.1916 74.8542 18.9864C74.9541 23.7299 76.0027 29.5221 77.1511 31.3695C78.0998 32.9674 79.448 33.7164 82.2941 34.1657C87.6368 35.0146 90.1834 29.0227 89.2347 17.7381C88.6355 11.2469 87.9364 8.35087 86.8379 8.00135C86.2387 7.80162 86.1888 8.65046 86.4385 13.2941C86.8379 19.8852 86.0889 27.1253 84.8906 28.823C83.4925 30.7704 81.9446 31.07 80.5465 29.6719C78.5492 27.6746 77.7004 23.8797 77.4507 15.641C77.201 8.50067 76.8515 6.15386 76.1525 7.3023Z" fill="white"/>
<path d="M99.5205 14.3427C97.3235 15.2415 95.2763 18.9864 95.2763 22.0822C95.2763 23.7299 97.6731 27.4249 99.92 29.3223C100.469 29.7717 100.769 30.7703 100.769 32.2184C100.769 34.1158 100.519 34.715 99.1211 36.1131C96.3748 38.8593 93.7284 39.0091 90.8823 36.6124C89.0847 35.1144 88.7852 35.0645 88.7852 36.4127C88.7852 37.9106 91.8809 40.8566 93.6286 40.9565C97.5233 41.1562 100.719 39.7581 102.866 36.862C105.213 33.6664 104.614 29.3223 101.418 25.9769C99.171 23.68 97.7729 21.2333 97.7729 19.6355C97.7729 19.1861 98.3222 18.2873 99.0212 17.6382C100.419 16.1902 103.265 15.9405 104.264 17.1389C104.614 17.5383 105.063 17.8879 105.313 17.8879C106.211 17.8879 105.712 16.5397 104.364 15.2415C102.966 13.8933 101.368 13.5937 99.5205 14.3427Z" fill="white"/>
<path d="M63.07 17.2388C59.6747 17.4885 55.3306 18.3872 55.3306 18.8366C55.3306 19.0364 58.3764 19.1362 62.1213 19.0863L68.8622 18.9365L62.7205 25.3278C55.73 32.5679 53.9824 35.1644 55.031 36.6124C55.6801 37.5112 55.9298 37.5112 61.8717 36.7123C67.2144 36.0133 72.4073 34.9647 74.7541 34.1158C75.3034 33.9161 75.3034 33.7164 74.7541 33.0673C74.105 32.2684 72.8068 32.3183 66.8149 33.1172C66.1159 33.2171 64.2185 33.4667 62.5707 33.6665C59.1254 34.0659 58.7759 34.8149 65.0174 27.6247C71.1091 20.6342 71.159 20.5843 72.0578 19.2361C72.5072 18.537 72.7569 17.6882 72.5571 17.3886C72.2575 16.9392 68.7124 16.8393 63.07 17.2388Z" fill="white"/>
<path d="M131.102 10.7476C129.105 13.5438 123.713 24.2792 122.314 28.2737C121.016 31.9687 121.815 32.7676 123.713 29.7218C124.462 28.4735 125.51 26.7758 125.959 25.9269C126.908 24.1793 127.857 24.0295 131.352 25.0781L133.599 25.7272L133.949 31.8688C134.298 38.4099 134.897 40.0078 135.946 37.5611C136.845 35.4639 136.945 19.7853 136.096 14.2428C135.097 7.65179 133.949 6.90281 131.102 10.7476ZM133.349 16.9891C133.399 18.4371 133.499 20.5343 133.649 21.5828C133.899 23.3305 133.849 23.4803 133.05 23.1807C132.551 22.9809 131.202 22.6813 130.054 22.5315C128.107 22.2819 128.007 22.182 128.556 21.1834C130.104 18.2873 132.65 14.3926 132.95 14.3926C133.2 14.3926 133.349 15.591 133.349 16.9891Z" fill="white"/>
<path d="M159.164 10.7476C158.964 10.8974 158.815 12.5452 158.815 14.3427C158.815 16.1403 158.465 20.3346 158.066 23.6301C156.917 33.3169 157.067 33.8162 160.862 32.0686C163.259 31.02 165.056 29.0228 166.604 25.6274C168.801 20.9338 168.002 16.9392 164.008 13.0445C161.461 10.5978 160.013 9.89879 159.164 10.7476ZM163.109 15.3913C164.657 17.7381 165.156 21.0336 164.307 23.6301C163.708 25.3777 161.112 28.873 160.363 28.873C160.163 28.873 160.163 27.6746 160.363 26.2266C160.562 24.8285 160.762 21.3332 160.762 18.4871C160.812 15.4912 161.012 13.394 161.311 13.394C161.561 13.394 162.41 14.2928 163.109 15.3913Z" fill="white"/>
<path d="M109.182 11.8961C106.236 12.0459 104.639 12.3455 104.489 12.745C104.239 13.5938 106.486 14.3927 109.082 14.3927C111.13 14.3927 111.279 14.4926 111.579 15.9406C111.729 16.7895 111.879 19.336 111.879 21.5829C111.879 29.1726 113.976 38.9593 115.374 38.1105C115.773 37.8608 115.823 34.3655 115.574 26.3265L115.224 14.892H118.769C122.914 14.892 123.862 14.5925 123.862 13.3442C123.862 11.3469 122.165 11.1471 109.182 11.8961Z" fill="white"/>
<path d="M152.374 12.0458C152.074 12.4453 151.774 14.5424 151.724 16.7894C151.675 19.0363 151.475 20.8838 151.275 20.8838C151.075 20.8838 149.228 19.1861 147.131 17.089C142.038 12.0458 141.688 12.1457 141.239 18.8865C140.789 24.8784 141.289 32.9674 142.138 33.217C142.886 33.4667 143.186 31.5193 143.635 24.4789C143.835 21.4331 144.135 18.8865 144.335 18.8865C144.534 18.8865 146.232 20.5343 148.129 22.5316C152.224 26.8257 152.623 27.1253 153.572 26.3763C154.621 25.5275 154.67 12.7948 153.622 11.946C153.123 11.5465 152.823 11.5465 152.374 12.0458Z" fill="white"/>
</svg>
