<svg width="24" height="24" viewBox="0 0 24 24" fill="none" xmlns="http://www.w3.org/2000/svg">
<path d="M24 0H0V24H24V0Z" fill="white" fill-opacity="0.01"/>
<path fill-rule="evenodd" clip-rule="evenodd" d="M1.80791 7.00041C3.41035 3.92631 6.74225 2.15851 10.1862 2.55517C13.3678 2.92161 16.0363 5.06529 17.1037 8.03725L17.5256 8.03725C19.855 8.03572 22.1831 9.26687 22.9534 11.698C23.6919 14.0289 22.8343 16.5696 20.8341 17.9761C20.3824 18.2937 19.7586 18.185 19.4409 17.7333C19.1232 17.2815 19.2319 16.6577 19.6837 16.34C20.9702 15.4354 21.5218 13.8013 21.0468 12.302C20.6036 10.9032 19.2152 10.0359 17.5271 10.0372L16.3659 10.0372C15.9093 10.0372 15.5107 9.72802 15.3972 9.28579C14.7416 6.73045 12.5782 4.84389 9.95734 4.54203C7.33648 4.24017 4.80089 5.58548 3.58142 7.92489C2.36196 10.2643 2.71115 13.1134 4.45947 15.089C4.82547 15.5026 4.78689 16.1346 4.37329 16.5006C3.9597 16.8666 3.32771 16.828 2.96171 16.4145C0.664331 13.8183 0.205479 10.0745 1.80791 7.00041Z"/>
<path d="M13 11.4995C12.9997 10.9472 12.5518 10.4997 11.9995 10.5C11.4472 10.5003 10.9997 10.9482 11 11.5005L11.0031 18.089L9.52498 16.6109C9.13445 16.2204 8.50129 16.2204 8.11076 16.6109C7.72024 17.0014 7.72024 17.6346 8.11076 18.0251L11.2928 21.2071C11.4885 21.4029 11.7453 21.5005 12.0019 21.5L12.0047 21.5C12.3089 21.4999 12.5813 21.3639 12.7646 21.1495L15.889 18.0251C16.2795 17.6346 16.2795 17.0014 15.889 16.6109C15.4985 16.2204 14.8653 16.2204 14.4748 16.6109L13.0031 18.0826L13 11.4995Z" />
</svg>
