<svg width="16" height="16" viewBox="0 0 16 16" xmlns="http://www.w3.org/2000/svg">
<path d="M16 0H0V16H16V0Z" fill="white" fill-opacity="0.01"/>
<path d="M10.7071 3.29289C10.3166 2.90237 9.68342 2.90237 9.29289 3.29289C8.90237 3.68342 8.90237 4.31658 9.29289 4.70711L11.5858 7H2C1.44772 7 1 7.44772 1 8C1 8.55228 1.44772 9 2 9H11.5858L9.29289 11.2929C8.90237 11.6834 8.90237 12.3166 9.29289 12.7071C9.68342 13.0976 10.3166 13.0976 10.7071 12.7071L14.7071 8.70711C14.8053 8.60894 14.8788 8.49544 14.9276 8.37432C14.9703 8.26867 14.9954 8.15407 14.9994 8.03411C15.0002 8.01138 15.0002 7.98862 14.9994 7.96589C14.9954 7.84593 14.9703 7.73133 14.9276 7.62568C14.8788 7.50456 14.8053 7.39106 14.7071 7.29289L10.7071 3.29289Z" />
</svg>
