<svg width="16" height="16" viewBox="0 0 16 16" xmlns="http://www.w3.org/2000/svg">
<path d="M0 0H16V16H0V0Z" fill="white" fill-opacity="0.01"/>
<path d="M5.29289 3.29289C5.68342 2.90237 6.31658 2.90237 6.70711 3.29289C7.09763 3.68342 7.09763 4.31658 6.70711 4.70711L4.41421 7H14C14.5523 7 15 7.44772 15 8C15 8.55228 14.5523 9 14 9H4.41421L6.70711 11.2929C7.09763 11.6834 7.09763 12.3166 6.70711 12.7071C6.31658 13.0976 5.68342 13.0976 5.29289 12.7071L1.29289 8.70711C1.19473 8.60894 1.12124 8.49544 1.07242 8.37432C1.02975 8.26867 1.0046 8.15407 1.00058 8.03411C0.999807 8.01138 0.999807 7.98862 1.00058 7.96589C1.0046 7.84593 1.02975 7.73133 1.07242 7.62568C1.12124 7.50456 1.19473 7.39106 1.29289 7.29289L5.29289 3.29289Z" />
</svg>
